<svg width="568" height="320" viewBox="0 0 568 320" fill="none" xmlns="http://www.w3.org/2000/svg">
<g clip-path="url(#clip0_4_3)">
<rect width="320" height="568" transform="matrix(0 1 -1 0 568 0)" fill="#72D5FF"/>
<path d="M565.831 43.3397C567.5 38.3995 567.222 33.0089 565.056 28.266C562.889 23.5232 558.995 19.7847 554.168 17.8121C549.341 15.8395 543.944 15.7812 539.076 17.6491C534.207 19.5169 530.234 23.1704 527.965 27.8654C525.893 26.6947 523.582 26.0101 521.207 25.8633C518.831 25.7164 516.454 26.1111 514.253 27.0176C512.053 27.9241 510.087 29.3186 508.504 31.096C506.921 32.8733 505.763 34.987 505.117 37.2774C502.286 36.4986 499.321 36.3343 496.422 36.7957C493.522 37.257 490.755 38.3333 488.305 39.9522C485.856 41.5711 483.781 43.6952 482.22 46.182C480.659 48.6688 479.648 51.4607 479.255 54.3704C478.862 57.28 479.096 60.2401 479.941 63.0519C480.787 65.8637 482.223 68.4622 484.156 70.673C486.088 72.8837 488.47 74.6556 491.144 75.8698C493.817 77.0839 496.719 77.7121 499.655 77.7123H563.674C568.063 77.7131 572.288 76.0409 575.488 73.0362C578.688 70.0314 580.622 65.9201 580.897 61.5392C581.172 57.1584 579.767 52.8375 576.968 49.4562C574.169 46.075 570.186 43.8877 565.831 43.3397Z" fill="white"/>
<path d="M252.831 32.3397C254.5 27.3995 254.222 22.0089 252.056 17.266C249.889 12.5232 245.995 8.7847 241.168 6.81212C236.341 4.83954 230.944 4.78124 226.076 6.64907C221.207 8.51691 217.234 12.1704 214.965 16.8654C212.893 15.6947 210.582 15.0101 208.207 14.8633C205.831 14.7164 203.454 15.1111 201.253 16.0176C199.053 16.9241 197.087 18.3186 195.504 20.096C193.921 21.8733 192.763 23.987 192.117 26.2774C189.286 25.4986 186.321 25.3343 183.422 25.7957C180.522 26.257 177.755 27.3333 175.305 28.9522C172.856 30.5711 170.781 32.6952 169.22 35.182C167.659 37.6688 166.648 40.4607 166.255 43.3704C165.862 46.28 166.096 49.2401 166.941 52.0519C167.787 54.8637 169.223 57.4622 171.156 59.673C173.088 61.8837 175.47 63.6556 178.144 64.8698C180.817 66.0839 183.719 66.7121 186.655 66.7123H250.674C255.063 66.7131 259.288 65.0409 262.488 62.0362C265.688 59.0314 267.622 54.9201 267.897 50.5392C268.172 46.1584 266.767 41.8375 263.968 38.4562C261.169 35.075 257.186 32.8877 252.831 32.3397Z" fill="white"/>
<path d="M385.831 57.3397C387.5 52.3995 387.222 47.0089 385.056 42.266C382.889 37.5231 378.995 33.7847 374.168 31.8121C369.341 29.8395 363.944 29.7812 359.076 31.6491C354.207 33.5169 350.234 37.1704 347.965 41.8653C345.893 40.6947 343.582 40.0101 341.207 39.8633C338.831 39.7164 336.454 40.1111 334.253 41.0176C332.053 41.9241 330.087 43.3186 328.504 45.0959C326.921 46.8733 325.763 48.987 325.117 51.2774C322.286 50.4986 319.321 50.3343 316.422 50.7957C313.522 51.257 310.755 52.3332 308.305 53.9522C305.856 55.5711 303.781 57.6952 302.22 60.182C300.659 62.6688 299.648 65.4607 299.255 68.3704C298.862 71.28 299.096 74.2401 299.941 77.0519C300.787 79.8637 302.223 82.4622 304.156 84.673C306.088 86.8837 308.47 88.6556 311.144 89.8697C313.817 91.0839 316.719 91.7121 319.655 91.7123H383.674C388.063 91.7131 392.288 90.0409 395.488 87.0362C398.688 84.0314 400.622 79.9201 400.897 75.5392C401.172 71.1584 399.767 66.8374 396.968 63.4562C394.169 60.075 390.186 57.8877 385.831 57.3397Z" fill="white"/>
<path d="M-1 213C136.706 144.836 212.071 173.372 346.803 213H568V320H-1V213Z" fill="#9FE038"/>
<path d="M349 213.5H569V320.5H230.5C443.38 302.296 594.722 293.575 519.5 262C461.215 233.967 425.043 222.078 349 213.5Z" fill="#90CC33"/>
<path d="M248.192 217.449C207.392 184.249 177.525 205.949 167.692 220.949C159.549 249.366 225.692 253.449 240.192 253.449C254.692 253.449 288.992 250.649 248.192 217.449Z" fill="#90CC33"/>
<path d="M529.323 126.34V201.936H562.726V150.953L529.323 126.34Z" fill="url(#paint0_linear_4_3)"/>
<path d="M506.468 52.5009L444.936 10.3074L383.403 52.5009L360.548 103.485V201.936H529.323V103.485L506.468 52.5009Z" fill="url(#paint1_linear_4_3)"/>
<path d="M444.935 10.3074L506.468 52.5114L529.323 103.495C532.839 106.809 539.871 105.282 539.871 99.9792L515.258 45.4792L450.21 -0.241036C446.748 -2.60212 442.792 -2.57047 439.661 -0.241036L374.613 45.4686L350 99.9686C350 105.271 357.032 106.799 360.548 103.485L383.403 52.5009L444.935 10.3074Z" fill="url(#paint2_linear_4_3)"/>
<path d="M393.952 170.291H372.855C371.922 170.291 371.028 169.921 370.369 169.261C369.709 168.602 369.339 167.708 369.339 166.775V136.888C369.339 135.955 369.709 135.061 370.369 134.402C371.028 133.742 371.922 133.372 372.855 133.372H393.952C394.884 133.372 395.778 133.742 396.438 134.402C397.097 135.061 397.468 135.955 397.468 136.888V166.775C397.468 167.708 397.097 168.602 396.438 169.261C395.778 169.921 394.884 170.291 393.952 170.291Z" fill="url(#paint3_linear_4_3)"/>
<path d="M393.952 131.614H372.855C369.947 131.614 367.581 133.98 367.581 136.888V166.775C367.581 169.683 369.947 172.049 372.855 172.049H393.952C396.859 172.049 399.226 169.683 399.226 166.775V136.888C399.226 133.978 396.859 131.614 393.952 131.614ZM395.71 136.888V143.92H385.161V135.13H393.952C394.418 135.13 394.865 135.315 395.195 135.645C395.524 135.975 395.71 136.422 395.71 136.888ZM385.161 147.436H395.71V156.227H385.161V147.436ZM381.645 156.227H371.097V147.436H381.645V156.227ZM372.855 135.13H381.645V143.92H371.097V136.888C371.097 136.422 371.282 135.975 371.612 135.645C371.941 135.315 372.389 135.13 372.855 135.13ZM371.097 166.775V159.743H381.645V168.533H372.855C371.884 168.533 371.097 167.744 371.097 166.775ZM393.952 168.533H385.161V159.743H395.71V166.775C395.71 167.744 394.922 168.533 393.952 168.533Z" fill="url(#paint4_linear_4_3)"/>
<path d="M517.016 170.291H495.919C494.987 170.291 494.092 169.921 493.433 169.261C492.774 168.602 492.403 167.708 492.403 166.775V136.888C492.403 135.955 492.774 135.061 493.433 134.402C494.092 133.742 494.987 133.372 495.919 133.372H517.016C517.949 133.372 518.843 133.742 519.502 134.402C520.162 135.061 520.532 135.955 520.532 136.888V166.775C520.532 167.708 520.162 168.602 519.502 169.261C518.843 169.921 517.949 170.291 517.016 170.291Z" fill="url(#paint5_linear_4_3)"/>
<path d="M517.016 131.614H495.919C493.011 131.614 490.645 133.98 490.645 136.888V166.775C490.645 169.683 493.011 172.049 495.919 172.049H517.016C519.924 172.049 522.29 169.683 522.29 166.775V136.888C522.29 133.978 519.924 131.614 517.016 131.614ZM518.774 136.888V143.92H508.226V135.13H517.016C517.482 135.13 517.93 135.315 518.259 135.645C518.589 135.975 518.774 136.422 518.774 136.888ZM508.226 147.436H518.774V156.227H508.226V147.436ZM504.71 156.227H494.161V147.436H504.71V156.227ZM495.919 135.13H504.71V143.92H494.161V136.888C494.161 136.422 494.346 135.975 494.676 135.645C495.006 135.315 495.453 135.13 495.919 135.13ZM494.161 166.775V159.743H504.71V168.533H495.919C494.949 168.533 494.161 167.744 494.161 166.775ZM517.016 168.533H508.226V159.743H518.774V166.775C518.774 167.744 517.987 168.533 517.016 168.533Z" fill="url(#paint6_linear_4_3)"/>
<path d="M483.613 201.936H406.258V126.34C406.258 124.008 407.184 121.772 408.833 120.124C410.481 118.475 412.717 117.549 415.048 117.549H474.823C477.154 117.549 479.39 118.475 481.038 120.124C482.687 121.772 483.613 124.008 483.613 126.34V201.936Z" fill="url(#paint7_linear_4_3)"/>
<path d="M413.29 124.582H476.581V201.936H413.29V124.582Z" fill="url(#paint8_linear_4_3)"/>
<path d="M418.565 201.936L476.581 129.856V124.582H471.306L413.29 196.662V201.936H418.565Z" fill="url(#paint9_linear_4_3)"/>
<path d="M471.306 201.936L413.29 129.856V124.582H418.565L476.581 196.662V201.936H471.306Z" fill="url(#paint10_linear_4_3)"/>
<path d="M444.935 20.8557L416.806 40.1945V87.6622H473.065V40.1945L444.935 20.8557Z" fill="url(#paint11_linear_4_3)"/>
<path d="M473.065 89.4202C472.65 89.4208 472.248 89.2744 471.931 89.0071L415.673 41.5394C415.496 41.3904 415.351 41.2082 415.244 41.0031C415.138 40.798 415.074 40.574 415.054 40.3439C415.035 40.1138 415.061 39.8821 415.131 39.662C415.201 39.442 415.314 39.2379 415.462 39.0614C415.611 38.8849 415.794 38.7394 415.999 38.6333C416.204 38.5273 416.428 38.4626 416.658 38.4431C416.888 38.4236 417.12 38.4496 417.34 38.5196C417.56 38.5897 417.764 38.7024 417.94 38.8513L474.198 86.319C474.474 86.5515 474.671 86.8629 474.763 87.2111C474.856 87.5593 474.839 87.9276 474.715 88.2659C474.592 88.6043 474.367 88.8965 474.072 89.1029C473.776 89.3094 473.425 89.4202 473.065 89.4202Z" fill="url(#paint12_linear_4_3)"/>
<path d="M416.806 89.4202C416.446 89.4215 416.093 89.3116 415.797 89.1054C415.501 88.8992 415.275 88.6068 415.151 88.2679C415.027 87.929 415.01 87.5601 415.103 87.2114C415.196 86.8627 415.394 86.5511 415.671 86.319L471.929 38.8513C472.285 38.5505 472.747 38.4037 473.211 38.4431C473.676 38.4825 474.106 38.7049 474.407 39.0614C474.708 39.4178 474.854 39.8792 474.815 40.3439C474.776 40.8086 474.553 41.2386 474.197 41.5394L417.939 89.0071C417.622 89.2747 417.221 89.4211 416.806 89.4202Z" fill="url(#paint13_linear_4_3)"/>
<path d="M473.065 41.9525H416.806C416.34 41.9525 415.893 41.7673 415.563 41.4376C415.234 41.1079 415.048 40.6607 415.048 40.1944C415.048 39.7282 415.234 39.281 415.563 38.9513C415.893 38.6216 416.34 38.4364 416.806 38.4364H473.065C473.531 38.4364 473.978 38.6216 474.308 38.9513C474.637 39.281 474.823 39.7282 474.823 40.1944C474.823 40.6607 474.637 41.1079 474.308 41.4376C473.978 41.7673 473.531 41.9525 473.065 41.9525Z" fill="url(#paint14_linear_4_3)"/>
<path d="M473.065 41.9525H416.806C416.34 41.9525 415.893 41.7673 415.563 41.4376C415.234 41.1079 415.048 40.6607 415.048 40.1944C415.048 39.7282 415.234 39.281 415.563 38.9513C415.893 38.6216 416.34 38.4364 416.806 38.4364H473.065C473.531 38.4364 473.978 38.6216 474.308 38.9513C474.637 39.281 474.823 39.7282 474.823 40.1944C474.823 40.6607 474.637 41.1079 474.308 41.4376C473.978 41.7673 473.531 41.9525 473.065 41.9525Z" fill="url(#paint15_linear_4_3)"/>
<path d="M473.065 89.4203H416.806C416.34 89.4203 415.893 89.235 415.563 88.9053C415.234 88.5756 415.048 88.1285 415.048 87.6622V40.1945C415.048 39.6161 415.333 39.0728 415.811 38.7458L443.94 19.4071C444.234 19.2061 444.581 19.0985 444.936 19.0985C445.292 19.0985 445.639 19.2061 445.932 19.4071L474.061 38.7458C474.296 38.9075 474.488 39.1238 474.621 39.3762C474.753 39.6285 474.823 39.9094 474.823 40.1945V87.6622C474.823 88.1285 474.637 88.5756 474.308 88.9053C473.978 89.235 473.531 89.4203 473.065 89.4203ZM418.565 85.9041H471.306V41.1192L444.935 22.99L418.565 41.1192V85.9041Z" fill="url(#paint16_linear_4_3)"/>
<path d="M564.484 214.243H353.516C352.584 214.243 351.689 213.872 351.03 213.213C350.37 212.554 350 211.659 350 210.727V205.453C350 204.52 350.37 203.626 351.03 202.966C351.689 202.307 352.584 201.936 353.516 201.936H564.484C565.416 201.936 566.311 202.307 566.97 202.966C567.63 203.626 568 204.52 568 205.453V210.727C568 211.659 568.659 213.583 568 214.243C567.341 214.902 565.416 214.243 564.484 214.243Z" fill="url(#paint17_linear_4_3)"/>
<path d="M562.726 154.469L529.323 131.614V117.549L564.484 142.162C570.526 144.982 568 154.469 562.726 154.469Z" fill="url(#paint18_linear_4_3)"/>
<path d="M362.51 225.25L379 225.77L369.69 214.2C368.164 209.838 366.809 205.418 365.63 200.95C364.8 197.78 363.93 193.7 363.31 190.74C363.68 190.79 364.05 190.83 364.42 190.87C362.95 188.07 360.79 183.48 359.21 177.49C357.26 170.08 357.76 166.55 355.7 160.15C354.63 156.85 352.62 151.99 348.52 146.53C348.434 143.924 347.717 141.378 346.43 139.11C345.61 137.66 344.65 136.51 343.76 135.63C342.23 134.14 340.77 132.59 339.41 130.93C337.44 128.51 334.29 125.46 329.68 123.28C324.26 120.71 319.33 120.53 316.75 120.62C316.99 120.33 317.36 119.8 317.58 119.05C317.83 118.15 317.74 117.39 317.66 117C317.01 117.35 316.01 117.87 314.75 118.44C309.53 120.8 305.85 121.24 303.69 121.88C301.36 122.58 298.4 124.24 295.37 128.35C293.7 130.61 291.81 132.69 289.77 134.61C288.71 135.61 287.6 136.94 286.7 138.66C285.02 141.88 284.9 144.86 284.94 146.29C283.23 147.92 280.81 150.54 278.76 154.27C274.09 162.75 275.69 169.02 271.99 180.96C271.09 183.87 269.73 187.58 267.63 191.75L270.69 190.79C270.07 193.75 269.2 197.78 268.37 200.95C267.191 205.418 265.836 209.838 264.31 214.2L255 225.77L271.49 225.25L268.83 229.83C271.658 229.159 274.261 227.759 276.38 225.77C276.88 226.69 277.39 227.71 277.87 228.84C278.32 229.89 278.68 230.89 278.99 231.82C279.51 231.61 280.26 231.24 281.02 230.59C281.57 230.1 281.97 229.6 282.24 229.2C284.175 230.914 285.737 233.007 286.83 235.35C287.35 234.73 288.01 233.79 288.52 232.53C288.95 231.49 289.14 230.55 289.24 229.83C290.07 230.37 291.13 231.18 292.17 232.36C293.06 233.37 293.69 234.36 294.12 235.16C294.66 234.89 295.56 234.36 296.38 233.4C297.16 232.49 297.54 231.57 297.73 231C298.17 231.58 298.74 232.45 299.15 233.62C299.6 234.87 299.71 235.98 299.72 236.73C300.5 236.6 301.91 236.27 303.36 235.26C304.575 234.41 305.56 233.273 306.23 231.95C306.38 232.56 306.52 233.3 306.57 234.17C306.62 234.97 306.59 235.68 306.52 236.27C307.36 236.03 308.66 235.56 310 234.58C311.3 233.63 312.12 232.59 312.61 231.88L316.69 235.98L320.76 231.88C321.33 232.58 322.1 233.41 323.13 234.23C324.12 235.02 325.08 235.58 325.86 235.98C325.899 234.556 326.247 233.157 326.88 231.88C327.74 232.89 329 234.15 330.75 235.3C331.93 236.08 333.06 236.62 334.02 237C334.06 236.2 334.19 235.15 334.56 233.97C334.99 232.62 335.58 231.57 336.06 230.85C336.32 231.52 336.75 232.43 337.49 233.36C338.06 234.06 338.64 234.58 339.12 234.95C339.64 234.17 340.31 233.28 341.18 232.38C342.25 231.26 343.32 230.43 344.22 229.83C344.68 230.42 345.32 231.39 345.76 232.7C346.21 234.04 346.27 235.21 346.26 235.98C348.607 234.566 350.404 232.398 351.36 229.83C351.83 229.98 352.47 230.25 353.14 230.72C353.7 231.11 354.12 231.53 354.42 231.88C354.96 231.27 355.59 230.46 356.15 229.41C356.776 228.257 357.225 227.017 357.48 225.73C357.88 226.55 358.75 228.07 360.45 229.32C361.396 230.022 362.464 230.541 363.6 230.85C363.3 229.83 363.03 228.71 362.81 227.47C362.68 226.69 362.58 225.95 362.51 225.25Z" fill="#D6B85A"/>
<path d="M369.69 214.2L379 225.77L362.51 225.25C361.795 218.814 361.967 212.31 363.02 205.92L369.69 214.2ZM271.88 214.95C272.02 218.8 271.82 222.26 271.49 225.25L255 225.77L264.31 214.2L270.98 205.92C271.42 208.57 271.76 211.61 271.88 214.95ZM318.91 211.36L320.76 231.88L316.69 235.98L312.61 231.88L314.46 211.36C314.499 210.947 314.653 210.552 314.903 210.221C315.153 209.89 315.491 209.635 315.878 209.484C316.265 209.334 316.686 209.294 317.094 209.369C317.503 209.444 317.882 209.632 318.19 209.91C318.59 210.28 318.86 210.78 318.91 211.36Z" fill="#604533"/>
<path d="M271.49 225.25L268.83 229.83C271.658 229.159 274.261 227.759 276.38 225.77C276.88 226.69 277.39 227.71 277.87 228.84C278.32 229.89 278.68 230.89 278.99 231.82C279.51 231.61 280.26 231.24 281.02 230.59C281.57 230.1 281.97 229.6 282.24 229.2C284.175 230.914 285.737 233.007 286.83 235.35C287.35 234.73 288.01 233.79 288.52 232.53C288.95 231.49 289.14 230.55 289.24 229.83C290.07 230.37 291.13 231.18 292.17 232.36C293.06 233.37 293.69 234.36 294.12 235.16C294.66 234.89 295.56 234.36 296.38 233.4C297.16 232.49 297.54 231.57 297.73 231C298.17 231.58 298.74 232.45 299.15 233.62C299.6 234.87 299.71 235.98 299.72 236.73C300.5 236.6 301.91 236.27 303.36 235.26C304.575 234.41 305.56 233.273 306.23 231.95C306.38 232.56 306.52 233.3 306.57 234.17C306.62 234.97 306.59 235.68 306.52 236.27C307.36 236.03 308.66 235.56 310 234.58C311.3 233.63 312.12 232.59 312.61 231.88L313.29 224.37C302.95 223.84 289.48 221.88 271.93 217.76C271.92 220.51 271.74 223.01 271.49 225.25ZM362.51 225.25C361.795 218.814 361.967 212.31 363.02 205.92L369.69 214.2C368.164 209.838 366.809 205.418 365.63 200.95C364.8 197.78 363.93 193.7 363.31 190.74C363.68 190.79 364.05 190.83 364.42 190.87C362.95 188.07 360.79 183.48 359.21 177.49C357.26 170.08 357.76 166.55 355.7 160.15C354.63 156.85 352.62 151.99 348.52 146.53C348.434 143.924 347.717 141.378 346.43 139.11C345.61 137.66 344.65 136.51 343.76 135.63C342.23 134.14 340.77 132.59 339.41 130.93C337.44 128.51 334.29 125.46 329.68 123.28C324.26 120.71 319.33 120.53 316.75 120.62C316.75 120.62 331.03 131.78 335.17 152.89C335.49 154.55 335.75 156.28 335.94 158.06C337.47 172.63 340.71 186.83 343.09 195.92C344.7 202.1 345.92 205.92 345.92 205.92C345.92 205.92 353.14 224.04 320.09 224.5L320.76 231.88C321.33 232.58 322.1 233.41 323.13 234.23C324.12 235.02 325.08 235.58 325.86 235.98C325.899 234.556 326.247 233.157 326.88 231.88C327.74 232.89 329 234.15 330.75 235.3C331.93 236.08 333.06 236.62 334.02 237C334.06 236.2 334.19 235.15 334.56 233.97C334.99 232.62 335.58 231.57 336.06 230.85C336.32 231.52 336.75 232.43 337.49 233.36C338.06 234.06 338.64 234.58 339.12 234.95C339.64 234.17 340.31 233.28 341.18 232.38C342.25 231.26 343.32 230.43 344.22 229.83C344.68 230.42 345.32 231.39 345.76 232.7C346.21 234.04 346.27 235.21 346.26 235.98C348.607 234.566 350.404 232.398 351.36 229.83C351.83 229.98 352.47 230.25 353.14 230.72C353.7 231.11 354.12 231.53 354.42 231.88C354.96 231.27 355.59 230.46 356.15 229.41C356.776 228.257 357.225 227.017 357.48 225.73C357.88 226.55 358.75 228.07 360.45 229.32C361.395 230.022 362.464 230.541 363.6 230.85C363.3 229.83 363.03 228.71 362.81 227.47C362.68 226.69 362.58 225.95 362.51 225.25Z" fill="#C4A857"/>
<path d="M291.004 194.436L285.735 197.061L283.812 192.781C283.745 192.633 283.643 192.503 283.515 192.403C283.387 192.303 283.236 192.236 283.076 192.207C282.916 192.178 282.752 192.189 282.597 192.238C282.442 192.288 282.301 192.374 282.187 192.49C281.55 193.138 280.909 193.781 280.263 194.42C280.181 193.64 280.066 192.563 279.904 191.072C279.886 190.907 279.827 190.748 279.733 190.611C279.638 190.475 279.511 190.364 279.362 190.289C279.214 190.214 279.049 190.177 278.883 190.181C278.717 190.186 278.554 190.231 278.41 190.314L274.597 192.518L274.304 189.851C274.288 189.704 274.239 189.562 274.161 189.437C274.083 189.311 273.979 189.204 273.855 189.123C273.731 189.042 273.59 188.99 273.444 188.97C273.297 188.95 273.148 188.963 273.007 189.007L271.744 189.407C271.491 189.487 271.281 189.665 271.159 189.9C271.037 190.136 271.014 190.41 271.094 190.663C271.174 190.916 271.352 191.126 271.587 191.248C271.823 191.37 272.097 191.393 272.35 191.313L272.449 191.282L272.776 194.26C272.794 194.425 272.854 194.583 272.948 194.72C273.043 194.856 273.17 194.967 273.318 195.042C273.467 195.117 273.631 195.154 273.797 195.15C273.964 195.146 274.126 195.1 274.27 195.017L278.082 192.814C278.265 194.513 278.459 196.339 278.471 196.51C278.471 196.916 278.719 197.287 279.095 197.441C279.759 197.717 279.827 197.734 282.589 194.934L284.339 198.83C284.417 199.006 284.545 199.156 284.707 199.261C284.869 199.365 285.058 199.421 285.251 199.42C285.404 199.42 285.557 199.385 285.697 199.316L291.897 196.225C292.018 196.168 292.125 196.088 292.214 195.989C292.304 195.89 292.372 195.774 292.416 195.648C292.459 195.522 292.477 195.389 292.469 195.256C292.46 195.123 292.425 194.993 292.365 194.874C292.306 194.755 292.223 194.649 292.122 194.562C292.021 194.475 291.904 194.409 291.777 194.368C291.65 194.328 291.516 194.313 291.384 194.324C291.251 194.336 291.122 194.374 291.004 194.436ZM287.393 145.953L287.489 145.894L287.137 148.915C287.114 149.11 287.149 149.307 287.238 149.482C287.326 149.657 287.464 149.802 287.635 149.899C287.805 149.997 288.001 150.042 288.197 150.029C288.392 150.016 288.58 149.945 288.736 149.826L290.72 148.316L291.583 150.861C291.625 150.985 291.692 151.1 291.778 151.199C291.865 151.298 291.97 151.378 292.088 151.436C292.206 151.495 292.334 151.529 292.465 151.537C292.596 151.546 292.727 151.529 292.852 151.487C292.976 151.444 293.091 151.378 293.189 151.291C293.288 151.205 293.369 151.1 293.427 150.982C293.485 150.864 293.519 150.736 293.528 150.605C293.537 150.474 293.519 150.342 293.477 150.218L292.166 146.358C292.115 146.208 292.029 146.073 291.915 145.962C291.801 145.852 291.663 145.771 291.511 145.724C291.36 145.678 291.2 145.668 291.044 145.696C290.888 145.723 290.74 145.788 290.614 145.883L289.394 146.811L289.712 144.075C289.733 143.889 289.701 143.7 289.62 143.531C289.539 143.362 289.413 143.219 289.255 143.118C289.096 143.017 288.913 142.963 288.726 142.961C288.538 142.959 288.354 143.01 288.194 143.108L286.342 144.25C286.23 144.319 286.133 144.409 286.056 144.516C285.979 144.622 285.924 144.743 285.894 144.871C285.864 144.999 285.859 145.131 285.88 145.261C285.901 145.391 285.947 145.515 286.016 145.627C286.085 145.739 286.175 145.836 286.282 145.913C286.388 145.99 286.509 146.045 286.637 146.075C286.765 146.105 286.897 146.11 287.027 146.089C287.157 146.068 287.281 146.022 287.393 145.953ZM315.56 154.798C317.448 155.777 319.445 156.53 321.51 157.041C321.674 157.082 321.846 157.08 322.009 157.037C322.173 156.993 322.322 156.908 322.444 156.791C322.566 156.674 322.656 156.527 322.706 156.366C322.756 156.204 322.764 156.033 322.729 155.867L322.333 153.962C323.028 154.354 323.74 154.717 324.465 155.05C325.712 155.617 326.998 156.092 328.314 156.471C328.847 156.625 329.399 156.317 329.551 155.786C329.703 155.255 329.398 154.701 328.866 154.549C327.646 154.197 326.453 153.757 325.297 153.231C323.951 152.613 322.658 151.885 321.432 151.053C321.267 150.941 321.072 150.881 320.872 150.881C320.672 150.88 320.477 150.94 320.311 151.052C320.146 151.163 320.018 151.322 319.943 151.507C319.868 151.692 319.851 151.896 319.893 152.091C320.078 152.945 320.257 153.802 320.437 154.661C319.074 154.23 317.752 153.681 316.483 153.023C314.975 152.235 313.551 151.297 312.231 150.224C312.129 150.141 312.012 150.079 311.886 150.041C311.761 150.004 311.629 149.991 311.498 150.005C311.367 150.018 311.241 150.057 311.125 150.12C311.01 150.182 310.908 150.267 310.825 150.369C310.742 150.471 310.68 150.588 310.642 150.714C310.605 150.84 310.592 150.971 310.606 151.102C310.619 151.233 310.658 151.359 310.721 151.475C310.783 151.59 310.868 151.692 310.97 151.775C312.394 152.935 313.932 153.948 315.56 154.798ZM330.9 155.17C331.031 155.17 331.161 155.144 331.283 155.094C331.404 155.044 331.514 154.97 331.607 154.877C332.041 154.445 332.403 153.946 332.678 153.399C332.743 153.265 332.804 153.128 332.859 152.99C332.951 153.054 333.042 153.13 333.131 153.216C333.416 153.494 333.581 153.799 333.67 154.004C333.736 154.158 333.84 154.292 333.972 154.395C334.103 154.498 334.259 154.567 334.424 154.595C334.589 154.622 334.758 154.608 334.916 154.554C335.074 154.5 335.216 154.406 335.329 154.283C335.555 154.03 335.769 153.765 335.969 153.491C336.36 152.97 336.669 152.499 336.937 152.019C337.4 151.211 337.776 150.356 338.061 149.469C338.102 149.344 338.117 149.212 338.107 149.081C338.096 148.95 338.06 148.823 338 148.706C337.941 148.589 337.859 148.485 337.759 148.399C337.659 148.314 337.543 148.25 337.418 148.209C337.293 148.168 337.161 148.153 337.03 148.163C336.899 148.174 336.772 148.21 336.655 148.27C336.419 148.39 336.24 148.6 336.158 148.852C335.915 149.611 335.592 150.342 335.196 151.034C335.034 151.323 334.856 151.606 334.647 151.907C334.042 151.276 333.266 150.837 332.414 150.644C332.28 150.614 332.142 150.613 332.007 150.639C331.873 150.665 331.745 150.718 331.632 150.796C331.519 150.873 331.424 150.973 331.351 151.09C331.278 151.206 331.23 151.336 331.21 151.471C331.156 151.831 331.047 152.18 330.888 152.507C330.708 152.86 330.474 153.183 330.193 153.463C330.053 153.603 329.957 153.781 329.918 153.975C329.879 154.169 329.899 154.37 329.975 154.553C330.051 154.736 330.179 154.892 330.344 155.002C330.508 155.112 330.702 155.17 330.9 155.17ZM341.178 151.016C341.483 150.485 341.743 149.932 341.959 149.364C342.088 149.01 342.198 148.654 342.289 148.294C342.908 148.67 343.485 149.11 344.012 149.606C344.155 149.742 344.334 149.832 344.528 149.866C344.722 149.9 344.922 149.876 345.102 149.797C345.283 149.718 345.436 149.588 345.542 149.422C345.649 149.256 345.704 149.063 345.701 148.866C345.688 147.984 345.653 147.102 345.595 146.222C345.845 146.368 346.095 146.505 346.348 146.638C346.464 146.699 346.592 146.736 346.723 146.748C346.854 146.759 346.985 146.745 347.111 146.706C347.236 146.666 347.353 146.603 347.453 146.518C347.554 146.434 347.637 146.33 347.698 146.214C347.759 146.098 347.796 145.97 347.808 145.839C347.819 145.708 347.805 145.577 347.766 145.451C347.726 145.326 347.663 145.209 347.578 145.109C347.494 145.008 347.39 144.925 347.274 144.864C346.474 144.442 345.705 143.963 344.975 143.429C344.816 143.315 344.628 143.251 344.432 143.243C344.237 143.235 344.044 143.285 343.877 143.385C343.709 143.486 343.575 143.633 343.49 143.809C343.405 143.985 343.374 144.181 343.399 144.375C343.501 145.115 343.576 145.919 343.625 146.769C343.09 146.423 342.527 146.123 341.942 145.871C341.799 145.81 341.643 145.783 341.488 145.793C341.332 145.802 341.181 145.848 341.047 145.927C340.912 146.005 340.798 146.114 340.713 146.244C340.628 146.375 340.574 146.523 340.557 146.678C340.479 147.357 340.32 148.024 340.084 148.666C339.91 149.126 339.694 149.583 339.441 150.024C339.309 150.254 339.275 150.528 339.345 150.783C339.415 151.039 339.583 151.257 339.814 151.389C340.044 151.52 340.317 151.555 340.573 151.485C340.829 151.415 341.046 151.246 341.178 151.016ZM291.739 182.371C291.566 181.517 291.841 180.806 292.019 180.457C292.105 180.291 292.142 180.103 292.126 179.917C292.111 179.73 292.043 179.552 291.931 179.402C291.819 179.252 291.668 179.136 291.493 179.068C291.319 179 291.129 178.982 290.945 179.017C290.199 179.157 289.479 179.413 288.812 179.777C288.486 179.96 288.174 180.168 287.88 180.399C287.831 179.58 287.955 178.759 288.245 177.991C288.808 176.492 289.867 175.61 290.448 175.219C290.906 174.909 291.026 174.288 290.718 173.83C290.41 173.372 289.788 173.253 289.329 173.56C287.984 174.468 286.952 175.769 286.374 177.285C285.384 179.893 286.109 182.181 286.355 182.819C286.419 182.988 286.528 183.136 286.67 183.248C286.812 183.36 286.982 183.431 287.161 183.454C287.34 183.477 287.522 183.451 287.688 183.379C287.853 183.306 287.996 183.19 288.101 183.043C288.522 182.449 289.062 181.95 289.688 181.579C289.668 181.976 289.698 182.373 289.777 182.762C290.227 185.067 292.173 186.147 292.762 186.424L293.611 184.613C293.242 184.438 292.011 183.761 291.739 182.371ZM316.317 172.838C316.072 172.736 315.797 172.735 315.552 172.835C315.306 172.935 315.11 173.128 315.007 173.372C314.609 174.317 314.239 175.274 313.895 176.24C313.738 176.691 313.587 177.144 313.443 177.599C312.521 176.27 312.019 174.696 312 173.079C311.997 172.88 311.936 172.687 311.823 172.523C311.71 172.36 311.551 172.234 311.366 172.161C311.181 172.088 310.979 172.072 310.785 172.114C310.59 172.157 310.413 172.256 310.276 172.4C309.391 173.332 308.373 174.127 307.254 174.76C307.775 174.039 308.268 173.298 308.733 172.539C309.468 171.332 310.13 170.082 310.717 168.797C310.772 168.678 310.803 168.549 310.808 168.418C310.813 168.287 310.792 168.156 310.747 168.032C310.701 167.909 310.632 167.796 310.543 167.7C310.454 167.604 310.346 167.526 310.227 167.471C310.108 167.416 309.979 167.384 309.848 167.379C309.716 167.374 309.585 167.394 309.462 167.44C309.339 167.486 309.226 167.555 309.129 167.644C309.033 167.734 308.956 167.841 308.901 167.961C308.347 169.175 307.721 170.355 307.027 171.495C305.968 173.224 304.753 174.852 303.397 176.359C303.255 176.517 303.167 176.717 303.146 176.929C303.125 177.141 303.172 177.354 303.28 177.537C303.388 177.72 303.552 177.864 303.748 177.948C303.943 178.032 304.161 178.051 304.368 178.003C306.513 177.505 308.518 176.53 310.234 175.15C310.44 176.098 310.783 177.011 311.253 177.86C311.766 178.788 312.427 179.627 313.21 180.342C313.336 180.458 313.489 180.54 313.656 180.58C313.822 180.62 313.996 180.617 314.161 180.57C314.326 180.524 314.476 180.436 314.597 180.314C314.718 180.193 314.806 180.043 314.852 179.878C315.143 178.834 315.448 177.86 315.782 176.903C316.101 176.001 316.462 175.073 316.851 174.146C316.953 173.902 316.955 173.627 316.855 173.382C316.754 173.136 316.561 172.941 316.317 172.838ZM345.154 175.271C345.002 175.132 344.81 175.043 344.605 175.017C344.4 174.991 344.192 175.029 344.01 175.126C343.827 175.223 343.679 175.374 343.586 175.559C343.493 175.743 343.46 175.952 343.49 176.156C343.729 177.717 343.42 179.313 342.617 180.673C342.546 180.786 342.498 180.913 342.477 181.045C342.455 181.177 342.46 181.312 342.492 181.442C342.524 181.572 342.581 181.695 342.661 181.802C342.741 181.91 342.842 182 342.957 182.068C343.073 182.135 343.201 182.179 343.333 182.197C343.466 182.214 343.601 182.205 343.73 182.169C343.859 182.133 343.98 182.072 344.085 181.989C344.19 181.906 344.277 181.802 344.341 181.685C344.718 181.047 345.013 180.363 345.218 179.651C345.371 179.128 345.475 178.592 345.527 178.05C346.029 178.365 346.606 178.679 347.258 178.96C348.42 179.453 349.648 179.771 350.903 179.903C351.09 179.923 351.278 179.89 351.446 179.807C351.615 179.725 351.757 179.597 351.856 179.438C351.956 179.279 352.008 179.095 352.008 178.907C352.008 178.72 351.955 178.536 351.855 178.377C351.389 177.635 351.043 176.825 350.829 175.976C350.623 175.143 350.545 174.283 350.597 173.426C350.606 173.165 350.512 172.912 350.336 172.719C350.16 172.526 349.916 172.41 349.656 172.395C349.395 172.38 349.139 172.467 348.942 172.638C348.745 172.809 348.623 173.05 348.601 173.31C348.51 174.748 348.723 176.189 349.225 177.54C347.715 177.099 346.323 176.324 345.154 175.271ZM303.448 211.361C303.009 210.461 302.709 209.499 302.558 208.509C302.529 208.316 302.444 208.136 302.314 207.991C302.184 207.846 302.015 207.742 301.826 207.692C301.638 207.642 301.439 207.649 301.254 207.71C301.07 207.772 300.907 207.886 300.786 208.039C300.09 208.923 299.183 209.618 298.149 210.061C298.481 209.583 298.793 209.116 299.089 208.654C299.747 207.639 300.37 206.602 300.955 205.543C301.021 205.428 301.063 205.301 301.08 205.169C301.096 205.037 301.086 204.903 301.05 204.776C301.014 204.648 300.953 204.528 300.871 204.424C300.788 204.32 300.686 204.234 300.569 204.17C300.453 204.106 300.325 204.065 300.193 204.051C300.061 204.037 299.928 204.05 299.8 204.088C299.673 204.126 299.555 204.189 299.452 204.273C299.35 204.358 299.265 204.462 299.203 204.579C298.64 205.598 298.041 206.596 297.407 207.572C296.647 208.75 295.839 209.895 294.984 211.006C294.869 211.157 294.799 211.338 294.783 211.527C294.767 211.716 294.804 211.906 294.892 212.074C295.072 212.419 295.437 212.649 295.821 212.611C296.77 212.571 298.221 212.347 299.745 211.506C300.193 211.257 300.615 210.97 301.011 210.648C301.591 212.48 302.621 214.138 304.005 215.471C304.198 215.644 304.45 215.736 304.709 215.727C304.968 215.718 305.214 215.609 305.394 215.423C305.574 215.236 305.675 214.987 305.675 214.728C305.676 214.469 305.576 214.22 305.396 214.033C304.597 213.262 303.938 212.358 303.448 211.361ZM335.888 201.429C335.288 200.267 334.772 199.064 334.344 197.829C334.304 197.701 334.239 197.582 334.152 197.48C334.065 197.378 333.958 197.294 333.838 197.234C333.718 197.173 333.587 197.138 333.453 197.129C333.319 197.121 333.185 197.139 333.058 197.184C332.932 197.228 332.815 197.298 332.716 197.388C332.617 197.479 332.537 197.588 332.481 197.71C332.425 197.832 332.394 197.964 332.39 198.098C332.386 198.232 332.409 198.366 332.458 198.491C332.916 199.814 333.468 201.102 334.111 202.346C334.576 203.252 335.093 204.14 335.657 205.002C335.178 204.862 334.706 204.702 334.241 204.521C333.159 204.088 332.122 203.551 331.143 202.919C330.975 202.81 330.778 202.753 330.578 202.757C330.377 202.762 330.183 202.826 330.02 202.942C329.856 203.058 329.732 203.22 329.662 203.408C329.592 203.596 329.58 203.8 329.628 203.995C329.964 205.373 330.126 206.804 330.11 208.252C330.108 208.697 330.088 209.142 330.051 209.586C329.954 209.453 329.855 209.321 329.755 209.19C329.057 208.297 328.268 207.48 327.4 206.751C327.269 206.641 327.111 206.567 326.943 206.536C326.774 206.504 326.601 206.517 326.439 206.572C326.277 206.627 326.131 206.722 326.017 206.849C325.902 206.977 325.822 207.131 325.784 207.298C325.523 208.487 325.094 209.633 324.511 210.701C323.785 212.031 322.835 213.226 321.703 214.234C321.508 214.412 321.392 214.659 321.378 214.922C321.365 215.186 321.456 215.443 321.632 215.64C321.808 215.836 322.054 215.955 322.317 215.971C322.58 215.987 322.839 215.898 323.037 215.724C324.338 214.564 325.431 213.189 326.266 211.659C326.662 210.936 326.997 210.172 327.272 209.372C327.588 209.706 327.893 210.058 328.176 210.418C328.764 211.18 329.275 211.998 329.701 212.86C329.792 213.044 329.937 213.195 330.116 213.293C330.296 213.392 330.501 213.433 330.705 213.411C330.908 213.39 331.1 213.306 331.255 213.172C331.409 213.037 331.519 212.859 331.569 212.66C331.918 211.255 332.099 209.776 332.109 208.269C332.119 207.403 332.07 206.54 331.965 205.689C333.804 206.619 335.789 207.228 337.833 207.49C338.03 207.515 338.229 207.481 338.407 207.392C338.584 207.303 338.731 207.164 338.828 206.991C338.926 206.819 338.97 206.621 338.955 206.423C338.94 206.226 338.867 206.037 338.744 205.881C337.653 204.491 336.696 203.001 335.888 201.429ZM361.676 192.26C361.528 191.413 361.23 190.599 360.794 189.858C360.728 189.745 360.64 189.645 360.536 189.566C360.431 189.486 360.312 189.428 360.185 189.394C360.058 189.361 359.926 189.353 359.796 189.37C359.666 189.388 359.54 189.431 359.427 189.497C359.314 189.563 359.214 189.651 359.135 189.755C359.055 189.86 358.997 189.979 358.963 190.106C358.93 190.233 358.922 190.365 358.939 190.495C358.957 190.625 359 190.751 359.066 190.864C359.387 191.416 359.602 192 359.705 192.595C359.74 192.807 359.762 193.01 359.771 193.202C359.264 192.86 358.744 192.536 358.214 192.23C356.944 191.51 355.613 190.904 354.236 190.418C354.067 190.358 353.885 190.344 353.709 190.378C353.532 190.413 353.369 190.494 353.235 190.614C353.101 190.733 353.001 190.886 352.947 191.057C352.893 191.229 352.885 191.411 352.926 191.586C353.162 192.588 353.256 193.619 353.205 194.647C352.981 194.43 352.753 194.218 352.521 194.01C352.031 193.576 351.52 193.16 350.959 192.739C350.825 192.638 350.668 192.573 350.502 192.549C350.336 192.525 350.167 192.543 350.01 192.601C349.852 192.66 349.713 192.757 349.603 192.883C349.493 193.01 349.417 193.162 349.381 193.326C349.064 194.744 348.406 196.062 347.464 197.168C346.694 196.645 345.892 196.17 345.062 195.747C344.511 195.467 343.992 195.218 343.473 194.996C342.937 194.768 342.392 194.563 341.84 194.379C341.715 194.338 341.584 194.322 341.453 194.332C341.322 194.342 341.194 194.378 341.077 194.437C340.959 194.496 340.855 194.578 340.77 194.678C340.684 194.778 340.619 194.893 340.578 195.018C340.537 195.143 340.521 195.274 340.531 195.405C340.541 195.536 340.577 195.664 340.636 195.781C340.695 195.899 340.777 196.003 340.877 196.088C340.977 196.174 341.092 196.239 341.217 196.28C341.684 196.432 342.179 196.624 342.695 196.839C343.166 197.041 343.646 197.273 344.155 197.531C345.152 198.038 346.11 198.631 347.003 199.293C347.194 199.435 347.429 199.504 347.667 199.488C347.904 199.472 348.128 199.372 348.298 199.205C349.44 198.089 350.325 196.737 350.891 195.244C350.993 195.33 351.092 195.417 351.191 195.504C351.882 196.123 352.533 196.784 353.142 197.483C353.263 197.622 353.419 197.726 353.595 197.782C353.771 197.838 353.958 197.844 354.137 197.8C354.316 197.756 354.48 197.663 354.609 197.532C354.739 197.401 354.83 197.237 354.872 197.057C355.19 195.708 355.289 194.317 355.166 192.937C355.877 193.249 356.558 193.589 357.218 193.965C358.17 194.514 359.094 195.135 359.966 195.81C360.096 195.911 360.25 195.978 360.412 196.005C360.575 196.033 360.741 196.019 360.898 195.967C361.054 195.914 361.194 195.824 361.307 195.704C361.42 195.583 361.501 195.437 361.544 195.278C361.801 194.293 361.846 193.264 361.676 192.26Z" fill="#9E8547"/>
<path d="M552.51 262.25L569 262.77L559.69 251.2C558.164 246.838 556.809 242.418 555.63 237.95C554.8 234.78 553.93 230.7 553.31 227.74C553.68 227.79 554.05 227.83 554.42 227.87C552.95 225.07 550.79 220.48 549.21 214.49C547.26 207.08 547.76 203.55 545.7 197.15C544.63 193.85 542.62 188.99 538.52 183.53C538.434 180.924 537.717 178.378 536.43 176.11C535.61 174.66 534.65 173.51 533.76 172.63C532.23 171.14 530.77 169.59 529.41 167.93C527.44 165.51 524.29 162.46 519.68 160.28C514.26 157.71 509.33 157.53 506.75 157.62C506.99 157.33 507.36 156.8 507.58 156.05C507.83 155.15 507.74 154.39 507.66 154C507.01 154.35 506.01 154.87 504.75 155.44C499.53 157.8 495.85 158.24 493.69 158.88C491.36 159.58 488.4 161.24 485.37 165.35C483.7 167.61 481.81 169.69 479.77 171.61C478.71 172.61 477.6 173.94 476.7 175.66C475.02 178.88 474.9 181.86 474.94 183.29C473.23 184.92 470.81 187.54 468.76 191.27C464.09 199.75 465.69 206.02 461.99 217.96C461.09 220.87 459.73 224.58 457.63 228.75L460.69 227.79C460.07 230.75 459.2 234.78 458.37 237.95C457.191 242.418 455.836 246.838 454.31 251.2L445 262.77L461.49 262.25L458.83 266.83C461.658 266.159 464.261 264.759 466.38 262.77C466.88 263.69 467.39 264.71 467.87 265.84C468.32 266.89 468.68 267.89 468.99 268.82C469.51 268.61 470.26 268.24 471.02 267.59C471.57 267.1 471.97 266.6 472.24 266.2C474.175 267.914 475.737 270.007 476.83 272.35C477.35 271.73 478.01 270.79 478.52 269.53C478.95 268.49 479.14 267.55 479.24 266.83C480.07 267.37 481.13 268.18 482.17 269.36C483.06 270.37 483.69 271.36 484.12 272.16C484.66 271.89 485.56 271.36 486.38 270.4C487.16 269.49 487.54 268.57 487.73 268C488.17 268.58 488.74 269.45 489.15 270.62C489.6 271.87 489.71 272.98 489.72 273.73C490.5 273.6 491.91 273.27 493.36 272.26C494.575 271.41 495.56 270.273 496.23 268.95C496.38 269.56 496.52 270.3 496.57 271.17C496.62 271.97 496.59 272.68 496.52 273.27C497.36 273.03 498.66 272.56 500 271.58C501.3 270.63 502.12 269.59 502.61 268.88L506.69 272.98L510.76 268.88C511.33 269.58 512.1 270.41 513.13 271.23C514.12 272.02 515.08 272.58 515.86 272.98C515.899 271.556 516.247 270.157 516.88 268.88C517.74 269.89 519 271.15 520.75 272.3C521.93 273.08 523.06 273.62 524.02 274C524.06 273.2 524.19 272.15 524.56 270.97C524.99 269.62 525.58 268.57 526.06 267.85C526.32 268.52 526.75 269.43 527.49 270.36C528.06 271.06 528.64 271.58 529.12 271.95C529.64 271.17 530.31 270.28 531.18 269.38C532.25 268.26 533.32 267.43 534.22 266.83C534.68 267.42 535.32 268.39 535.76 269.7C536.21 271.04 536.27 272.21 536.26 272.98C538.607 271.566 540.404 269.398 541.36 266.83C541.83 266.98 542.47 267.25 543.14 267.72C543.7 268.11 544.12 268.53 544.42 268.88C544.96 268.27 545.59 267.46 546.15 266.41C546.776 265.257 547.225 264.017 547.48 262.73C547.88 263.55 548.75 265.07 550.45 266.32C551.396 267.022 552.464 267.541 553.6 267.85C553.3 266.83 553.03 265.71 552.81 264.47C552.68 263.69 552.58 262.95 552.51 262.25Z" fill="#D6B85A"/>
<path d="M559.69 251.2L569 262.77L552.51 262.25C551.795 255.814 551.967 249.31 553.02 242.92L559.69 251.2ZM461.88 251.95C462.02 255.8 461.82 259.26 461.49 262.25L445 262.77L454.31 251.2L460.98 242.92C461.42 245.57 461.76 248.61 461.88 251.95ZM508.91 248.36L510.76 268.88L506.69 272.98L502.61 268.88L504.46 248.36C504.499 247.947 504.653 247.552 504.903 247.221C505.153 246.89 505.491 246.635 505.878 246.484C506.265 246.334 506.686 246.294 507.094 246.369C507.503 246.444 507.882 246.632 508.19 246.91C508.59 247.28 508.86 247.78 508.91 248.36Z" fill="#604533"/>
<path d="M461.49 262.25L458.83 266.83C461.658 266.159 464.261 264.759 466.38 262.77C466.88 263.69 467.39 264.71 467.87 265.84C468.32 266.89 468.68 267.89 468.99 268.82C469.51 268.61 470.26 268.24 471.02 267.59C471.57 267.1 471.97 266.6 472.24 266.2C474.175 267.914 475.737 270.007 476.83 272.35C477.35 271.73 478.01 270.79 478.52 269.53C478.95 268.49 479.14 267.55 479.24 266.83C480.07 267.37 481.13 268.18 482.17 269.36C483.06 270.37 483.69 271.36 484.12 272.16C484.66 271.89 485.56 271.36 486.38 270.4C487.16 269.49 487.54 268.57 487.73 268C488.17 268.58 488.74 269.45 489.15 270.62C489.6 271.87 489.71 272.98 489.72 273.73C490.5 273.6 491.91 273.27 493.36 272.26C494.575 271.41 495.56 270.273 496.23 268.95C496.38 269.56 496.52 270.3 496.57 271.17C496.62 271.97 496.59 272.68 496.52 273.27C497.36 273.03 498.66 272.56 500 271.58C501.3 270.63 502.12 269.59 502.61 268.88L503.29 261.37C492.95 260.84 479.48 258.88 461.93 254.76C461.92 257.51 461.74 260.01 461.49 262.25ZM552.51 262.25C551.795 255.814 551.967 249.31 553.02 242.92L559.69 251.2C558.164 246.838 556.809 242.418 555.63 237.95C554.8 234.78 553.93 230.7 553.31 227.74C553.68 227.79 554.05 227.83 554.42 227.87C552.95 225.07 550.79 220.48 549.21 214.49C547.26 207.08 547.76 203.55 545.7 197.15C544.63 193.85 542.62 188.99 538.52 183.53C538.434 180.924 537.717 178.378 536.43 176.11C535.61 174.66 534.65 173.51 533.76 172.63C532.23 171.14 530.77 169.59 529.41 167.93C527.44 165.51 524.29 162.46 519.68 160.28C514.26 157.71 509.33 157.53 506.75 157.62C506.75 157.62 521.03 168.78 525.17 189.89C525.49 191.55 525.75 193.28 525.94 195.06C527.47 209.63 530.71 223.83 533.09 232.92C534.7 239.1 535.92 242.92 535.92 242.92C535.92 242.92 543.14 261.04 510.09 261.5L510.76 268.88C511.33 269.58 512.1 270.41 513.13 271.23C514.12 272.02 515.08 272.58 515.86 272.98C515.899 271.556 516.247 270.157 516.88 268.88C517.74 269.89 519 271.15 520.75 272.3C521.93 273.08 523.06 273.62 524.02 274C524.06 273.2 524.19 272.15 524.56 270.97C524.99 269.62 525.58 268.57 526.06 267.85C526.32 268.52 526.75 269.43 527.49 270.36C528.06 271.06 528.64 271.58 529.12 271.95C529.64 271.17 530.31 270.28 531.18 269.38C532.25 268.26 533.32 267.43 534.22 266.83C534.68 267.42 535.32 268.39 535.76 269.7C536.21 271.04 536.27 272.21 536.26 272.98C538.607 271.566 540.404 269.398 541.36 266.83C541.83 266.98 542.47 267.25 543.14 267.72C543.7 268.11 544.12 268.53 544.42 268.88C544.96 268.27 545.59 267.46 546.15 266.41C546.776 265.257 547.225 264.017 547.48 262.73C547.88 263.55 548.75 265.07 550.45 266.32C551.396 267.022 552.464 267.541 553.6 267.85C553.3 266.83 553.03 265.71 552.81 264.47C552.68 263.69 552.58 262.95 552.51 262.25Z" fill="#C4A857"/>
<path d="M481.004 231.436L475.735 234.061L473.812 229.781C473.745 229.633 473.643 229.503 473.515 229.403C473.387 229.303 473.236 229.236 473.076 229.207C472.916 229.178 472.752 229.189 472.597 229.238C472.442 229.288 472.301 229.374 472.187 229.49C471.55 230.138 470.909 230.781 470.263 231.42C470.181 230.64 470.066 229.563 469.904 228.072C469.886 227.907 469.827 227.748 469.733 227.611C469.638 227.475 469.511 227.364 469.362 227.289C469.214 227.214 469.049 227.177 468.883 227.181C468.717 227.186 468.554 227.231 468.41 227.314L464.597 229.518L464.304 226.851C464.288 226.704 464.239 226.562 464.161 226.437C464.083 226.311 463.979 226.204 463.855 226.123C463.731 226.042 463.59 225.99 463.444 225.97C463.297 225.95 463.148 225.963 463.007 226.007L461.744 226.407C461.491 226.487 461.281 226.665 461.159 226.9C461.037 227.136 461.014 227.41 461.094 227.663C461.174 227.916 461.352 228.126 461.587 228.248C461.823 228.37 462.097 228.393 462.35 228.313L462.449 228.282L462.776 231.26C462.794 231.425 462.854 231.583 462.948 231.72C463.043 231.856 463.17 231.967 463.318 232.042C463.467 232.117 463.631 232.154 463.797 232.15C463.964 232.146 464.126 232.1 464.27 232.017L468.082 229.814C468.265 231.513 468.459 233.339 468.471 233.51C468.471 233.916 468.719 234.287 469.095 234.441C469.759 234.717 469.827 234.734 472.589 231.934L474.339 235.83C474.417 236.006 474.545 236.156 474.707 236.261C474.869 236.365 475.058 236.421 475.251 236.42C475.404 236.42 475.557 236.385 475.697 236.316L481.897 233.225C482.018 233.168 482.125 233.088 482.214 232.989C482.304 232.89 482.372 232.774 482.416 232.648C482.459 232.522 482.477 232.389 482.469 232.256C482.46 232.123 482.425 231.993 482.365 231.874C482.306 231.755 482.223 231.649 482.122 231.562C482.021 231.475 481.904 231.409 481.777 231.368C481.65 231.328 481.516 231.313 481.384 231.324C481.251 231.336 481.122 231.374 481.004 231.436ZM477.393 182.953L477.489 182.894L477.137 185.915C477.114 186.11 477.149 186.307 477.238 186.482C477.326 186.657 477.464 186.802 477.635 186.899C477.805 186.997 478.001 187.042 478.197 187.029C478.392 187.016 478.58 186.945 478.736 186.826L480.72 185.316L481.583 187.861C481.625 187.985 481.692 188.1 481.778 188.199C481.865 188.298 481.97 188.378 482.088 188.436C482.206 188.495 482.334 188.529 482.465 188.537C482.596 188.546 482.727 188.529 482.852 188.487C482.976 188.444 483.091 188.378 483.189 188.291C483.288 188.205 483.369 188.1 483.427 187.982C483.485 187.864 483.519 187.736 483.528 187.605C483.537 187.474 483.519 187.342 483.477 187.218L482.166 183.358C482.115 183.208 482.029 183.073 481.915 182.962C481.801 182.852 481.663 182.771 481.511 182.724C481.36 182.678 481.2 182.668 481.044 182.696C480.888 182.723 480.74 182.788 480.614 182.883L479.394 183.811L479.712 181.075C479.733 180.889 479.701 180.7 479.62 180.531C479.539 180.362 479.413 180.219 479.255 180.118C479.096 180.017 478.913 179.963 478.726 179.961C478.538 179.959 478.354 180.01 478.194 180.108L476.342 181.25C476.23 181.319 476.133 181.409 476.056 181.516C475.979 181.622 475.924 181.743 475.894 181.871C475.864 181.999 475.859 182.131 475.88 182.261C475.901 182.391 475.947 182.515 476.016 182.627C476.085 182.739 476.175 182.836 476.282 182.913C476.388 182.99 476.509 183.045 476.637 183.075C476.765 183.105 476.897 183.11 477.027 183.089C477.157 183.068 477.281 183.022 477.393 182.953ZM505.56 191.798C507.448 192.777 509.445 193.53 511.51 194.041C511.674 194.082 511.846 194.08 512.009 194.037C512.173 193.993 512.322 193.908 512.444 193.791C512.566 193.674 512.656 193.527 512.706 193.366C512.756 193.204 512.764 193.033 512.729 192.867L512.333 190.962C513.028 191.354 513.74 191.717 514.465 192.05C515.712 192.617 516.998 193.092 518.314 193.471C518.847 193.625 519.399 193.317 519.551 192.786C519.703 192.255 519.398 191.701 518.866 191.549C517.646 191.197 516.453 190.757 515.297 190.231C513.951 189.613 512.658 188.885 511.432 188.053C511.267 187.941 511.072 187.881 510.872 187.881C510.672 187.88 510.477 187.94 510.311 188.052C510.146 188.163 510.018 188.322 509.943 188.507C509.868 188.692 509.851 188.896 509.893 189.091C510.078 189.945 510.257 190.802 510.437 191.661C509.074 191.23 507.752 190.681 506.483 190.023C504.975 189.235 503.551 188.297 502.231 187.224C502.129 187.141 502.012 187.079 501.886 187.041C501.761 187.004 501.629 186.991 501.498 187.005C501.367 187.018 501.241 187.057 501.125 187.12C501.01 187.182 500.908 187.267 500.825 187.369C500.742 187.471 500.68 187.588 500.642 187.714C500.605 187.84 500.592 187.971 500.606 188.102C500.619 188.233 500.658 188.359 500.721 188.475C500.783 188.59 500.868 188.692 500.97 188.775C502.394 189.935 503.932 190.948 505.56 191.798ZM520.9 192.17C521.031 192.17 521.161 192.144 521.283 192.094C521.404 192.044 521.514 191.97 521.607 191.877C522.041 191.445 522.403 190.946 522.678 190.399C522.743 190.265 522.804 190.128 522.859 189.99C522.951 190.054 523.042 190.13 523.131 190.216C523.416 190.494 523.581 190.799 523.67 191.004C523.736 191.158 523.84 191.292 523.972 191.395C524.103 191.498 524.259 191.567 524.424 191.595C524.589 191.622 524.758 191.608 524.916 191.554C525.074 191.5 525.216 191.406 525.329 191.283C525.555 191.03 525.769 190.765 525.969 190.491C526.36 189.97 526.669 189.499 526.937 189.019C527.4 188.211 527.776 187.356 528.061 186.469C528.102 186.344 528.117 186.212 528.107 186.081C528.096 185.95 528.06 185.823 528 185.706C527.941 185.589 527.859 185.485 527.759 185.399C527.659 185.314 527.543 185.25 527.418 185.209C527.293 185.168 527.161 185.153 527.03 185.163C526.899 185.174 526.772 185.21 526.655 185.27C526.419 185.39 526.24 185.6 526.158 185.852C525.915 186.611 525.592 187.342 525.196 188.034C525.034 188.323 524.856 188.606 524.647 188.907C524.042 188.276 523.266 187.837 522.414 187.644C522.28 187.614 522.142 187.613 522.007 187.639C521.873 187.665 521.745 187.718 521.632 187.796C521.519 187.873 521.424 187.973 521.351 188.09C521.278 188.206 521.23 188.336 521.21 188.471C521.156 188.831 521.047 189.18 520.888 189.507C520.708 189.86 520.474 190.183 520.193 190.463C520.053 190.603 519.957 190.781 519.918 190.975C519.879 191.169 519.899 191.37 519.975 191.553C520.051 191.736 520.179 191.892 520.344 192.002C520.508 192.112 520.702 192.17 520.9 192.17ZM531.178 188.016C531.483 187.485 531.743 186.932 531.959 186.364C532.088 186.01 532.198 185.654 532.289 185.294C532.908 185.67 533.485 186.11 534.012 186.606C534.155 186.742 534.334 186.832 534.528 186.866C534.722 186.9 534.922 186.876 535.102 186.797C535.283 186.718 535.436 186.588 535.542 186.422C535.649 186.256 535.704 186.063 535.701 185.866C535.688 184.984 535.653 184.102 535.595 183.222C535.845 183.368 536.095 183.505 536.348 183.638C536.464 183.699 536.592 183.736 536.723 183.748C536.854 183.759 536.985 183.745 537.111 183.706C537.236 183.666 537.353 183.603 537.453 183.518C537.554 183.434 537.637 183.33 537.698 183.214C537.759 183.098 537.796 182.97 537.808 182.839C537.819 182.708 537.805 182.577 537.766 182.451C537.726 182.326 537.663 182.209 537.578 182.109C537.494 182.008 537.39 181.925 537.274 181.864C536.474 181.442 535.705 180.963 534.975 180.429C534.816 180.315 534.628 180.251 534.432 180.243C534.237 180.235 534.044 180.285 533.877 180.385C533.709 180.486 533.575 180.633 533.49 180.809C533.405 180.985 533.374 181.181 533.399 181.375C533.501 182.115 533.576 182.919 533.625 183.769C533.09 183.423 532.527 183.123 531.942 182.871C531.799 182.81 531.643 182.783 531.488 182.793C531.332 182.802 531.181 182.848 531.047 182.927C530.912 183.005 530.798 183.114 530.713 183.244C530.628 183.375 530.574 183.523 530.557 183.678C530.479 184.357 530.32 185.024 530.084 185.666C529.91 186.126 529.694 186.583 529.441 187.024C529.309 187.254 529.275 187.528 529.345 187.783C529.415 188.039 529.583 188.257 529.814 188.389C530.044 188.52 530.317 188.555 530.573 188.485C530.829 188.415 531.046 188.246 531.178 188.016ZM481.739 219.371C481.566 218.517 481.841 217.806 482.019 217.457C482.105 217.291 482.142 217.103 482.126 216.917C482.111 216.73 482.043 216.552 481.931 216.402C481.819 216.252 481.668 216.136 481.493 216.068C481.319 216 481.129 215.982 480.945 216.017C480.199 216.157 479.479 216.413 478.812 216.777C478.486 216.96 478.174 217.168 477.88 217.399C477.831 216.58 477.955 215.759 478.245 214.991C478.808 213.492 479.867 212.61 480.448 212.219C480.906 211.909 481.026 211.288 480.718 210.83C480.41 210.372 479.788 210.253 479.329 210.56C477.984 211.468 476.952 212.769 476.374 214.285C475.384 216.893 476.109 219.181 476.355 219.819C476.419 219.988 476.528 220.136 476.67 220.248C476.812 220.36 476.982 220.431 477.161 220.454C477.34 220.477 477.522 220.451 477.688 220.379C477.853 220.306 477.996 220.19 478.101 220.043C478.522 219.449 479.062 218.95 479.688 218.579C479.668 218.976 479.698 219.373 479.777 219.762C480.227 222.067 482.173 223.147 482.762 223.424L483.611 221.613C483.242 221.438 482.011 220.761 481.739 219.371ZM506.317 209.838C506.072 209.736 505.797 209.735 505.552 209.835C505.306 209.935 505.11 210.128 505.007 210.372C504.609 211.317 504.239 212.274 503.895 213.24C503.738 213.691 503.587 214.144 503.443 214.599C502.521 213.27 502.019 211.696 502 210.079C501.997 209.88 501.936 209.687 501.823 209.523C501.71 209.36 501.551 209.234 501.366 209.161C501.181 209.088 500.979 209.072 500.785 209.114C500.59 209.157 500.413 209.256 500.276 209.4C499.391 210.332 498.373 211.127 497.254 211.76C497.775 211.039 498.268 210.298 498.733 209.539C499.468 208.332 500.13 207.082 500.717 205.797C500.772 205.678 500.803 205.549 500.808 205.418C500.813 205.287 500.792 205.156 500.747 205.032C500.701 204.909 500.632 204.796 500.543 204.7C500.454 204.604 500.346 204.526 500.227 204.471C500.108 204.416 499.979 204.384 499.848 204.379C499.716 204.374 499.585 204.394 499.462 204.44C499.339 204.486 499.226 204.555 499.129 204.644C499.033 204.734 498.956 204.841 498.901 204.961C498.347 206.175 497.721 207.355 497.027 208.495C495.968 210.224 494.753 211.852 493.397 213.359C493.255 213.517 493.167 213.717 493.146 213.929C493.125 214.141 493.172 214.354 493.28 214.537C493.388 214.72 493.552 214.864 493.748 214.948C493.943 215.032 494.161 215.051 494.368 215.003C496.513 214.505 498.518 213.53 500.234 212.15C500.44 213.098 500.783 214.011 501.253 214.86C501.766 215.788 502.427 216.627 503.21 217.342C503.336 217.458 503.489 217.54 503.656 217.58C503.822 217.62 503.996 217.617 504.161 217.57C504.326 217.524 504.476 217.436 504.597 217.314C504.718 217.193 504.806 217.043 504.852 216.878C505.143 215.834 505.448 214.86 505.782 213.903C506.101 213.001 506.462 212.073 506.851 211.146C506.953 210.902 506.955 210.627 506.855 210.382C506.754 210.136 506.561 209.941 506.317 209.838ZM535.154 212.271C535.002 212.132 534.81 212.043 534.605 212.017C534.4 211.991 534.192 212.029 534.01 212.126C533.827 212.223 533.679 212.374 533.586 212.559C533.493 212.743 533.46 212.952 533.49 213.156C533.729 214.717 533.42 216.313 532.617 217.673C532.546 217.786 532.498 217.913 532.477 218.045C532.455 218.177 532.46 218.312 532.492 218.442C532.524 218.572 532.581 218.695 532.661 218.802C532.741 218.91 532.842 219 532.957 219.068C533.073 219.135 533.201 219.179 533.333 219.197C533.466 219.214 533.601 219.205 533.73 219.169C533.859 219.133 533.98 219.072 534.085 218.989C534.19 218.906 534.277 218.802 534.341 218.685C534.718 218.047 535.013 217.363 535.218 216.651C535.371 216.128 535.475 215.592 535.527 215.05C536.029 215.365 536.606 215.679 537.258 215.96C538.42 216.453 539.648 216.771 540.903 216.903C541.09 216.923 541.278 216.89 541.446 216.807C541.615 216.725 541.757 216.597 541.856 216.438C541.956 216.279 542.008 216.095 542.008 215.907C542.008 215.72 541.955 215.536 541.855 215.377C541.389 214.635 541.043 213.825 540.829 212.976C540.623 212.143 540.545 211.283 540.597 210.426C540.606 210.165 540.512 209.912 540.336 209.719C540.16 209.526 539.916 209.41 539.656 209.395C539.395 209.38 539.139 209.467 538.942 209.638C538.745 209.809 538.623 210.05 538.601 210.31C538.51 211.748 538.723 213.189 539.225 214.54C537.715 214.099 536.323 213.324 535.154 212.271ZM493.448 248.361C493.009 247.461 492.709 246.499 492.558 245.509C492.529 245.316 492.444 245.136 492.314 244.991C492.184 244.846 492.015 244.742 491.826 244.692C491.638 244.642 491.439 244.649 491.254 244.71C491.07 244.772 490.907 244.886 490.786 245.039C490.09 245.923 489.183 246.618 488.149 247.061C488.481 246.583 488.793 246.116 489.089 245.654C489.747 244.639 490.37 243.602 490.955 242.543C491.021 242.428 491.063 242.301 491.08 242.169C491.096 242.037 491.086 241.903 491.05 241.776C491.014 241.648 490.953 241.528 490.871 241.424C490.788 241.32 490.686 241.234 490.569 241.17C490.453 241.106 490.325 241.065 490.193 241.051C490.061 241.037 489.928 241.05 489.8 241.088C489.673 241.126 489.555 241.189 489.452 241.273C489.35 241.358 489.265 241.462 489.203 241.579C488.64 242.598 488.041 243.596 487.407 244.572C486.647 245.75 485.839 246.895 484.984 248.006C484.869 248.157 484.799 248.338 484.783 248.527C484.767 248.716 484.804 248.906 484.892 249.074C485.072 249.419 485.437 249.649 485.821 249.611C486.77 249.571 488.221 249.347 489.745 248.506C490.193 248.257 490.615 247.97 491.011 247.648C491.591 249.48 492.621 251.138 494.005 252.471C494.198 252.644 494.45 252.736 494.709 252.727C494.968 252.718 495.214 252.609 495.394 252.423C495.574 252.236 495.675 251.987 495.675 251.728C495.676 251.469 495.576 251.22 495.396 251.033C494.597 250.262 493.938 249.358 493.448 248.361ZM525.888 238.429C525.288 237.267 524.772 236.064 524.344 234.829C524.304 234.701 524.239 234.582 524.152 234.48C524.065 234.378 523.958 234.294 523.838 234.234C523.718 234.173 523.587 234.138 523.453 234.129C523.319 234.121 523.185 234.139 523.058 234.184C522.932 234.228 522.815 234.298 522.716 234.388C522.617 234.479 522.537 234.588 522.481 234.71C522.425 234.832 522.394 234.964 522.39 235.098C522.386 235.232 522.409 235.366 522.458 235.491C522.916 236.814 523.468 238.102 524.111 239.346C524.576 240.252 525.093 241.14 525.657 242.002C525.178 241.862 524.706 241.702 524.241 241.521C523.159 241.088 522.122 240.551 521.143 239.919C520.975 239.81 520.778 239.753 520.578 239.757C520.377 239.762 520.183 239.826 520.02 239.942C519.856 240.058 519.732 240.22 519.662 240.408C519.592 240.596 519.58 240.8 519.628 240.995C519.964 242.373 520.126 243.804 520.11 245.252C520.108 245.697 520.088 246.142 520.051 246.586C519.954 246.453 519.855 246.321 519.755 246.19C519.057 245.297 518.268 244.48 517.4 243.751C517.269 243.641 517.111 243.567 516.943 243.536C516.774 243.504 516.601 243.517 516.439 243.572C516.277 243.627 516.131 243.722 516.017 243.849C515.902 243.977 515.822 244.131 515.784 244.298C515.523 245.487 515.094 246.633 514.511 247.701C513.785 249.031 512.835 250.226 511.703 251.234C511.508 251.412 511.392 251.659 511.378 251.922C511.365 252.186 511.456 252.443 511.632 252.64C511.808 252.836 512.054 252.955 512.317 252.971C512.58 252.987 512.839 252.898 513.037 252.724C514.338 251.564 515.431 250.189 516.266 248.659C516.662 247.936 516.997 247.172 517.272 246.372C517.588 246.706 517.893 247.058 518.176 247.418C518.764 248.18 519.275 248.998 519.701 249.86C519.792 250.044 519.937 250.195 520.116 250.293C520.296 250.392 520.501 250.433 520.705 250.411C520.908 250.39 521.1 250.306 521.255 250.172C521.409 250.037 521.519 249.859 521.569 249.66C521.918 248.255 522.099 246.776 522.109 245.269C522.119 244.403 522.07 243.54 521.965 242.689C523.804 243.619 525.789 244.228 527.833 244.49C528.03 244.515 528.229 244.481 528.407 244.392C528.584 244.303 528.731 244.164 528.828 243.991C528.926 243.819 528.97 243.621 528.955 243.423C528.94 243.226 528.867 243.037 528.744 242.881C527.653 241.491 526.696 240.001 525.888 238.429ZM551.676 229.26C551.528 228.413 551.23 227.599 550.794 226.858C550.728 226.745 550.64 226.645 550.536 226.566C550.431 226.486 550.312 226.428 550.185 226.394C550.058 226.361 549.926 226.353 549.796 226.37C549.666 226.388 549.54 226.431 549.427 226.497C549.314 226.563 549.214 226.651 549.135 226.755C549.055 226.86 548.997 226.979 548.963 227.106C548.93 227.233 548.922 227.365 548.939 227.495C548.957 227.625 549 227.751 549.066 227.864C549.387 228.416 549.602 229 549.705 229.595C549.74 229.807 549.762 230.01 549.771 230.202C549.264 229.86 548.744 229.536 548.214 229.23C546.944 228.51 545.613 227.904 544.236 227.418C544.067 227.358 543.885 227.344 543.709 227.378C543.532 227.413 543.369 227.494 543.235 227.614C543.101 227.733 543.001 227.886 542.947 228.057C542.893 228.229 542.885 228.411 542.926 228.586C543.162 229.588 543.256 230.619 543.205 231.647C542.981 231.43 542.753 231.218 542.521 231.01C542.031 230.576 541.52 230.16 540.959 229.739C540.825 229.638 540.668 229.573 540.502 229.549C540.336 229.525 540.167 229.543 540.01 229.601C539.852 229.66 539.713 229.757 539.603 229.883C539.493 230.01 539.417 230.162 539.381 230.326C539.064 231.744 538.406 233.062 537.464 234.168C536.694 233.645 535.892 233.17 535.062 232.747C534.511 232.467 533.992 232.218 533.473 231.996C532.937 231.768 532.392 231.563 531.84 231.379C531.715 231.338 531.584 231.322 531.453 231.332C531.322 231.342 531.194 231.378 531.077 231.437C530.959 231.496 530.855 231.578 530.77 231.678C530.684 231.778 530.619 231.893 530.578 232.018C530.537 232.143 530.521 232.274 530.531 232.405C530.541 232.536 530.577 232.664 530.636 232.781C530.695 232.899 530.777 233.003 530.877 233.088C530.977 233.174 531.092 233.239 531.217 233.28C531.684 233.432 532.179 233.624 532.695 233.839C533.166 234.041 533.646 234.273 534.155 234.531C535.152 235.038 536.11 235.631 537.003 236.293C537.194 236.435 537.429 236.504 537.667 236.488C537.904 236.472 538.128 236.372 538.298 236.205C539.44 235.089 540.325 233.737 540.891 232.244C540.993 232.33 541.092 232.417 541.191 232.504C541.882 233.123 542.533 233.784 543.142 234.483C543.263 234.622 543.419 234.726 543.595 234.782C543.771 234.838 543.958 234.844 544.137 234.8C544.316 234.756 544.48 234.663 544.609 234.532C544.739 234.401 544.83 234.237 544.872 234.057C545.19 232.708 545.289 231.317 545.166 229.937C545.877 230.249 546.558 230.589 547.218 230.965C548.17 231.514 549.094 232.135 549.966 232.81C550.096 232.911 550.25 232.978 550.412 233.005C550.575 233.033 550.741 233.019 550.898 232.967C551.054 232.914 551.194 232.824 551.307 232.704C551.42 232.583 551.501 232.437 551.544 232.278C551.801 231.293 551.846 230.264 551.676 229.26Z" fill="#9E8547"/>
<path d="M97.0547 128.422H95.8594C91.9041 128.422 88.6875 125.205 88.6875 121.25V117.664C88.6875 115.027 86.5431 112.883 83.9062 112.883C83.5892 112.883 83.2852 112.757 83.061 112.533C82.8369 112.309 82.7109 112.005 82.7109 111.688C82.7109 111.37 82.8369 111.066 83.061 110.842C83.2852 110.618 83.5892 110.492 83.9062 110.492C87.8615 110.492 91.0781 113.709 91.0781 117.664V121.25C91.0781 123.887 93.2225 126.031 95.8594 126.031H97.0547C97.3717 126.031 97.6757 126.157 97.8999 126.381C98.1241 126.606 98.25 126.91 98.25 127.227C98.25 127.544 98.1241 127.848 97.8999 128.072C97.6757 128.296 97.3717 128.422 97.0547 128.422Z" fill="url(#paint19_linear_4_3)"/>
<path d="M85.1016 149.938H77.9297V124.836C77.9297 124.519 78.0556 124.215 78.2798 123.991C78.504 123.767 78.808 123.641 79.125 123.641H83.9062C84.2233 123.641 84.5273 123.767 84.7515 123.991C84.9756 124.215 85.1016 124.519 85.1016 124.836V149.938Z" fill="url(#paint20_linear_4_3)"/>
<path d="M99.4453 130.812H104.227V147.547H99.4453V130.812Z" fill="url(#paint21_linear_4_3)"/>
<path d="M97.0547 117.664H106.617V129.617C106.617 129.934 106.491 130.238 106.267 130.462C106.043 130.687 105.739 130.812 105.422 130.812H98.25C97.933 130.812 97.629 130.687 97.4048 130.462C97.1806 130.238 97.0547 129.934 97.0547 129.617V117.664Z" fill="url(#paint22_linear_4_3)"/>
<path d="M109.008 117.664H94.6641C94.6641 115.762 95.4197 113.938 96.7647 112.593C98.1096 111.248 99.9338 110.492 101.836 110.492C103.738 110.492 105.562 111.248 106.907 112.593C108.252 113.938 109.008 115.762 109.008 117.664Z" fill="url(#paint23_linear_4_3)"/>
<path d="M79.125 102.125V123.641H83.9062V104.516H87.4922C87.8092 104.516 88.1132 104.39 88.3374 104.166C88.5616 103.941 88.6875 103.637 88.6875 103.32V100.93C88.6875 100.613 88.5616 100.309 88.3374 100.084C88.1132 99.8603 87.8092 99.7344 87.4922 99.7344H81.5156C80.8816 99.7344 80.2735 99.9862 79.8252 100.435C79.3769 100.883 79.125 101.491 79.125 102.125Z" fill="url(#paint24_linear_4_3)"/>
<path d="M68.3672 158.305L71.9531 191.773H135.305V142.766L76.7344 147.547C71.3889 148.033 68.3672 153.523 68.3672 158.305Z" fill="url(#paint25_linear_4_3)"/>
<path d="M195.07 109.297H142.477C141.843 109.297 141.234 109.045 140.786 108.597C140.338 108.148 140.086 107.54 140.086 106.906C140.086 106.272 140.338 105.664 140.786 105.216C141.234 104.767 141.843 104.516 142.477 104.516H195.07C195.704 104.516 196.312 104.767 196.761 105.216C197.209 105.664 197.461 106.272 197.461 106.906C197.461 107.54 197.209 108.148 196.761 108.597C196.312 109.045 195.704 109.297 195.07 109.297Z" fill="url(#paint26_linear_4_3)"/>
<path d="M195.07 104.516H142.477L144.984 98.5391C146.048 96.6768 147.503 96.1484 149.648 96.1484H187.898C190.043 96.1484 191.616 96.6768 192.68 98.5391L195.07 104.516Z" fill="url(#paint27_linear_4_3)"/>
<path d="M142.477 109.297L135.305 141.57V191.773H205.828L195.07 109.297H142.477Z" fill="url(#paint28_linear_4_3)"/>
<path d="M104.227 158.305H109.008V191.773H104.227V158.305Z" fill="url(#paint29_linear_4_3)"/>
<path d="M94.6641 158.305H99.4453V191.773H94.6641V158.305Z" fill="url(#paint30_linear_4_3)"/>
<path d="M85.1016 158.305H89.8828V191.773H85.1016V158.305Z" fill="url(#paint31_linear_4_3)"/>
<path d="M75.5391 158.305H80.3203V191.773H75.5391V158.305Z" fill="url(#paint32_linear_4_3)"/>
<path d="M110.203 191.773H118.57C116.037 177.505 103.564 166.672 88.6014 166.672C78.2321 166.672 68.3672 171.453 62.3906 179.82C62.3906 179.82 62.3906 185.797 69.5625 182.211C69.5625 182.211 93.4688 166.672 110.203 191.773Z" fill="url(#paint33_linear_4_3)"/>
<path d="M87.4922 222.852C101.355 222.852 112.594 211.613 112.594 197.75C112.594 183.887 101.355 172.648 87.4922 172.648C73.629 172.648 62.3906 183.887 62.3906 197.75C62.3906 211.613 73.629 222.852 87.4922 222.852Z" fill="url(#paint34_linear_4_3)"/>
<path d="M87.4922 210.898C94.7539 210.898 100.641 205.012 100.641 197.75C100.641 190.488 94.7539 184.602 87.4922 184.602C80.2305 184.602 74.3438 190.488 74.3438 197.75C74.3438 205.012 80.2305 210.898 87.4922 210.898Z" fill="url(#paint35_linear_4_3)"/>
<path d="M87.4922 202.531C90.1328 202.531 92.2734 200.391 92.2734 197.75C92.2734 195.109 90.1328 192.969 87.4922 192.969C84.8516 192.969 82.7109 195.109 82.7109 197.75C82.7109 200.391 84.8516 202.531 87.4922 202.531Z" fill="url(#paint36_linear_4_3)"/>
<path d="M87.4922 212.094C79.5828 212.094 73.1484 205.659 73.1484 197.75C73.1484 189.841 79.5828 183.406 87.4922 183.406C95.4016 183.406 101.836 189.841 101.836 197.75C101.836 205.659 95.4016 212.094 87.4922 212.094ZM87.4922 185.797C80.9012 185.797 75.5391 191.159 75.5391 197.75C75.5391 204.341 80.9012 209.703 87.4922 209.703C94.0831 209.703 99.4453 204.341 99.4453 197.75C99.4453 191.159 94.0831 185.797 87.4922 185.797Z" fill="url(#paint37_linear_4_3)"/>
<path d="M68.3672 158.305L68.7353 161.613L135.305 157.109V151.133L68.6696 155.642C68.4718 156.516 68.3704 157.409 68.3672 158.305Z" fill="url(#paint38_linear_4_3)"/>
<path d="M192.505 137.984H177.141C176.824 137.984 176.52 137.858 176.295 137.634C176.071 137.41 175.945 137.106 175.945 136.789V115.273C175.945 114.956 176.071 114.652 176.295 114.428C176.52 114.204 176.824 114.078 177.141 114.078H189.246C189.535 114.078 189.814 114.183 190.032 114.373C190.25 114.563 190.391 114.826 190.43 115.112L193.69 136.628C193.713 136.797 193.699 136.969 193.65 137.132C193.601 137.296 193.518 137.447 193.406 137.575C193.294 137.704 193.155 137.807 193 137.877C192.844 137.948 192.676 137.984 192.505 137.984Z" fill="url(#paint39_linear_4_3)"/>
<path d="M169.969 114.078H148.128C147.839 114.078 147.56 114.183 147.342 114.373C147.124 114.563 146.982 114.826 146.943 115.112L141.281 140.375V169.062H171.164V115.273C171.164 114.956 171.038 114.652 170.814 114.428C170.59 114.204 170.286 114.078 169.969 114.078Z" fill="url(#paint40_linear_4_3)"/>
<path d="M135.305 189.383C135.305 166.277 154.035 147.547 177.141 147.547C177.141 147.547 196.309 147.867 208.22 157.112C211.731 159.836 210.626 161.877 209.415 163.088L201.047 169.062V189.383H135.305Z" fill="url(#paint41_linear_4_3)"/>
<path d="M131.719 195.359H144.867V184.602H131.719C131.085 184.602 130.477 184.853 130.028 185.302C129.58 185.75 129.328 186.358 129.328 186.992V192.969C129.328 193.603 129.58 194.211 130.028 194.659C130.477 195.108 131.085 195.359 131.719 195.359Z" fill="url(#paint42_linear_4_3)"/>
<path d="M175.945 222.852C195.09 222.852 210.609 207.332 210.609 188.188C210.609 169.043 195.09 153.523 175.945 153.523C156.801 153.523 141.281 169.043 141.281 188.188C141.281 207.332 156.801 222.852 175.945 222.852Z" fill="url(#paint43_linear_4_3)"/>
<path d="M175.945 212.094C189.148 212.094 199.852 201.391 199.852 188.188C199.852 174.984 189.148 164.281 175.945 164.281C162.742 164.281 152.039 174.984 152.039 188.188C152.039 201.391 162.742 212.094 175.945 212.094Z" fill="url(#paint44_linear_4_3)"/>
<path d="M175.945 207.312C186.508 207.312 195.07 198.75 195.07 188.188C195.07 177.625 186.508 169.062 175.945 169.062C165.383 169.062 156.82 177.625 156.82 188.188C156.82 198.75 165.383 207.312 175.945 207.312Z" fill="url(#paint45_linear_4_3)"/>
<path d="M175.945 192.969C178.586 192.969 180.727 190.828 180.727 188.188C180.727 185.547 178.586 183.406 175.945 183.406C173.305 183.406 171.164 185.547 171.164 188.188C171.164 190.828 173.305 192.969 175.945 192.969Z" fill="url(#paint46_linear_4_3)"/>
<path d="M175.945 178.625C177.266 178.625 178.336 177.555 178.336 176.234C178.336 174.914 177.266 173.844 175.945 173.844C174.625 173.844 173.555 174.914 173.555 176.234C173.555 177.555 174.625 178.625 175.945 178.625Z" fill="url(#paint47_linear_4_3)"/>
<path d="M175.945 202.531C177.266 202.531 178.336 201.461 178.336 200.141C178.336 198.82 177.266 197.75 175.945 197.75C174.625 197.75 173.555 198.82 173.555 200.141C173.555 201.461 174.625 202.531 175.945 202.531Z" fill="url(#paint48_linear_4_3)"/>
<path d="M187.898 190.578C189.219 190.578 190.289 189.508 190.289 188.188C190.289 186.867 189.219 185.797 187.898 185.797C186.578 185.797 185.508 186.867 185.508 188.188C185.508 189.508 186.578 190.578 187.898 190.578Z" fill="url(#paint49_linear_4_3)"/>
<path d="M163.992 190.578C165.312 190.578 166.383 189.508 166.383 188.188C166.383 186.867 165.312 185.797 163.992 185.797C162.672 185.797 161.602 186.867 161.602 188.188C161.602 189.508 162.672 190.578 163.992 190.578Z" fill="url(#paint50_linear_4_3)"/>
<path d="M171.164 137.984H141.77L141.281 140.375V142.766H171.164V137.984Z" fill="url(#paint51_linear_4_3)"/>
<g clip-path="url(#clip1_4_3)">
<path d="M107.723 52.4853L90.9281 37.6708L107.129 22.2165C107.421 21.9384 107.634 21.588 107.747 21.2009C107.86 20.8137 107.869 20.4036 107.772 20.012C107.675 19.62 107.476 19.2606 107.195 18.9699C106.915 18.6791 106.563 18.4674 106.174 18.3559L84.6126 12.1335L92.5815 -8.73523C92.7253 -9.1119 92.7669 -9.5199 92.702 -9.91782C92.6372 -10.3157 92.4682 -10.6894 92.2123 -11.001C91.9552 -11.3136 91.6207 -11.5533 91.242 -11.6963C90.8633 -11.8393 90.4538 -11.8804 90.0542 -11.8157L67.8921 -8.24276L66.0896 -30.4929C66.0566 -30.8953 65.918 -31.2818 65.6878 -31.6135C65.4577 -31.9452 65.1441 -32.2103 64.7787 -32.3821C64.4124 -32.5548 64.0074 -32.6287 63.6037 -32.5963C63.2 -32.564 62.8118 -32.4266 62.4777 -32.1978L43.9977 -19.5207L32.7719 -38.8525C32.5682 -39.2021 32.2764 -39.492 31.9255 -39.6934C31.5747 -39.8947 31.1771 -40.0005 30.7726 -40C30.3681 -40.0005 29.9706 -39.8947 29.6198 -39.6934C29.269 -39.492 28.9772 -39.2021 28.7736 -38.8525L15.8877 -16.6616L-6.40206 -29.5261C-6.75288 -29.7284 -7.15054 -29.8353 -7.55551 -29.8363C-7.96049 -29.8373 -8.35866 -29.7322 -8.71044 -29.5316C-9.06125 -29.332 -9.35317 -29.0434 -9.55669 -28.6949C-9.76022 -28.3464 -9.86814 -27.9503 -9.86955 -27.5467L-9.92351 -5.2248L-32.2975 -7.06894C-32.7007 -7.10228 -33.1056 -7.0294 -33.4718 -6.85756C-33.838 -6.68572 -34.1528 -6.42092 -34.3848 -6.08953C-34.6158 -5.75909 -34.7551 -5.37338 -34.7886 -4.97163C-34.8221 -4.56988 -34.7486 -4.16643 -34.5756 -3.8023L-24.9955 16.3854L-46.0044 24.2602C-46.3827 24.4015 -46.7172 24.64 -46.9741 24.9516C-47.2311 25.2632 -47.4014 25.637 -47.468 26.0354C-47.5337 26.4333 -47.493 26.8416 -47.35 27.2188C-47.2069 27.5959 -46.9667 27.9285 -46.6535 28.1828L-29.2919 42.3349L-44.8732 58.4059C-45.1542 58.6951 -45.3537 59.0535 -45.4514 59.4446C-45.5492 59.8358 -45.5419 60.2459 -45.43 60.6333C-45.3172 61.0213 -45.1042 61.3727 -44.8125 61.6522C-44.5208 61.9318 -44.1607 62.1297 -43.7684 62.226L-21.98 67.6079L-29.1232 88.7694C-29.2521 89.1515 -29.2775 89.5608 -29.1971 89.9559C-29.1166 90.351 -28.9331 90.7177 -28.6651 91.019C-28.3959 91.3213 -28.0522 91.5479 -27.6682 91.676C-27.2843 91.8042 -26.8734 91.8295 -26.4766 91.7494L-4.47206 87.3206L-1.79785 109.484C-1.74904 109.885 -1.59541 110.266 -1.35244 110.588C-1.10948 110.911 -0.785776 111.163 -0.413977 111.321C-0.0413074 111.479 0.366362 111.537 0.768492 111.489C1.17062 111.442 1.55319 111.289 1.87816 111.048L19.8461 97.6636L31.8219 115.929C32.0391 116.27 32.3421 116.549 32.7005 116.736C33.059 116.924 33.4605 117.014 33.8648 116.998C34.2689 116.983 34.662 116.862 35.0047 116.647C35.3474 116.432 35.6276 116.131 35.8175 115.774L46.276 96.6378L65.2384 108.589C65.5811 108.805 65.9744 108.927 66.379 108.944C66.7837 108.96 67.1856 108.871 67.5449 108.684C67.9033 108.498 68.2062 108.221 68.4232 107.881C68.6401 107.54 68.7635 107.149 68.7807 106.745L69.7101 84.4421L91.9949 87.1528C92.3966 87.2018 92.804 87.1447 93.1768 86.9872C93.5495 86.8297 93.8745 86.5774 94.1193 86.2553C94.3629 85.934 94.5172 85.554 94.5664 85.1539C94.6156 84.7537 94.5581 84.3477 94.3996 83.977L85.6187 63.4329L106.919 56.3793C107.303 56.2529 107.647 56.0276 107.916 55.7262C108.185 55.4248 108.37 55.0579 108.452 54.6624C108.533 54.2674 108.508 53.8581 108.38 53.4757C108.252 53.0934 108.025 52.7517 107.723 52.4853Z" fill="#FFA600"/>
<path d="M29.994 85.6123C56.2554 85.6123 77.5445 64.3397 77.5445 38.0986C77.5445 11.8576 56.2554 -9.41504 29.994 -9.41504C3.73265 -9.41504 -17.5564 11.8576 -17.5564 38.0986C-17.5564 64.3397 3.73265 85.6123 29.994 85.6123Z" fill="#FFDB2D"/>
<path d="M29.9953 -9.41473C28.8043 -9.41473 27.6243 -9.36966 26.4557 -9.28349C51.0636 -7.474 70.4663 13.0476 70.4663 38.0989C70.4663 63.1499 51.0636 83.6716 26.4557 85.4814C27.6243 85.5672 28.8046 85.6126 29.9953 85.6126C56.2563 85.6126 77.5454 64.34 77.5454 38.0992C77.5454 11.8578 56.2563 -9.41473 29.9953 -9.41473Z" fill="#FFCA00"/>
</g>
</g>
<defs>
<linearGradient id="paint0_linear_4_3" x1="233.757" y1="144.434" x2="326.055" y2="150.587" gradientUnits="userSpaceOnUse">
<stop stop-color="#DC464E"/>
<stop offset="1" stop-color="#C72E37"/>
</linearGradient>
<linearGradient id="paint1_linear_4_3" x1="454.825" y1="-3.04161" x2="457.189" y2="-40.2932" gradientUnits="userSpaceOnUse">
<stop stop-color="#DC464E"/>
<stop offset="1" stop-color="#C72E37"/>
</linearGradient>
<linearGradient id="paint2_linear_4_3" x1="350" y1="51.6219" x2="539.871" y2="51.6219" gradientUnits="userSpaceOnUse">
<stop stop-color="#58595B"/>
<stop offset="1" stop-color="#414042"/>
</linearGradient>
<linearGradient id="paint3_linear_4_3" x1="331.895" y1="157.266" x2="215.278" y2="169.572" gradientUnits="userSpaceOnUse">
<stop offset="0.12" stop-color="#9EC8F0"/>
<stop offset="1" stop-color="#65B3E1"/>
</linearGradient>
<linearGradient id="paint4_linear_4_3" x1="367.581" y1="151.832" x2="399.226" y2="151.832" gradientUnits="userSpaceOnUse">
<stop stop-color="#F0F1F1"/>
<stop offset="1" stop-color="#E5E6E7"/>
</linearGradient>
<linearGradient id="paint5_linear_4_3" x1="333.251" y1="170.11" x2="216.633" y2="182.417" gradientUnits="userSpaceOnUse">
<stop offset="0.12" stop-color="#9EC8F0"/>
<stop offset="1" stop-color="#65B3E1"/>
</linearGradient>
<linearGradient id="paint6_linear_4_3" x1="490.645" y1="151.832" x2="522.29" y2="151.832" gradientUnits="userSpaceOnUse">
<stop stop-color="#F0F1F1"/>
<stop offset="1" stop-color="#E5E6E7"/>
</linearGradient>
<linearGradient id="paint7_linear_4_3" x1="355.253" y1="96.2749" x2="405.558" y2="133.091" gradientUnits="userSpaceOnUse">
<stop stop-color="#92634D"/>
<stop offset="1" stop-color="#92634D"/>
</linearGradient>
<linearGradient id="paint8_linear_4_3" x1="460.431" y1="32.1478" x2="454.64" y2="81.1433" gradientUnits="userSpaceOnUse">
<stop stop-color="#D59A61"/>
<stop offset="1" stop-color="#C07E51"/>
</linearGradient>
<linearGradient id="paint9_linear_4_3" x1="385.256" y1="119.582" x2="418.498" y2="143.91" gradientUnits="userSpaceOnUse">
<stop stop-color="#92634D"/>
<stop offset="1" stop-color="#92634D"/>
</linearGradient>
<linearGradient id="paint10_linear_4_3" x1="353.82" y1="96.5773" x2="404.57" y2="133.718" gradientUnits="userSpaceOnUse">
<stop stop-color="#92634D"/>
<stop offset="1" stop-color="#92634D"/>
</linearGradient>
<linearGradient id="paint11_linear_4_3" x1="467.618" y1="65.0289" x2="565.85" y2="93.8172" gradientUnits="userSpaceOnUse">
<stop offset="0.12" stop-color="#9EC8F0"/>
<stop offset="1" stop-color="#65B3E1"/>
</linearGradient>
<linearGradient id="paint12_linear_4_3" x1="409.774" y1="63.9283" x2="385.894" y2="63.9283" gradientUnits="userSpaceOnUse">
<stop stop-color="#F0F1F1"/>
<stop offset="1" stop-color="#E5E6E7"/>
</linearGradient>
<linearGradient id="paint13_linear_4_3" x1="409.774" y1="63.9283" x2="385.894" y2="63.9283" gradientUnits="userSpaceOnUse">
<stop stop-color="#F0F1F1"/>
<stop offset="1" stop-color="#E5E6E7"/>
</linearGradient>
<linearGradient id="paint14_linear_4_3" x1="409.774" y1="40.1944" x2="385.894" y2="40.1944" gradientUnits="userSpaceOnUse">
<stop stop-color="#F0F1F1"/>
<stop offset="1" stop-color="#E5E6E7"/>
</linearGradient>
<linearGradient id="paint15_linear_4_3" x1="409.774" y1="40.1944" x2="385.894" y2="40.1944" gradientUnits="userSpaceOnUse">
<stop stop-color="#F0F1F1"/>
<stop offset="1" stop-color="#E5E6E7"/>
</linearGradient>
<linearGradient id="paint16_linear_4_3" x1="409.774" y1="54.259" x2="385.894" y2="54.259" gradientUnits="userSpaceOnUse">
<stop stop-color="#F0F1F1"/>
<stop offset="1" stop-color="#E5E6E7"/>
</linearGradient>
<linearGradient id="paint17_linear_4_3" x1="459" y1="44.8832" x2="459" y2="361.889" gradientUnits="userSpaceOnUse">
<stop stop-color="#90CC33"/>
<stop offset="1" stop-color="#90CC33"/>
</linearGradient>
<linearGradient id="paint18_linear_4_3" x1="568.658" y1="137.407" x2="528.25" y2="134.912" gradientUnits="userSpaceOnUse">
<stop stop-color="#58595B"/>
<stop offset="1" stop-color="#414042"/>
</linearGradient>
<linearGradient id="paint19_linear_4_3" x1="40.5833" y1="112.657" x2="57.9154" y2="115.048" gradientUnits="userSpaceOnUse">
<stop stop-color="#DD464E"/>
<stop offset="1" stop-color="#C82E37"/>
</linearGradient>
<linearGradient id="paint20_linear_4_3" x1="58.213" y1="132.588" x2="64.5792" y2="133.763" gradientUnits="userSpaceOnUse">
<stop stop-color="#58595B"/>
<stop offset="1" stop-color="#414042"/>
</linearGradient>
<linearGradient id="paint21_linear_4_3" x1="57.9811" y1="131.084" x2="64.4549" y2="132.279" gradientUnits="userSpaceOnUse">
<stop stop-color="#58595B"/>
<stop offset="1" stop-color="#414042"/>
</linearGradient>
<linearGradient id="paint22_linear_4_3" x1="55.8762" y1="121.006" x2="62.9931" y2="121.501" gradientUnits="userSpaceOnUse">
<stop stop-color="#7C7E81"/>
<stop offset="1" stop-color="#6D6E71"/>
</linearGradient>
<linearGradient id="paint23_linear_4_3" x1="47.5484" y1="114.078" x2="53.9242" y2="114.078" gradientUnits="userSpaceOnUse">
<stop stop-color="#58595B"/>
<stop offset="1" stop-color="#414042"/>
</linearGradient>
<linearGradient id="paint24_linear_4_3" x1="56.3376" y1="109.813" x2="63.5094" y2="110.312" gradientUnits="userSpaceOnUse">
<stop stop-color="#7C7E81"/>
<stop offset="1" stop-color="#6D6E71"/>
</linearGradient>
<linearGradient id="paint25_linear_4_3" x1="-5.31904" y1="182.23" x2="13.8741" y2="180.063" gradientUnits="userSpaceOnUse">
<stop stop-color="#689C72"/>
<stop offset="1" stop-color="#2E7452"/>
</linearGradient>
<linearGradient id="paint26_linear_4_3" x1="166.715" y1="73.8594" x2="170.499" y2="134.621" gradientUnits="userSpaceOnUse">
<stop stop-color="#58595B"/>
<stop offset="1" stop-color="#414042"/>
</linearGradient>
<linearGradient id="paint27_linear_4_3" x1="-7.2447" y1="120.576" x2="11.2826" y2="118.484" gradientUnits="userSpaceOnUse">
<stop stop-color="#689C72"/>
<stop offset="1" stop-color="#2E7452"/>
</linearGradient>
<linearGradient id="paint28_linear_4_3" x1="-1.62195" y1="170.381" x2="16.9054" y2="168.289" gradientUnits="userSpaceOnUse">
<stop stop-color="#689C72"/>
<stop offset="1" stop-color="#2E7452"/>
</linearGradient>
<linearGradient id="paint29_linear_4_3" x1="110.902" y1="152.443" x2="109.259" y2="161.109" gradientUnits="userSpaceOnUse">
<stop stop-color="#6C6F73"/>
<stop offset="1" stop-color="#56585B"/>
</linearGradient>
<linearGradient id="paint30_linear_4_3" x1="101.672" y1="150.692" x2="100.029" y2="159.358" gradientUnits="userSpaceOnUse">
<stop stop-color="#6C6F73"/>
<stop offset="1" stop-color="#56585B"/>
</linearGradient>
<linearGradient id="paint31_linear_4_3" x1="92.442" y1="148.942" x2="90.7984" y2="157.608" gradientUnits="userSpaceOnUse">
<stop stop-color="#6C6F73"/>
<stop offset="1" stop-color="#56585B"/>
</linearGradient>
<linearGradient id="paint32_linear_4_3" x1="83.2118" y1="147.191" x2="81.5682" y2="155.857" gradientUnits="userSpaceOnUse">
<stop stop-color="#6C6F73"/>
<stop offset="1" stop-color="#56585B"/>
</linearGradient>
<linearGradient id="paint33_linear_4_3" x1="91.071" y1="148.89" x2="91.6686" y2="111.537" gradientUnits="userSpaceOnUse">
<stop stop-color="#689C72"/>
<stop offset="1" stop-color="#2E7452"/>
</linearGradient>
<linearGradient id="paint34_linear_4_3" x1="82.3786" y1="110.81" x2="83.574" y2="131.13" gradientUnits="userSpaceOnUse">
<stop stop-color="#957E7F"/>
<stop offset="1" stop-color="#373638"/>
</linearGradient>
<linearGradient id="paint35_linear_4_3" x1="87.4922" y1="96.9457" x2="87.4922" y2="275.846" gradientUnits="userSpaceOnUse">
<stop stop-color="#FFD385"/>
<stop offset="0.824" stop-color="#FF9B34"/>
</linearGradient>
<linearGradient id="paint36_linear_4_3" x1="24.5124" y1="194.251" x2="28.0983" y2="194.451" gradientUnits="userSpaceOnUse">
<stop stop-color="#58595B"/>
<stop offset="1" stop-color="#414042"/>
</linearGradient>
<linearGradient id="paint37_linear_4_3" x1="60.8439" y1="196.738" x2="66.7463" y2="196.962" gradientUnits="userSpaceOnUse">
<stop stop-color="#FFD385"/>
<stop offset="0.824" stop-color="#FF9B34"/>
</linearGradient>
<linearGradient id="paint38_linear_4_3" x1="103.005" y1="169.334" x2="103.901" y2="180.54" gradientUnits="userSpaceOnUse">
<stop offset="0.049" stop-color="#F37E3E"/>
<stop offset="1" stop-color="#EA5C43"/>
</linearGradient>
<linearGradient id="paint39_linear_4_3" x1="122.156" y1="126.031" x2="101.836" y2="126.031" gradientUnits="userSpaceOnUse">
<stop stop-color="#50A7D1"/>
<stop offset="1" stop-color="#198CC3"/>
</linearGradient>
<linearGradient id="paint40_linear_4_3" x1="122.156" y1="141.57" x2="101.836" y2="141.57" gradientUnits="userSpaceOnUse">
<stop stop-color="#50A7D1"/>
<stop offset="1" stop-color="#198CC3"/>
</linearGradient>
<linearGradient id="paint41_linear_4_3" x1="173.342" y1="150.168" x2="173.94" y2="112.815" gradientUnits="userSpaceOnUse">
<stop stop-color="#689C72"/>
<stop offset="1" stop-color="#2E7452"/>
</linearGradient>
<linearGradient id="paint42_linear_4_3" x1="113.402" y1="199.844" x2="116.39" y2="198.649" gradientUnits="userSpaceOnUse">
<stop stop-color="#6C6F73"/>
<stop offset="1" stop-color="#56585B"/>
</linearGradient>
<linearGradient id="paint43_linear_4_3" x1="171.095" y1="105.732" x2="172.29" y2="126.053" gradientUnits="userSpaceOnUse">
<stop stop-color="#957E7F"/>
<stop offset="1" stop-color="#373638"/>
</linearGradient>
<linearGradient id="paint44_linear_4_3" x1="144.518" y1="186.742" x2="126.273" y2="185.903" gradientUnits="userSpaceOnUse">
<stop offset="0.04" stop-color="#FB9E4B"/>
<stop offset="0.809" stop-color="#F37E3E"/>
</linearGradient>
<linearGradient id="paint45_linear_4_3" x1="175.945" y1="46.237" x2="175.945" y2="375.469" gradientUnits="userSpaceOnUse">
<stop stop-color="#FFD385"/>
<stop offset="0.824" stop-color="#FF9B34"/>
</linearGradient>
<linearGradient id="paint46_linear_4_3" x1="27.6967" y1="179.952" x2="31.2826" y2="180.15" gradientUnits="userSpaceOnUse">
<stop stop-color="#58595B"/>
<stop offset="1" stop-color="#414042"/>
</linearGradient>
<linearGradient id="paint47_linear_4_3" x1="28.3589" y1="168.036" x2="31.9448" y2="168.234" gradientUnits="userSpaceOnUse">
<stop stop-color="#58595B"/>
<stop offset="1" stop-color="#414042"/>
</linearGradient>
<linearGradient id="paint48_linear_4_3" x1="27.0345" y1="191.868" x2="30.6204" y2="192.067" gradientUnits="userSpaceOnUse">
<stop stop-color="#58595B"/>
<stop offset="1" stop-color="#414042"/>
</linearGradient>
<linearGradient id="paint49_linear_4_3" x1="27.7337" y1="179.29" x2="31.3197" y2="179.489" gradientUnits="userSpaceOnUse">
<stop stop-color="#58595B"/>
<stop offset="1" stop-color="#414042"/>
</linearGradient>
<linearGradient id="paint50_linear_4_3" x1="27.6608" y1="180.614" x2="31.2468" y2="180.812" gradientUnits="userSpaceOnUse">
<stop stop-color="#58595B"/>
<stop offset="1" stop-color="#414042"/>
</linearGradient>
<linearGradient id="paint51_linear_4_3" x1="153.679" y1="104.96" x2="158.659" y2="174.288" gradientUnits="userSpaceOnUse">
<stop stop-color="#58595B"/>
<stop offset="1" stop-color="#414042"/>
</linearGradient>
<clipPath id="clip0_4_3">
<rect width="320" height="568" fill="white" transform="matrix(0 1 -1 0 568 0)"/>
</clipPath>
<clipPath id="clip1_4_3">
<rect width="157" height="157" fill="white" transform="translate(-48 -40)"/>
</clipPath>
</defs>
</svg>
