<svg width="512" height="512" viewBox="0 0 512 512" fill="none" xmlns="http://www.w3.org/2000/svg">
<path d="M32 392H16V258.24C16 220.4 41.416 186.704 77.808 176.304C78.512 176.104 79.256 176 80 176H96V192H81.152C52.16 200.784 32 227.864 32 258.24V392ZM184 392H200V424H184V392ZM216 392H232V424H216V392ZM320 64L317.312 59.968C308.631 46.9476 303.999 31.6488 304 16L286 29.496C281.989 32.5066 278.672 36.3437 276.272 40.7476C273.873 45.1515 272.447 50.0194 272.092 55.0219C271.737 60.0245 272.461 65.0449 274.215 69.7434C275.968 74.442 278.71 78.7091 282.256 82.256L288 88M416 64L418.688 59.968C427.369 46.9476 432.001 31.6488 432 16L450 29.496C454.011 32.5066 457.328 36.3437 459.728 40.7476C462.127 45.1515 463.553 50.0194 463.908 55.0219C464.263 60.0245 463.539 65.0449 461.785 69.7434C460.032 74.442 457.29 78.7091 453.744 82.256L448 88" fill="#A8B0BC"/>
<path d="M452.048 96H461.576C466.097 95.9989 470.574 96.8886 474.751 98.6182C478.928 100.348 482.723 102.883 485.92 106.08C489.117 109.277 491.652 113.072 493.382 117.249C495.111 121.426 496.001 125.903 496 130.424V152H486.256C477.126 152 468.369 148.375 461.912 141.92L456 136L454.96 134.504" fill="#C66B60"/>
<path d="M25.6 423.2C22.6202 420.964 20.2016 418.065 18.5354 414.732C16.8693 411.4 16.0012 407.726 16 404V376L34.736 385.368C38.7217 387.362 42.0736 390.425 44.4162 394.216C46.7589 398.007 47.9998 402.376 48 406.832V440L25.6 423.2Z" fill="#52565A"/>
<path d="M256 360C256 382.088 234.512 400 208 400C181.488 400 160 382.088 160 360" fill="#C66B60"/>
<path d="M384 449.128V448L386.624 437.504C395.506 401.968 399.998 365.477 400 328.848V327.408C392.244 339.929 381.911 350.655 369.688 358.872L368 360L367.488 360.4C366.642 386.826 364.758 413.209 361.84 439.488L360.424 452.208C365.165 449.483 370.532 448.033 376 448C378.776 448 381.432 448.464 384 449.128ZM136.288 449.224L136 448L139.472 423.68C142.488 402.584 144 381.304 144 360V356.952C141.12 356.104 138.208 355.4 135.36 354.456L129.04 352.352C116.533 382.966 108.119 415.097 104.016 447.912L104 448H96C101.88 448 107.336 449.632 112.04 452.416C116.874 449.554 122.382 448.03 128 448C130.888 448 133.632 448.504 136.288 449.224Z" fill="#A8B0BC"/>
<path d="M416 272V272.344C416 289.466 411.773 306.323 403.694 321.419C395.615 336.515 383.934 349.383 369.688 358.88L368 360L367.488 360.4C366.642 386.826 364.758 413.209 361.84 439.488L360 456H328L325.664 445.488C318.848 414.814 314.567 383.632 312.864 352.256L312.848 352H312L304.64 354.456C277.722 363.425 249.534 367.999 221.16 368H218.84C190.464 367.999 162.273 363.426 135.352 354.456L129.032 352.352C116.525 382.966 108.111 415.097 104.008 447.912L103.88 448.984L81.384 453.552L56 352L48.752 243.28C48.2559 235.806 48.928 228.299 50.744 221.032L51.6 217.616C55.2216 203.121 63.2637 190.112 74.611 180.393C85.9584 170.674 100.049 164.727 114.928 163.376L240 152V130.336C240.002 121.23 243.62 112.498 250.059 106.059C256.498 99.6203 265.23 96.0021 274.336 96H296" fill="#E3E4E5"/>
<path d="M288 232L280.16 122.2C279.555 113.736 280.699 105.238 283.522 97.2352C286.345 89.2327 290.786 81.8975 296.568 75.6867C302.351 69.4759 309.35 64.5226 317.131 61.1356C324.911 57.7485 333.306 56.0004 341.792 56H394.2C402.686 55.9993 411.081 57.7465 418.861 61.1325C426.642 64.5186 433.642 69.471 439.425 75.681C445.208 81.8911 449.65 89.2257 452.474 97.2278C455.299 105.23 456.444 113.728 455.84 122.192L448 232" fill="#EBF7FE"/>
<path d="M280 117.792C280 110.104 281.464 102.784 284.032 96H274.424C269.903 95.9989 265.426 96.8886 261.249 98.6182C257.072 100.348 253.277 102.883 250.08 106.08C246.883 109.277 244.348 113.072 242.618 117.249C240.889 121.426 239.999 125.903 240 130.424V152H249.744C258.874 152 267.631 148.375 274.088 141.92L280 136L280.84 131.792L280.152 122.2C280.053 120.733 280.003 119.263 280 117.792ZM344 192C352.6 192 360.72 193.424 368 195.904C375.732 193.298 383.84 191.979 392 192C422.928 192 448 209.912 448 232C448 254.088 422.928 272 392 272C383.84 272.021 375.732 270.702 368 268.096C360.72 270.576 352.6 272 344 272C313.072 272 288 254.088 288 232C288 209.912 313.072 192 344 192Z" fill="#C66B60"/>
<path d="M394.208 56H389.672C379.922 64.5983 373.022 75.9617 369.89 88.578C366.757 101.194 367.541 114.466 372.137 126.626C376.732 138.786 384.922 149.258 395.616 156.649C406.31 164.04 419.001 167.999 432 168C439.304 168 446.288 166.712 452.824 164.464L455.84 122.2C456.445 113.736 455.301 105.238 452.478 97.2352C449.655 89.2327 445.214 81.8975 439.431 75.6867C433.649 69.4759 426.65 64.5226 418.869 61.1356C411.089 57.7485 402.694 56.0004 394.208 56ZM208 240C216.487 240 224.626 243.371 230.627 249.373C236.629 255.374 240 263.513 240 272C240 272.4 239.896 272.768 239.88 273.168C242.525 272.428 245.254 272.035 248 272C254.329 272 260.516 273.877 265.778 277.393C271.041 280.909 275.142 285.907 277.564 291.754C279.986 297.601 280.62 304.035 279.385 310.243C278.15 316.45 275.103 322.152 270.627 326.627C266.152 331.103 260.45 334.15 254.243 335.385C248.035 336.62 241.601 335.986 235.754 333.564C229.907 331.142 224.909 327.041 221.393 321.778C217.877 316.516 216 310.329 216 304C216 303.6 216.104 303.232 216.12 302.832C213.475 303.572 210.746 303.965 208 304C199.513 304 191.374 300.629 185.373 294.627C179.371 288.626 176 280.487 176 272C176 263.513 179.371 255.374 185.373 249.373C191.374 243.371 199.513 240 208 240Z" fill="#52565A"/>
<path d="M412 240C405.384 240 400 234.616 400 228C400 221.384 405.384 216 412 216C418.616 216 424 221.384 424 228C424 234.616 418.616 240 412 240ZM324 240C317.384 240 312 234.616 312 228C312 221.384 317.384 216 324 216C330.616 216 336 221.384 336 228C336 234.616 330.616 240 324 240Z" fill="#E47C6E"/>
<path d="M420 144C413.384 144 408 138.616 408 132C408 125.384 413.384 120 420 120C426.616 120 432 125.384 432 132C432 138.616 426.616 144 420 144ZM316 144C309.384 144 304 138.616 304 132C304 125.384 309.384 120 316 120C322.616 120 328 125.384 328 132C328 138.616 322.616 144 316 144ZM128 448C136.487 448 144.626 451.371 150.627 457.373C156.629 463.374 160 471.513 160 480V496H96V480C96 471.513 99.3714 463.374 105.373 457.373C111.374 451.371 119.513 448 128 448Z" fill="#243242"/>
<path d="M96 448C104.487 448 112.626 451.371 118.627 457.373C124.629 463.374 128 471.513 128 480V496H64V480C64 471.513 67.3714 463.374 73.3726 457.373C79.3737 451.371 87.5131 448 96 448Z" fill="#52565A"/>
<path d="M88 472H104V496H88V472ZM376 448C384.487 448 392.626 451.371 398.627 457.373C404.629 463.374 408 471.513 408 480V496H344V480C344 471.513 347.371 463.374 353.373 457.373C359.374 451.371 367.513 448 376 448Z" fill="#243242"/>
<path d="M344 448C352.487 448 360.626 451.371 366.627 457.373C372.629 463.374 376 471.513 376 480V496H312V480C312 471.513 315.371 463.374 321.373 457.373C327.374 451.371 335.513 448 344 448Z" fill="#52565A"/>
<path d="M336 472H352V496H336V472Z" fill="#243242"/>
<path d="M120 184C120 194.609 124.214 204.783 131.716 212.284C139.217 219.786 149.391 224 160 224C170.609 224 180.783 219.786 188.284 212.284C195.786 204.783 200 194.609 200 184C199.989 173.81 196.065 164.013 189.04 156.632L126.456 162.32C122.25 168.769 120.007 176.301 120 184ZM55.9999 256C53.8662 256.042 51.7393 256.256 49.6399 256.64L54.9199 335.888C55.2879 335.904 55.6319 336 55.9999 336C66.6086 336 76.7827 331.786 84.2842 324.284C91.7856 316.783 95.9999 306.609 95.9999 296C95.9999 285.391 91.7856 275.217 84.2842 267.716C76.7827 260.214 66.6086 256 55.9999 256Z" fill="#52565A"/>
</svg>
