<svg width="219" height="219" viewBox="0 0 219 219" fill="none" xmlns="http://www.w3.org/2000/svg">
<path d="M109.5 198.469L107.789 160.828H119.766L118.053 201.891C118.053 203.252 117.512 204.557 116.55 205.52C115.587 206.483 114.281 207.023 112.92 207.023H75.2812C82.125 201.891 84.0652 196.758 90.6797 196.758C90.6797 196.758 99.5663 197.144 109.5 198.469Z" fill="url(#paint0_linear_12_34)"/>
<path d="M128.32 207.023L126.609 169.383H138.586L136.873 210.445C136.873 211.807 136.333 213.112 135.37 214.075C134.407 215.037 133.102 215.578 131.74 215.578H94.1016C100.945 210.445 102.886 205.312 109.5 205.312C109.5 205.312 118.387 205.699 128.32 207.023Z" fill="url(#paint1_linear_12_34)"/>
<path d="M213.867 116.344C217.022 104.314 216.045 102.501 208.734 106.078C193.87 113.35 185.173 107.811 172.805 102.441C149.659 92.3923 133.559 89.0868 118.055 88.9688C90.6797 88.9688 87.2578 85.5469 87.2578 85.5469C75.5447 78.0615 82.4946 38.0461 82.125 27.375C82.125 14.146 70.6343 3.42188 56.4609 3.42188C44.1747 3.42188 33.3137 11.4804 30.7969 22.2422L25.6641 35.8339L35.9297 44.4844C41.0625 49.6189 48.5701 51.3281 56.4609 51.3281H59.8828C58.1719 73.5703 49.6172 109.5 49.6172 109.5C37.6406 162.539 90.6797 169.383 90.6797 169.383C145.079 189.527 176.112 158.991 176.227 159.117C199.281 150.775 210.368 129.687 213.867 116.344Z" fill="url(#paint2_linear_12_34)"/>
<path d="M51.3281 27.375C54.1629 27.375 56.4609 25.077 56.4609 22.2422C56.4609 19.4074 54.1629 17.1094 51.3281 17.1094C48.4934 17.1094 46.1953 19.4074 46.1953 22.2422C46.1953 25.077 48.4934 27.375 51.3281 27.375Z" fill="url(#paint3_linear_12_34)"/>
<path d="M39.3516 30.6309C39.3516 25.4262 31.8662 25.7719 30.7969 22.2422C27.4999 25.2603 21.6194 29.0859 10.2656 29.0859C4.56307 29.0859 3.42188 33.7277 3.42188 35.9297C3.42188 38.9444 5.98315 41.0163 8.55469 42.6776C13.5027 45.8771 22.2422 47.9062 35.9297 44.4844C30.6189 40.349 39.3516 37.4781 39.3516 30.6309Z" fill="url(#paint4_linear_12_34)"/>
<path d="M29.0859 34.2188C30.9758 34.2188 32.5078 33.4527 32.5078 32.5078C32.5078 31.5629 30.9758 30.7969 29.0859 30.7969C27.1961 30.7969 25.6641 31.5629 25.6641 32.5078C25.6641 33.4527 27.1961 34.2188 29.0859 34.2188Z" fill="url(#paint5_linear_12_34)"/>
<path d="M179.648 126.609C173.499 125.593 165.829 123.797 157.406 118.055C140.175 106.307 130.745 99.2344 114.633 99.2344C97.6244 99.2344 83.8359 112.333 83.8359 128.37C83.8359 144.407 102.757 157.406 119.766 157.406C148.852 157.406 147.141 147.141 147.141 147.141C162.539 147.141 160.828 136.875 160.828 136.875C177.938 136.875 179.648 126.609 179.648 126.609Z" fill="url(#paint6_linear_12_34)"/>
<path d="M35.1786 43.8C35.1392 43.7589 35.0947 43.7162 35.0588 43.6751C34.8469 43.4362 34.6648 43.1725 34.5165 42.8898C34.4193 42.7027 34.3435 42.5053 34.2906 42.3012C34.2786 42.255 34.2752 42.2071 34.2667 42.1609C34.2284 41.962 34.2146 41.7592 34.2256 41.557V41.5313C34.3111 40.2703 35.2795 39.006 36.3557 37.5876C21.0736 40.9068 8.31345 39.0778 3.42188 35.9297C3.42188 38.9444 5.98315 41.0163 8.55469 42.6776C13.5027 45.8771 22.2422 47.9062 35.9297 44.4844C35.6615 44.2766 35.4104 44.0477 35.1786 43.8Z" fill="url(#paint7_linear_12_34)"/>
<defs>
<linearGradient id="paint0_linear_12_34" x1="93.7234" y1="172.463" x2="101.994" y2="197.413" gradientUnits="userSpaceOnUse">
<stop offset="0.04" stop-color="#FB9E4B"/>
<stop offset="0.809" stop-color="#F37E3E"/>
</linearGradient>
<linearGradient id="paint1_linear_12_34" x1="160.045" y1="195.601" x2="168.029" y2="196.173" gradientUnits="userSpaceOnUse">
<stop offset="0.04" stop-color="#FB9E4B"/>
<stop offset="0.809" stop-color="#F37E3E"/>
</linearGradient>
<linearGradient id="paint2_linear_12_34" x1="120.616" y1="-57.1128" x2="120.616" y2="-39.1326" gradientUnits="userSpaceOnUse">
<stop stop-color="#E2DCCA"/>
<stop offset="0.667" stop-color="#F4EADD"/>
</linearGradient>
<linearGradient id="paint3_linear_12_34" x1="-62.2234" y1="-16.0811" x2="-28.0046" y2="-4.53227" gradientUnits="userSpaceOnUse">
<stop stop-color="#58595B"/>
<stop offset="1" stop-color="#414042"/>
</linearGradient>
<linearGradient id="paint4_linear_12_34" x1="21.3867" y1="-0.826384" x2="21.3867" y2="63.8402" gradientUnits="userSpaceOnUse">
<stop offset="0.04" stop-color="#FB9E4B"/>
<stop offset="0.809" stop-color="#F37E3E"/>
</linearGradient>
<linearGradient id="paint5_linear_12_34" x1="-18.2044" y1="-2.95992" x2="9.17063" y2="17.5713" gradientUnits="userSpaceOnUse">
<stop stop-color="#92634D"/>
<stop offset="1" stop-color="#92634D"/>
</linearGradient>
<linearGradient id="paint6_linear_12_34" x1="96.952" y1="127.92" x2="21.7871" y2="126.44" gradientUnits="userSpaceOnUse">
<stop stop-color="#E2DCCA"/>
<stop offset="0.667" stop-color="#F4EADD"/>
</linearGradient>
<linearGradient id="paint7_linear_12_34" x1="20.1069" y1="23.9617" x2="19.4653" y2="61.6742" gradientUnits="userSpaceOnUse">
<stop stop-color="#FFD385"/>
<stop offset="0.824" stop-color="#FF9B34"/>
</linearGradient>
</defs>
</svg>
