<svg width="512" height="512" viewBox="0 0 512 512" fill="none" xmlns="http://www.w3.org/2000/svg">
<path d="M133.938 400.496C146.735 314.416 81.5907 340.323 40.7272 383.394C29.2192 416.473 20.601 440.79 20.601 440.79C17.484 449.129 10.5998 457.964 0 462.413C9.08261 465.581 21.1274 463.207 27.0001 458.79C25.9474 466.809 22.882 473.456 18.1549 478.978C29.2501 477.265 38.8385 473.043 47.116 466.603C46.7238 474.199 44.8247 480.815 41.1814 486.316C51.6883 485.336 60.936 480.371 69.451 473.043C69.0278 479.907 68.0267 486.007 65.9212 490.641C76.6861 490.321 90.31 483.819 98.6185 476.099C136.972 470.629 145.767 442.711 133.938 400.496Z" fill="#E0AC69"/>
<path d="M231.266 298.214C229.514 277.691 213.636 274.407 194.843 277.2C137.819 242.27 99.6022 251.599 73.146 288.605C62.6288 320.094 50.6046 354.97 40.7273 383.394C50.1711 380.834 58.4074 374.745 63.7847 365.962C62.1437 373.94 62.8868 381.928 65.7767 389.927C74.7251 386.862 81.0314 380.824 85.0979 372.257C85.263 380.267 87.2241 387.419 91.3422 393.571C98.825 389.473 104.078 383.064 107.712 375.013C107.495 382.155 109.518 388.524 113.842 394.087C121.315 389.917 126.61 384.302 129.675 377.201C129.087 386.067 130.387 393.591 133.938 400.496L231.266 327.113C244.935 318.145 244.222 308.477 231.266 298.214Z" fill="#F1C27D"/>
<path d="M136.755 198.903C111.51 210.68 91.497 232.53 82.497 260.242C79.607 269.159 76.4488 278.717 73.146 288.605C82.0944 286.819 89.6289 280.017 95.192 272.163C94.2734 279.285 95.9144 285.426 100.456 290.483C107.712 288.078 113.048 283.764 116.619 277.674C117.682 284.6 120.551 290.38 126.341 294.291C134.268 291.092 139.294 285.415 141.905 277.674C143.309 284.569 147.52 290.049 153.94 294.395C160.215 290.958 164.354 285.302 166.583 277.674C167.863 285.24 172.611 291.329 180.114 296.232C187.628 291.329 193.563 284.765 194.843 277.2C198.684 227.81 176.325 204.718 136.755 198.903Z" fill="#FFDBAC"/>
<path d="M408.851 389.019C416.823 381.621 422.426 383.344 426.046 392.693L410.358 466.2C395.123 463.3 390.101 454.159 398.695 436.568L408.851 389.019Z" fill="#655F68"/>
<path d="M421.939 511.964H351.92V486.151C369.537 469.513 396.245 468.671 413.413 476.068L413.434 476.057C416.727 487.214 419.585 499.166 421.939 511.964ZM160.153 486.151V511.964H90.1345C92.4877 499.177 95.3467 487.235 98.6185 476.098C98.6288 476.088 98.6495 476.078 98.6598 476.068C119.3 465.095 146.289 466.56 160.153 486.151Z" fill="#F7B6AD"/>
<path d="M410.358 466.201C406.839 455.57 402.917 445.703 398.696 436.569C379.643 395.377 354.253 368.748 330.132 351.667C319.104 368.858 318.476 385.186 330.132 400.496L351.92 419.611C341.353 443.175 339.83 465.554 351.92 486.151C372.759 489.372 398.933 485.243 413.414 476.068L413.434 476.057C412.443 472.693 411.422 469.41 410.358 466.201ZM133.938 400.496C120.107 420.375 107.732 445.176 98.6187 476.099C98.629 476.088 98.6496 476.078 98.6599 476.068C113.14 485.243 139.315 489.372 160.153 486.151L173.063 428.301L181.941 400.496C199.967 385.547 198.32 369.15 181.941 351.667C165.747 363.134 148.986 378.904 133.938 400.496ZM297.321 333.202C308.461 357.649 310.973 380.534 297.321 400.496C273.539 423.21 245.676 421.147 214.752 400.496C198.745 380.534 201.691 357.649 214.752 333.202C220.707 330.643 226.26 328.651 231.266 327.113C231.266 327.113 236.272 347.776 256.037 347.776C275.802 347.776 280.808 327.113 280.808 327.113C285.813 328.651 291.366 330.643 297.321 333.202Z" fill="#E15C63"/>
<path d="M336.789 22.608C321.865 5.12397 280.807 0.0356445 256.037 0.0356445C231.266 0.0356445 190.208 5.12397 175.284 22.608C160.36 40.0817 143.908 90.7688 143.908 90.7688H368.166C368.166 90.7688 351.714 40.0817 336.789 22.608Z" fill="#F1C27D"/>
<path d="M368.165 90.7688C336.944 83.1931 298.116 78.7034 256.037 78.7034C213.957 78.7034 175.129 83.1931 143.908 90.7688C98.6081 101.75 69.3064 119.235 69.3064 138.917C69.3064 158.31 97.7412 175.567 141.905 186.57L370.199 186.601L370.25 186.559C414.363 175.547 442.767 158.3 442.767 138.917C442.767 119.235 413.465 101.75 368.165 90.7688Z" fill="#E0AC69"/>
<path d="M370.199 186.601C375.896 194.104 377.527 205.468 373.594 216.253C368.764 229.475 357.122 237.608 345.985 236.266H345.975C330.223 218.005 330.385 197.126 357.431 178.488C358.68 178.726 359.857 179.046 361.075 179.541C364.749 181.017 367.825 183.473 370.199 186.601ZM166.098 236.266H166.088C161.381 236.834 156.592 235.709 152.257 233.232V233.221C146.932 230.177 142.298 225.068 139.397 218.514C139.067 217.781 138.757 217.027 138.479 216.253C136.342 210.401 135.847 204.384 136.755 198.904C137.519 194.259 139.284 190.007 141.905 186.57C144.269 183.453 147.345 181.007 150.998 179.541C152.216 179.046 153.393 178.726 154.642 178.488C174.068 200.506 175.466 220.863 166.098 236.266Z" fill="#DFA3A5"/>
<path d="M337.997 132.249C316.869 126.232 288.3 120.525 256.037 120.525C223.773 120.525 195.204 126.232 174.076 132.249C162.363 145.766 154.263 160.251 154.642 178.488C156.799 200.596 160.803 220.939 166.098 236.266C168.338 242.758 170.815 248.352 173.478 252.8C178.06 260.428 185.461 269.19 194.843 277.2C205.009 285.88 217.497 293.672 231.266 298.213V327.113C231.266 327.113 236.272 347.776 256.037 347.776C275.802 347.776 280.807 327.113 280.807 327.113V298.213C307.281 289.492 329.059 268.695 338.595 252.8C341.258 248.352 343.735 242.758 345.975 236.266C351.27 220.939 355.274 200.596 357.432 178.488C356.676 166.772 352.911 151.352 337.997 132.249Z" fill="#F7B6AD"/>
<path d="M505.045 233.304C509.792 234.315 512.817 238.991 511.805 243.738L495.621 319.537C489.449 348.467 463.874 368.273 435.439 368.253L430.041 393.54L426.047 392.693L408.852 389.019L404.857 388.173L410.255 362.875C384.287 351.285 369.033 322.767 375.215 293.837L391.388 218.029C391.878 215.748 393.254 213.755 395.212 212.487C397.17 211.22 399.552 210.781 401.833 211.268C406.581 212.28 409.605 216.955 408.594 221.703L392.441 297.347C392.307 297.966 392.245 298.575 392.245 299.184C392.245 303.25 395.083 306.904 399.212 307.781C403.959 308.803 408.635 305.769 409.646 301.021L425.799 225.377C426.81 220.629 431.486 217.595 436.234 218.617C440.981 219.628 444.016 224.304 442.994 229.051L426.852 304.695C425.84 309.443 428.864 314.118 433.612 315.13C438.36 316.141 443.035 313.117 444.047 308.359L460.199 232.726C460.44 231.596 460.9 230.524 461.555 229.573C462.209 228.621 463.045 227.807 464.014 227.178C464.983 226.55 466.066 226.118 467.202 225.908C468.338 225.698 469.504 225.714 470.634 225.955C475.392 226.967 478.416 231.642 477.405 236.39L461.252 312.034C460.765 314.316 461.204 316.699 462.474 318.658C463.744 320.617 465.74 321.991 468.023 322.478C472.77 323.49 477.446 320.456 478.457 315.708L494.6 240.064C495.09 237.783 496.465 235.79 498.423 234.523C500.382 233.255 502.763 232.817 505.045 233.304Z" fill="#CDC7B9"/>
<path d="M332.805 400.496H179.268C168.71 400.496 160.153 409.052 160.153 419.611V511.964H351.92V419.611C351.92 409.052 343.364 400.496 332.805 400.496Z" fill="#1498B7"/>
<path d="M297.321 400.496V333.202C307.415 337.547 318.624 343.513 330.132 351.667V433.761C330.132 442.823 322.784 450.161 313.732 450.161C309.201 450.161 305.103 448.324 302.131 445.362C300.604 443.841 299.393 442.033 298.568 440.042C297.742 438.051 297.319 435.916 297.321 433.761V400.496ZM181.941 400.496V351.667C183.19 350.779 184.439 349.912 185.688 349.086C194.481 343.172 203.058 338.507 211.026 334.864C212.285 334.286 213.524 333.729 214.752 333.202V433.761C214.752 438.292 212.915 442.39 209.942 445.362C208.419 446.885 206.611 448.093 204.62 448.917C202.629 449.741 200.496 450.163 198.341 450.161C189.29 450.161 181.941 442.823 181.941 433.761V400.496Z" fill="#1EA6BC"/>
<path d="M297.332 186.745C301.892 186.745 305.589 183.048 305.589 178.488C305.589 173.928 301.892 170.231 297.332 170.231C292.771 170.231 289.075 173.928 289.075 178.488C289.075 183.048 292.771 186.745 297.332 186.745Z" fill="#543927"/>
<path d="M285.524 202.991L297.321 236.287L278.01 226.554L271.012 243.233L256.037 227.493L241.061 243.233L234.063 226.554L214.752 236.287L226.549 202.991C228.708 196.896 232.703 191.62 237.983 187.888C243.264 184.157 249.571 182.153 256.037 182.152C262.663 182.152 268.928 184.237 274.088 187.891C279.249 191.534 283.305 196.746 285.524 202.991Z" fill="#604533"/>
<path d="M214.762 186.745C219.322 186.745 223.019 183.048 223.019 178.488C223.019 173.928 219.322 170.231 214.762 170.231C210.202 170.231 206.505 173.928 206.505 178.488C206.505 183.048 210.202 186.745 214.762 186.745Z" fill="#543927"/>
<path d="M368.042 142.571C367.846 156.453 364.316 168.425 357.431 178.488C346.532 166.774 340.051 151.354 337.997 132.25C351.239 136.017 361.56 139.897 368.042 142.571ZM144.031 142.571C150.513 139.897 160.834 136.017 174.076 132.25C172.022 151.354 165.541 166.774 154.642 178.488C147.757 168.425 144.228 156.453 144.031 142.571Z" fill="#604533"/>
<path d="M160.153 486.151V511.964H118.611C127.187 511.964 133.143 501.158 137.261 486.946C145.064 487.503 152.928 487.266 160.153 486.151Z" fill="#DFA3A5"/>
<path d="M160.153 426.687V486.151C152.928 487.266 145.064 487.503 137.261 486.946C143.198 466.434 145.321 438.817 146.011 426.289C146.112 424.483 146.901 422.786 148.215 421.544C149.529 420.302 151.268 419.61 153.076 419.611C154.953 419.611 156.753 420.356 158.08 421.683C159.407 423.01 160.153 424.81 160.153 426.687Z" fill="#D14B62"/>
<path d="M351.92 486.151V511.964H393.463C384.886 511.964 378.931 501.158 374.812 486.946C367.01 487.503 359.145 487.266 351.92 486.151Z" fill="#DFA3A5"/>
<path d="M351.92 426.687V486.151C359.145 487.266 367.01 487.503 374.812 486.946C368.876 466.434 366.753 438.817 366.062 426.289C365.961 424.483 365.173 422.786 363.859 421.544C362.545 420.302 360.805 419.61 358.997 419.611C357.121 419.611 355.321 420.356 353.993 421.683C352.666 423.01 351.92 424.81 351.92 426.687Z" fill="#D14B62"/>
<path d="M280.807 298.214V316.926C253.921 324.481 231.266 310.939 231.266 310.939V298.214C239.172 300.814 247.491 302.342 256.037 302.342C264.583 302.342 272.901 300.814 280.807 298.214Z" fill="#DFA3A5"/>
<path d="M313.242 142.252C302.934 134.988 289.284 137.289 288.708 137.391C287.63 137.581 286.671 138.191 286.043 139.088C285.415 139.985 285.169 141.095 285.359 142.173C285.549 143.252 286.16 144.21 287.057 144.839C287.954 145.467 289.063 145.713 290.142 145.523C290.248 145.504 301.075 143.779 308.484 149.001C308.926 149.314 309.427 149.536 309.956 149.655C310.485 149.775 311.032 149.788 311.567 149.696C312.101 149.603 312.612 149.406 313.07 149.116C313.528 148.826 313.925 148.448 314.237 148.005C314.867 147.11 315.117 146.001 314.93 144.922C314.744 143.843 314.136 142.883 313.242 142.252ZM223.385 137.391C222.809 137.289 209.159 134.988 198.852 142.252C197.957 142.883 197.35 143.843 197.163 144.922C196.976 146.001 197.225 147.11 197.856 148.005C198.487 148.9 199.448 149.507 200.527 149.694C201.605 149.881 202.714 149.632 203.609 149.001C211.044 143.76 221.778 145.495 221.96 145.524C223.037 145.707 224.142 145.457 225.034 144.828C225.926 144.199 226.533 143.242 226.721 142.166C226.91 141.091 226.664 139.984 226.039 139.089C225.414 138.194 224.459 137.584 223.385 137.391Z" fill="#604533"/>
<path d="M377.57 142.26C377.455 142.203 374.678 140.846 369.616 138.755C363.195 136.106 352.693 132.139 339.128 128.28C311.445 120.396 283.489 116.397 256.037 116.397C228.584 116.397 200.629 120.396 172.946 128.28C159.379 132.139 148.878 136.106 142.456 138.756C137.395 140.847 134.619 142.204 134.503 142.261C133.521 142.743 132.77 143.596 132.416 144.632C132.062 145.668 132.134 146.801 132.616 147.784C133.098 148.767 133.95 149.518 134.986 149.873C136.021 150.227 137.155 150.156 138.138 149.675C138.165 149.662 140.823 148.365 145.607 146.388C151.828 143.822 162.014 139.975 175.208 136.221C202.155 128.545 229.35 124.654 256.037 124.654C282.723 124.654 309.918 128.546 336.867 136.221C350.058 139.974 360.244 143.822 366.465 146.387C371.252 148.365 373.908 149.662 373.935 149.675C374.918 150.156 376.052 150.227 377.088 149.873C378.124 149.518 378.976 148.767 379.458 147.784C379.94 146.801 380.012 145.667 379.658 144.631C379.304 143.595 378.553 142.742 377.57 142.26Z" fill="#CC9A62"/>
<path d="M186.047 313.608C185.929 312.519 185.385 311.522 184.533 310.835C183.681 310.147 182.591 309.826 181.503 309.942C180.414 310.058 179.416 310.603 178.729 311.455C178.042 312.307 177.721 313.397 177.836 314.486L179.71 332.006C179.839 333.085 180.387 334.069 181.237 334.746C182.087 335.423 183.169 335.738 184.249 335.622C185.329 335.506 186.321 334.97 187.008 334.129C187.695 333.287 188.023 332.209 187.921 331.128L186.047 313.608Z" fill="#E0AC69"/>
<path d="M123.564 228.604C115.787 237.837 109.512 248.237 104.97 259.422C104.559 260.437 104.567 261.573 104.993 262.582C105.42 263.59 106.229 264.388 107.244 264.799C108.258 265.211 109.394 265.203 110.403 264.776C111.411 264.35 112.209 263.541 112.62 262.526C116.837 252.142 122.663 242.487 129.883 233.916C130.243 233.502 130.516 233.021 130.688 232.501C130.86 231.981 130.926 231.432 130.883 230.885C130.84 230.339 130.689 229.807 130.439 229.32C130.188 228.833 129.843 228.4 129.424 228.048C129.004 227.695 128.519 227.43 127.996 227.266C127.473 227.103 126.923 227.046 126.377 227.098C125.832 227.15 125.302 227.309 124.819 227.568C124.336 227.826 123.909 228.178 123.564 228.604ZM144.573 265.104C145.528 265.103 146.453 264.771 147.191 264.164C147.928 263.557 148.433 262.714 148.618 261.777C149.851 255.553 151.328 249.57 153.006 243.993C153.309 242.949 153.187 241.827 152.667 240.872C152.148 239.916 151.272 239.204 150.231 238.891C149.189 238.577 148.066 238.687 147.106 239.197C146.145 239.707 145.424 240.575 145.1 241.613C143.344 247.444 141.803 253.688 140.519 260.172C140.4 260.771 140.416 261.389 140.564 261.981C140.713 262.573 140.991 263.125 141.379 263.597C141.766 264.069 142.254 264.449 142.806 264.71C143.359 264.97 143.962 265.105 144.573 265.104Z" fill="#F1C27D"/>
<path d="M155.43 309.994C154.898 309.891 154.351 309.893 153.819 310.001C153.288 310.109 152.783 310.321 152.334 310.624C151.884 310.927 151.499 311.316 151.2 311.768C150.9 312.22 150.693 312.726 150.59 313.259L142.261 356.081C142.145 356.679 142.162 357.296 142.312 357.887C142.462 358.478 142.741 359.028 143.129 359.498C143.517 359.968 144.004 360.347 144.556 360.606C145.107 360.866 145.709 361 146.319 360.999C147.276 360.998 148.203 360.664 148.942 360.054C149.681 359.445 150.184 358.598 150.368 357.658L158.696 314.836C158.905 313.761 158.678 312.647 158.065 311.739C157.453 310.831 156.505 310.203 155.43 309.994ZM122.887 308.646C121.816 308.419 120.699 308.626 119.781 309.222C118.862 309.818 118.218 310.754 117.989 311.824L108.948 354.275C108.828 354.808 108.814 355.359 108.909 355.898C109.003 356.436 109.204 356.95 109.498 357.41C109.793 357.87 110.176 358.267 110.625 358.578C111.074 358.889 111.581 359.108 112.115 359.222C112.65 359.335 113.201 359.342 113.738 359.241C114.275 359.14 114.787 358.933 115.243 358.633C115.7 358.333 116.092 357.945 116.398 357.492C116.703 357.039 116.916 356.53 117.023 355.994L126.064 313.544C126.292 312.473 126.086 311.355 125.49 310.437C124.894 309.518 123.957 308.874 122.887 308.646ZM91.6754 306.916C91.1539 306.768 90.6082 306.724 90.0696 306.786C89.5309 306.849 89.0099 307.017 88.5364 307.282C88.0628 307.546 87.646 307.901 87.3098 308.326C86.9735 308.752 86.7245 309.239 86.5768 309.761L75.6467 348.259C75.472 348.873 75.4422 349.52 75.5598 350.147C75.6773 350.775 75.939 351.367 76.3242 351.877C76.7093 352.386 77.2075 352.8 77.7795 353.084C78.3515 353.368 78.9816 353.516 79.6203 353.515C80.5185 353.515 81.3921 353.221 82.1084 352.679C82.8248 352.138 83.3449 351.377 83.5899 350.513L94.52 312.015C94.8186 310.962 94.6867 309.833 94.1533 308.877C93.6199 307.921 92.7286 307.215 91.6754 306.916ZM212.281 312.864C212.137 311.779 211.568 310.795 210.699 310.129C209.83 309.463 208.732 309.17 207.646 309.313C206.561 309.457 205.577 310.026 204.911 310.895C204.245 311.765 203.952 312.863 204.095 313.948L205.539 324.862C205.683 325.947 206.252 326.931 207.121 327.597C207.99 328.263 209.088 328.556 210.174 328.413C210.711 328.342 211.229 328.166 211.699 327.895C212.168 327.623 212.579 327.262 212.909 326.832C213.239 326.401 213.481 325.91 213.621 325.386C213.761 324.863 213.796 324.317 213.725 323.779L212.281 312.864Z" fill="#E0AC69"/>
<path d="M63.5607 406.075C63.064 405.857 62.5293 405.74 61.9872 405.729C61.4451 405.719 60.9062 405.815 60.4013 406.013C59.8964 406.21 59.4354 406.505 59.0446 406.881C58.6537 407.257 58.3408 407.706 58.1235 408.203L42.0122 445.039C41.5734 446.042 41.5512 447.179 41.9504 448.199C42.3496 449.218 43.1376 450.038 44.1409 450.477C45.1443 450.915 46.2809 450.938 47.3007 450.538C48.3204 450.139 49.1398 449.351 49.5786 448.348L65.69 411.512C66.1282 410.508 66.1501 409.372 65.7508 408.352C65.3515 407.333 64.5638 406.514 63.5607 406.075ZM91.4433 408.202C90.4047 407.856 89.2712 407.936 88.2916 408.424C87.3119 408.913 86.5661 409.77 86.2177 410.808L72.4493 451.979C72.1349 453.009 72.235 454.12 72.7281 455.077C73.2213 456.034 74.0686 456.761 75.0896 457.102C76.1105 457.444 77.2245 457.373 78.1941 456.905C79.1638 456.438 79.9126 455.61 80.281 454.598L94.0494 413.427C94.2214 412.913 94.2905 412.37 94.2527 411.829C94.2149 411.288 94.0708 410.76 93.8288 410.275C93.5868 409.789 93.2516 409.357 92.8422 409.001C92.4329 408.645 91.9576 408.374 91.4433 408.202Z" fill="#CC9B66"/>
</svg>
