<svg width="512" height="512" viewBox="0 0 512 512" fill="none" xmlns="http://www.w3.org/2000/svg">
<g clip-path="url(#clip0_17_140)">
<path d="M489.387 8.76989e-06C495.384 8.76989e-06 501.136 2.38248 505.377 6.6233C509.618 10.8641 512 16.6159 512 22.6133C512.003 25.5839 511.42 28.526 510.285 31.2713C509.15 34.0166 507.486 36.5115 505.387 38.6133L176 368L144 336L473.387 6.61334C475.489 4.51411 477.983 2.84958 480.729 1.71484C483.474 0.5801 486.416 -0.00260734 489.387 8.76989e-06Z" fill="#E79165"/>
<path d="M10.6454 352.032L0.0107422 341.397L69.3334 272.107L79.9681 282.741L10.6454 352.032ZM170.635 512.096L160 501.461L229.077 432.384L239.712 443.019L170.635 512.096ZM138.613 480.053L127.979 469.419L223.68 373.728L234.315 384.363L138.613 480.053ZM42.6454 384.107L32.0214 373.472L133.376 272.117L144.011 282.752L42.6454 384.107ZM74.6134 416L63.9787 405.355L159.68 309.664L170.315 320.299L74.6134 416ZM106.613 448.075L95.9787 437.44L191.68 341.749L202.315 352.384L106.613 448.075Z" fill="#C6C3D8"/>
<path d="M240.011 442.592L69.4402 272.011C77.9213 263.533 89.422 258.771 101.414 258.771C113.405 258.771 124.906 263.533 133.387 272.011L240.022 378.645C248.499 387.126 253.261 398.627 253.261 410.619C253.261 422.61 248.499 434.111 240.022 442.592H240.011Z" fill="#AAA7BC"/>
</g>
<defs>
<clipPath id="clip0_17_140">
<rect width="512" height="512" fill="white"/>
</clipPath>
</defs>
</svg>
