<svg width="548" height="499" viewBox="0 0 548 499" fill="none" xmlns="http://www.w3.org/2000/svg">
<mask id="path-1-outside-1_12_44" maskUnits="userSpaceOnUse" x="-6" y="405" width="559" height="88" fill="black">
<rect fill="white" x="-6" y="405" width="559" height="88"/>
<path d="M45.408 434.288C45.408 432.944 44.832 431.792 43.68 430.832C42.592 429.872 41.28 429.392 39.744 429.392C36.672 429.392 34.144 431.152 32.16 434.672C30.176 438.128 29.184 442.064 29.184 446.48C29.184 449.872 29.824 452.944 31.104 455.696C32.384 458.384 34.24 460.528 36.672 462.128C39.104 463.728 41.92 464.528 45.12 464.528C47.488 464.528 49.76 464.08 51.936 463.184C54.112 462.224 55.872 461.2 57.216 460.112C58.56 458.96 59.936 457.936 61.344 457.04C62.816 456.08 64.096 455.6 65.184 455.6C66.592 455.6 67.808 456.176 68.832 457.328C69.856 458.416 70.368 459.568 70.368 460.784C70.368 462.128 69.952 463.696 69.12 465.488C68.352 467.28 67.104 469.2 65.376 471.248C63.648 473.232 61.632 475.088 59.328 476.816C57.024 478.48 54.144 479.888 50.688 481.04C47.296 482.128 43.712 482.672 39.936 482.672C34.944 482.672 30.304 481.936 26.016 480.464C21.792 478.928 18.112 476.784 14.976 474.032C11.84 471.216 9.376 467.696 7.584 463.472C5.792 459.248 4.896 454.512 4.896 449.264C4.896 438.896 8 430.704 14.208 424.688C20.416 418.672 28.544 415.664 38.592 415.664C43.712 415.664 48.448 416.528 52.8 418.256C57.152 419.984 60.608 422.384 63.168 425.456C65.728 428.528 67.008 431.888 67.008 435.536C67.008 439.76 65.6 443.6 62.784 447.056C59.968 450.448 56.32 452.144 51.84 452.144C49.28 452.144 46.976 451.44 44.928 450.032C42.88 448.624 41.856 446.608 41.856 443.984C41.856 442.768 42.432 441.072 43.584 438.896C44.8 436.72 45.408 435.184 45.408 434.288ZM113.78 468.56C115.956 468.56 117.812 467.6 119.348 465.68C120.948 463.76 122.068 461.392 122.708 458.576C123.412 455.76 123.764 452.752 123.764 449.552C123.764 446.288 123.412 443.216 122.708 440.336C122.004 437.392 120.852 434.896 119.252 432.848C117.716 430.8 115.892 429.776 113.78 429.776C111.732 429.776 109.94 430.8 108.404 432.848C106.868 434.896 105.716 437.392 104.948 440.336C104.18 443.28 103.796 446.352 103.796 449.552C103.796 452.752 104.148 455.76 104.852 458.576C105.62 461.392 106.772 463.76 108.308 465.68C109.908 467.6 111.732 468.56 113.78 468.56ZM130.772 478.832C125.716 481.328 120.02 482.576 113.684 482.576C107.412 482.576 101.748 481.328 96.6915 478.832C91.6995 476.272 87.6995 472.464 84.6915 467.408C81.6835 462.352 80.1795 456.4 80.1795 449.552C80.1795 439.184 83.2835 430.96 89.4915 424.88C95.7635 418.736 103.86 415.664 113.78 415.664C123.7 415.664 131.796 418.736 138.068 424.88C144.34 430.96 147.476 439.184 147.476 449.552C147.476 456.4 145.94 462.352 142.868 467.408C139.86 472.464 135.828 476.272 130.772 478.832ZM217.142 427.76V456.368C217.142 465.712 214.87 472.432 210.326 476.528C205.846 480.56 198.262 482.576 187.574 482.576C177.398 482.576 169.91 480.4 165.109 476.048C160.374 471.696 158.006 465.136 158.006 456.368V427.76C158.006 424.368 158.998 421.616 160.982 419.504C163.03 417.328 165.59 416.24 168.662 416.24C172.438 416.24 175.286 416.944 177.206 418.352C179.19 419.76 180.182 422.608 180.182 426.896V458.192C180.246 460.24 180.566 461.872 181.142 463.088C181.782 464.304 182.614 465.168 183.638 465.68C184.662 466.128 185.974 466.352 187.574 466.352C189.174 466.352 190.486 466.16 191.51 465.776C192.534 465.392 193.27 464.784 193.718 463.952C194.23 463.12 194.55 462.288 194.678 461.456C194.87 460.624 194.966 459.536 194.966 458.192V426.8C194.966 424.624 195.222 422.8 195.734 421.328C196.31 419.856 197.142 418.768 198.23 418.064C199.382 417.36 200.534 416.88 201.686 416.624C202.902 416.368 204.342 416.24 206.006 416.24C209.718 416.24 212.502 417.136 214.358 418.928C216.214 420.72 217.142 423.664 217.142 427.76ZM290.995 472.88C290.995 475.696 290.163 477.936 288.499 479.6C286.835 481.2 284.403 482 281.203 482C280.371 482 279.539 481.904 278.707 481.712C277.875 481.52 276.979 481.168 276.019 480.656C275.123 480.144 274.323 479.664 273.619 479.216C272.915 478.768 272.019 478.096 270.931 477.2C269.907 476.24 269.075 475.504 268.435 474.992C267.859 474.416 266.931 473.52 265.651 472.304C264.371 471.088 263.443 470.192 262.867 469.616L245.299 453.008V473.84C245.299 476.976 244.691 479.12 243.475 480.272C242.323 481.424 240.467 482 237.907 482C235.091 482 233.011 481.36 231.667 480.08C230.323 478.8 229.651 476.656 229.651 473.648V427.28C229.651 423.632 230.579 420.88 232.435 419.024C234.291 417.168 236.947 416.24 240.403 416.24C242.771 416.24 244.659 416.624 246.067 417.392C247.539 418.096 249.267 419.408 251.251 421.328L275.539 445.52V424.592C275.539 421.84 276.211 419.792 277.555 418.448C278.963 417.04 280.851 416.336 283.219 416.336C285.971 416.336 287.955 416.976 289.171 418.256C290.387 419.536 290.995 421.616 290.995 424.496V472.88ZM341.232 467.6C341.232 471.248 340.784 474.16 339.888 476.336C338.992 478.448 337.744 479.92 336.144 480.752C334.608 481.584 332.56 482 330 482C326.224 482 323.472 481.008 321.744 479.024C320.08 476.976 319.216 473.392 319.152 468.272L318.96 432.848H310.8C306.768 432.848 303.728 432.208 301.68 430.928C299.696 429.648 298.704 427.376 298.704 424.112C298.704 422.128 299.088 420.56 299.856 419.408C300.688 418.256 301.904 417.456 303.504 417.008C305.104 416.496 307.248 416.24 309.936 416.24H351.024C354.608 416.24 357.2 416.88 358.8 418.16C360.4 419.44 361.2 421.648 361.2 424.784C361.2 426.896 360.72 428.56 359.76 429.776C358.864 430.928 357.648 431.728 356.112 432.176C354.576 432.624 352.592 432.848 350.16 432.848H341.232V467.6ZM393.581 467.6C393.581 472.592 392.653 476.24 390.797 478.544C388.941 480.848 386.125 482 382.349 482C378.637 482 375.885 481.008 374.093 479.024C372.365 477.04 371.501 473.488 371.501 468.368V427.76C371.501 420.08 375.117 416.24 382.349 416.24C386.061 416.24 388.845 416.944 390.701 418.352C392.621 419.76 393.581 422.608 393.581 426.896V467.6ZM467.526 472.88C467.526 475.696 466.694 477.936 465.03 479.6C463.366 481.2 460.934 482 457.734 482C456.902 482 456.07 481.904 455.238 481.712C454.406 481.52 453.51 481.168 452.55 480.656C451.654 480.144 450.854 479.664 450.15 479.216C449.446 478.768 448.55 478.096 447.462 477.2C446.438 476.24 445.606 475.504 444.966 474.992C444.39 474.416 443.462 473.52 442.182 472.304C440.902 471.088 439.974 470.192 439.398 469.616L421.83 453.008V473.84C421.83 476.976 421.222 479.12 420.006 480.272C418.854 481.424 416.998 482 414.438 482C411.622 482 409.542 481.36 408.198 480.08C406.854 478.8 406.182 476.656 406.182 473.648V427.28C406.182 423.632 407.11 420.88 408.966 419.024C410.822 417.168 413.478 416.24 416.934 416.24C419.302 416.24 421.19 416.624 422.598 417.392C424.07 418.096 425.798 419.408 427.782 421.328L452.07 445.52V424.592C452.07 421.84 452.742 419.792 454.086 418.448C455.494 417.04 457.382 416.336 459.75 416.336C462.502 416.336 464.486 416.976 465.702 418.256C466.918 419.536 467.526 421.616 467.526 424.496V472.88ZM515.986 432.368C515.986 430.384 514.674 429.392 512.05 429.392C509.362 429.392 507.058 430.896 505.138 433.904C503.218 436.912 502.258 441.936 502.258 448.976C502.258 455.504 503.346 460.272 505.522 463.28C507.762 466.224 510.386 467.696 513.394 467.696C514.354 467.696 515.218 467.504 515.986 467.12C516.818 466.736 517.49 466.16 518.002 465.392C518.514 464.624 518.77 463.696 518.77 462.608C517.234 462.608 515.89 462.32 514.738 461.744C513.65 461.168 512.85 460.464 512.338 459.632C511.826 458.736 511.57 457.776 511.57 456.752C511.57 454.448 512.178 452.72 513.394 451.568C514.61 450.416 516.69 449.84 519.634 449.84H531.25C534.962 449.84 537.842 450.64 539.89 452.24C541.938 453.84 542.962 456.656 542.962 460.688C542.962 466.576 540.146 471.728 534.514 476.144C528.882 480.496 522.194 482.672 514.45 482.672C507.346 482.672 501.01 481.392 495.442 478.832C489.938 476.272 485.554 472.464 482.29 467.408C479.09 462.288 477.49 456.24 477.49 449.264C477.49 438.896 480.626 430.704 486.898 424.688C493.17 418.672 501.49 415.664 511.858 415.664C515.954 415.664 519.634 415.984 522.898 416.624C526.162 417.2 528.85 418 530.962 419.024C533.138 420.048 534.93 421.296 536.338 422.768C537.81 424.176 538.834 425.68 539.41 427.28C540.05 428.88 540.37 430.544 540.37 432.272C540.37 433.488 540.178 434.672 539.794 435.824C539.41 436.912 538.706 438.032 537.682 439.184C536.722 440.272 535.218 441.168 533.17 441.872C531.122 442.576 528.658 442.928 525.778 442.928C521.554 442.928 518.866 442.32 517.714 441.104C516.562 439.824 515.986 436.912 515.986 432.368Z"/>
</mask>
<path d="M45.408 434.288C45.408 432.944 44.832 431.792 43.68 430.832C42.592 429.872 41.28 429.392 39.744 429.392C36.672 429.392 34.144 431.152 32.16 434.672C30.176 438.128 29.184 442.064 29.184 446.48C29.184 449.872 29.824 452.944 31.104 455.696C32.384 458.384 34.24 460.528 36.672 462.128C39.104 463.728 41.92 464.528 45.12 464.528C47.488 464.528 49.76 464.08 51.936 463.184C54.112 462.224 55.872 461.2 57.216 460.112C58.56 458.96 59.936 457.936 61.344 457.04C62.816 456.08 64.096 455.6 65.184 455.6C66.592 455.6 67.808 456.176 68.832 457.328C69.856 458.416 70.368 459.568 70.368 460.784C70.368 462.128 69.952 463.696 69.12 465.488C68.352 467.28 67.104 469.2 65.376 471.248C63.648 473.232 61.632 475.088 59.328 476.816C57.024 478.48 54.144 479.888 50.688 481.04C47.296 482.128 43.712 482.672 39.936 482.672C34.944 482.672 30.304 481.936 26.016 480.464C21.792 478.928 18.112 476.784 14.976 474.032C11.84 471.216 9.376 467.696 7.584 463.472C5.792 459.248 4.896 454.512 4.896 449.264C4.896 438.896 8 430.704 14.208 424.688C20.416 418.672 28.544 415.664 38.592 415.664C43.712 415.664 48.448 416.528 52.8 418.256C57.152 419.984 60.608 422.384 63.168 425.456C65.728 428.528 67.008 431.888 67.008 435.536C67.008 439.76 65.6 443.6 62.784 447.056C59.968 450.448 56.32 452.144 51.84 452.144C49.28 452.144 46.976 451.44 44.928 450.032C42.88 448.624 41.856 446.608 41.856 443.984C41.856 442.768 42.432 441.072 43.584 438.896C44.8 436.72 45.408 435.184 45.408 434.288ZM113.78 468.56C115.956 468.56 117.812 467.6 119.348 465.68C120.948 463.76 122.068 461.392 122.708 458.576C123.412 455.76 123.764 452.752 123.764 449.552C123.764 446.288 123.412 443.216 122.708 440.336C122.004 437.392 120.852 434.896 119.252 432.848C117.716 430.8 115.892 429.776 113.78 429.776C111.732 429.776 109.94 430.8 108.404 432.848C106.868 434.896 105.716 437.392 104.948 440.336C104.18 443.28 103.796 446.352 103.796 449.552C103.796 452.752 104.148 455.76 104.852 458.576C105.62 461.392 106.772 463.76 108.308 465.68C109.908 467.6 111.732 468.56 113.78 468.56ZM130.772 478.832C125.716 481.328 120.02 482.576 113.684 482.576C107.412 482.576 101.748 481.328 96.6915 478.832C91.6995 476.272 87.6995 472.464 84.6915 467.408C81.6835 462.352 80.1795 456.4 80.1795 449.552C80.1795 439.184 83.2835 430.96 89.4915 424.88C95.7635 418.736 103.86 415.664 113.78 415.664C123.7 415.664 131.796 418.736 138.068 424.88C144.34 430.96 147.476 439.184 147.476 449.552C147.476 456.4 145.94 462.352 142.868 467.408C139.86 472.464 135.828 476.272 130.772 478.832ZM217.142 427.76V456.368C217.142 465.712 214.87 472.432 210.326 476.528C205.846 480.56 198.262 482.576 187.574 482.576C177.398 482.576 169.91 480.4 165.109 476.048C160.374 471.696 158.006 465.136 158.006 456.368V427.76C158.006 424.368 158.998 421.616 160.982 419.504C163.03 417.328 165.59 416.24 168.662 416.24C172.438 416.24 175.286 416.944 177.206 418.352C179.19 419.76 180.182 422.608 180.182 426.896V458.192C180.246 460.24 180.566 461.872 181.142 463.088C181.782 464.304 182.614 465.168 183.638 465.68C184.662 466.128 185.974 466.352 187.574 466.352C189.174 466.352 190.486 466.16 191.51 465.776C192.534 465.392 193.27 464.784 193.718 463.952C194.23 463.12 194.55 462.288 194.678 461.456C194.87 460.624 194.966 459.536 194.966 458.192V426.8C194.966 424.624 195.222 422.8 195.734 421.328C196.31 419.856 197.142 418.768 198.23 418.064C199.382 417.36 200.534 416.88 201.686 416.624C202.902 416.368 204.342 416.24 206.006 416.24C209.718 416.24 212.502 417.136 214.358 418.928C216.214 420.72 217.142 423.664 217.142 427.76ZM290.995 472.88C290.995 475.696 290.163 477.936 288.499 479.6C286.835 481.2 284.403 482 281.203 482C280.371 482 279.539 481.904 278.707 481.712C277.875 481.52 276.979 481.168 276.019 480.656C275.123 480.144 274.323 479.664 273.619 479.216C272.915 478.768 272.019 478.096 270.931 477.2C269.907 476.24 269.075 475.504 268.435 474.992C267.859 474.416 266.931 473.52 265.651 472.304C264.371 471.088 263.443 470.192 262.867 469.616L245.299 453.008V473.84C245.299 476.976 244.691 479.12 243.475 480.272C242.323 481.424 240.467 482 237.907 482C235.091 482 233.011 481.36 231.667 480.08C230.323 478.8 229.651 476.656 229.651 473.648V427.28C229.651 423.632 230.579 420.88 232.435 419.024C234.291 417.168 236.947 416.24 240.403 416.24C242.771 416.24 244.659 416.624 246.067 417.392C247.539 418.096 249.267 419.408 251.251 421.328L275.539 445.52V424.592C275.539 421.84 276.211 419.792 277.555 418.448C278.963 417.04 280.851 416.336 283.219 416.336C285.971 416.336 287.955 416.976 289.171 418.256C290.387 419.536 290.995 421.616 290.995 424.496V472.88ZM341.232 467.6C341.232 471.248 340.784 474.16 339.888 476.336C338.992 478.448 337.744 479.92 336.144 480.752C334.608 481.584 332.56 482 330 482C326.224 482 323.472 481.008 321.744 479.024C320.08 476.976 319.216 473.392 319.152 468.272L318.96 432.848H310.8C306.768 432.848 303.728 432.208 301.68 430.928C299.696 429.648 298.704 427.376 298.704 424.112C298.704 422.128 299.088 420.56 299.856 419.408C300.688 418.256 301.904 417.456 303.504 417.008C305.104 416.496 307.248 416.24 309.936 416.24H351.024C354.608 416.24 357.2 416.88 358.8 418.16C360.4 419.44 361.2 421.648 361.2 424.784C361.2 426.896 360.72 428.56 359.76 429.776C358.864 430.928 357.648 431.728 356.112 432.176C354.576 432.624 352.592 432.848 350.16 432.848H341.232V467.6ZM393.581 467.6C393.581 472.592 392.653 476.24 390.797 478.544C388.941 480.848 386.125 482 382.349 482C378.637 482 375.885 481.008 374.093 479.024C372.365 477.04 371.501 473.488 371.501 468.368V427.76C371.501 420.08 375.117 416.24 382.349 416.24C386.061 416.24 388.845 416.944 390.701 418.352C392.621 419.76 393.581 422.608 393.581 426.896V467.6ZM467.526 472.88C467.526 475.696 466.694 477.936 465.03 479.6C463.366 481.2 460.934 482 457.734 482C456.902 482 456.07 481.904 455.238 481.712C454.406 481.52 453.51 481.168 452.55 480.656C451.654 480.144 450.854 479.664 450.15 479.216C449.446 478.768 448.55 478.096 447.462 477.2C446.438 476.24 445.606 475.504 444.966 474.992C444.39 474.416 443.462 473.52 442.182 472.304C440.902 471.088 439.974 470.192 439.398 469.616L421.83 453.008V473.84C421.83 476.976 421.222 479.12 420.006 480.272C418.854 481.424 416.998 482 414.438 482C411.622 482 409.542 481.36 408.198 480.08C406.854 478.8 406.182 476.656 406.182 473.648V427.28C406.182 423.632 407.11 420.88 408.966 419.024C410.822 417.168 413.478 416.24 416.934 416.24C419.302 416.24 421.19 416.624 422.598 417.392C424.07 418.096 425.798 419.408 427.782 421.328L452.07 445.52V424.592C452.07 421.84 452.742 419.792 454.086 418.448C455.494 417.04 457.382 416.336 459.75 416.336C462.502 416.336 464.486 416.976 465.702 418.256C466.918 419.536 467.526 421.616 467.526 424.496V472.88ZM515.986 432.368C515.986 430.384 514.674 429.392 512.05 429.392C509.362 429.392 507.058 430.896 505.138 433.904C503.218 436.912 502.258 441.936 502.258 448.976C502.258 455.504 503.346 460.272 505.522 463.28C507.762 466.224 510.386 467.696 513.394 467.696C514.354 467.696 515.218 467.504 515.986 467.12C516.818 466.736 517.49 466.16 518.002 465.392C518.514 464.624 518.77 463.696 518.77 462.608C517.234 462.608 515.89 462.32 514.738 461.744C513.65 461.168 512.85 460.464 512.338 459.632C511.826 458.736 511.57 457.776 511.57 456.752C511.57 454.448 512.178 452.72 513.394 451.568C514.61 450.416 516.69 449.84 519.634 449.84H531.25C534.962 449.84 537.842 450.64 539.89 452.24C541.938 453.84 542.962 456.656 542.962 460.688C542.962 466.576 540.146 471.728 534.514 476.144C528.882 480.496 522.194 482.672 514.45 482.672C507.346 482.672 501.01 481.392 495.442 478.832C489.938 476.272 485.554 472.464 482.29 467.408C479.09 462.288 477.49 456.24 477.49 449.264C477.49 438.896 480.626 430.704 486.898 424.688C493.17 418.672 501.49 415.664 511.858 415.664C515.954 415.664 519.634 415.984 522.898 416.624C526.162 417.2 528.85 418 530.962 419.024C533.138 420.048 534.93 421.296 536.338 422.768C537.81 424.176 538.834 425.68 539.41 427.28C540.05 428.88 540.37 430.544 540.37 432.272C540.37 433.488 540.178 434.672 539.794 435.824C539.41 436.912 538.706 438.032 537.682 439.184C536.722 440.272 535.218 441.168 533.17 441.872C531.122 442.576 528.658 442.928 525.778 442.928C521.554 442.928 518.866 442.32 517.714 441.104C516.562 439.824 515.986 436.912 515.986 432.368Z" fill="#22C55E"/>
<path d="M43.68 430.832L37.0638 438.33L37.1697 438.424L37.2781 438.514L43.68 430.832ZM32.16 434.672L40.8325 439.651L40.8522 439.616L40.8715 439.582L32.16 434.672ZM31.104 455.696L22.0368 459.913L22.0559 459.954L22.0754 459.995L31.104 455.696ZM36.672 462.128L42.1682 453.774L42.1682 453.774L36.672 462.128ZM51.936 463.184L55.7435 472.431L55.8586 472.383L55.9724 472.333L51.936 463.184ZM57.216 460.112L63.508 467.884L63.6172 467.796L63.7239 467.705L57.216 460.112ZM61.344 457.04L66.7128 465.477L66.7599 465.447L66.8067 465.416L61.344 457.04ZM68.832 457.328L61.3579 463.972L61.4525 464.078L61.55 464.182L68.832 457.328ZM69.12 465.488L60.0499 461.277L59.9872 461.412L59.9286 461.549L69.12 465.488ZM65.376 471.248L72.9168 477.816L72.9683 477.757L73.0189 477.697L65.376 471.248ZM59.328 476.816L65.1829 484.923L65.2559 484.87L65.328 484.816L59.328 476.816ZM50.688 481.04L53.7423 490.562L53.7964 490.545L53.8503 490.527L50.688 481.04ZM26.016 480.464L22.5986 489.862L22.6836 489.893L22.7692 489.922L26.016 480.464ZM14.976 474.032L8.29475 481.472L8.33721 481.511L8.3801 481.548L14.976 474.032ZM7.584 463.472L-1.62182 467.377L-1.62182 467.377L7.584 463.472ZM14.208 424.688L21.1671 431.869L21.1671 431.869L14.208 424.688ZM52.8 418.256L49.1097 427.55L49.1097 427.55L52.8 418.256ZM63.168 425.456L70.8502 419.054L70.8502 419.054L63.168 425.456ZM62.784 447.056L70.4781 453.444L70.5074 453.408L70.5364 453.373L62.784 447.056ZM44.928 450.032L39.2627 458.272L39.2627 458.272L44.928 450.032ZM43.584 438.896L34.8546 434.018L34.7992 434.117L34.7461 434.217L43.584 438.896ZM55.408 434.288C55.408 429.609 53.2161 425.762 50.0819 423.15L37.2781 438.514C36.9668 438.255 36.4537 437.732 36.0317 436.888C35.595 436.015 35.408 435.099 35.408 434.288H55.408ZM50.2962 423.334C47.2678 420.662 43.5609 419.392 39.744 419.392V439.392C39.4563 439.392 38.9931 439.344 38.4442 439.143C37.8865 438.939 37.4163 438.641 37.0638 438.33L50.2962 423.334ZM39.744 419.392C31.9208 419.392 26.5626 424.237 23.4485 429.762L40.8715 439.582C41.3458 438.741 41.5507 438.715 41.2577 438.919C41.0988 439.03 40.8547 439.163 40.5403 439.262C40.2255 439.361 39.9453 439.392 39.744 439.392V419.392ZM23.4875 429.693C20.5421 434.824 19.184 440.511 19.184 446.48H39.184C39.184 443.617 39.8099 441.432 40.8325 439.651L23.4875 429.693ZM19.184 446.48C19.184 451.157 20.0736 455.692 22.0368 459.913L40.1712 451.479C39.5744 450.196 39.184 448.587 39.184 446.48H19.184ZM22.0754 459.995C24.1218 464.293 27.1822 467.855 31.1758 470.482L42.1682 453.774C41.2978 453.201 40.6462 452.475 40.1326 451.397L22.0754 459.995ZM31.1758 470.482C35.4005 473.262 40.1682 474.528 45.12 474.528V454.528C43.6718 454.528 42.8075 454.194 42.1682 453.774L31.1758 470.482ZM45.12 474.528C48.7858 474.528 52.352 473.827 55.7435 472.431L48.1285 453.937C47.1681 454.333 46.1902 454.528 45.12 454.528V474.528ZM55.9724 472.333C58.6782 471.139 61.2735 469.693 63.508 467.884L50.924 452.34C50.4705 452.707 49.5458 453.309 47.8996 454.035L55.9724 472.333ZM63.7239 467.705C64.7302 466.842 65.7272 466.104 66.7128 465.477L55.9752 448.603C54.1448 449.768 52.3898 451.078 50.7081 452.519L63.7239 467.705ZM66.8067 465.416C67.0943 465.229 67.1257 465.246 66.9192 465.323C66.7128 465.401 66.1025 465.6 65.184 465.6V445.6C61.2998 445.6 58.0699 447.237 55.8813 448.664L66.8067 465.416ZM65.184 465.6C64.4779 465.6 63.6635 465.445 62.8711 465.069C62.1006 464.704 61.6096 464.255 61.3579 463.972L76.3061 450.684C73.586 447.624 69.7383 445.6 65.184 445.6V465.6ZM61.55 464.182C61.4298 464.054 61.1228 463.693 60.8459 463.069C60.555 462.415 60.368 461.627 60.368 460.784H80.368C80.368 456.467 78.4636 452.971 76.114 450.474L61.55 464.182ZM60.368 460.784C60.368 460.434 60.4206 460.29 60.3904 460.404C60.3605 460.516 60.2707 460.801 60.0499 461.277L78.1901 469.699C79.3703 467.157 80.368 464.101 80.368 460.784H60.368ZM59.9286 461.549C59.6648 462.164 59.0441 463.245 57.7331 464.799L73.0189 477.697C75.1639 475.155 77.0392 472.396 78.3115 469.427L59.9286 461.549ZM57.8352 464.68C56.6101 466.087 55.1219 467.471 53.328 468.816L65.328 484.816C68.1421 482.705 70.6859 480.377 72.9168 477.816L57.8352 464.68ZM53.4731 468.709C52.1853 469.639 50.2761 470.636 47.5257 471.553L53.8503 490.527C58.0119 489.14 61.8627 487.321 65.1829 484.923L53.4731 468.709ZM47.6337 471.518C45.2866 472.271 42.7377 472.672 39.936 472.672V492.672C44.6863 492.672 49.3054 491.985 53.7423 490.562L47.6337 471.518ZM39.936 472.672C35.9376 472.672 32.4057 472.085 29.2629 471.006L22.7692 489.922C28.2023 491.787 33.9504 492.672 39.936 492.672V472.672ZM29.4334 471.066C26.2858 469.921 23.7045 468.387 21.5719 466.516L8.3801 481.548C12.5195 485.181 17.2982 487.935 22.5986 489.862L29.4334 471.066ZM21.6573 466.592C19.7056 464.839 18.0609 462.563 16.7898 459.567L-1.62182 467.377C0.691073 472.829 3.97443 477.593 8.29475 481.472L21.6573 466.592ZM16.7898 459.567C15.5919 456.743 14.896 453.362 14.896 449.264H-5.104C-5.104 455.662 -4.00793 461.753 -1.62182 467.377L16.7898 459.567ZM14.896 449.264C14.896 441.022 17.2836 435.633 21.1671 431.869L7.24886 417.507C-1.28356 425.775 -5.104 436.77 -5.104 449.264H14.896ZM21.1671 431.869C25.2074 427.954 30.6882 425.664 38.592 425.664V405.664C26.3998 405.664 15.6246 409.39 7.24885 417.507L21.1671 431.869ZM38.592 425.664C42.5668 425.664 46.0374 426.33 49.1097 427.55L56.4903 408.962C50.8586 406.726 44.8572 405.664 38.592 405.664V425.664ZM49.1097 427.55C52.1767 428.768 54.1636 430.271 55.4858 431.858L70.8502 419.054C67.0524 414.497 62.1273 411.2 56.4903 408.962L49.1097 427.55ZM55.4858 431.858C56.7024 433.318 57.008 434.457 57.008 435.536H77.008C77.008 429.319 74.7536 423.738 70.8502 419.054L55.4858 431.858ZM57.008 435.536C57.008 437.325 56.4807 438.961 55.0317 440.739L70.5364 453.373C74.7193 448.239 77.008 442.195 77.008 435.536H57.008ZM55.0899 440.668C54.2091 441.729 53.4015 442.144 51.84 442.144V462.144C59.2385 462.144 65.7269 459.167 70.4781 453.444L55.0899 440.668ZM51.84 442.144C51.2383 442.144 50.9218 442.017 50.5933 441.792L39.2627 458.272C43.0302 460.863 47.3217 462.144 51.84 462.144V442.144ZM50.5933 441.792C50.8063 441.938 51.2222 442.31 51.5398 442.935C51.6848 443.221 51.7684 443.481 51.813 443.683C51.8565 443.88 51.856 443.99 51.856 443.984H31.856C31.856 449.683 34.3263 454.879 39.2627 458.272L50.5933 441.792ZM51.856 443.984C51.856 444.455 51.8018 444.782 51.7739 444.922C51.7451 445.068 51.7266 445.105 51.7568 445.016C51.7858 444.93 51.8473 444.766 51.9599 444.513C52.0715 444.263 52.2224 443.952 52.4219 443.575L34.7461 434.217C33.4611 436.644 31.856 440.18 31.856 443.984H51.856ZM52.3134 443.774C53.0405 442.473 53.7237 441.122 54.2501 439.792C54.6938 438.672 55.408 436.649 55.408 434.288H35.408C35.408 433.844 35.445 433.483 35.4815 433.229C35.5185 432.973 35.5619 432.777 35.5926 432.655C35.6506 432.422 35.6916 432.336 35.6539 432.432C35.6206 432.516 35.5454 432.692 35.407 432.974C35.2705 433.252 35.0894 433.598 34.8546 434.018L52.3134 443.774ZM119.348 465.68L111.665 459.278L111.601 459.355L111.539 459.433L119.348 465.68ZM122.708 458.576L113.006 456.151L112.98 456.255L112.956 456.36L122.708 458.576ZM122.708 440.336L112.982 442.662L112.988 442.686L112.994 442.711L122.708 440.336ZM119.252 432.848L111.252 438.848L111.311 438.927L111.371 439.004L119.252 432.848ZM104.948 440.336L95.2713 437.812L95.2713 437.812L104.948 440.336ZM104.852 458.576L95.1501 461.001L95.1759 461.105L95.2039 461.207L104.852 458.576ZM108.308 465.68L100.499 471.927L100.561 472.005L100.625 472.082L108.308 465.68ZM130.772 478.832L135.198 487.799L135.244 487.776L135.289 487.754L130.772 478.832ZM96.6915 478.832L92.1283 487.73L92.1963 487.765L92.2648 487.799L96.6915 478.832ZM84.6915 467.408L93.2856 462.295L93.2856 462.295L84.6915 467.408ZM89.4915 424.88L96.4885 432.024L96.4893 432.024L89.4915 424.88ZM138.068 424.88L131.07 432.024L131.088 432.042L131.107 432.06L138.068 424.88ZM142.868 467.408L134.321 462.215L134.297 462.255L134.273 462.295L142.868 467.408ZM113.78 478.56C119.414 478.56 124.002 475.87 127.156 471.927L111.539 459.433C111.493 459.49 111.693 459.225 112.209 458.958C112.761 458.673 113.337 458.56 113.78 458.56V478.56ZM127.03 472.082C129.787 468.774 131.524 464.907 132.459 460.792L112.956 456.36C112.611 457.877 112.108 458.746 111.665 459.278L127.03 472.082ZM132.409 461.001C133.33 457.316 133.764 453.487 133.764 449.552H113.764C113.764 452.017 113.493 454.204 113.006 456.151L132.409 461.001ZM133.764 449.552C133.764 445.567 133.333 441.692 132.421 437.961L112.994 442.711C113.49 444.74 113.764 447.009 113.764 449.552H133.764ZM132.433 438.01C131.45 433.9 129.748 430.041 127.132 426.692L111.371 439.004C111.955 439.751 112.557 440.884 112.982 442.662L132.433 438.01ZM127.252 426.848C124.276 422.88 119.719 419.776 113.78 419.776V439.776C113.138 439.776 112.434 439.6 111.836 439.264C111.296 438.961 111.136 438.694 111.252 438.848L127.252 426.848ZM113.78 419.776C107.803 419.776 103.304 422.98 100.403 426.848L116.404 438.848C116.543 438.661 116.399 438.919 115.861 439.226C115.258 439.571 114.51 439.776 113.78 439.776V419.776ZM100.403 426.848C97.9563 430.111 96.3065 433.844 95.2713 437.812L114.624 442.86C115.124 440.94 115.779 439.681 116.404 438.848L100.403 426.848ZM95.2713 437.812C94.2775 441.622 93.7955 445.544 93.7955 449.552H113.796C113.796 447.16 114.082 444.938 114.624 442.86L95.2713 437.812ZM93.7955 449.552C93.7955 453.487 94.2287 457.316 95.1501 461.001L114.553 456.151C114.066 454.204 113.796 452.017 113.796 449.552H93.7955ZM95.2039 461.207C96.2652 465.099 97.965 468.76 100.499 471.927L116.116 459.433C115.578 458.76 114.974 457.685 114.499 455.945L95.2039 461.207ZM100.625 472.082C103.666 475.731 108.114 478.56 113.78 478.56V458.56C114.389 458.56 115.019 458.72 115.533 458.991C115.998 459.235 116.125 459.441 115.99 459.278L100.625 472.082ZM126.345 469.865C122.828 471.602 118.676 472.576 113.684 472.576V492.576C121.363 492.576 128.603 491.054 135.198 487.799L126.345 469.865ZM113.684 472.576C108.772 472.576 104.649 471.608 101.118 469.865L92.2648 487.799C98.8458 491.048 106.051 492.576 113.684 492.576V472.576ZM101.255 469.934C98.0187 468.274 95.3815 465.818 93.2856 462.295L76.0974 472.521C80.0175 479.11 85.3803 484.27 92.1283 487.73L101.255 469.934ZM93.2856 462.295C91.3395 459.024 90.1795 454.899 90.1795 449.552H70.1795C70.1795 457.901 72.0275 465.68 76.0974 472.521L93.2856 462.295ZM90.1795 449.552C90.1795 441.314 92.5666 435.865 96.4885 432.024L82.4945 417.736C74.0004 426.055 70.1795 437.054 70.1795 449.552H90.1795ZM96.4893 432.024C100.644 427.954 106.107 425.664 113.78 425.664V405.664C101.612 405.664 90.8829 409.518 82.4937 417.736L96.4893 432.024ZM113.78 425.664C121.452 425.664 126.915 427.954 131.07 432.024L145.065 417.736C136.676 409.518 125.947 405.664 113.78 405.664V425.664ZM131.107 432.06C135.076 435.908 137.476 441.344 137.476 449.552H157.476C157.476 437.024 153.603 426.012 145.028 417.7L131.107 432.06ZM137.476 449.552C137.476 454.862 136.301 458.957 134.321 462.215L151.414 472.601C155.578 465.747 157.476 457.938 157.476 449.552H137.476ZM134.273 462.295C132.197 465.786 129.551 468.241 126.254 469.91L135.289 487.754C142.104 484.303 147.522 479.142 151.462 472.521L134.273 462.295ZM210.326 476.528L217.015 483.961L217.021 483.956L210.326 476.528ZM165.109 476.048L158.343 483.411L158.368 483.434L158.393 483.456L165.109 476.048ZM160.982 419.504L153.699 412.65L153.693 412.657L160.982 419.504ZM177.206 418.352L171.292 426.416L171.355 426.462L171.418 426.507L177.206 418.352ZM180.182 458.192H170.182V458.348L170.186 458.504L180.182 458.192ZM181.142 463.088L172.104 467.369L172.194 467.559L172.292 467.745L181.142 463.088ZM183.638 465.68L179.165 474.624L179.395 474.739L179.629 474.842L183.638 465.68ZM191.51 465.776L187.998 456.413L187.998 456.413L191.51 465.776ZM193.718 463.952L185.201 458.711L185.05 458.957L184.913 459.211L193.718 463.952ZM194.678 461.456L184.934 459.207L184.85 459.569L184.794 459.935L194.678 461.456ZM195.734 421.328L186.421 417.684L186.351 417.862L186.289 418.043L195.734 421.328ZM198.23 418.064L193.015 409.531L192.905 409.598L192.797 409.668L198.23 418.064ZM201.686 416.624L199.625 406.838L199.571 406.85L199.516 406.862L201.686 416.624ZM214.358 418.928L207.412 426.122L207.412 426.122L214.358 418.928ZM207.142 427.76V456.368H227.142V427.76H207.142ZM207.142 456.368C207.142 464.369 205.173 467.71 203.63 469.1L217.021 483.956C224.566 477.154 227.142 467.055 227.142 456.368H207.142ZM203.636 469.095C201.964 470.599 197.522 472.576 187.574 472.576V492.576C199.001 492.576 209.727 490.521 217.015 483.961L203.636 469.095ZM187.574 472.576C178.526 472.576 173.983 470.595 171.826 468.64L158.393 483.456C165.836 490.205 176.269 492.576 187.574 492.576V472.576ZM171.876 468.685C169.867 466.839 168.006 463.393 168.006 456.368H148.006C148.006 466.879 150.88 476.553 158.343 483.411L171.876 468.685ZM168.006 456.368V427.76H148.006V456.368H168.006ZM168.006 427.76C168.006 427.039 168.11 426.673 168.157 426.543C168.195 426.439 168.222 426.402 168.27 426.351L153.693 412.657C149.674 416.936 148.006 422.288 148.006 427.76H168.006ZM168.264 426.358C168.346 426.27 168.391 426.238 168.394 426.236C168.395 426.236 168.377 426.247 168.349 426.259C168.321 426.271 168.316 426.269 168.35 426.262C168.387 426.255 168.485 426.24 168.662 426.24V406.24C162.92 406.24 157.696 408.404 153.699 412.65L168.264 426.358ZM168.662 426.24C169.959 426.24 170.778 426.364 171.23 426.476C171.672 426.585 171.598 426.641 171.292 426.416L183.119 410.288C178.742 407.078 173.409 406.24 168.662 406.24V426.24ZM171.418 426.507C170.917 426.151 170.553 425.753 170.312 425.408C170.081 425.078 170.001 424.852 169.994 424.833C169.989 424.819 170.04 424.965 170.091 425.327C170.141 425.687 170.182 426.201 170.182 426.896H190.182C190.182 421.777 189.11 414.538 182.993 410.197L171.418 426.507ZM170.182 426.896V458.192H190.182V426.896H170.182ZM170.186 458.504C170.273 461.278 170.714 464.434 172.104 467.369L190.179 458.807C190.318 459.101 190.319 459.212 190.283 459.028C190.247 458.849 190.195 458.481 190.177 457.88L170.186 458.504ZM172.292 467.745C173.707 470.434 175.92 473.001 179.165 474.624L188.11 456.736C188.664 457.013 189.113 457.363 189.449 457.712C189.773 458.048 189.935 458.324 189.991 458.431L172.292 467.745ZM179.629 474.842C182.339 476.027 185.144 476.352 187.574 476.352V456.352C187.406 456.352 187.28 456.346 187.194 456.339C187.108 456.333 187.07 456.326 187.072 456.327C187.075 456.327 187.129 456.336 187.224 456.364C187.32 456.391 187.464 456.439 187.646 456.518L179.629 474.842ZM187.574 476.352C189.868 476.352 192.482 476.091 195.021 475.139L187.998 456.413C188.276 456.309 188.404 456.3 188.31 456.313C188.219 456.327 187.984 456.352 187.574 456.352V476.352ZM195.021 475.139C197.932 474.048 200.749 471.986 202.522 468.693L184.913 459.211C185.308 458.477 185.843 457.833 186.461 457.322C187.061 456.826 187.621 456.554 187.998 456.413L195.021 475.139ZM202.234 469.193C203.334 467.405 204.2 465.322 204.561 462.977L184.794 459.935C184.899 459.254 185.125 458.835 185.201 458.711L202.234 469.193ZM204.421 463.705C204.852 461.84 204.966 459.914 204.966 458.192H184.966C184.966 458.634 184.949 458.943 184.932 459.137C184.914 459.34 184.902 459.346 184.934 459.207L204.421 463.705ZM204.966 458.192V426.8H184.966V458.192H204.966ZM204.966 426.8C204.966 425.334 205.148 424.702 205.178 424.613L186.289 418.043C185.295 420.898 184.966 423.914 184.966 426.8H204.966ZM205.046 424.972C205.045 424.975 204.964 425.18 204.733 425.482C204.492 425.798 204.136 426.153 203.662 426.46L192.797 409.668C189.593 411.741 187.59 414.697 186.421 417.684L205.046 424.972ZM203.444 426.597C203.789 426.386 203.921 426.371 203.855 426.386L199.516 406.862C197.146 407.389 194.974 408.334 193.015 409.531L203.444 426.597ZM203.746 426.409C204.101 426.335 204.817 426.24 206.006 426.24V406.24C203.866 406.24 201.702 406.401 199.625 406.838L203.746 426.409ZM206.006 426.24C207.088 426.24 207.637 426.374 207.814 426.431C207.947 426.474 207.722 426.421 207.412 426.122L221.303 411.734C216.901 407.483 211.173 406.24 206.006 406.24V426.24ZM207.412 426.122C206.925 425.653 206.847 425.293 206.908 425.486C206.984 425.727 207.142 426.42 207.142 427.76H227.142C227.142 422.499 225.998 416.267 221.303 411.734L207.412 426.122ZM288.499 479.6L295.43 486.808L295.501 486.74L295.57 486.671L288.499 479.6ZM276.019 480.656L271.057 489.338L271.184 489.411L271.313 489.48L276.019 480.656ZM273.619 479.216L278.988 470.779L278.987 470.779L273.619 479.216ZM270.931 477.2L264.091 484.495L264.326 484.715L264.574 484.919L270.931 477.2ZM268.435 474.992L261.364 482.063L261.755 482.455L262.188 482.801L268.435 474.992ZM265.651 472.304L272.538 465.054L272.538 465.054L265.651 472.304ZM262.867 469.616L269.938 462.545L269.839 462.446L269.736 462.349L262.867 469.616ZM245.299 453.008L252.168 445.741L235.299 429.793V453.008H245.299ZM243.475 480.272L236.597 473.012L236.499 473.105L236.404 473.201L243.475 480.272ZM231.667 480.08L238.563 472.839L238.563 472.839L231.667 480.08ZM232.435 419.024L239.506 426.095L239.506 426.095L232.435 419.024ZM246.067 417.392L241.278 426.171L241.512 426.298L241.752 426.413L246.067 417.392ZM251.251 421.328L258.308 414.243L258.257 414.192L258.205 414.142L251.251 421.328ZM275.539 445.52L268.482 452.605L285.539 469.595V445.52H275.539ZM280.995 472.88C280.995 473.307 280.932 473.364 280.997 473.19C281.028 473.104 281.082 472.987 281.166 472.857C281.249 472.727 281.341 472.616 281.428 472.529L295.57 486.671C299.47 482.77 300.995 477.789 300.995 472.88H280.995ZM281.568 472.392C281.735 472.231 281.904 472.109 282.051 472.022C282.196 471.937 282.29 471.905 282.302 471.901C282.31 471.898 281.995 472 281.203 472V492C285.976 492 291.283 490.795 295.43 486.808L281.568 472.392ZM281.203 472C281.147 472 281.069 471.994 280.955 471.968L276.458 491.456C278.008 491.814 279.594 492 281.203 492V472ZM280.955 471.968C281.075 471.996 281.114 472.015 281.067 471.996C281.021 471.978 280.907 471.93 280.725 471.832L271.313 489.48C272.847 490.298 274.574 491.021 276.458 491.456L280.955 471.968ZM280.98 471.974C280.191 471.523 279.531 471.125 278.988 470.779L268.25 487.653C269.115 488.203 270.054 488.765 271.057 489.338L280.98 471.974ZM278.987 470.779C278.781 470.648 278.244 470.268 277.288 469.481L264.574 484.919C265.794 485.924 267.048 486.888 268.25 487.653L278.987 470.779ZM277.77 469.905C276.669 468.872 275.619 467.933 274.682 467.183L262.188 482.801C262.53 483.075 263.145 483.608 264.091 484.495L277.77 469.905ZM275.506 467.921C274.833 467.248 273.826 466.277 272.538 465.054L258.763 479.554C260.035 480.763 260.884 481.584 261.364 482.063L275.506 467.921ZM272.538 465.054C271.266 463.845 270.417 463.024 269.938 462.545L255.796 476.687C256.468 477.36 257.475 478.331 258.763 479.554L272.538 465.054ZM269.736 462.349L252.168 445.741L238.429 460.275L255.997 476.883L269.736 462.349ZM235.299 453.008V473.84H255.299V453.008H235.299ZM235.299 473.84C235.299 474.308 235.276 474.642 235.25 474.862C235.225 475.085 235.202 475.142 235.222 475.072C235.251 474.969 235.537 474.017 236.597 473.012L250.352 487.532C254.72 483.394 255.299 477.558 255.299 473.84H235.299ZM236.404 473.201C237.177 472.428 237.93 472.118 238.255 472.017C238.536 471.93 238.481 472 237.907 472V492C241.65 492 246.687 491.202 250.546 487.343L236.404 473.201ZM237.907 472C237.219 472 237.03 471.918 237.176 471.962C237.361 472.019 237.936 472.241 238.563 472.839L224.77 487.321C228.738 491.1 233.82 492 237.907 492V472ZM238.563 472.839C239.353 473.591 239.632 474.314 239.697 474.521C239.747 474.682 239.651 474.458 239.651 473.648H219.651C219.651 477.755 220.509 483.263 224.77 487.321L238.563 472.839ZM239.651 473.648V427.28H219.651V473.648H239.651ZM239.651 427.28C239.651 426.277 239.782 425.797 239.823 425.675C239.84 425.623 239.833 425.661 239.776 425.755C239.717 425.852 239.627 425.974 239.506 426.095L225.364 411.953C221 416.316 219.651 422.032 219.651 427.28H239.651ZM239.506 426.095C239.416 426.185 239.318 426.261 239.228 426.316C239.14 426.37 239.094 426.384 239.117 426.376C239.174 426.356 239.551 426.24 240.403 426.24V406.24C235.166 406.24 229.633 407.684 225.364 411.953L239.506 426.095ZM240.403 426.24C241.063 426.24 241.442 426.295 241.602 426.327C241.758 426.359 241.605 426.349 241.278 426.171L250.855 408.613C247.443 406.752 243.705 406.24 240.403 406.24V426.24ZM241.752 426.413C241.714 426.395 241.931 426.497 242.42 426.868C242.894 427.229 243.518 427.761 244.297 428.514L258.205 414.142C255.904 411.915 253.271 409.753 250.381 408.371L241.752 426.413ZM244.194 428.413L268.482 452.605L282.596 438.435L258.308 414.243L244.194 428.413ZM285.539 445.52V424.592H265.539V445.52H285.539ZM285.539 424.592C285.539 423.997 285.615 423.893 285.544 424.11C285.457 424.375 285.203 424.941 284.626 425.519L270.484 411.377C266.564 415.297 265.539 420.378 265.539 424.592H285.539ZM284.626 425.519C284.304 425.841 283.903 426.091 283.521 426.234C283.17 426.365 283.023 426.336 283.219 426.336V406.336C278.737 406.336 274.116 407.744 270.484 411.377L284.626 425.519ZM283.219 426.336C283.866 426.336 283.96 426.417 283.701 426.333C283.389 426.233 282.656 425.918 281.921 425.143L296.421 411.368C292.486 407.226 287.21 406.336 283.219 406.336V426.336ZM281.921 425.143C281.21 424.396 280.983 423.728 280.94 423.582C280.907 423.467 280.995 423.714 280.995 424.496H300.995C300.995 420.585 300.232 415.381 296.421 411.368L281.921 425.143ZM280.995 424.496V472.88H300.995V424.496H280.995ZM339.888 476.336L349.094 480.241L349.115 480.193L349.135 480.143L339.888 476.336ZM336.144 480.752L331.53 471.88L331.455 471.919L331.381 471.959L336.144 480.752ZM321.744 479.024L313.983 485.33L314.091 485.463L314.203 485.592L321.744 479.024ZM319.152 468.272L309.152 468.326L309.152 468.362L309.153 468.397L319.152 468.272ZM318.96 432.848L328.96 432.794L328.906 422.848H318.96V432.848ZM301.68 430.928L296.259 439.331L296.319 439.37L296.38 439.408L301.68 430.928ZM299.856 419.408L291.749 413.553L291.639 413.705L291.535 413.861L299.856 419.408ZM303.504 417.008L306.2 426.638L306.377 426.588L306.552 426.532L303.504 417.008ZM358.8 418.16L352.553 425.969L352.553 425.969L358.8 418.16ZM359.76 429.776L351.911 423.58L351.889 423.608L351.866 423.637L359.76 429.776ZM356.112 432.176L353.312 422.576L353.312 422.576L356.112 432.176ZM341.232 432.848V422.848H331.232V432.848H341.232ZM331.232 467.6C331.232 470.584 330.843 472.038 330.641 472.529L349.135 480.143C350.725 476.282 351.232 471.912 351.232 467.6H331.232ZM330.682 472.431C330.556 472.728 330.515 472.72 330.652 472.557C330.808 472.374 331.1 472.103 331.53 471.88L340.758 489.624C344.927 487.456 347.543 483.898 349.094 480.241L330.682 472.431ZM331.381 471.959C331.633 471.823 331.705 471.84 331.465 471.888C331.223 471.937 330.755 472 330 472V492C333.504 492 337.385 491.453 340.907 489.545L331.381 471.959ZM330 472C328.949 472 328.519 471.857 328.495 471.849C328.494 471.848 328.521 471.858 328.569 471.882C328.618 471.906 328.685 471.943 328.765 471.996C328.934 472.108 329.116 472.263 329.285 472.456L314.203 485.592C318.541 490.572 324.626 492 330 492V472ZM329.505 472.718C329.911 473.217 329.782 473.338 329.57 472.456C329.366 471.611 329.177 470.225 329.151 468.147L309.153 468.397C309.222 473.96 310.07 480.514 313.983 485.33L329.505 472.718ZM329.152 468.218L328.96 432.794L308.96 432.902L309.152 468.326L329.152 468.218ZM318.96 422.848H310.8V442.848H318.96V422.848ZM310.8 422.848C309.284 422.848 308.233 422.725 307.556 422.582C306.872 422.438 306.77 422.317 306.98 422.448L296.38 439.408C300.756 442.143 306.014 442.848 310.8 442.848V422.848ZM307.101 422.525C307.432 422.738 307.759 423.02 308.043 423.36C308.325 423.696 308.505 424.017 308.613 424.263C308.812 424.72 308.704 424.782 308.704 424.112H288.704C288.704 429.344 290.398 435.55 296.259 439.331L307.101 422.525ZM308.704 424.112C308.704 423.747 308.741 423.679 308.705 423.827C308.665 423.988 308.534 424.418 308.177 424.955L291.535 413.861C289.294 417.224 288.704 420.97 288.704 424.112H308.704ZM307.963 425.263C307.65 425.696 307.27 426.047 306.888 426.298C306.522 426.539 306.256 426.622 306.2 426.638L300.808 407.378C297.414 408.329 294.122 410.267 291.749 413.553L307.963 425.263ZM306.552 426.532C306.757 426.466 307.741 426.24 309.936 426.24V406.24C306.755 406.24 303.451 406.525 300.456 407.484L306.552 426.532ZM309.936 426.24H351.024V406.24H309.936V426.24ZM351.024 426.24C352.264 426.24 352.962 426.355 353.259 426.428C353.557 426.502 353.171 426.463 352.553 425.969L365.047 410.351C360.767 406.927 355.351 406.24 351.024 406.24V426.24ZM352.553 425.969C352.163 425.657 351.849 425.307 351.612 424.962C351.38 424.625 351.257 424.345 351.198 424.182C351.095 423.897 351.2 424.012 351.2 424.784H371.2C371.2 420.248 370.056 414.359 365.047 410.351L352.553 425.969ZM351.2 424.784C351.2 425.457 351.048 424.673 351.911 423.58L367.609 435.972C370.392 432.447 371.2 428.335 371.2 424.784H351.2ZM351.866 423.637C352.089 423.35 352.37 423.089 352.68 422.886C352.982 422.687 353.218 422.603 353.312 422.576L358.912 441.776C362.263 440.799 365.341 438.889 367.654 435.915L351.866 423.637ZM353.312 422.576C353.027 422.659 352.082 422.848 350.16 422.848V442.848C353.102 442.848 356.125 442.589 358.912 441.776L353.312 422.576ZM350.16 422.848H341.232V442.848H350.16V422.848ZM331.232 432.848V467.6H351.232V432.848H331.232ZM390.797 478.544L398.585 484.817L398.585 484.817L390.797 478.544ZM374.093 479.024L366.552 485.592L366.612 485.66L366.672 485.727L374.093 479.024ZM390.701 418.352L384.657 426.319L384.722 426.368L384.788 426.416L390.701 418.352ZM383.581 467.6C383.581 469.517 383.399 470.809 383.194 471.615C382.991 472.413 382.827 472.497 383.01 472.271L398.585 484.817C402.568 479.873 403.581 473.442 403.581 467.6H383.581ZM383.01 472.271C383.071 472.194 383.163 472.102 383.278 472.017C383.392 471.932 383.479 471.892 383.507 471.881C383.552 471.862 383.242 472 382.349 472V492C388.242 492 394.325 490.105 398.585 484.817L383.01 472.271ZM382.349 472C381.353 472 380.933 471.863 380.892 471.849C380.882 471.845 380.963 471.873 381.096 471.96C381.233 472.05 381.38 472.172 381.514 472.321L366.672 485.727C371.008 490.527 376.946 492 382.349 492V472ZM381.634 472.456C382.15 473.048 382.059 473.301 381.866 472.508C381.68 471.745 381.501 470.423 381.501 468.368H361.501C361.501 473.931 362.301 480.711 366.552 485.592L381.634 472.456ZM381.501 468.368V427.76H361.501V468.368H381.501ZM381.501 427.76C381.501 426.593 381.642 425.964 381.72 425.715C381.785 425.507 381.765 425.687 381.493 425.976C381.369 426.108 381.234 426.216 381.112 426.294C380.993 426.369 380.924 426.392 380.94 426.387C380.989 426.369 381.399 426.24 382.349 426.24V406.24C377.033 406.24 371.25 407.68 366.933 412.264C362.723 416.736 361.501 422.523 361.501 427.76H381.501ZM382.349 426.24C383.606 426.24 384.373 426.362 384.77 426.463C385.155 426.56 385.016 426.591 384.657 426.319L396.745 410.385C392.389 407.08 387.041 406.24 382.349 406.24V426.24ZM384.788 426.416C384.272 426.038 383.911 425.625 383.679 425.282C383.458 424.955 383.385 424.739 383.385 424.738C383.384 424.736 383.398 424.777 383.419 424.869C383.44 424.962 383.466 425.098 383.491 425.283C383.541 425.659 383.581 426.188 383.581 426.896H403.581C403.581 421.871 402.586 414.667 396.615 410.288L384.788 426.416ZM383.581 426.896V467.6H403.581V426.896H383.581ZM465.03 479.6L471.961 486.808L472.032 486.74L472.101 486.671L465.03 479.6ZM452.55 480.656L447.589 489.338L447.715 489.411L447.844 489.48L452.55 480.656ZM450.15 479.216L455.519 470.779L455.519 470.779L450.15 479.216ZM447.462 477.2L440.623 484.495L440.857 484.715L441.105 484.919L447.462 477.2ZM444.966 474.992L437.895 482.063L438.287 482.455L438.719 482.801L444.966 474.992ZM442.182 472.304L449.07 465.054L449.069 465.054L442.182 472.304ZM439.398 469.616L446.469 462.545L446.37 462.446L446.268 462.349L439.398 469.616ZM421.83 453.008L428.7 445.741L411.83 429.793V453.008H421.83ZM420.006 480.272L413.129 473.012L413.03 473.105L412.935 473.201L420.006 480.272ZM408.198 480.08L415.095 472.839L415.095 472.839L408.198 480.08ZM408.966 419.024L416.037 426.095L416.037 426.095L408.966 419.024ZM422.598 417.392L417.809 426.171L418.043 426.298L418.283 426.413L422.598 417.392ZM427.782 421.328L434.839 414.243L434.788 414.192L434.736 414.142L427.782 421.328ZM452.07 445.52L445.013 452.605L462.07 469.595V445.52H452.07ZM457.526 472.88C457.526 473.307 457.463 473.364 457.528 473.19C457.56 473.104 457.614 472.987 457.697 472.857C457.78 472.727 457.872 472.616 457.959 472.529L472.101 486.671C476.002 482.77 477.526 477.789 477.526 472.88H457.526ZM458.099 472.392C458.266 472.231 458.435 472.109 458.583 472.022C458.727 471.937 458.821 471.905 458.833 471.901C458.841 471.898 458.526 472 457.734 472V492C462.508 492 467.815 490.795 471.961 486.808L458.099 472.392ZM457.734 472C457.679 472 457.601 471.994 457.487 471.968L452.989 491.456C454.539 491.814 456.126 492 457.734 492V472ZM457.487 471.968C457.606 471.996 457.645 472.015 457.599 471.996C457.552 471.978 457.439 471.93 457.256 471.832L447.844 489.48C449.378 490.298 451.105 491.021 452.989 491.456L457.487 471.968ZM457.511 471.974C456.722 471.523 456.062 471.125 455.519 470.779L444.781 487.653C445.646 488.203 446.586 488.765 447.589 489.338L457.511 471.974ZM455.519 470.779C455.313 470.648 454.775 470.268 453.819 469.481L441.105 484.919C442.325 485.924 443.579 486.888 444.781 487.653L455.519 470.779ZM454.301 469.905C453.2 468.872 452.15 467.933 451.213 467.183L438.719 482.801C439.062 483.075 439.676 483.608 440.623 484.495L454.301 469.905ZM452.037 467.921C451.364 467.248 450.357 466.277 449.07 465.054L435.295 479.554C436.567 480.763 437.416 481.584 437.895 482.063L452.037 467.921ZM449.069 465.054C447.797 463.845 446.948 463.024 446.469 462.545L432.327 476.687C433 477.36 434.007 478.331 435.295 479.554L449.069 465.054ZM446.268 462.349L428.7 445.741L414.96 460.275L432.528 476.883L446.268 462.349ZM411.83 453.008V473.84H431.83V453.008H411.83ZM411.83 473.84C411.83 474.308 411.807 474.642 411.782 474.862C411.756 475.085 411.733 475.142 411.753 475.072C411.783 474.969 412.069 474.017 413.129 473.012L426.883 487.532C431.251 483.394 431.83 477.558 431.83 473.84H411.83ZM412.935 473.201C413.708 472.428 414.462 472.118 414.786 472.017C415.067 471.93 415.012 472 414.438 472V492C418.181 492 423.218 491.202 427.077 487.343L412.935 473.201ZM414.438 472C413.75 472 413.562 471.918 413.707 471.962C413.892 472.019 414.467 472.241 415.095 472.839L401.301 487.321C405.269 491.1 410.351 492 414.438 492V472ZM415.095 472.839C415.884 473.591 416.163 474.314 416.228 474.521C416.279 474.682 416.182 474.458 416.182 473.648H396.182C396.182 477.755 397.04 483.263 401.301 487.321L415.095 472.839ZM416.182 473.648V427.28H396.182V473.648H416.182ZM416.182 427.28C416.182 426.277 416.313 425.797 416.354 425.675C416.371 425.623 416.364 425.661 416.307 425.755C416.248 425.852 416.158 425.974 416.037 426.095L401.895 411.953C397.532 416.316 396.182 422.032 396.182 427.28H416.182ZM416.037 426.095C415.947 426.185 415.849 426.261 415.759 426.316C415.671 426.37 415.625 426.384 415.648 426.376C415.706 426.356 416.082 426.24 416.934 426.24V406.24C411.697 406.24 406.164 407.684 401.895 411.953L416.037 426.095ZM416.934 426.24C417.594 426.24 417.974 426.295 418.133 426.327C418.289 426.359 418.137 426.349 417.809 426.171L427.387 408.613C423.975 406.752 420.236 406.24 416.934 406.24V426.24ZM418.283 426.413C418.245 426.395 418.462 426.497 418.951 426.868C419.425 427.229 420.049 427.761 420.828 428.514L434.736 414.142C432.435 411.915 429.802 409.753 426.913 408.371L418.283 426.413ZM420.725 428.413L445.013 452.605L459.127 438.435L434.839 414.243L420.725 428.413ZM462.07 445.52V424.592H442.07V445.52H462.07ZM462.07 424.592C462.07 423.997 462.147 423.893 462.076 424.11C461.989 424.375 461.735 424.941 461.157 425.519L447.015 411.377C443.095 415.297 442.07 420.378 442.07 424.592H462.07ZM461.157 425.519C460.835 425.841 460.435 426.091 460.052 426.234C459.701 426.365 459.554 426.336 459.75 426.336V406.336C455.269 406.336 450.648 407.744 447.015 411.377L461.157 425.519ZM459.75 426.336C460.397 426.336 460.491 426.417 460.232 426.333C459.921 426.233 459.187 425.918 458.452 425.143L472.952 411.368C469.017 407.226 463.741 406.336 459.75 406.336V426.336ZM458.452 425.143C457.742 424.396 457.514 423.728 457.472 423.582C457.438 423.467 457.526 423.714 457.526 424.496H477.526C477.526 420.585 476.764 415.381 472.952 411.368L458.452 425.143ZM457.526 424.496V472.88H477.526V424.496H457.526ZM505.138 433.904L496.709 428.524L496.709 428.524L505.138 433.904ZM505.522 463.28L497.42 469.141L497.49 469.239L497.563 469.335L505.522 463.28ZM515.986 467.12L511.795 458.04L511.653 458.106L511.514 458.176L515.986 467.12ZM518.002 465.392L509.681 459.845L509.681 459.845L518.002 465.392ZM518.77 462.608H528.77V452.608H518.77V462.608ZM514.738 461.744L510.059 470.582L510.162 470.636L510.266 470.688L514.738 461.744ZM512.338 459.632L503.655 464.593L503.736 464.735L503.821 464.873L512.338 459.632ZM513.394 451.568L520.271 458.828L520.271 458.828L513.394 451.568ZM539.89 452.24L533.733 460.12L533.733 460.12L539.89 452.24ZM534.514 476.144L540.628 484.057L540.656 484.035L540.684 484.013L534.514 476.144ZM495.442 478.832L491.224 487.899L491.244 487.908L491.264 487.918L495.442 478.832ZM482.29 467.408L473.81 472.708L473.849 472.77L473.888 472.832L482.29 467.408ZM486.898 424.688L493.82 431.905L493.82 431.905L486.898 424.688ZM522.898 416.624L520.974 426.437L521.067 426.455L521.16 426.472L522.898 416.624ZM530.962 419.024L526.599 428.022L526.651 428.047L526.704 428.072L530.962 419.024ZM536.338 422.768L529.111 429.68L529.265 429.841L529.426 429.994L536.338 422.768ZM539.41 427.28L530.001 430.667L530.06 430.832L530.125 430.994L539.41 427.28ZM539.794 435.824L549.224 439.152L549.253 439.069L549.281 438.986L539.794 435.824ZM537.682 439.184L530.208 432.54L530.195 432.554L530.183 432.568L537.682 439.184ZM517.714 441.104L510.281 447.794L510.366 447.889L510.454 447.981L517.714 441.104ZM525.986 432.368C525.986 428.966 524.715 424.943 521.033 422.159C517.878 419.774 514.336 419.392 512.05 419.392V439.392C512.387 439.392 510.813 439.506 508.971 438.113C507.956 437.346 507.121 436.305 506.59 435.1C506.084 433.954 505.986 432.963 505.986 432.368H525.986ZM512.05 419.392C504.861 419.392 499.792 423.693 496.709 428.524L513.567 439.284C513.981 438.636 514.106 438.675 513.772 438.894C513.594 439.01 513.329 439.147 512.99 439.249C512.65 439.351 512.324 439.392 512.05 439.392V419.392ZM496.709 428.524C493.168 434.07 492.258 441.566 492.258 448.976H512.258C512.258 442.306 513.267 439.754 513.567 439.284L496.709 428.524ZM492.258 448.976C492.258 456.196 493.381 463.559 497.42 469.141L513.624 457.419C513.31 456.985 512.258 454.812 512.258 448.976H492.258ZM497.563 469.335C501.211 474.129 506.542 477.696 513.394 477.696V457.696C513.466 457.696 513.59 457.706 513.738 457.745C513.887 457.784 513.999 457.835 514.062 457.871C514.184 457.939 513.956 457.851 513.48 457.225L497.563 469.335ZM513.394 477.696C515.721 477.696 518.145 477.221 520.458 476.064L511.514 458.176C512.291 457.787 512.987 457.696 513.394 457.696V477.696ZM520.176 476.2C522.698 475.036 524.794 473.231 526.322 470.939L509.681 459.845C510.185 459.089 510.938 458.436 511.795 458.04L520.176 476.2ZM526.322 470.939C528.113 468.252 528.77 465.31 528.77 462.608H508.77C508.77 462.082 508.914 460.996 509.681 459.845L526.322 470.939ZM518.77 452.608C518.625 452.608 518.613 452.594 518.705 452.614C518.802 452.635 518.983 452.686 519.21 452.8L510.266 470.688C513.049 472.08 515.978 472.608 518.77 472.608V452.608ZM519.417 452.906C519.501 452.951 520.217 453.355 520.854 454.391L503.821 464.873C505.483 467.573 507.799 469.385 510.059 470.582L519.417 452.906ZM521.02 454.671C521.176 454.943 521.321 455.278 521.424 455.663C521.527 456.049 521.57 456.421 521.57 456.752H501.57C501.57 459.53 502.287 462.199 503.655 464.593L521.02 454.671ZM521.57 456.752C521.57 456.452 521.613 456.61 521.459 457.047C521.286 457.538 520.921 458.212 520.271 458.828L506.516 444.308C502.649 447.973 501.57 452.764 501.57 456.752H521.57ZM520.271 458.828C519.399 459.654 518.629 459.883 518.535 459.909C518.477 459.925 518.53 459.905 518.727 459.883C518.921 459.861 519.218 459.84 519.634 459.84V439.84C515.907 439.84 510.568 440.47 506.516 444.308L520.271 458.828ZM519.634 459.84H531.25V439.84H519.634V459.84ZM531.25 459.84C533.661 459.84 534.058 460.374 533.733 460.12L546.046 444.36C541.626 440.906 536.263 439.84 531.25 439.84V459.84ZM533.733 460.12C533.429 459.883 533.192 459.62 533.025 459.379C532.862 459.145 532.802 458.987 532.796 458.969C532.791 458.957 532.836 459.076 532.88 459.371C532.924 459.665 532.962 460.097 532.962 460.688H552.962C552.962 455.3 551.613 448.709 546.046 444.36L533.733 460.12ZM532.962 460.688C532.962 462.837 532.136 465.301 528.343 468.275L540.684 484.013C548.155 478.155 552.962 470.315 552.962 460.688H532.962ZM528.399 468.231C524.675 471.109 520.188 472.672 514.45 472.672V492.672C524.2 492.672 533.088 489.883 540.628 484.057L528.399 468.231ZM514.45 472.672C508.559 472.672 503.684 471.615 499.619 469.746L491.264 487.918C498.335 491.169 506.132 492.672 514.45 492.672V472.672ZM499.659 469.765C495.85 467.993 492.923 465.441 490.691 461.984L473.888 472.832C478.185 479.487 484.026 484.551 491.224 487.899L499.659 469.765ZM490.77 462.108C488.71 458.812 487.49 454.663 487.49 449.264H467.49C467.49 457.817 469.47 465.764 473.81 472.708L490.77 462.108ZM487.49 449.264C487.49 441.053 489.889 435.675 493.82 431.905L479.975 417.471C471.362 425.733 467.49 436.739 467.49 449.264H487.49ZM493.82 431.905C497.879 428.011 503.539 425.664 511.858 425.664V405.664C499.44 405.664 488.46 409.333 479.975 417.471L493.82 431.905ZM511.858 425.664C515.45 425.664 518.469 425.946 520.974 426.437L524.822 406.811C520.799 406.022 516.458 405.664 511.858 405.664V425.664ZM521.16 426.472C523.856 426.948 525.582 427.529 526.599 428.022L535.324 410.026C532.117 408.471 528.467 407.452 524.636 406.776L521.16 426.472ZM526.704 428.072C527.964 428.665 528.692 429.241 529.111 429.68L543.564 415.856C541.168 413.351 538.311 411.431 535.22 409.976L526.704 428.072ZM529.426 429.994C529.999 430.542 530.043 430.783 530.001 430.667L548.819 423.893C547.625 420.577 545.621 417.81 543.25 415.542L529.426 429.994ZM530.125 430.994C530.291 431.409 530.37 431.813 530.37 432.272H550.37C550.37 429.275 549.808 426.351 548.695 423.566L530.125 430.994ZM530.37 432.272C530.37 432.415 530.351 432.531 530.307 432.662L549.281 438.986C550.005 436.813 550.37 434.561 550.37 432.272H530.37ZM530.364 432.496C530.451 432.249 530.526 432.136 530.511 432.158C530.505 432.168 530.48 432.206 530.43 432.272C530.38 432.338 530.308 432.428 530.208 432.54L545.156 445.828C546.768 444.014 548.29 441.797 549.224 439.152L530.364 432.496ZM530.183 432.568C530.514 432.193 530.754 432.058 530.716 432.081C530.7 432.09 530.632 432.129 530.497 432.19C530.362 432.251 530.172 432.328 529.919 432.415L536.421 451.329C539.359 450.319 542.645 448.673 545.18 445.8L530.183 432.568ZM529.919 432.415C529.198 432.663 527.894 432.928 525.778 432.928V452.928C529.422 452.928 533.046 452.489 536.421 451.329L529.919 432.415ZM525.778 432.928C524.954 432.928 524.292 432.898 523.774 432.852C523.249 432.806 522.939 432.75 522.8 432.718C522.648 432.684 522.808 432.704 523.156 432.869C523.503 433.034 524.219 433.43 524.973 434.227L510.454 447.981C513.015 450.684 516.238 451.739 518.388 452.226C520.731 452.756 523.272 452.928 525.778 452.928V432.928ZM525.147 434.414C525.822 435.164 526.114 435.81 526.203 436.027C526.299 436.259 526.281 436.291 526.228 436.02C526.114 435.444 525.986 434.293 525.986 432.368H505.986C505.986 434.987 506.146 437.564 506.608 439.9C507.024 442.003 507.913 445.163 510.281 447.794L525.147 434.414Z" fill="white" mask="url(#path-1-outside-1_12_44)"/>
<mask id="path-3-outside-2_12_44" maskUnits="userSpaceOnUse" x="44" y="176" width="161" height="199" fill="black">
<rect fill="white" x="44" y="176" width="161" height="199"/>
<path d="M131.5 245.25C131.5 237.083 123.917 233 108.75 233C105.583 233 101.25 233.333 95.75 234C90.4167 234.5 86.5 234.75 84 234.75C72 234.75 66 227.583 66 213.25C66 198.417 83.3333 191 118 191C140.5 191 157.333 194.667 168.5 202C179.667 209.333 185.25 218.917 185.25 230.75C185.25 247.25 178.083 260.417 163.75 270.25C173.417 275.417 180.167 280.833 184 286.5C188 292 190 300 190 310.5C190 325 184.25 336.833 172.75 346C161.417 355 146.167 359.5 127 359.5C103 359.5 85.75 357.083 75.25 352.25C64.9167 347.25 59.75 339.75 59.75 329.75C59.75 321.417 61.4167 315.75 64.75 312.75C68.0833 309.583 72.75 308 78.75 308C81.75 308 86.4167 308.333 92.75 309C99.0833 309.667 103.917 310 107.25 310C125.417 310 134.5 306.667 134.5 300C134.5 295.5 132.75 292.417 129.25 290.75C125.75 288.917 119.167 288 109.5 288C99.8333 288 93 286.75 89 284.25C85 281.75 83 277.083 83 270.25C83 259.917 89.8333 254.75 103.5 254.75C112.333 254.75 118.833 254.333 123 253.5C127.333 252.667 129.833 251.75 130.5 250.75C131.167 249.583 131.5 247.75 131.5 245.25Z"/>
</mask>
<path d="M131.5 245.25C131.5 237.083 123.917 233 108.75 233C105.583 233 101.25 233.333 95.75 234C90.4167 234.5 86.5 234.75 84 234.75C72 234.75 66 227.583 66 213.25C66 198.417 83.3333 191 118 191C140.5 191 157.333 194.667 168.5 202C179.667 209.333 185.25 218.917 185.25 230.75C185.25 247.25 178.083 260.417 163.75 270.25C173.417 275.417 180.167 280.833 184 286.5C188 292 190 300 190 310.5C190 325 184.25 336.833 172.75 346C161.417 355 146.167 359.5 127 359.5C103 359.5 85.75 357.083 75.25 352.25C64.9167 347.25 59.75 339.75 59.75 329.75C59.75 321.417 61.4167 315.75 64.75 312.75C68.0833 309.583 72.75 308 78.75 308C81.75 308 86.4167 308.333 92.75 309C99.0833 309.667 103.917 310 107.25 310C125.417 310 134.5 306.667 134.5 300C134.5 295.5 132.75 292.417 129.25 290.75C125.75 288.917 119.167 288 109.5 288C99.8333 288 93 286.75 89 284.25C85 281.75 83 277.083 83 270.25C83 259.917 89.8333 254.75 103.5 254.75C112.333 254.75 118.833 254.333 123 253.5C127.333 252.667 129.833 251.75 130.5 250.75C131.167 249.583 131.5 247.75 131.5 245.25Z" fill="#FF0707"/>
<path d="M95.75 234L97.1501 248.935L97.3528 248.916L97.555 248.891L95.75 234ZM168.5 202L160.266 214.538L160.266 214.538L168.5 202ZM163.75 270.25L155.264 257.881L134.911 271.844L156.679 283.479L163.75 270.25ZM184 286.5L171.576 294.905L171.719 295.116L171.869 295.323L184 286.5ZM172.75 346L182.078 357.747L182.089 357.738L182.1 357.73L172.75 346ZM75.25 352.25L68.7166 365.752L68.8466 365.815L68.9778 365.876L75.25 352.25ZM64.75 312.75L74.7845 323.899L74.9347 323.764L75.0812 323.625L64.75 312.75ZM92.75 309L94.3203 294.082L94.3203 294.082L92.75 309ZM129.25 290.75L122.29 304.037L122.543 304.17L122.801 304.293L129.25 290.75ZM89 284.25L96.95 271.53L96.95 271.53L89 284.25ZM123 253.5L120.167 238.77L120.113 238.78L120.058 238.791L123 253.5ZM130.5 250.75L142.981 259.07L143.267 258.641L143.524 258.192L130.5 250.75ZM146.5 245.25C146.5 240.801 145.437 236.203 142.832 231.995C140.253 227.829 136.68 224.878 132.924 222.855C125.861 219.052 117.189 218 108.75 218V248C111.911 248 114.306 248.216 116.053 248.53C117.835 248.849 118.586 249.207 118.701 249.27C118.737 249.289 118.007 248.889 117.324 247.786C116.615 246.64 116.5 245.616 116.5 245.25H146.5ZM108.75 218C104.695 218 99.6719 218.415 93.945 219.109L97.555 248.891C102.828 248.252 106.471 248 108.75 248V218ZM94.3499 219.065C89.0814 219.559 85.754 219.75 84 219.75V249.75C87.246 249.75 91.7519 249.441 97.1501 248.935L94.3499 219.065ZM84 219.75C82.4617 219.75 81.792 219.517 81.6736 219.47C81.6469 219.46 81.8456 219.56 82.0014 219.746C82.1941 219.976 81 218.69 81 213.25H51C51 222.143 52.8059 231.607 58.9986 239.004C65.6187 246.911 74.9188 249.75 84 249.75V219.75ZM81 213.25C81 212.695 81.0802 212.738 81.0831 212.734C81.2533 212.515 82.1436 211.533 84.9008 210.353C90.7354 207.857 101.279 206 118 206V176C100.054 176 84.5979 177.852 73.0992 182.772C67.1898 185.3 61.58 188.953 57.4169 194.297C53.0865 199.856 51 206.388 51 213.25H81ZM118 206C139.362 206 152.702 209.571 160.266 214.538L176.734 189.462C161.964 179.762 141.638 176 118 176V206ZM160.266 214.538C167.849 219.518 170.25 224.689 170.25 230.75H200.25C200.25 213.145 191.484 199.149 176.734 189.462L160.266 214.538ZM170.25 230.75C170.25 241.999 165.779 250.667 155.264 257.881L172.236 282.619C190.388 270.166 200.25 252.501 200.25 230.75H170.25ZM156.679 283.479C165.355 288.116 169.692 292.12 171.576 294.905L196.424 278.095C190.641 269.547 181.479 262.717 170.821 257.021L156.679 283.479ZM171.869 295.323C173.238 297.205 175 301.556 175 310.5H205C205 298.444 202.762 286.795 196.131 277.677L171.869 295.323ZM175 310.5C175 320.359 171.389 327.903 163.4 334.27L182.1 357.73C197.111 345.764 205 329.641 205 310.5H175ZM163.422 334.253C155.491 340.551 143.881 344.5 127 344.5V374.5C148.453 374.5 167.342 369.449 182.078 357.747L163.422 334.253ZM127 344.5C103.327 344.5 88.8819 342.012 81.5222 338.624L68.9778 365.876C82.6181 372.155 102.673 374.5 127 374.5V344.5ZM81.7834 338.748C78.3566 337.089 76.7498 335.486 75.9776 334.365C75.2871 333.363 74.75 332.022 74.75 329.75H44.75C44.75 337.478 46.7962 344.887 51.2724 351.385C55.6669 357.764 61.81 362.411 68.7166 365.752L81.7834 338.748ZM74.75 329.75C74.75 326.478 75.0894 324.506 75.3905 323.482C75.6828 322.488 75.7396 323.04 74.7845 323.899L54.7155 301.601C46.3869 309.096 44.75 320.5 44.75 329.75H74.75ZM75.0812 323.625C75.0923 323.614 75.1105 323.598 75.1581 323.57C75.2085 323.54 75.3336 323.472 75.5694 323.392C76.0551 323.227 77.0449 323 78.75 323V293C70.1161 293 61.3091 295.329 54.4188 301.875L75.0812 323.625ZM78.75 323C80.9155 323 84.9247 323.259 91.1797 323.918L94.3203 294.082C87.9087 293.408 82.5845 293 78.75 293V323ZM91.1797 323.918C97.6565 324.599 103.115 325 107.25 325V295C104.719 295 100.51 294.734 94.3203 294.082L91.1797 323.918ZM107.25 325C116.83 325 125.784 324.177 132.855 321.582C136.48 320.252 140.587 318.108 143.9 314.46C147.506 310.49 149.5 305.45 149.5 300H119.5C119.5 297.883 120.358 295.76 121.694 294.29C122.736 293.142 123.437 293.082 122.52 293.418C120.508 294.157 115.837 295 107.25 295V325ZM149.5 300C149.5 295.841 148.69 291.237 146.233 286.908C143.698 282.442 139.953 279.233 135.699 277.207L122.801 304.293C122.047 303.934 120.927 303.099 120.142 301.717C119.435 300.471 119.5 299.659 119.5 300H149.5ZM136.21 277.463C132.239 275.382 127.756 274.388 123.756 273.831C119.548 273.245 114.744 273 109.5 273V303C113.922 303 117.244 303.213 119.619 303.544C122.203 303.904 122.761 304.284 122.29 304.037L136.21 277.463ZM109.5 273C105.249 273 102.081 272.72 99.8241 272.307C97.4694 271.877 96.7737 271.42 96.95 271.53L81.05 296.97C88.8694 301.857 99.4163 303 109.5 303V273ZM96.95 271.53C97.2764 271.734 97.6031 272.013 97.8764 272.34C98.1431 272.658 98.2603 272.903 98.2872 272.966C98.3083 273.015 98.2326 272.855 98.1532 272.399C98.0732 271.939 98 271.239 98 270.25H68C68 279.734 70.8842 290.616 81.05 296.97L96.95 271.53ZM98 270.25C98 269.303 98.1566 269.18 98.0066 269.52C97.818 269.948 97.4766 270.359 97.1716 270.59C96.9495 270.758 97.1404 270.53 98.1971 270.264C99.2711 269.993 100.98 269.75 103.5 269.75V239.75C95.2052 239.75 86.2431 241.243 79.0784 246.66C71.1229 252.675 68 261.469 68 270.25H98ZM103.5 269.75C112.502 269.75 120.243 269.348 125.942 268.209L120.058 238.791C117.424 239.318 112.165 239.75 103.5 239.75V269.75ZM125.833 268.23C128.35 267.746 130.95 267.128 133.289 266.271C134.462 265.84 135.93 265.221 137.423 264.317C138.785 263.493 141.112 261.873 142.981 259.07L118.019 242.429C118.829 241.215 119.681 240.359 120.316 239.807C120.957 239.249 121.519 238.876 121.889 238.652C122.268 238.423 122.56 238.28 122.717 238.208C122.801 238.17 122.864 238.143 122.903 238.127C122.922 238.119 122.937 238.113 122.947 238.11C122.952 238.108 122.955 238.107 122.958 238.106C122.96 238.105 122.961 238.104 122.961 238.104C122.961 238.104 122.96 238.105 122.958 238.106C122.955 238.106 122.952 238.108 122.948 238.109C122.939 238.112 122.925 238.117 122.908 238.123C122.872 238.135 122.821 238.151 122.754 238.171C122.618 238.212 122.431 238.265 122.185 238.328C121.687 238.456 121.023 238.605 120.167 238.77L125.833 268.23ZM143.524 258.192C146.18 253.543 146.5 248.465 146.5 245.25H116.5C116.5 245.884 116.454 246.026 116.492 245.817C116.514 245.696 116.572 245.411 116.707 245.007C116.841 244.604 117.076 244.008 117.476 243.308L143.524 258.192Z" fill="white" mask="url(#path-3-outside-2_12_44)"/>
<path d="M274.5 280.469L272.789 242.828H284.766L283.053 283.891C283.053 285.252 282.512 286.557 281.55 287.52C280.587 288.483 279.281 289.023 277.92 289.023H240.281C247.125 283.891 249.065 278.758 255.68 278.758C255.68 278.758 264.566 279.144 274.5 280.469Z" fill="url(#paint0_linear_12_44)"/>
<path d="M293.32 289.023L291.609 251.383H303.586L301.873 292.445C301.873 293.807 301.333 295.112 300.37 296.075C299.407 297.037 298.102 297.578 296.74 297.578H259.102C265.945 292.445 267.886 287.312 274.5 287.312C274.5 287.312 283.387 287.699 293.32 289.023Z" fill="url(#paint1_linear_12_44)"/>
<path d="M378.867 198.344C382.022 186.314 381.045 184.501 373.734 188.078C358.87 195.35 350.173 189.811 337.805 184.441C314.659 174.392 298.559 171.087 283.055 170.969C255.68 170.969 252.258 167.547 252.258 167.547C240.545 160.062 247.495 120.046 247.125 109.375C247.125 96.146 235.634 85.4219 221.461 85.4219C209.175 85.4219 198.314 93.4804 195.797 104.242L190.664 117.834L200.93 126.484C206.062 131.619 213.57 133.328 221.461 133.328H224.883C223.172 155.57 214.617 191.5 214.617 191.5C202.641 244.539 255.68 251.383 255.68 251.383C310.079 271.527 341.112 240.991 341.227 241.117C364.281 232.775 375.368 211.687 378.867 198.344Z" fill="url(#paint2_linear_12_44)"/>
<path d="M216.328 109.375C219.163 109.375 221.461 107.077 221.461 104.242C221.461 101.407 219.163 99.1094 216.328 99.1094C213.493 99.1094 211.195 101.407 211.195 104.242C211.195 107.077 213.493 109.375 216.328 109.375Z" fill="url(#paint3_linear_12_44)"/>
<path d="M204.352 112.631C204.352 107.426 196.866 107.772 195.797 104.242C192.5 107.26 186.619 111.086 175.266 111.086C169.563 111.086 168.422 115.728 168.422 117.93C168.422 120.944 170.983 123.016 173.555 124.678C178.503 127.877 187.242 129.906 200.93 126.484C195.619 122.349 204.352 119.478 204.352 112.631Z" fill="url(#paint4_linear_12_44)"/>
<path d="M194.086 116.219C195.976 116.219 197.508 115.453 197.508 114.508C197.508 113.563 195.976 112.797 194.086 112.797C192.196 112.797 190.664 113.563 190.664 114.508C190.664 115.453 192.196 116.219 194.086 116.219Z" fill="url(#paint5_linear_12_44)"/>
<path d="M344.648 208.609C338.499 207.593 330.829 205.797 322.406 200.055C305.175 188.307 295.745 181.234 279.633 181.234C262.624 181.234 248.836 194.333 248.836 210.37C248.836 226.407 267.757 239.406 284.766 239.406C313.852 239.406 312.141 229.141 312.141 229.141C327.539 229.141 325.828 218.875 325.828 218.875C342.938 218.875 344.648 208.609 344.648 208.609Z" fill="url(#paint6_linear_12_44)"/>
<path d="M200.179 125.8C200.139 125.759 200.095 125.716 200.059 125.675C199.847 125.436 199.665 125.173 199.516 124.89C199.419 124.703 199.344 124.505 199.291 124.301C199.279 124.255 199.275 124.207 199.267 124.161C199.228 123.962 199.215 123.759 199.226 123.557V123.531C199.311 122.27 200.28 121.006 201.356 119.588C186.074 122.907 173.313 121.078 168.422 117.93C168.422 120.944 170.983 123.016 173.555 124.678C178.503 127.877 187.242 129.906 200.93 126.484C200.662 126.277 200.41 126.048 200.179 125.8Z" fill="url(#paint7_linear_12_44)"/>
<path d="M393.5 198.469L391.789 160.828H403.766L402.053 201.891C402.053 203.252 401.512 204.557 400.55 205.52C399.587 206.483 398.281 207.023 396.92 207.023H359.281C366.125 201.891 368.065 196.758 374.68 196.758C374.68 196.758 383.566 197.144 393.5 198.469Z" fill="url(#paint8_linear_12_44)"/>
<path d="M412.32 207.023L410.609 169.383H422.586L420.873 210.445C420.873 211.807 420.333 213.112 419.37 214.075C418.407 215.037 417.102 215.578 415.74 215.578H378.102C384.945 210.445 386.886 205.312 393.5 205.312C393.5 205.312 402.387 205.699 412.32 207.023Z" fill="url(#paint9_linear_12_44)"/>
<path d="M497.867 116.344C501.022 104.314 500.045 102.501 492.734 106.078C477.87 113.35 469.173 107.811 456.805 102.441C433.659 92.3923 417.559 89.0868 402.055 88.9688C374.68 88.9688 371.258 85.5469 371.258 85.5469C359.545 78.0615 366.495 38.0461 366.125 27.375C366.125 14.146 354.634 3.42188 340.461 3.42188C328.175 3.42188 317.314 11.4804 314.797 22.2422L309.664 35.8339L319.93 44.4844C325.062 49.6189 332.57 51.3281 340.461 51.3281H343.883C342.172 73.5703 333.617 109.5 333.617 109.5C321.641 162.539 374.68 169.383 374.68 169.383C429.079 189.527 460.112 158.991 460.227 159.117C483.281 150.775 494.368 129.687 497.867 116.344Z" fill="url(#paint10_linear_12_44)"/>
<path d="M335.328 27.375C338.163 27.375 340.461 25.077 340.461 22.2422C340.461 19.4074 338.163 17.1094 335.328 17.1094C332.493 17.1094 330.195 19.4074 330.195 22.2422C330.195 25.077 332.493 27.375 335.328 27.375Z" fill="url(#paint11_linear_12_44)"/>
<path d="M323.352 30.6309C323.352 25.4262 315.866 25.7719 314.797 22.2422C311.5 25.2603 305.619 29.0859 294.266 29.0859C288.563 29.0859 287.422 33.7277 287.422 35.9297C287.422 38.9444 289.983 41.0163 292.555 42.6776C297.503 45.8771 306.242 47.9062 319.93 44.4844C314.619 40.349 323.352 37.4781 323.352 30.6309Z" fill="url(#paint12_linear_12_44)"/>
<path d="M313.086 34.2188C314.976 34.2188 316.508 33.4527 316.508 32.5078C316.508 31.5629 314.976 30.7969 313.086 30.7969C311.196 30.7969 309.664 31.5629 309.664 32.5078C309.664 33.4527 311.196 34.2188 313.086 34.2188Z" fill="url(#paint13_linear_12_44)"/>
<path d="M463.648 126.609C457.499 125.593 449.829 123.797 441.406 118.055C424.175 106.307 414.745 99.2344 398.633 99.2344C381.624 99.2344 367.836 112.333 367.836 128.37C367.836 144.407 386.757 157.406 403.766 157.406C432.852 157.406 431.141 147.141 431.141 147.141C446.539 147.141 444.828 136.875 444.828 136.875C461.938 136.875 463.648 126.609 463.648 126.609Z" fill="url(#paint14_linear_12_44)"/>
<path d="M319.179 43.8C319.139 43.7589 319.095 43.7162 319.059 43.6751C318.847 43.4362 318.665 43.1725 318.516 42.8898C318.419 42.7027 318.344 42.5053 318.291 42.3012C318.279 42.255 318.275 42.2071 318.267 42.1609C318.228 41.962 318.215 41.7592 318.226 41.557V41.5313C318.311 40.2703 319.28 39.006 320.356 37.5876C305.074 40.9068 292.313 39.0778 287.422 35.9297C287.422 38.9444 289.983 41.0163 292.555 42.6776C297.503 45.8771 306.242 47.9062 319.93 44.4844C319.662 44.2766 319.41 44.0477 319.179 43.8Z" fill="url(#paint15_linear_12_44)"/>
<path d="M383.5 370.469L381.789 332.828H393.766L392.053 373.891C392.053 375.252 391.512 376.557 390.55 377.52C389.587 378.483 388.281 379.023 386.92 379.023H349.281C356.125 373.891 358.065 368.758 364.68 368.758C364.68 368.758 373.566 369.144 383.5 370.469Z" fill="url(#paint16_linear_12_44)"/>
<path d="M402.32 379.023L400.609 341.383H412.586L410.873 382.445C410.873 383.807 410.333 385.112 409.37 386.075C408.407 387.037 407.102 387.578 405.74 387.578H368.102C374.945 382.445 376.886 377.312 383.5 377.312C383.5 377.312 392.387 377.699 402.32 379.023Z" fill="url(#paint17_linear_12_44)"/>
<path d="M487.867 288.344C491.022 276.314 490.045 274.501 482.734 278.078C467.87 285.35 459.173 279.811 446.805 274.441C423.659 264.392 407.559 261.087 392.055 260.969C364.68 260.969 361.258 257.547 361.258 257.547C349.545 250.062 356.495 210.046 356.125 199.375C356.125 186.146 344.634 175.422 330.461 175.422C318.175 175.422 307.314 183.48 304.797 194.242L299.664 207.834L309.93 216.484C315.062 221.619 322.57 223.328 330.461 223.328H333.883C332.172 245.57 323.617 281.5 323.617 281.5C311.641 334.539 364.68 341.383 364.68 341.383C419.079 361.527 450.112 330.991 450.227 331.117C473.281 322.775 484.368 301.687 487.867 288.344Z" fill="url(#paint18_linear_12_44)"/>
<path d="M325.328 199.375C328.163 199.375 330.461 197.077 330.461 194.242C330.461 191.407 328.163 189.109 325.328 189.109C322.493 189.109 320.195 191.407 320.195 194.242C320.195 197.077 322.493 199.375 325.328 199.375Z" fill="url(#paint19_linear_12_44)"/>
<path d="M313.352 202.631C313.352 197.426 305.866 197.772 304.797 194.242C301.5 197.26 295.619 201.086 284.266 201.086C278.563 201.086 277.422 205.728 277.422 207.93C277.422 210.944 279.983 213.016 282.555 214.678C287.503 217.877 296.242 219.906 309.93 216.484C304.619 212.349 313.352 209.478 313.352 202.631Z" fill="url(#paint20_linear_12_44)"/>
<path d="M303.086 206.219C304.976 206.219 306.508 205.453 306.508 204.508C306.508 203.563 304.976 202.797 303.086 202.797C301.196 202.797 299.664 203.563 299.664 204.508C299.664 205.453 301.196 206.219 303.086 206.219Z" fill="url(#paint21_linear_12_44)"/>
<path d="M453.648 298.609C447.499 297.593 439.829 295.797 431.406 290.055C414.175 278.307 404.745 271.234 388.633 271.234C371.624 271.234 357.836 284.333 357.836 300.37C357.836 316.407 376.757 329.406 393.766 329.406C422.852 329.406 421.141 319.141 421.141 319.141C436.539 319.141 434.828 308.875 434.828 308.875C451.938 308.875 453.648 298.609 453.648 298.609Z" fill="url(#paint22_linear_12_44)"/>
<path d="M309.179 215.8C309.139 215.759 309.095 215.716 309.059 215.675C308.847 215.436 308.665 215.173 308.516 214.89C308.419 214.703 308.344 214.505 308.291 214.301C308.279 214.255 308.275 214.207 308.267 214.161C308.228 213.962 308.215 213.759 308.226 213.557V213.531C308.311 212.27 309.28 211.006 310.356 209.588C295.074 212.907 282.313 211.078 277.422 207.93C277.422 210.944 279.983 213.016 282.555 214.678C287.503 217.877 296.242 219.906 309.93 216.484C309.662 216.277 309.41 216.048 309.179 215.8Z" fill="url(#paint23_linear_12_44)"/>
<defs>
<linearGradient id="paint0_linear_12_44" x1="258.723" y1="254.463" x2="266.994" y2="279.413" gradientUnits="userSpaceOnUse">
<stop offset="0.04" stop-color="#FB9E4B"/>
<stop offset="0.809" stop-color="#F37E3E"/>
</linearGradient>
<linearGradient id="paint1_linear_12_44" x1="325.045" y1="277.601" x2="333.029" y2="278.173" gradientUnits="userSpaceOnUse">
<stop offset="0.04" stop-color="#FB9E4B"/>
<stop offset="0.809" stop-color="#F37E3E"/>
</linearGradient>
<linearGradient id="paint2_linear_12_44" x1="285.616" y1="24.8872" x2="285.616" y2="42.8674" gradientUnits="userSpaceOnUse">
<stop stop-color="#E2DCCA"/>
<stop offset="0.667" stop-color="#F4EADD"/>
</linearGradient>
<linearGradient id="paint3_linear_12_44" x1="102.777" y1="65.9189" x2="136.995" y2="77.4677" gradientUnits="userSpaceOnUse">
<stop stop-color="#58595B"/>
<stop offset="1" stop-color="#414042"/>
</linearGradient>
<linearGradient id="paint4_linear_12_44" x1="186.387" y1="81.1736" x2="186.387" y2="145.84" gradientUnits="userSpaceOnUse">
<stop offset="0.04" stop-color="#FB9E4B"/>
<stop offset="0.809" stop-color="#F37E3E"/>
</linearGradient>
<linearGradient id="paint5_linear_12_44" x1="146.796" y1="79.0401" x2="174.171" y2="99.5713" gradientUnits="userSpaceOnUse">
<stop stop-color="#92634D"/>
<stop offset="1" stop-color="#92634D"/>
</linearGradient>
<linearGradient id="paint6_linear_12_44" x1="261.952" y1="209.92" x2="186.787" y2="208.44" gradientUnits="userSpaceOnUse">
<stop stop-color="#E2DCCA"/>
<stop offset="0.667" stop-color="#F4EADD"/>
</linearGradient>
<linearGradient id="paint7_linear_12_44" x1="185.107" y1="105.962" x2="184.465" y2="143.674" gradientUnits="userSpaceOnUse">
<stop stop-color="#FFD385"/>
<stop offset="0.824" stop-color="#FF9B34"/>
</linearGradient>
<linearGradient id="paint8_linear_12_44" x1="377.723" y1="172.463" x2="385.994" y2="197.413" gradientUnits="userSpaceOnUse">
<stop offset="0.04" stop-color="#FB9E4B"/>
<stop offset="0.809" stop-color="#F37E3E"/>
</linearGradient>
<linearGradient id="paint9_linear_12_44" x1="444.045" y1="195.601" x2="452.029" y2="196.173" gradientUnits="userSpaceOnUse">
<stop offset="0.04" stop-color="#FB9E4B"/>
<stop offset="0.809" stop-color="#F37E3E"/>
</linearGradient>
<linearGradient id="paint10_linear_12_44" x1="404.616" y1="-57.1128" x2="404.616" y2="-39.1326" gradientUnits="userSpaceOnUse">
<stop stop-color="#E2DCCA"/>
<stop offset="0.667" stop-color="#F4EADD"/>
</linearGradient>
<linearGradient id="paint11_linear_12_44" x1="221.777" y1="-16.0811" x2="255.995" y2="-4.53227" gradientUnits="userSpaceOnUse">
<stop stop-color="#58595B"/>
<stop offset="1" stop-color="#414042"/>
</linearGradient>
<linearGradient id="paint12_linear_12_44" x1="305.387" y1="-0.826384" x2="305.387" y2="63.8402" gradientUnits="userSpaceOnUse">
<stop offset="0.04" stop-color="#FB9E4B"/>
<stop offset="0.809" stop-color="#F37E3E"/>
</linearGradient>
<linearGradient id="paint13_linear_12_44" x1="265.796" y1="-2.95992" x2="293.171" y2="17.5713" gradientUnits="userSpaceOnUse">
<stop stop-color="#92634D"/>
<stop offset="1" stop-color="#92634D"/>
</linearGradient>
<linearGradient id="paint14_linear_12_44" x1="380.952" y1="127.92" x2="305.787" y2="126.44" gradientUnits="userSpaceOnUse">
<stop stop-color="#E2DCCA"/>
<stop offset="0.667" stop-color="#F4EADD"/>
</linearGradient>
<linearGradient id="paint15_linear_12_44" x1="304.107" y1="23.9617" x2="303.465" y2="61.6742" gradientUnits="userSpaceOnUse">
<stop stop-color="#FFD385"/>
<stop offset="0.824" stop-color="#FF9B34"/>
</linearGradient>
<linearGradient id="paint16_linear_12_44" x1="367.723" y1="344.463" x2="375.994" y2="369.413" gradientUnits="userSpaceOnUse">
<stop offset="0.04" stop-color="#FB9E4B"/>
<stop offset="0.809" stop-color="#F37E3E"/>
</linearGradient>
<linearGradient id="paint17_linear_12_44" x1="434.045" y1="367.601" x2="442.029" y2="368.173" gradientUnits="userSpaceOnUse">
<stop offset="0.04" stop-color="#FB9E4B"/>
<stop offset="0.809" stop-color="#F37E3E"/>
</linearGradient>
<linearGradient id="paint18_linear_12_44" x1="394.616" y1="114.887" x2="394.616" y2="132.867" gradientUnits="userSpaceOnUse">
<stop stop-color="#E2DCCA"/>
<stop offset="0.667" stop-color="#F4EADD"/>
</linearGradient>
<linearGradient id="paint19_linear_12_44" x1="211.777" y1="155.919" x2="245.995" y2="167.468" gradientUnits="userSpaceOnUse">
<stop stop-color="#58595B"/>
<stop offset="1" stop-color="#414042"/>
</linearGradient>
<linearGradient id="paint20_linear_12_44" x1="295.387" y1="171.174" x2="295.387" y2="235.84" gradientUnits="userSpaceOnUse">
<stop offset="0.04" stop-color="#FB9E4B"/>
<stop offset="0.809" stop-color="#F37E3E"/>
</linearGradient>
<linearGradient id="paint21_linear_12_44" x1="255.796" y1="169.04" x2="283.171" y2="189.571" gradientUnits="userSpaceOnUse">
<stop stop-color="#92634D"/>
<stop offset="1" stop-color="#92634D"/>
</linearGradient>
<linearGradient id="paint22_linear_12_44" x1="370.952" y1="299.92" x2="295.787" y2="298.44" gradientUnits="userSpaceOnUse">
<stop stop-color="#E2DCCA"/>
<stop offset="0.667" stop-color="#F4EADD"/>
</linearGradient>
<linearGradient id="paint23_linear_12_44" x1="294.107" y1="195.962" x2="293.465" y2="233.674" gradientUnits="userSpaceOnUse">
<stop stop-color="#FFD385"/>
<stop offset="0.824" stop-color="#FF9B34"/>
</linearGradient>
</defs>
</svg>
