<svg width="532" height="585" viewBox="0 0 532 585" fill="none" xmlns="http://www.w3.org/2000/svg">
<mask id="path-1-outside-1_16_2" maskUnits="userSpaceOnUse" x="47" y="221" width="194" height="214" fill="black">
<rect fill="white" x="47" y="221" width="194" height="214"/>
<path d="M169.75 420C161.417 420 155.083 417.667 150.75 413C146.417 408.167 144.25 402.167 144.25 395V368.5H140.5C139.667 372.167 137.833 375.917 135 379.75C132.167 383.583 128.083 386.75 122.75 389.25C117.417 391.75 110.583 393 102.25 393C95.5833 393 89.1667 391.75 83 389.25C77 386.583 72.0833 382.667 68.25 377.5C64.5833 372.167 62.75 365.583 62.75 357.75C62.75 351.583 64 345.667 66.5 340C69.1667 334.167 73.3333 327 79 318.5L111 270.5C118.667 259.167 126.25 250.667 133.75 245C141.417 239.333 149.917 236.5 159.25 236.5C165.75 236.5 171.667 237.667 177 240C182.5 242.167 186.917 246 190.25 251.5C193.583 257 195.25 264.5 195.25 274V338.25C195.25 338.25 196.167 338.167 198 338C199.833 337.667 201.833 337.5 204 337.5C209.667 337.5 214.667 339.167 219 342.5C223.333 345.667 225.5 351.417 225.5 359.75C225.5 367.917 223.333 373.667 219 377C214.667 380.333 209.667 382 204 382C201.833 382 199.833 381.833 198 381.5C196.167 381.167 195.25 381 195.25 381V395C195.25 402.167 193.083 408.167 188.75 413C184.583 417.667 178.25 420 169.75 420ZM112.5 334.5C111.333 336.167 111.167 337.583 112 338.75C112.833 339.917 114.083 340.5 115.75 340.5H144.25V290.5H141.5L112.5 334.5Z"/>
</mask>
<path d="M169.75 420C161.417 420 155.083 417.667 150.75 413C146.417 408.167 144.25 402.167 144.25 395V368.5H140.5C139.667 372.167 137.833 375.917 135 379.75C132.167 383.583 128.083 386.75 122.75 389.25C117.417 391.75 110.583 393 102.25 393C95.5833 393 89.1667 391.75 83 389.25C77 386.583 72.0833 382.667 68.25 377.5C64.5833 372.167 62.75 365.583 62.75 357.75C62.75 351.583 64 345.667 66.5 340C69.1667 334.167 73.3333 327 79 318.5L111 270.5C118.667 259.167 126.25 250.667 133.75 245C141.417 239.333 149.917 236.5 159.25 236.5C165.75 236.5 171.667 237.667 177 240C182.5 242.167 186.917 246 190.25 251.5C193.583 257 195.25 264.5 195.25 274V338.25C195.25 338.25 196.167 338.167 198 338C199.833 337.667 201.833 337.5 204 337.5C209.667 337.5 214.667 339.167 219 342.5C223.333 345.667 225.5 351.417 225.5 359.75C225.5 367.917 223.333 373.667 219 377C214.667 380.333 209.667 382 204 382C201.833 382 199.833 381.833 198 381.5C196.167 381.167 195.25 381 195.25 381V395C195.25 402.167 193.083 408.167 188.75 413C184.583 417.667 178.25 420 169.75 420ZM112.5 334.5C111.333 336.167 111.167 337.583 112 338.75C112.833 339.917 114.083 340.5 115.75 340.5H144.25V290.5H141.5L112.5 334.5Z" fill="#3507FF"/>
<path d="M150.75 413L139.581 423.013L139.669 423.111L139.758 423.207L150.75 413ZM144.25 368.5H159.25V353.5H144.25V368.5ZM140.5 368.5V353.5H128.527L125.873 365.176L140.5 368.5ZM122.75 389.25L129.117 402.832L129.117 402.832L122.75 389.25ZM83 389.25L76.9079 402.957L77.1346 403.058L77.3644 403.151L83 389.25ZM68.25 377.5L55.8894 385.998L56.0425 386.221L56.2035 386.438L68.25 377.5ZM66.5 340L52.8579 333.764L52.8165 333.854L52.7762 333.945L66.5 340ZM79 318.5L91.4808 326.82L91.4808 326.82L79 318.5ZM111 270.5L98.5758 262.095L98.5474 262.137L98.5192 262.179L111 270.5ZM133.75 245L124.834 232.937L124.771 232.984L124.708 233.032L133.75 245ZM177 240L170.988 253.742L171.243 253.854L171.502 253.956L177 240ZM190.25 251.5L177.422 259.275L177.422 259.275L190.25 251.5ZM195.25 338.25H180.25V354.675L196.608 353.188L195.25 338.25ZM198 338L199.358 352.938L200.025 352.878L200.683 352.758L198 338ZM219 342.5L209.854 354.389L210.001 354.502L210.15 354.611L219 342.5ZM219 377L209.854 365.111L209.854 365.111L219 377ZM198 381.5L200.683 366.742L200.683 366.742L198 381.5ZM195.25 381L197.933 366.242L180.25 363.027V381H195.25ZM188.75 413L177.581 402.987L177.571 402.998L177.561 403.01L188.75 413ZM112.5 334.5L124.788 343.102L124.909 342.93L125.024 342.755L112.5 334.5ZM112 338.75L99.794 347.469L99.794 347.469L112 338.75ZM144.25 340.5V355.5H159.25V340.5H144.25ZM144.25 290.5H159.25V275.5H144.25V290.5ZM141.5 290.5V275.5H133.421L128.976 282.245L141.5 290.5ZM169.75 405C164.233 405 162.431 403.535 161.742 402.793L139.758 423.207C147.736 431.798 158.6 435 169.75 435V405ZM161.919 402.987C160.316 401.199 159.25 398.886 159.25 395H129.25C129.25 405.447 132.517 415.134 139.581 423.013L161.919 402.987ZM159.25 395V368.5H129.25V395H159.25ZM144.25 353.5H140.5V383.5H144.25V353.5ZM125.873 365.176C125.604 366.358 124.857 368.237 122.937 370.834L147.063 388.666C150.81 383.596 153.729 377.976 155.127 371.824L125.873 365.176ZM122.937 370.834C121.896 372.244 119.985 373.98 116.383 375.668L129.117 402.832C136.182 399.52 142.438 394.923 147.063 388.666L122.937 370.834ZM116.383 375.668C113.691 376.93 109.233 378 102.25 378V408C111.933 408 121.142 406.57 129.117 402.832L116.383 375.668ZM102.25 378C97.5114 378 93.0085 377.122 88.6356 375.349L77.3644 403.151C85.3248 406.378 93.6553 408 102.25 408V378ZM89.0921 375.543C85.4039 373.904 82.5564 371.608 80.2965 368.562L56.2035 386.438C61.6103 393.725 68.5961 399.263 76.9079 402.957L89.0921 375.543ZM80.6106 369.002C78.9968 366.655 77.75 363.197 77.75 357.75H47.75C47.75 367.97 50.1698 377.679 55.8894 385.998L80.6106 369.002ZM77.75 357.75C77.75 353.678 78.5615 349.822 80.2238 346.055L52.7762 333.945C49.4385 341.511 47.75 349.489 47.75 357.75H77.75ZM80.1421 346.236C82.3429 341.422 86.0298 334.997 91.4808 326.82L66.5192 310.179C60.6369 319.003 55.9905 326.911 52.8579 333.764L80.1421 346.236ZM91.4808 326.82L123.481 278.82L98.5192 262.179L66.5192 310.179L91.4808 326.82ZM123.424 278.905C130.549 268.372 137.06 261.299 142.793 256.968L124.708 233.032C115.44 240.034 106.784 249.961 98.5758 262.095L123.424 278.905ZM142.666 257.063C147.811 253.26 153.2 251.5 159.25 251.5V221.5C146.634 221.5 135.022 225.407 124.834 232.937L142.666 257.063ZM159.25 251.5C163.922 251.5 167.76 252.33 170.988 253.742L183.012 226.258C175.573 223.003 167.578 221.5 159.25 221.5V251.5ZM171.502 253.956C173.675 254.812 175.631 256.32 177.422 259.275L203.078 243.725C198.202 235.68 191.325 229.521 182.498 226.044L171.502 253.956ZM177.422 259.275C178.812 261.568 180.25 266.018 180.25 274H210.25C210.25 262.982 208.355 252.432 203.078 243.725L177.422 259.275ZM180.25 274V338.25H210.25V274H180.25ZM195.25 338.25C196.608 353.188 196.608 353.188 196.608 353.188C196.608 353.188 196.608 353.188 196.608 353.188C196.608 353.188 196.608 353.188 196.608 353.188C196.608 353.188 196.608 353.188 196.608 353.188C196.608 353.188 196.609 353.188 196.609 353.188C196.609 353.188 196.609 353.188 196.61 353.188C196.61 353.188 196.611 353.188 196.611 353.188C196.611 353.188 196.612 353.188 196.612 353.188C196.613 353.188 196.613 353.188 196.614 353.188C196.615 353.188 196.618 353.188 196.619 353.187C196.621 353.187 196.62 353.187 196.622 353.187C196.623 353.187 196.623 353.187 196.625 353.187C196.625 353.187 196.631 353.186 196.632 353.186C196.635 353.186 196.638 353.186 196.641 353.185C196.641 353.185 196.642 353.185 196.642 353.185C196.643 353.185 196.643 353.185 196.643 353.185C196.644 353.185 196.644 353.185 196.645 353.185C196.645 353.185 196.645 353.185 196.646 353.185C196.651 353.184 196.645 353.185 196.651 353.184C196.659 353.184 196.743 353.176 196.78 353.173C196.812 353.17 197.149 353.139 197.296 353.126C197.419 353.115 197.348 353.121 197.478 353.109C197.518 353.106 197.536 353.104 197.578 353.1C197.59 353.099 197.668 353.092 197.682 353.091C197.689 353.09 197.729 353.086 197.737 353.086C197.742 353.085 197.786 353.081 197.792 353.081C197.798 353.08 197.815 353.079 197.821 353.078C197.823 353.078 197.825 353.078 197.828 353.078C197.83 353.077 197.833 353.077 197.835 353.077C197.837 353.077 197.84 353.076 197.842 353.076C197.845 353.076 197.847 353.076 197.849 353.076C197.851 353.075 197.906 353.07 197.908 353.07C197.91 353.07 198.025 353.06 198.029 353.059C198.092 353.053 198.09 353.054 198.155 353.048C198.682 353 198.158 353.047 198.713 352.997C198.799 352.989 199.244 352.949 199.358 352.938L196.642 323.062C196.636 323.062 196.605 323.065 196.599 323.065C196.551 323.07 196.605 323.065 196.557 323.069C196.514 323.073 196.516 323.073 196.473 323.077C196.405 323.083 196.375 323.086 196.309 323.092C196.179 323.104 196.278 323.095 196.151 323.106C196.146 323.107 196.117 323.109 196.112 323.11C196.068 323.114 196.117 323.109 196.073 323.113C196.034 323.117 196.074 323.113 196.035 323.117C196.032 323.117 196 323.12 195.997 323.12C195.991 323.121 195.928 323.126 195.923 323.127C195.878 323.131 195.895 323.13 195.85 323.134C195.847 323.134 195.844 323.134 195.841 323.134C195.838 323.135 195.835 323.135 195.832 323.135C195.829 323.136 195.826 323.136 195.823 323.136C195.82 323.136 195.817 323.137 195.814 323.137C195.812 323.137 195.798 323.138 195.796 323.139C195.793 323.139 195.79 323.139 195.787 323.139C195.784 323.14 195.781 323.14 195.778 323.14C195.767 323.141 195.753 323.142 195.742 323.143C195.726 323.145 195.741 323.143 195.725 323.145C195.722 323.145 195.719 323.145 195.716 323.146C195.713 323.146 195.71 323.146 195.707 323.147C195.478 323.167 195.661 323.151 195.439 323.171C194.901 323.22 195.003 323.211 194.579 323.249C194.474 323.259 194.356 323.269 194.279 323.276C194.232 323.281 194.082 323.294 194.064 323.296C194.055 323.297 193.99 323.303 193.989 323.303C193.933 323.308 193.983 323.303 193.935 323.308C193.926 323.308 193.923 323.309 193.916 323.309C193.908 323.31 193.909 323.31 193.903 323.311C193.9 323.311 193.895 323.311 193.895 323.311C193.894 323.311 193.893 323.312 193.893 323.312C193.893 323.312 193.893 323.312 193.893 323.312C193.892 323.312 193.892 323.312 193.892 323.312C193.892 323.312 193.892 323.312 193.892 323.312C193.892 323.312 193.892 323.312 193.892 323.312C193.892 323.312 193.892 323.312 193.892 323.312C193.892 323.312 193.892 323.312 193.892 323.312C193.892 323.312 193.892 323.312 195.25 338.25ZM200.683 352.758C201.502 352.609 202.592 352.5 204 352.5V322.5C201.075 322.5 198.164 322.724 195.317 323.242L200.683 352.758ZM204 352.5C206.488 352.5 208.244 353.151 209.854 354.389L228.146 330.611C221.089 325.182 212.845 322.5 204 322.5V352.5ZM210.15 354.611C209.633 354.234 209.631 353.925 209.838 354.477C210.102 355.177 210.5 356.788 210.5 359.75H240.5C240.5 349.346 237.814 337.67 227.85 330.389L210.15 354.611ZM210.5 359.75C210.5 362.587 210.113 364.169 209.838 364.898C209.614 365.494 209.542 365.351 209.854 365.111L228.146 388.889C237.716 381.528 240.5 370.197 240.5 359.75H210.5ZM209.854 365.111C208.244 366.349 206.488 367 204 367V397C212.845 397 221.089 394.318 228.146 388.889L209.854 365.111ZM204 367C202.592 367 201.502 366.891 200.683 366.742L195.317 396.258C198.164 396.776 201.075 397 204 397V367ZM200.683 366.742C199.996 366.617 198.85 366.409 198.621 366.367C198.606 366.364 198.614 366.366 198.599 366.363C198.598 366.363 198.596 366.362 198.594 366.362C198.592 366.362 198.591 366.361 198.589 366.361C198.587 366.361 198.585 366.361 198.584 366.36C198.582 366.36 198.58 366.36 198.578 366.359C198.577 366.359 198.575 366.359 198.573 366.358C198.572 366.358 198.57 366.358 198.568 366.357C198.566 366.357 198.565 366.357 198.563 366.356C198.561 366.356 198.56 366.356 198.558 366.356C198.554 366.355 198.541 366.352 198.538 366.352C198.423 366.331 198.572 366.358 198.46 366.338C198.234 366.297 198.538 366.352 198.32 366.312C198.08 366.269 198.435 366.333 198.202 366.291C198.201 366.291 198.2 366.29 198.198 366.29C198.197 366.29 198.196 366.29 198.195 366.29C198.194 366.289 198.193 366.289 198.192 366.289C198.191 366.289 198.19 366.289 198.189 366.288C198.187 366.288 198.186 366.288 198.185 366.288C198.184 366.288 198.183 366.287 198.182 366.287C198.181 366.287 198.176 366.286 198.176 366.286C198.168 366.285 198.177 366.286 198.169 366.285C198.168 366.285 198.167 366.284 198.166 366.284C198.165 366.284 198.164 366.284 198.163 366.284C198.16 366.283 198.16 366.283 198.157 366.283C198.156 366.282 198.155 366.282 198.154 366.282C198.153 366.282 198.152 366.282 198.151 366.281C198.124 366.277 198.154 366.282 198.127 366.277C198.124 366.277 198.125 366.277 198.122 366.276C198.121 366.276 198.12 366.276 198.119 366.276C198.118 366.276 198.117 366.275 198.116 366.275C198.091 366.271 198.13 366.278 198.105 366.273C198.043 366.262 198.01 366.256 197.976 366.25C197.955 366.246 197.977 366.25 197.957 366.246C197.931 366.241 197.969 366.248 197.944 366.244C197.942 366.244 197.936 366.242 197.936 366.242C197.935 366.242 197.934 366.242 197.934 366.242C197.934 366.242 197.934 366.242 197.934 366.242C197.934 366.242 197.934 366.242 197.934 366.242C197.934 366.242 197.934 366.242 197.933 366.242C197.933 366.242 197.933 366.242 197.933 366.242C197.933 366.242 197.933 366.242 197.933 366.242C197.933 366.242 197.933 366.242 197.933 366.242C197.933 366.242 197.933 366.242 195.25 381C192.567 395.758 192.567 395.758 192.567 395.758C192.567 395.758 192.567 395.758 192.567 395.758C192.567 395.758 192.567 395.758 192.567 395.758C192.567 395.758 192.567 395.758 192.567 395.758C192.567 395.758 192.567 395.758 192.567 395.758C192.567 395.758 192.567 395.758 192.567 395.758C192.567 395.758 192.567 395.758 192.567 395.758C192.567 395.758 192.568 395.758 192.568 395.758C192.568 395.758 192.568 395.758 192.568 395.758C192.568 395.758 192.568 395.758 192.568 395.758C192.569 395.758 192.569 395.758 192.569 395.759C192.57 395.759 192.57 395.759 192.57 395.759C192.57 395.759 192.57 395.759 192.57 395.759C192.57 395.759 192.57 395.759 192.571 395.759C192.571 395.759 192.571 395.759 192.571 395.759C192.571 395.759 192.571 395.759 192.571 395.759C192.572 395.759 192.572 395.759 192.572 395.759C192.572 395.759 192.572 395.759 192.573 395.759C192.579 395.76 192.57 395.759 192.577 395.76C192.578 395.76 192.58 395.76 192.58 395.761C192.581 395.761 192.582 395.761 192.584 395.761C192.584 395.761 192.585 395.761 192.585 395.761C192.586 395.761 192.586 395.762 192.586 395.762C192.586 395.762 192.587 395.762 192.587 395.762C192.596 395.763 192.582 395.761 192.591 395.762C192.592 395.763 192.598 395.764 192.6 395.764C192.607 395.765 192.602 395.765 192.61 395.766C192.681 395.779 192.585 395.761 192.663 395.776C192.687 395.78 192.673 395.777 192.698 395.782C192.709 395.784 192.726 395.787 192.739 395.789C192.968 395.831 192.696 395.781 192.953 395.828C193.383 395.906 192.796 395.8 193.254 395.883C193.426 395.914 193.827 395.987 194.114 396.039C194.737 396.153 194.021 396.022 194.672 396.141C194.953 396.192 195.007 396.202 195.317 396.258L200.683 366.742ZM180.25 381V395H210.25V381H180.25ZM180.25 395C180.25 398.886 179.184 401.199 177.581 402.987L199.919 423.013C206.983 415.134 210.25 405.447 210.25 395H180.25ZM177.561 403.01C177.156 403.463 175.579 405 169.75 405V435C180.921 435 192.01 431.87 199.939 422.99L177.561 403.01ZM100.212 325.898C98.7745 327.951 97.0731 331.062 96.6027 335.06C96.0812 339.493 97.2221 343.868 99.794 347.469L124.206 330.031C125.945 332.465 126.752 335.549 126.397 338.565C126.094 341.147 125.059 342.716 124.788 343.102L100.212 325.898ZM99.794 347.469C103.929 353.258 110.141 355.5 115.75 355.5V325.5C116.66 325.5 118.175 325.662 119.906 326.47C121.716 327.315 123.182 328.598 124.206 330.031L99.794 347.469ZM115.75 355.5H144.25V325.5H115.75V355.5ZM159.25 340.5V290.5H129.25V340.5H159.25ZM144.25 275.5H141.5V305.5H144.25V275.5ZM128.976 282.245L99.9756 326.245L125.024 342.755L154.024 298.755L128.976 282.245Z" fill="white" mask="url(#path-1-outside-1_16_2)"/>
<mask id="path-3-outside-2_16_2" maskUnits="userSpaceOnUse" x="195" y="110" width="159" height="199" fill="black">
<rect fill="white" x="195" y="110" width="159" height="199"/>
<path d="M318.75 165.5H267.5L267 181.75C286 181.75 301.25 184 312.75 188.5C330.25 195.667 339 210.667 339 233.5C339 252.5 332.917 267.25 320.75 277.75C308.583 288.25 290.167 293.5 265.5 293.5C245.5 293.5 231.333 291.333 223 287C214.667 282.5 210.5 275.583 210.5 266.25C210.5 249.917 216.25 241.75 227.75 241.75C230.75 241.75 236 242.667 243.5 244.5C251.167 246.333 256.583 247.25 259.75 247.25C267.417 247.25 273.083 246.25 276.75 244.25C280.417 242.25 282.25 238.667 282.25 233.5C282.25 224.167 266.583 219.5 235.25 219.5C226.583 219.5 220.833 217.583 218 213.75C215.167 209.917 213.75 202.25 213.75 190.75V146C213.75 139 215.833 133.833 220 130.5C224.333 127 231.833 125.25 242.5 125.25H313.5C321.333 125.25 326.667 126.75 329.5 129.75C332.333 132.75 333.75 138.667 333.75 147.5C333.75 154 332.583 158.667 330.25 161.5C328.083 164.167 324.25 165.5 318.75 165.5Z"/>
</mask>
<path d="M318.75 165.5H267.5L267 181.75C286 181.75 301.25 184 312.75 188.5C330.25 195.667 339 210.667 339 233.5C339 252.5 332.917 267.25 320.75 277.75C308.583 288.25 290.167 293.5 265.5 293.5C245.5 293.5 231.333 291.333 223 287C214.667 282.5 210.5 275.583 210.5 266.25C210.5 249.917 216.25 241.75 227.75 241.75C230.75 241.75 236 242.667 243.5 244.5C251.167 246.333 256.583 247.25 259.75 247.25C267.417 247.25 273.083 246.25 276.75 244.25C280.417 242.25 282.25 238.667 282.25 233.5C282.25 224.167 266.583 219.5 235.25 219.5C226.583 219.5 220.833 217.583 218 213.75C215.167 209.917 213.75 202.25 213.75 190.75V146C213.75 139 215.833 133.833 220 130.5C224.333 127 231.833 125.25 242.5 125.25H313.5C321.333 125.25 326.667 126.75 329.5 129.75C332.333 132.75 333.75 138.667 333.75 147.5C333.75 154 332.583 158.667 330.25 161.5C328.083 164.167 324.25 165.5 318.75 165.5Z" fill="#FF5E07"/>
<path d="M267.5 165.5V150.5H252.954L252.507 165.039L267.5 165.5ZM267 181.75L252.007 181.289L251.531 196.75H267V181.75ZM312.75 188.5L318.435 174.619L318.326 174.574L318.216 174.531L312.75 188.5ZM320.75 277.75L310.95 266.394L310.95 266.394L320.75 277.75ZM223 287L215.873 300.199L215.976 300.254L216.08 300.308L223 287ZM243.5 244.5L239.938 259.071L239.975 259.08L240.011 259.089L243.5 244.5ZM276.75 244.25L269.567 231.082L269.567 231.082L276.75 244.25ZM218 213.75L230.063 204.834L230.063 204.834L218 213.75ZM220 130.5L229.37 142.213L229.398 142.191L229.425 142.169L220 130.5ZM329.5 129.75L318.595 140.049L318.595 140.049L329.5 129.75ZM330.25 161.5L318.671 151.964L318.64 152.003L318.608 152.041L330.25 161.5ZM318.75 150.5H267.5V180.5H318.75V150.5ZM252.507 165.039L252.007 181.289L281.993 182.211L282.493 165.961L252.507 165.039ZM267 196.75C285.03 196.75 298.204 198.915 307.284 202.469L318.216 174.531C304.297 169.085 286.97 166.75 267 166.75V196.75ZM307.065 202.381C313.05 204.832 316.919 208.291 319.481 212.683C322.16 217.276 324 223.926 324 233.5H354C354 220.241 351.465 207.974 345.394 197.567C339.206 186.959 329.95 179.335 318.435 174.619L307.065 202.381ZM324 233.5C324 249.014 319.205 259.27 310.95 266.394L330.55 289.106C346.628 275.23 354 255.986 354 233.5H324ZM310.95 266.394C302.637 273.568 288.413 278.5 265.5 278.5V308.5C291.92 308.5 314.529 302.932 330.55 289.106L310.95 266.394ZM265.5 278.5C245.774 278.5 234.8 276.229 229.92 273.692L216.08 300.308C227.867 306.437 245.226 308.5 265.5 308.5V278.5ZM230.127 273.801C227.909 272.604 226.949 271.487 226.474 270.697C226.005 269.92 225.5 268.621 225.5 266.25H195.5C195.5 273.212 197.078 280.039 200.776 286.178C204.468 292.305 209.757 296.896 215.873 300.199L230.127 273.801ZM225.5 266.25C225.5 259.385 226.791 256.917 227.077 256.511C227.096 256.484 226.917 256.699 226.622 256.839C226.402 256.943 226.647 256.75 227.75 256.75V226.75C217.971 226.75 208.689 230.517 202.548 239.239C197.084 246.999 195.5 256.781 195.5 266.25H225.5ZM227.75 256.75C227.748 256.75 227.769 256.75 227.815 256.752C227.862 256.753 227.929 256.756 228.018 256.762C228.198 256.774 228.444 256.794 228.765 256.83C229.415 256.902 230.27 257.024 231.357 257.214C233.543 257.596 236.383 258.202 239.938 259.071L247.062 229.929C239.66 228.12 232.782 226.75 227.75 226.75V256.75ZM240.011 259.089C247.626 260.91 254.612 262.25 259.75 262.25V232.25C258.555 232.25 254.707 231.757 246.989 229.911L240.011 259.089ZM259.75 262.25C268.152 262.25 276.905 261.252 283.933 257.418L269.567 231.082C269.588 231.07 268.935 231.412 267.143 231.728C265.4 232.036 262.978 232.25 259.75 232.25V262.25ZM283.933 257.418C293.632 252.128 297.25 242.618 297.25 233.5H267.25C267.25 234.361 267.093 234.067 267.521 233.23C267.74 232.803 268.056 232.347 268.47 231.927C268.88 231.51 269.278 231.239 269.567 231.082L283.933 257.418ZM297.25 233.5C297.25 226.334 294.006 220.389 289.307 216.19C285.041 212.378 279.757 210.106 274.782 208.624C264.812 205.654 251.296 204.5 235.25 204.5V234.5C250.537 234.5 260.522 235.679 266.218 237.376C269.076 238.227 269.667 238.872 269.318 238.56C268.536 237.861 267.25 235.999 267.25 233.5H297.25ZM235.25 204.5C231.896 204.5 230.024 204.113 229.181 203.832C228.438 203.585 229.202 203.669 230.063 204.834L205.937 222.666C213.249 232.559 225.539 234.5 235.25 234.5V204.5ZM230.063 204.834C230.597 205.557 230.089 205.249 229.563 202.399C229.079 199.779 228.75 195.973 228.75 190.75H198.75C198.75 197.027 199.13 202.804 200.062 207.851C200.952 212.667 202.57 218.11 205.937 222.666L230.063 204.834ZM228.75 190.75V146H198.75V190.75H228.75ZM228.75 146C228.75 143.947 229.06 142.892 229.224 142.485C229.264 142.384 229.297 142.32 229.317 142.283C229.337 142.247 229.349 142.232 229.35 142.23C229.352 142.228 229.35 142.23 229.348 142.233C229.345 142.235 229.351 142.229 229.37 142.213L210.63 118.787C201.859 125.803 198.75 135.976 198.75 146H228.75ZM229.425 142.169C229.294 142.275 229.942 141.717 232.283 141.17C234.581 140.634 237.91 140.25 242.5 140.25V110.25C231.108 110.25 219.111 111.936 210.575 118.831L229.425 142.169ZM242.5 140.25H313.5V110.25H242.5V140.25ZM313.5 140.25C316.562 140.25 318.389 140.555 319.314 140.815C320.233 141.073 319.577 141.089 318.595 140.049L340.405 119.451C333.064 111.677 322.131 110.25 313.5 110.25V140.25ZM318.595 140.049C317.553 138.946 317.733 138.396 318.1 139.93C318.442 141.358 318.75 143.781 318.75 147.5H348.75C348.75 142.385 348.35 137.434 347.275 132.945C346.226 128.562 344.281 123.554 340.405 119.451L318.595 140.049ZM318.75 147.5C318.75 149.922 318.526 151.426 318.323 152.237C318.119 153.052 318.052 152.716 318.671 151.964L341.829 171.036C347.529 164.114 348.75 155.076 348.75 147.5H318.75ZM318.608 152.041C319.062 151.483 319.552 151.063 319.992 150.769C320.42 150.484 320.73 150.364 320.822 150.333C320.907 150.303 320.802 150.349 320.441 150.401C320.082 150.452 319.529 150.5 318.75 150.5V180.5C326.068 180.5 335.526 178.794 341.892 170.959L318.608 152.041Z" fill="white" mask="url(#path-3-outside-2_16_2)"/>
<mask id="path-5-outside-3_16_2" maskUnits="userSpaceOnUse" x="346" y="46" width="166" height="203" fill="black">
<rect fill="white" x="346" y="46" width="166" height="203"/>
<path d="M416.25 129.75C424.917 127.083 433.333 125.75 441.5 125.75C452 125.75 461.417 127.833 469.75 132C478.083 136 484.583 141.667 489.25 149C494.083 156.167 496.5 164.333 496.5 173.5C496.5 185.833 493.833 196.583 488.5 205.75C483.333 214.75 476.083 221.667 466.75 226.5C457.583 231.167 446.917 233.5 434.75 233.5C425.25 233.5 416.583 232.417 408.75 230.25C401.083 227.917 394.583 224.75 389.25 220.75C384.083 216.75 379.583 212.25 375.75 207.25C372.083 202.25 369.25 196.667 367.25 190.5C365.25 184.167 363.75 178 362.75 172C361.917 166 361.5 159.833 361.5 153.5C361.5 139.833 363.083 127.583 366.25 116.75C369.417 105.917 374.333 96.3333 381 88C387.667 79.6667 396.583 73.25 407.75 68.75C419.083 64.0833 432.417 61.75 447.75 61.75C461.083 61.75 472.333 64.6667 481.5 70.5C490.667 76.1667 495.25 83.5 495.25 92.5C495.25 98.1667 493.417 103.25 489.75 107.75C486.25 112.083 481.5 114.25 475.5 114.25C472.667 114.25 468.167 112.917 462 110.25C456 107.583 450.583 106.25 445.75 106.25C438.75 106.25 432.417 108.5 426.75 113C421.083 117.5 417.583 123.083 416.25 129.75ZM445.25 177.25C445.25 170.083 444.167 163.833 442 158.5C439.833 153 436.75 150.25 432.75 150.25C428.583 150.25 425.25 153 422.75 158.5C420.417 164 419.25 170.25 419.25 177.25C419.25 183.917 420.417 189.833 422.75 195C425.083 200 428.333 202.5 432.5 202.5C436.833 202.5 440 200 442 195C444.167 190 445.25 184.083 445.25 177.25Z"/>
</mask>
<path d="M416.25 129.75C424.917 127.083 433.333 125.75 441.5 125.75C452 125.75 461.417 127.833 469.75 132C478.083 136 484.583 141.667 489.25 149C494.083 156.167 496.5 164.333 496.5 173.5C496.5 185.833 493.833 196.583 488.5 205.75C483.333 214.75 476.083 221.667 466.75 226.5C457.583 231.167 446.917 233.5 434.75 233.5C425.25 233.5 416.583 232.417 408.75 230.25C401.083 227.917 394.583 224.75 389.25 220.75C384.083 216.75 379.583 212.25 375.75 207.25C372.083 202.25 369.25 196.667 367.25 190.5C365.25 184.167 363.75 178 362.75 172C361.917 166 361.5 159.833 361.5 153.5C361.5 139.833 363.083 127.583 366.25 116.75C369.417 105.917 374.333 96.3333 381 88C387.667 79.6667 396.583 73.25 407.75 68.75C419.083 64.0833 432.417 61.75 447.75 61.75C461.083 61.75 472.333 64.6667 481.5 70.5C490.667 76.1667 495.25 83.5 495.25 92.5C495.25 98.1667 493.417 103.25 489.75 107.75C486.25 112.083 481.5 114.25 475.5 114.25C472.667 114.25 468.167 112.917 462 110.25C456 107.583 450.583 106.25 445.75 106.25C438.75 106.25 432.417 108.5 426.75 113C421.083 117.5 417.583 123.083 416.25 129.75ZM445.25 177.25C445.25 170.083 444.167 163.833 442 158.5C439.833 153 436.75 150.25 432.75 150.25C428.583 150.25 425.25 153 422.75 158.5C420.417 164 419.25 170.25 419.25 177.25C419.25 183.917 420.417 189.833 422.75 195C425.083 200 428.333 202.5 432.5 202.5C436.833 202.5 440 200 442 195C444.167 190 445.25 184.083 445.25 177.25Z" fill="#CD07FF"/>
<path d="M416.25 129.75L401.541 126.808L396.605 151.489L420.661 144.087L416.25 129.75ZM469.75 132L463.042 145.416L463.15 145.47L463.259 145.523L469.75 132ZM489.25 149L476.595 157.053L476.702 157.222L476.814 157.387L489.25 149ZM488.5 205.75L475.535 198.207L475.513 198.244L475.491 198.282L488.5 205.75ZM466.75 226.5L473.555 239.867L473.602 239.844L473.648 239.82L466.75 226.5ZM408.75 230.25L404.383 244.6L404.566 244.656L404.751 244.707L408.75 230.25ZM389.25 220.75L380.067 232.611L380.158 232.681L380.25 232.75L389.25 220.75ZM375.75 207.25L363.654 216.12L363.749 216.249L363.846 216.376L375.75 207.25ZM367.25 190.5L352.946 195.017L352.964 195.072L352.982 195.128L367.25 190.5ZM362.75 172L347.893 174.064L347.921 174.265L347.954 174.466L362.75 172ZM366.25 116.75L351.852 112.541L366.25 116.75ZM381 88L369.287 78.6296L369.287 78.6296L381 88ZM407.75 68.75L413.357 82.6628L413.409 82.6417L413.461 82.6202L407.75 68.75ZM481.5 70.5L473.447 83.1549L473.529 83.2075L473.613 83.2589L481.5 70.5ZM489.75 107.75L478.121 98.2749L478.101 98.2999L478.081 98.3249L489.75 107.75ZM462 110.25L455.908 123.957L455.977 123.988L456.046 124.018L462 110.25ZM426.75 113L417.422 101.253L417.422 101.253L426.75 113ZM442 158.5L428.044 163.998L428.073 164.072L428.103 164.146L442 158.5ZM422.75 158.5L409.095 152.293L409.016 152.466L408.941 152.642L422.75 158.5ZM422.75 195L409.079 201.174L409.118 201.259L409.157 201.343L422.75 195ZM442 195L428.237 189.036L428.152 189.231L428.073 189.429L442 195ZM420.661 144.087C428.055 141.812 434.983 140.75 441.5 140.75V110.75C431.683 110.75 421.779 112.355 411.839 115.413L420.661 144.087ZM441.5 140.75C449.97 140.75 457.043 142.417 463.042 145.416L476.458 118.584C465.791 113.25 454.03 110.75 441.5 110.75V140.75ZM463.259 145.523C469.235 148.391 473.529 152.234 476.595 157.053L501.905 140.947C495.638 131.099 486.932 123.609 476.241 118.477L463.259 145.523ZM476.814 157.387C479.873 161.923 481.5 167.132 481.5 173.5H511.5C511.5 161.535 508.294 150.411 501.686 140.613L476.814 157.387ZM481.5 173.5C481.5 183.62 479.332 191.681 475.535 198.207L501.465 213.293C508.335 201.486 511.5 188.047 511.5 173.5H481.5ZM475.491 198.282C471.777 204.752 466.664 209.653 459.852 213.18L473.648 239.82C485.503 233.681 494.89 224.748 501.509 213.218L475.491 198.282ZM459.945 213.133C453.239 216.546 444.982 218.5 434.75 218.5V248.5C448.852 248.5 461.928 245.787 473.555 239.867L459.945 213.133ZM434.75 218.5C426.38 218.5 419.082 217.545 412.749 215.793L404.751 244.707C414.085 247.289 424.12 248.5 434.75 248.5V218.5ZM413.117 215.9C406.792 213.975 401.938 211.516 398.25 208.75L380.25 232.75C387.229 237.984 395.375 241.859 404.383 244.6L413.117 215.9ZM398.433 208.889C394.249 205.65 390.673 202.061 387.654 198.124L363.846 216.376C368.494 222.439 373.918 227.85 380.067 232.611L398.433 208.889ZM387.846 198.38C385.167 194.727 383.048 190.588 381.518 185.872L352.982 195.128C355.452 202.745 358.999 209.773 363.654 216.12L387.846 198.38ZM381.554 185.983C379.747 180.26 378.42 174.78 377.546 169.534L347.954 174.466C349.08 181.22 350.753 188.073 352.946 195.017L381.554 185.983ZM377.607 169.936C376.873 164.65 376.5 159.174 376.5 153.5H346.5C346.5 160.492 346.96 167.35 347.893 174.064L377.607 169.936ZM376.5 153.5C376.5 140.969 377.954 130.173 380.648 120.959L351.852 112.541C348.212 124.994 346.5 138.698 346.5 153.5H376.5ZM380.648 120.959C383.297 111.895 387.339 104.088 392.713 97.3704L369.287 78.6296C361.328 88.5787 355.536 99.9386 351.852 112.541L380.648 120.959ZM392.713 97.3704C397.571 91.2982 404.27 86.3245 413.357 82.6628L402.143 54.8372C388.896 60.1755 377.763 68.0351 369.287 78.6296L392.713 97.3704ZM413.461 82.6202C422.59 78.8611 433.901 76.75 447.75 76.75V46.75C430.932 46.75 415.576 49.3055 402.039 54.8798L413.461 82.6202ZM447.75 76.75C458.88 76.75 467.182 79.1682 473.447 83.1549L489.553 57.8451C477.485 50.1651 463.286 46.75 447.75 46.75V76.75ZM473.613 83.2589C479.376 86.8216 480.25 89.792 480.25 92.5H510.25C510.25 77.2079 501.957 65.5117 489.387 57.7411L473.613 83.2589ZM480.25 92.5C480.25 94.6241 479.665 96.3803 478.121 98.2749L501.379 117.225C507.168 110.12 510.25 101.709 510.25 92.5H480.25ZM478.081 98.3249C477.693 98.805 477.454 98.9244 477.337 98.9777C477.188 99.0459 476.672 99.25 475.5 99.25V129.25C485.632 129.25 494.829 125.334 501.419 117.175L478.081 98.3249ZM475.5 99.25C476.161 99.25 475.908 99.3559 474.261 98.868C472.774 98.4273 470.699 97.6694 467.954 96.4821L456.046 124.018C462.201 126.679 469.253 129.25 475.5 129.25V99.25ZM468.092 96.5428C460.822 93.3118 453.291 91.25 445.75 91.25V121.25C447.876 121.25 451.178 121.855 455.908 123.957L468.092 96.5428ZM445.75 91.25C435.241 91.25 425.645 94.7235 417.422 101.253L436.078 124.747C439.189 122.277 442.259 121.25 445.75 121.25V91.25ZM417.422 101.253C409.17 107.806 403.617 116.428 401.541 126.808L430.959 132.692C431.549 129.739 432.997 127.194 436.078 124.747L417.422 101.253ZM460.25 177.25C460.25 168.606 458.947 160.361 455.897 152.854L428.103 164.146C429.387 167.305 430.25 171.561 430.25 177.25H460.25ZM455.956 153.002C452.796 144.981 445.76 135.25 432.75 135.25V165.25C431.992 165.25 431.085 165.112 430.149 164.749C429.221 164.388 428.529 163.909 428.078 163.507C427.279 162.794 427.475 162.554 428.044 163.998L455.956 153.002ZM432.75 135.25C420.163 135.25 412.767 144.214 409.095 152.293L436.406 164.707C437.064 163.258 437.321 163.347 436.671 163.883C436.303 164.186 435.725 164.563 434.945 164.849C434.158 165.137 433.393 165.25 432.75 165.25V135.25ZM408.941 152.642C405.699 160.285 404.25 168.578 404.25 177.25H434.25C434.25 171.922 435.135 167.715 436.559 164.358L408.941 152.642ZM404.25 177.25C404.25 185.675 405.729 193.755 409.079 201.174L436.421 188.826C435.104 185.911 434.25 182.158 434.25 177.25H404.25ZM409.157 201.343C413.006 209.591 420.553 217.5 432.5 217.5V187.5C432.982 187.5 433.624 187.576 434.338 187.817C435.055 188.059 435.646 188.399 436.083 188.736C436.906 189.369 436.829 189.698 436.343 188.657L409.157 201.343ZM432.5 217.5C437.772 217.5 442.987 215.898 447.42 212.398C451.64 209.066 454.268 204.72 455.927 200.571L428.073 189.429C427.732 190.28 427.776 189.684 428.83 188.852C429.373 188.423 430.043 188.049 430.788 187.801C431.52 187.557 432.126 187.5 432.5 187.5V217.5ZM455.763 200.964C458.925 193.668 460.25 185.631 460.25 177.25H430.25C430.25 182.536 429.409 186.332 428.237 189.036L455.763 200.964Z" fill="white" mask="url(#path-5-outside-3_16_2)"/>
<mask id="path-7-outside-4_16_2" maskUnits="userSpaceOnUse" x="-6" y="449" width="544" height="88" fill="black">
<rect fill="white" x="-6" y="449" width="544" height="88"/>
<path d="M38.592 512.56C40.768 512.56 42.624 511.6 44.16 509.68C45.76 507.76 46.88 505.392 47.52 502.576C48.224 499.76 48.576 496.752 48.576 493.552C48.576 490.288 48.224 487.216 47.52 484.336C46.816 481.392 45.664 478.896 44.064 476.848C42.528 474.8 40.704 473.776 38.592 473.776C36.544 473.776 34.752 474.8 33.216 476.848C31.68 478.896 30.528 481.392 29.76 484.336C28.992 487.28 28.608 490.352 28.608 493.552C28.608 496.752 28.96 499.76 29.664 502.576C30.432 505.392 31.584 507.76 33.12 509.68C34.72 511.6 36.544 512.56 38.592 512.56ZM55.584 522.832C50.528 525.328 44.832 526.576 38.496 526.576C32.224 526.576 26.56 525.328 21.504 522.832C16.512 520.272 12.512 516.464 9.504 511.408C6.496 506.352 4.992 500.4 4.992 493.552C4.992 483.184 8.096 474.96 14.304 468.88C20.576 462.736 28.672 459.664 38.592 459.664C48.512 459.664 56.608 462.736 62.88 468.88C69.152 474.96 72.288 483.184 72.288 493.552C72.288 500.4 70.752 506.352 67.68 511.408C64.672 516.464 60.64 520.272 55.584 522.832ZM119.874 479.344C119.874 476.272 118.754 474.16 116.514 473.008C114.274 471.856 110.498 471.28 105.186 471.28V487.888C110.178 487.888 113.858 487.28 116.226 486.064C118.658 484.784 119.874 482.544 119.874 479.344ZM105.186 511.6C105.186 521.2 101.442 526 93.954 526C90.178 526 87.394 525.008 85.602 523.024C83.874 520.976 83.01 517.392 83.01 512.272V471.76C83.01 468.048 84.002 465.232 85.986 463.312C88.034 461.328 90.69 460.336 93.954 460.336H114.114C121.986 460.336 128.354 462.192 133.218 465.904C138.082 469.552 140.514 474.256 140.514 480.016C140.514 484.368 139.586 487.792 137.73 490.288C135.938 492.72 133.026 494.512 128.994 495.664C132.066 495.856 134.914 497.36 137.538 500.176C140.162 502.928 141.474 506.384 141.474 510.544C141.474 514.768 141.058 518.032 140.226 520.336C139.458 522.576 138.338 524.08 136.866 524.848C135.394 525.616 133.314 526 130.626 526C126.85 526 124.066 525.232 122.274 523.696C120.546 522.096 119.682 519.696 119.682 516.496C119.682 512.528 119.298 509.488 118.53 507.376C117.762 505.2 116.77 503.792 115.554 503.152C114.338 502.512 112.642 502.192 110.466 502.192L105.186 502.288V511.6ZM175.048 512.944C176.712 512.944 178.152 512.784 179.368 512.464C180.648 512.08 181.832 511.44 182.92 510.544C184.072 509.584 185 508.336 185.704 506.8C186.408 505.264 186.952 503.312 187.336 500.944C187.784 498.512 188.008 495.664 188.008 492.4C188.008 488.752 187.688 485.68 187.048 483.184C186.408 480.624 185.48 478.704 184.264 477.424C183.048 476.08 181.704 475.152 180.232 474.64C178.824 474.064 177.096 473.744 175.048 473.68V512.944ZM177.928 460.336C187.912 460.336 195.912 463.216 201.928 468.976C208.008 474.736 211.048 482.672 211.048 492.784C211.048 496.048 210.728 499.216 210.088 502.288C209.512 505.36 208.52 508.368 207.112 511.312C205.704 514.192 203.944 516.72 201.832 518.896C199.72 521.008 197.032 522.736 193.768 524.08C190.504 525.36 186.824 526 182.728 526H163.816C159.912 526 157.096 525.008 155.368 523.024C153.704 521.04 152.872 517.456 152.872 512.272V471.76C152.872 464.144 156.52 460.336 163.816 460.336H177.928ZM260.654 487.024C264.046 487.024 266.414 487.568 267.758 488.656C269.166 489.744 269.87 491.6 269.87 494.224C269.87 496.4 269.038 497.968 267.374 498.928C265.774 499.824 263.246 500.272 259.79 500.272H244.238V510.448L265.07 510.544C268.654 510.544 271.214 511.088 272.75 512.176C274.35 513.2 275.15 515.056 275.15 517.744C275.15 520.816 274.222 522.96 272.366 524.176C270.574 525.392 267.822 526 264.11 526H233.006C229.23 526 226.446 525.008 224.654 523.024C222.926 520.976 222.062 517.392 222.062 512.272V471.76C222.062 464.08 225.71 460.24 233.006 460.24H264.11C267.822 460.24 270.574 460.816 272.366 461.968C274.222 463.12 275.15 465.2 275.15 468.208C275.15 471.024 274.35 473.008 272.75 474.16C271.214 475.248 268.654 475.792 265.07 475.792H244.142V487.024H260.654ZM322.562 479.344C322.562 476.272 321.442 474.16 319.202 473.008C316.962 471.856 313.186 471.28 307.874 471.28V487.888C312.866 487.888 316.546 487.28 318.914 486.064C321.346 484.784 322.562 482.544 322.562 479.344ZM307.874 511.6C307.874 521.2 304.13 526 296.642 526C292.866 526 290.082 525.008 288.29 523.024C286.562 520.976 285.698 517.392 285.698 512.272V471.76C285.698 468.048 286.69 465.232 288.674 463.312C290.722 461.328 293.378 460.336 296.642 460.336H316.802C324.674 460.336 331.042 462.192 335.906 465.904C340.77 469.552 343.202 474.256 343.202 480.016C343.202 484.368 342.274 487.792 340.418 490.288C338.626 492.72 335.714 494.512 331.682 495.664C334.754 495.856 337.602 497.36 340.226 500.176C342.85 502.928 344.162 506.384 344.162 510.544C344.162 514.768 343.746 518.032 342.914 520.336C342.146 522.576 341.026 524.08 339.554 524.848C338.082 525.616 336.002 526 333.314 526C329.538 526 326.754 525.232 324.962 523.696C323.234 522.096 322.37 519.696 322.37 516.496C322.37 512.528 321.986 509.488 321.218 507.376C320.45 505.2 319.458 503.792 318.242 503.152C317.026 502.512 315.33 502.192 313.154 502.192L307.874 502.288V511.6ZM377.831 511.6C377.831 516.592 376.903 520.24 375.047 522.544C373.191 524.848 370.375 526 366.599 526C362.887 526 360.135 525.008 358.343 523.024C356.615 521.04 355.751 517.488 355.751 512.368V471.76C355.751 464.08 359.367 460.24 366.599 460.24C370.311 460.24 373.095 460.944 374.951 462.352C376.871 463.76 377.831 466.608 377.831 470.896V511.6ZM451.776 516.88C451.776 519.696 450.944 521.936 449.28 523.6C447.616 525.2 445.184 526 441.984 526C441.152 526 440.32 525.904 439.488 525.712C438.656 525.52 437.76 525.168 436.8 524.656C435.904 524.144 435.104 523.664 434.4 523.216C433.696 522.768 432.8 522.096 431.712 521.2C430.688 520.24 429.856 519.504 429.216 518.992C428.64 518.416 427.712 517.52 426.432 516.304C425.152 515.088 424.224 514.192 423.648 513.616L406.08 497.008V517.84C406.08 520.976 405.472 523.12 404.256 524.272C403.104 525.424 401.248 526 398.688 526C395.872 526 393.792 525.36 392.448 524.08C391.104 522.8 390.432 520.656 390.432 517.648V471.28C390.432 467.632 391.36 464.88 393.216 463.024C395.072 461.168 397.728 460.24 401.184 460.24C403.552 460.24 405.44 460.624 406.848 461.392C408.32 462.096 410.048 463.408 412.032 465.328L436.32 489.52V468.592C436.32 465.84 436.992 463.792 438.336 462.448C439.744 461.04 441.632 460.336 444 460.336C446.752 460.336 448.736 460.976 449.952 462.256C451.168 463.536 451.776 465.616 451.776 468.496V516.88ZM500.236 476.368C500.236 474.384 498.924 473.392 496.3 473.392C493.612 473.392 491.308 474.896 489.388 477.904C487.468 480.912 486.508 485.936 486.508 492.976C486.508 499.504 487.596 504.272 489.772 507.28C492.012 510.224 494.636 511.696 497.644 511.696C498.604 511.696 499.468 511.504 500.236 511.12C501.068 510.736 501.74 510.16 502.252 509.392C502.764 508.624 503.02 507.696 503.02 506.608C501.484 506.608 500.14 506.32 498.988 505.744C497.9 505.168 497.1 504.464 496.588 503.632C496.076 502.736 495.82 501.776 495.82 500.752C495.82 498.448 496.428 496.72 497.644 495.568C498.86 494.416 500.94 493.84 503.884 493.84H515.5C519.212 493.84 522.092 494.64 524.14 496.24C526.188 497.84 527.212 500.656 527.212 504.688C527.212 510.576 524.396 515.728 518.764 520.144C513.132 524.496 506.444 526.672 498.7 526.672C491.596 526.672 485.26 525.392 479.692 522.832C474.188 520.272 469.804 516.464 466.54 511.408C463.34 506.288 461.74 500.24 461.74 493.264C461.74 482.896 464.876 474.704 471.148 468.688C477.42 462.672 485.74 459.664 496.108 459.664C500.204 459.664 503.884 459.984 507.148 460.624C510.412 461.2 513.1 462 515.212 463.024C517.388 464.048 519.18 465.296 520.588 466.768C522.06 468.176 523.084 469.68 523.66 471.28C524.3 472.88 524.62 474.544 524.62 476.272C524.62 477.488 524.428 478.672 524.044 479.824C523.66 480.912 522.956 482.032 521.932 483.184C520.972 484.272 519.468 485.168 517.42 485.872C515.372 486.576 512.908 486.928 510.028 486.928C505.804 486.928 503.116 486.32 501.964 485.104C500.812 483.824 500.236 480.912 500.236 476.368Z"/>
</mask>
<path d="M38.592 512.56C40.768 512.56 42.624 511.6 44.16 509.68C45.76 507.76 46.88 505.392 47.52 502.576C48.224 499.76 48.576 496.752 48.576 493.552C48.576 490.288 48.224 487.216 47.52 484.336C46.816 481.392 45.664 478.896 44.064 476.848C42.528 474.8 40.704 473.776 38.592 473.776C36.544 473.776 34.752 474.8 33.216 476.848C31.68 478.896 30.528 481.392 29.76 484.336C28.992 487.28 28.608 490.352 28.608 493.552C28.608 496.752 28.96 499.76 29.664 502.576C30.432 505.392 31.584 507.76 33.12 509.68C34.72 511.6 36.544 512.56 38.592 512.56ZM55.584 522.832C50.528 525.328 44.832 526.576 38.496 526.576C32.224 526.576 26.56 525.328 21.504 522.832C16.512 520.272 12.512 516.464 9.504 511.408C6.496 506.352 4.992 500.4 4.992 493.552C4.992 483.184 8.096 474.96 14.304 468.88C20.576 462.736 28.672 459.664 38.592 459.664C48.512 459.664 56.608 462.736 62.88 468.88C69.152 474.96 72.288 483.184 72.288 493.552C72.288 500.4 70.752 506.352 67.68 511.408C64.672 516.464 60.64 520.272 55.584 522.832ZM119.874 479.344C119.874 476.272 118.754 474.16 116.514 473.008C114.274 471.856 110.498 471.28 105.186 471.28V487.888C110.178 487.888 113.858 487.28 116.226 486.064C118.658 484.784 119.874 482.544 119.874 479.344ZM105.186 511.6C105.186 521.2 101.442 526 93.954 526C90.178 526 87.394 525.008 85.602 523.024C83.874 520.976 83.01 517.392 83.01 512.272V471.76C83.01 468.048 84.002 465.232 85.986 463.312C88.034 461.328 90.69 460.336 93.954 460.336H114.114C121.986 460.336 128.354 462.192 133.218 465.904C138.082 469.552 140.514 474.256 140.514 480.016C140.514 484.368 139.586 487.792 137.73 490.288C135.938 492.72 133.026 494.512 128.994 495.664C132.066 495.856 134.914 497.36 137.538 500.176C140.162 502.928 141.474 506.384 141.474 510.544C141.474 514.768 141.058 518.032 140.226 520.336C139.458 522.576 138.338 524.08 136.866 524.848C135.394 525.616 133.314 526 130.626 526C126.85 526 124.066 525.232 122.274 523.696C120.546 522.096 119.682 519.696 119.682 516.496C119.682 512.528 119.298 509.488 118.53 507.376C117.762 505.2 116.77 503.792 115.554 503.152C114.338 502.512 112.642 502.192 110.466 502.192L105.186 502.288V511.6ZM175.048 512.944C176.712 512.944 178.152 512.784 179.368 512.464C180.648 512.08 181.832 511.44 182.92 510.544C184.072 509.584 185 508.336 185.704 506.8C186.408 505.264 186.952 503.312 187.336 500.944C187.784 498.512 188.008 495.664 188.008 492.4C188.008 488.752 187.688 485.68 187.048 483.184C186.408 480.624 185.48 478.704 184.264 477.424C183.048 476.08 181.704 475.152 180.232 474.64C178.824 474.064 177.096 473.744 175.048 473.68V512.944ZM177.928 460.336C187.912 460.336 195.912 463.216 201.928 468.976C208.008 474.736 211.048 482.672 211.048 492.784C211.048 496.048 210.728 499.216 210.088 502.288C209.512 505.36 208.52 508.368 207.112 511.312C205.704 514.192 203.944 516.72 201.832 518.896C199.72 521.008 197.032 522.736 193.768 524.08C190.504 525.36 186.824 526 182.728 526H163.816C159.912 526 157.096 525.008 155.368 523.024C153.704 521.04 152.872 517.456 152.872 512.272V471.76C152.872 464.144 156.52 460.336 163.816 460.336H177.928ZM260.654 487.024C264.046 487.024 266.414 487.568 267.758 488.656C269.166 489.744 269.87 491.6 269.87 494.224C269.87 496.4 269.038 497.968 267.374 498.928C265.774 499.824 263.246 500.272 259.79 500.272H244.238V510.448L265.07 510.544C268.654 510.544 271.214 511.088 272.75 512.176C274.35 513.2 275.15 515.056 275.15 517.744C275.15 520.816 274.222 522.96 272.366 524.176C270.574 525.392 267.822 526 264.11 526H233.006C229.23 526 226.446 525.008 224.654 523.024C222.926 520.976 222.062 517.392 222.062 512.272V471.76C222.062 464.08 225.71 460.24 233.006 460.24H264.11C267.822 460.24 270.574 460.816 272.366 461.968C274.222 463.12 275.15 465.2 275.15 468.208C275.15 471.024 274.35 473.008 272.75 474.16C271.214 475.248 268.654 475.792 265.07 475.792H244.142V487.024H260.654ZM322.562 479.344C322.562 476.272 321.442 474.16 319.202 473.008C316.962 471.856 313.186 471.28 307.874 471.28V487.888C312.866 487.888 316.546 487.28 318.914 486.064C321.346 484.784 322.562 482.544 322.562 479.344ZM307.874 511.6C307.874 521.2 304.13 526 296.642 526C292.866 526 290.082 525.008 288.29 523.024C286.562 520.976 285.698 517.392 285.698 512.272V471.76C285.698 468.048 286.69 465.232 288.674 463.312C290.722 461.328 293.378 460.336 296.642 460.336H316.802C324.674 460.336 331.042 462.192 335.906 465.904C340.77 469.552 343.202 474.256 343.202 480.016C343.202 484.368 342.274 487.792 340.418 490.288C338.626 492.72 335.714 494.512 331.682 495.664C334.754 495.856 337.602 497.36 340.226 500.176C342.85 502.928 344.162 506.384 344.162 510.544C344.162 514.768 343.746 518.032 342.914 520.336C342.146 522.576 341.026 524.08 339.554 524.848C338.082 525.616 336.002 526 333.314 526C329.538 526 326.754 525.232 324.962 523.696C323.234 522.096 322.37 519.696 322.37 516.496C322.37 512.528 321.986 509.488 321.218 507.376C320.45 505.2 319.458 503.792 318.242 503.152C317.026 502.512 315.33 502.192 313.154 502.192L307.874 502.288V511.6ZM377.831 511.6C377.831 516.592 376.903 520.24 375.047 522.544C373.191 524.848 370.375 526 366.599 526C362.887 526 360.135 525.008 358.343 523.024C356.615 521.04 355.751 517.488 355.751 512.368V471.76C355.751 464.08 359.367 460.24 366.599 460.24C370.311 460.24 373.095 460.944 374.951 462.352C376.871 463.76 377.831 466.608 377.831 470.896V511.6ZM451.776 516.88C451.776 519.696 450.944 521.936 449.28 523.6C447.616 525.2 445.184 526 441.984 526C441.152 526 440.32 525.904 439.488 525.712C438.656 525.52 437.76 525.168 436.8 524.656C435.904 524.144 435.104 523.664 434.4 523.216C433.696 522.768 432.8 522.096 431.712 521.2C430.688 520.24 429.856 519.504 429.216 518.992C428.64 518.416 427.712 517.52 426.432 516.304C425.152 515.088 424.224 514.192 423.648 513.616L406.08 497.008V517.84C406.08 520.976 405.472 523.12 404.256 524.272C403.104 525.424 401.248 526 398.688 526C395.872 526 393.792 525.36 392.448 524.08C391.104 522.8 390.432 520.656 390.432 517.648V471.28C390.432 467.632 391.36 464.88 393.216 463.024C395.072 461.168 397.728 460.24 401.184 460.24C403.552 460.24 405.44 460.624 406.848 461.392C408.32 462.096 410.048 463.408 412.032 465.328L436.32 489.52V468.592C436.32 465.84 436.992 463.792 438.336 462.448C439.744 461.04 441.632 460.336 444 460.336C446.752 460.336 448.736 460.976 449.952 462.256C451.168 463.536 451.776 465.616 451.776 468.496V516.88ZM500.236 476.368C500.236 474.384 498.924 473.392 496.3 473.392C493.612 473.392 491.308 474.896 489.388 477.904C487.468 480.912 486.508 485.936 486.508 492.976C486.508 499.504 487.596 504.272 489.772 507.28C492.012 510.224 494.636 511.696 497.644 511.696C498.604 511.696 499.468 511.504 500.236 511.12C501.068 510.736 501.74 510.16 502.252 509.392C502.764 508.624 503.02 507.696 503.02 506.608C501.484 506.608 500.14 506.32 498.988 505.744C497.9 505.168 497.1 504.464 496.588 503.632C496.076 502.736 495.82 501.776 495.82 500.752C495.82 498.448 496.428 496.72 497.644 495.568C498.86 494.416 500.94 493.84 503.884 493.84H515.5C519.212 493.84 522.092 494.64 524.14 496.24C526.188 497.84 527.212 500.656 527.212 504.688C527.212 510.576 524.396 515.728 518.764 520.144C513.132 524.496 506.444 526.672 498.7 526.672C491.596 526.672 485.26 525.392 479.692 522.832C474.188 520.272 469.804 516.464 466.54 511.408C463.34 506.288 461.74 500.24 461.74 493.264C461.74 482.896 464.876 474.704 471.148 468.688C477.42 462.672 485.74 459.664 496.108 459.664C500.204 459.664 503.884 459.984 507.148 460.624C510.412 461.2 513.1 462 515.212 463.024C517.388 464.048 519.18 465.296 520.588 466.768C522.06 468.176 523.084 469.68 523.66 471.28C524.3 472.88 524.62 474.544 524.62 476.272C524.62 477.488 524.428 478.672 524.044 479.824C523.66 480.912 522.956 482.032 521.932 483.184C520.972 484.272 519.468 485.168 517.42 485.872C515.372 486.576 512.908 486.928 510.028 486.928C505.804 486.928 503.116 486.32 501.964 485.104C500.812 483.824 500.236 480.912 500.236 476.368Z" fill="#22C55E"/>
<path d="M44.16 509.68L36.4778 503.278L36.4138 503.355L36.3513 503.433L44.16 509.68ZM47.52 502.576L37.8186 500.151L37.7925 500.255L37.7687 500.36L47.52 502.576ZM47.52 484.336L37.7942 486.662L37.8001 486.686L37.806 486.711L47.52 484.336ZM44.064 476.848L36.064 482.848L36.1231 482.927L36.1838 483.004L44.064 476.848ZM29.76 484.336L20.0838 481.812L20.0838 481.812L29.76 484.336ZM29.664 502.576L19.9626 505.001L19.9884 505.105L20.0164 505.207L29.664 502.576ZM33.12 509.68L25.3113 515.927L25.3738 516.005L25.4378 516.082L33.12 509.68ZM55.584 522.832L60.0107 531.799L60.0561 531.776L60.1013 531.754L55.584 522.832ZM21.504 522.832L16.9408 531.73L17.0088 531.765L17.0773 531.799L21.504 522.832ZM9.504 511.408L18.0981 506.295L18.0981 506.295L9.504 511.408ZM14.304 468.88L21.301 476.024L21.3018 476.024L14.304 468.88ZM62.88 468.88L55.8822 476.024L55.9009 476.042L55.9197 476.06L62.88 468.88ZM67.68 511.408L59.1338 506.215L59.1097 506.255L59.0859 506.295L67.68 511.408ZM38.592 522.56C44.2263 522.56 48.8141 519.87 51.9687 515.927L36.3513 503.433C36.3056 503.49 36.5052 503.225 37.0218 502.958C37.5733 502.673 38.1496 502.56 38.592 502.56V522.56ZM51.8422 516.082C54.599 512.774 56.3361 508.907 57.2713 504.792L37.7687 500.36C37.4239 501.877 36.921 502.746 36.4778 503.278L51.8422 516.082ZM57.2214 505.001C58.1428 501.316 58.576 497.487 58.576 493.552H38.576C38.576 496.017 38.3052 498.204 37.8186 500.151L57.2214 505.001ZM58.576 493.552C58.576 489.567 58.146 485.692 57.234 481.961L37.806 486.711C38.302 488.74 38.576 491.009 38.576 493.552H58.576ZM57.2458 482.01C56.2629 477.9 54.5607 474.041 51.9442 470.692L36.1838 483.004C36.7673 483.751 37.3691 484.884 37.7942 486.662L57.2458 482.01ZM52.064 470.848C49.0883 466.88 44.5313 463.776 38.592 463.776V483.776C37.9508 483.776 37.2468 483.6 36.6487 483.264C36.1084 482.961 35.9482 482.694 36.064 482.848L52.064 470.848ZM38.592 463.776C32.6154 463.776 28.1169 466.98 25.216 470.848L41.216 482.848C41.3559 482.661 41.2111 482.919 40.6734 483.226C40.0708 483.571 39.3224 483.776 38.592 483.776V463.776ZM25.216 470.848C22.7688 474.111 21.119 477.844 20.0838 481.812L39.4362 486.86C39.937 484.94 40.5912 483.681 41.216 482.848L25.216 470.848ZM20.0838 481.812C19.09 485.622 18.608 489.544 18.608 493.552H38.608C38.608 491.16 38.894 488.938 39.4362 486.86L20.0838 481.812ZM18.608 493.552C18.608 497.487 19.0412 501.316 19.9626 505.001L39.3654 500.151C38.8788 498.204 38.608 496.017 38.608 493.552H18.608ZM20.0164 505.207C21.0777 509.099 22.7775 512.76 25.3113 515.927L40.9287 503.433C40.3905 502.76 39.7863 501.685 39.3116 499.945L20.0164 505.207ZM25.4378 516.082C28.4784 519.731 32.9265 522.56 38.592 522.56V502.56C39.2018 502.56 39.831 502.72 40.3455 502.991C40.8103 503.235 40.9376 503.441 40.8022 503.278L25.4378 516.082ZM51.1573 513.865C47.64 515.602 43.4882 516.576 38.496 516.576V536.576C46.1758 536.576 53.416 535.054 60.0107 531.799L51.1573 513.865ZM38.496 516.576C33.5848 516.576 29.4617 515.608 25.9307 513.865L17.0773 531.799C23.6583 535.048 30.8632 536.576 38.496 536.576V516.576ZM26.0672 513.934C22.8312 512.274 20.194 509.818 18.0981 506.295L0.909934 516.521C4.83003 523.11 10.1928 528.27 16.9408 531.73L26.0672 513.934ZM18.0981 506.295C16.152 503.024 14.992 498.899 14.992 493.552H-5.008C-5.008 501.901 -3.16001 509.68 0.909934 516.521L18.0981 506.295ZM14.992 493.552C14.992 485.314 17.3791 479.865 21.301 476.024L7.30697 461.736C-1.1871 470.055 -5.008 481.054 -5.008 493.552H14.992ZM21.3018 476.024C25.4566 471.954 30.9193 469.664 38.592 469.664V449.664C26.4247 449.664 15.6954 453.518 7.3062 461.736L21.3018 476.024ZM38.592 469.664C46.2647 469.664 51.7274 471.954 55.8822 476.024L69.8778 461.736C61.4886 453.518 50.7593 449.664 38.592 449.664V469.664ZM55.9197 476.06C59.8888 479.908 62.288 485.344 62.288 493.552H82.288C82.288 481.024 78.4152 470.012 69.8403 461.7L55.9197 476.06ZM62.288 493.552C62.288 498.862 61.1133 502.957 59.1338 506.215L76.2262 516.601C80.3907 509.747 82.288 501.938 82.288 493.552H62.288ZM59.0859 506.295C57.0091 509.786 54.3634 512.241 51.0668 513.91L60.1013 531.754C66.9166 528.303 72.3349 523.142 76.2741 516.521L59.0859 506.295ZM116.514 473.008L111.941 481.901L111.941 481.901L116.514 473.008ZM105.186 471.28V461.28H95.186V471.28H105.186ZM105.186 487.888H95.186V497.888H105.186V487.888ZM116.226 486.064L120.794 494.96L120.839 494.937L120.883 494.913L116.226 486.064ZM85.602 523.024L77.9591 529.473L78.0679 529.602L78.181 529.727L85.602 523.024ZM85.986 463.312L92.9402 470.498L92.9439 470.494L85.986 463.312ZM133.218 465.904L127.151 473.854L127.185 473.879L127.218 473.904L133.218 465.904ZM137.73 490.288L129.705 484.321L129.692 484.338L129.679 484.356L137.73 490.288ZM128.994 495.664L126.247 486.049L128.37 505.645L128.994 495.664ZM137.538 500.176L130.222 506.993L130.261 507.035L130.301 507.077L137.538 500.176ZM140.226 520.336L130.82 516.94L130.793 517.016L130.767 517.093L140.226 520.336ZM136.866 524.848L132.24 515.982L136.866 524.848ZM122.274 523.696L115.48 531.034L115.621 531.164L115.766 531.289L122.274 523.696ZM118.53 507.376L109.1 510.704L109.116 510.749L109.132 510.793L118.53 507.376ZM115.554 503.152L110.897 512.001L110.897 512.001L115.554 503.152ZM110.466 502.192V492.192H110.375L110.284 492.194L110.466 502.192ZM105.186 502.288L105.004 492.29L95.186 492.468V502.288H105.186ZM129.874 479.344C129.874 473.513 127.455 467.39 121.087 464.115L111.941 481.901C111.688 481.771 111.356 481.555 111.016 481.225C110.672 480.891 110.398 480.515 110.199 480.141C109.807 479.401 109.874 478.989 109.874 479.344H129.874ZM121.087 464.115C116.57 461.792 110.699 461.28 105.186 461.28V481.28C107.516 481.28 109.255 481.409 110.494 481.598C111.806 481.798 112.143 482.005 111.941 481.901L121.087 464.115ZM95.186 471.28V487.888H115.186V471.28H95.186ZM105.186 497.888C110.607 497.888 116.253 497.291 120.794 494.96L111.658 477.168C111.685 477.155 111.254 477.369 110.06 477.566C108.904 477.757 107.306 477.888 105.186 477.888V497.888ZM120.883 494.913C127.208 491.584 129.874 485.516 129.874 479.344H109.874C109.874 479.696 109.808 479.326 110.173 478.653C110.354 478.32 110.595 478.001 110.878 477.728C111.157 477.459 111.41 477.298 111.569 477.215L120.883 494.913ZM95.186 511.6C95.186 513.383 95.0088 514.603 94.8058 515.384C94.6069 516.149 94.425 516.337 94.493 516.25C94.6003 516.112 94.7929 515.967 94.9383 515.904C95.0233 515.868 94.7725 516 93.954 516V536C99.9942 536 106.061 533.938 110.263 528.55C114.097 523.635 115.186 517.425 115.186 511.6H95.186ZM93.954 516C92.9074 516 92.453 515.858 92.3905 515.836C92.3707 515.829 92.4488 515.855 92.5839 515.943C92.723 516.033 92.8781 516.161 93.023 516.321L78.181 529.727C82.5464 534.56 88.5486 536 93.954 536V516ZM93.2449 516.575C93.6875 517.1 93.5766 517.274 93.3795 516.456C93.1884 515.664 93.01 514.323 93.01 512.272H73.01C73.01 517.888 73.831 524.58 77.9591 529.473L93.2449 516.575ZM93.01 512.272V471.76H73.01V512.272H93.01ZM93.01 471.76C93.01 470.771 93.1447 470.303 93.1859 470.187C93.2039 470.135 93.1994 470.164 93.1511 470.241C93.1012 470.32 93.0291 470.412 92.9402 470.498L79.0318 456.126C74.5017 460.51 73.01 466.305 73.01 471.76H93.01ZM92.9439 470.494C92.9757 470.464 92.9877 470.457 92.9824 470.461C92.977 470.464 92.9826 470.459 93.0129 470.448C93.0662 470.428 93.3386 470.336 93.954 470.336V450.336C88.4989 450.336 83.2141 452.074 79.0281 456.13L92.9439 470.494ZM93.954 470.336H114.114V450.336H93.954V470.336ZM114.114 470.336C120.427 470.336 124.474 471.81 127.151 473.854L139.285 457.954C132.234 452.574 123.545 450.336 114.114 450.336V470.336ZM127.218 473.904C129.727 475.786 130.514 477.602 130.514 480.016H150.514C150.514 470.91 146.437 463.318 139.218 457.904L127.218 473.904ZM130.514 480.016C130.514 483.055 129.856 484.118 129.705 484.321L145.755 496.255C149.316 491.466 150.514 485.681 150.514 480.016H130.514ZM129.679 484.356C129.624 484.431 128.963 485.273 126.247 486.049L131.741 505.279C137.089 503.751 142.252 501.009 145.781 496.22L129.679 484.356ZM128.37 505.645C128.427 505.648 128.534 505.657 128.764 505.779C129.027 505.918 129.528 506.249 130.222 506.993L144.854 493.359C140.944 489.162 135.842 486.073 129.618 485.683L128.37 505.645ZM130.301 507.077C130.977 507.786 131.474 508.69 131.474 510.544H151.474C151.474 504.078 149.347 498.07 144.775 493.275L130.301 507.077ZM131.474 510.544C131.474 514.323 131.074 516.238 130.82 516.94L149.632 523.732C151.042 519.826 151.474 515.213 151.474 510.544H131.474ZM130.767 517.093C130.634 517.479 130.594 517.434 130.79 517.171C131.012 516.873 131.478 516.38 132.24 515.982L141.492 533.714C146.048 531.337 148.441 527.21 149.685 523.579L130.767 517.093ZM132.24 515.982C132.591 515.799 132.701 515.82 132.387 515.878C132.081 515.935 131.516 516 130.626 516V536C134.037 536 137.971 535.551 141.492 533.714L132.24 515.982ZM130.626 516C129.378 516 128.673 515.869 128.365 515.784C128.081 515.706 128.34 515.725 128.782 516.103L115.766 531.289C120.183 535.074 125.811 536 130.626 536V516ZM129.068 516.358C129.253 516.53 129.41 516.719 129.532 516.908C129.652 517.094 129.714 517.239 129.739 517.309C129.783 517.432 129.682 517.223 129.682 516.496H109.682C109.682 521.443 111.054 526.935 115.48 531.034L129.068 516.358ZM129.682 516.496C129.682 512.113 129.288 507.7 127.928 503.959L109.132 510.793C109.308 511.276 109.682 512.943 109.682 516.496H129.682ZM127.96 504.048C126.884 501 124.752 496.692 120.211 494.303L110.897 512.001C109.794 511.421 109.225 510.717 109.035 510.448C108.859 510.198 108.925 510.207 109.1 510.704L127.96 504.048ZM120.211 494.303C116.959 492.591 113.413 492.192 110.466 492.192V512.192C110.767 512.192 111.005 512.203 111.184 512.218C111.365 512.233 111.472 512.25 111.516 512.259C111.56 512.267 111.523 512.263 111.421 512.229C111.319 512.195 111.135 512.127 110.897 512.001L120.211 494.303ZM110.284 492.194L105.004 492.29L105.368 512.286L110.648 512.19L110.284 492.194ZM95.186 502.288V511.6H115.186V502.288H95.186ZM175.048 512.944H165.048V522.944H175.048V512.944ZM179.368 512.464L181.913 522.135L182.078 522.091L182.241 522.042L179.368 512.464ZM182.92 510.544L189.277 518.263L189.299 518.245L189.322 518.226L182.92 510.544ZM185.704 506.8L194.794 510.967L194.794 510.967L185.704 506.8ZM187.336 500.944L177.501 499.132L177.482 499.238L177.465 499.343L187.336 500.944ZM187.048 483.184L177.346 485.609L177.354 485.639L177.361 485.668L187.048 483.184ZM184.264 477.424L176.848 484.133L176.93 484.223L177.014 484.311L184.264 477.424ZM180.232 474.64L176.445 483.895L176.693 483.997L176.947 484.085L180.232 474.64ZM175.048 473.68L175.36 463.685L165.048 463.363V473.68H175.048ZM201.928 468.976L195.012 476.199L195.031 476.217L195.05 476.236L201.928 468.976ZM210.088 502.288L200.298 500.248L200.278 500.347L200.259 500.445L210.088 502.288ZM207.112 511.312L216.096 515.704L216.115 515.665L216.133 515.627L207.112 511.312ZM201.832 518.896L208.903 525.967L208.956 525.914L209.008 525.861L201.832 518.896ZM193.768 524.08L197.419 533.39L197.497 533.359L197.575 533.327L193.768 524.08ZM155.368 523.024L147.706 529.45L147.766 529.522L147.827 529.592L155.368 523.024ZM175.048 522.944C177.312 522.944 179.648 522.731 181.913 522.135L176.823 502.793C176.655 502.837 176.112 502.944 175.048 502.944V522.944ZM182.241 522.042C184.863 521.256 187.22 519.957 189.277 518.263L176.563 502.825C176.527 502.854 176.501 502.873 176.485 502.884C176.469 502.894 176.461 502.899 176.461 502.899C176.46 502.899 176.464 502.897 176.472 502.894C176.48 502.89 176.488 502.888 176.494 502.886L182.241 522.042ZM189.322 518.226C191.759 516.195 193.547 513.687 194.794 510.967L176.613 502.633C176.528 502.82 176.468 502.904 176.455 502.921C176.445 502.935 176.465 502.906 176.518 502.862L189.322 518.226ZM194.794 510.967C195.993 508.352 196.734 505.46 197.207 502.545L177.465 499.343C177.17 501.164 176.823 502.176 176.613 502.633L194.794 510.967ZM197.17 502.756C197.757 499.572 198.008 496.091 198.008 492.4H178.008C178.008 495.237 177.811 497.452 177.501 499.132L197.17 502.756ZM198.008 492.4C198.008 488.231 197.649 484.266 196.734 480.7L177.361 485.668C177.727 487.094 178.008 489.273 178.008 492.4H198.008ZM196.749 480.759C195.882 477.291 194.364 473.537 191.514 470.536L177.014 484.311C176.78 484.065 176.764 483.96 176.868 484.176C176.974 484.394 177.155 484.844 177.346 485.609L196.749 480.759ZM191.679 470.715C189.522 468.331 186.814 466.342 183.517 465.195L176.947 484.085C176.874 484.06 176.81 484.032 176.759 484.005C176.708 483.979 176.675 483.958 176.662 483.949C176.634 483.93 176.702 483.971 176.848 484.133L191.679 470.715ZM184.018 465.385C181.196 464.23 178.213 463.774 175.36 463.685L174.735 483.675C175.978 483.714 176.452 483.898 176.445 483.895L184.018 465.385ZM165.048 473.68V512.944H185.048V473.68H165.048ZM177.928 470.336C185.879 470.336 191.217 472.565 195.012 476.199L208.843 461.753C200.607 453.867 189.944 450.336 177.928 450.336V470.336ZM195.05 476.236C198.731 479.723 201.048 484.804 201.048 492.784H221.048C221.048 480.54 217.284 469.749 208.805 461.716L195.05 476.236ZM201.048 492.784C201.048 495.39 200.793 497.874 200.298 500.248L219.878 504.328C220.663 500.558 221.048 496.706 221.048 492.784H201.048ZM200.259 500.445C199.85 502.625 199.139 504.804 198.09 506.997L216.133 515.627C217.9 511.932 219.173 508.095 219.916 504.131L200.259 500.445ZM198.128 506.92C197.157 508.907 195.992 510.554 194.656 511.931L209.008 525.861C211.895 522.886 214.251 519.477 216.096 515.704L198.128 506.92ZM194.761 511.825C193.736 512.85 192.222 513.902 189.96 514.833L197.575 533.327C201.842 531.57 205.704 529.166 208.903 525.967L194.761 511.825ZM190.117 514.77C188.194 515.524 185.781 516 182.728 516V536C187.866 536 192.813 535.196 197.419 533.39L190.117 514.77ZM182.728 516H163.816V536H182.728V516ZM163.816 516C162.667 516 162.168 515.849 162.098 515.824C162.079 515.817 162.178 515.85 162.347 515.96C162.52 516.074 162.72 516.239 162.909 516.456L147.827 529.592C152.221 534.637 158.44 536 163.816 536V516ZM163.03 516.598C163.543 517.21 163.437 517.45 163.237 516.587C163.047 515.769 162.872 514.386 162.872 512.272H142.872C142.872 517.811 143.615 524.573 147.706 529.45L163.03 516.598ZM162.872 512.272V471.76H142.872V512.272H162.872ZM162.872 471.76C162.872 470.623 163.011 470.024 163.082 469.804C163.138 469.627 163.106 469.82 162.829 470.11C162.543 470.409 162.289 470.503 162.314 470.495C162.392 470.467 162.833 470.336 163.816 470.336V450.336C158.514 450.336 152.729 451.742 148.387 456.274C144.121 460.727 142.872 466.515 142.872 471.76H162.872ZM163.816 470.336H177.928V450.336H163.816V470.336ZM267.758 488.656L261.466 496.428L261.553 496.5L261.643 496.569L267.758 488.656ZM267.374 498.928L272.26 507.653L272.315 507.622L272.371 507.59L267.374 498.928ZM244.238 500.272V490.272H234.238V500.272H244.238ZM244.238 510.448H234.238V520.402L244.191 520.448L244.238 510.448ZM265.07 510.544L265.023 520.544L265.046 520.544H265.07V510.544ZM272.75 512.176L266.969 520.336L267.161 520.472L267.359 520.599L272.75 512.176ZM272.366 524.176L266.885 515.811L266.818 515.856L266.75 515.901L272.366 524.176ZM224.654 523.024L217.011 529.473L217.119 529.602L217.232 529.727L224.654 523.024ZM272.366 461.968L266.958 470.38L267.025 470.423L267.092 470.464L272.366 461.968ZM272.75 474.16L278.53 482.32L278.561 482.298L278.593 482.275L272.75 474.16ZM244.142 475.792V465.792H234.142V475.792H244.142ZM244.142 487.024H234.142V497.024H244.142V487.024ZM260.654 497.024C261.239 497.024 261.706 497.048 262.065 497.082C262.428 497.116 262.642 497.157 262.735 497.178C262.83 497.2 262.744 497.189 262.533 497.096C262.319 497.002 261.927 496.802 261.466 496.428L274.049 480.884C269.873 477.502 264.459 477.024 260.654 477.024V497.024ZM261.643 496.569C260.722 495.857 260.216 495.004 259.992 494.411C259.8 493.906 259.87 493.756 259.87 494.224H279.87C279.87 490.029 278.727 484.495 273.872 480.743L261.643 496.569ZM259.87 494.224C259.87 494.042 259.908 493.295 260.412 492.345C260.949 491.334 261.721 490.644 262.376 490.266L272.371 507.59C277.594 504.576 279.87 499.404 279.87 494.224H259.87ZM262.487 490.203C262.969 489.933 263.101 489.989 262.533 490.089C262.003 490.183 261.119 490.272 259.79 490.272V510.272C263.689 510.272 268.355 509.84 272.26 507.653L262.487 490.203ZM259.79 490.272H244.238V510.272H259.79V490.272ZM234.238 500.272V510.448H254.238V500.272H234.238ZM244.191 520.448L265.023 520.544L265.116 500.544L244.284 500.448L244.191 520.448ZM265.07 520.544C266.4 520.544 267.2 520.649 267.599 520.734C268.033 520.826 267.656 520.822 266.969 520.336L278.53 504.016C274.353 501.057 269.13 500.544 265.07 500.544V520.544ZM267.359 520.599C266.368 519.964 265.703 519.076 265.366 518.294C265.081 517.633 265.15 517.335 265.15 517.744H285.15C285.15 513.191 283.708 507.317 278.14 503.753L267.359 520.599ZM265.15 517.744C265.15 518.323 265.056 518.194 265.276 517.684C265.394 517.413 265.586 517.068 265.883 516.71C266.183 516.348 266.529 516.045 266.885 515.811L277.846 532.541C283.534 528.814 285.15 522.767 285.15 517.744H265.15ZM266.75 515.901C267.166 515.619 267.294 515.67 266.8 515.779C266.315 515.887 265.454 516 264.11 516V536C268.552 536 273.724 535.339 277.981 532.451L266.75 515.901ZM264.11 516H233.006V536H264.11V516ZM233.006 516C231.959 516 231.504 515.858 231.442 515.836C231.422 515.829 231.5 515.855 231.635 515.943C231.775 516.033 231.93 516.161 232.075 516.321L217.232 529.727C221.598 534.56 227.6 536 233.006 536V516ZM232.296 516.575C232.739 517.1 232.628 517.274 232.431 516.456C232.24 515.664 232.062 514.323 232.062 512.272H212.062C212.062 517.888 212.882 524.58 217.011 529.473L232.296 516.575ZM232.062 512.272V471.76H212.062V512.272H232.062ZM232.062 471.76C232.062 470.601 232.203 469.979 232.279 469.739C232.342 469.541 232.318 469.722 232.047 470.007C231.766 470.304 231.512 470.402 231.528 470.396C231.598 470.372 232.031 470.24 233.006 470.24V450.24C227.681 450.24 221.885 451.666 217.548 456.233C213.301 460.702 212.062 466.503 212.062 471.76H232.062ZM233.006 470.24H264.11V450.24H233.006V470.24ZM264.11 470.24C265.482 470.24 266.381 470.349 266.909 470.46C267.451 470.573 267.358 470.637 266.958 470.38L277.773 453.556C273.567 450.852 268.489 450.24 264.11 450.24V470.24ZM267.092 470.464C266.714 470.23 266.338 469.917 266.007 469.532C265.678 469.151 265.459 468.775 265.321 468.466C265.061 467.883 265.15 467.679 265.15 468.208H285.15C285.15 463.188 283.483 457.099 277.639 453.472L267.092 470.464ZM265.15 468.208C265.15 468.719 265.07 468.576 265.275 468.068C265.52 467.462 266.042 466.667 266.906 466.045L278.593 482.275C283.8 478.526 285.15 472.774 285.15 468.208H265.15ZM266.969 466C267.656 465.514 268.033 465.51 267.599 465.602C267.2 465.687 266.4 465.792 265.07 465.792V485.792C269.13 485.792 274.353 485.279 278.53 482.32L266.969 466ZM265.07 465.792H244.142V485.792H265.07V465.792ZM234.142 475.792V487.024H254.142V475.792H234.142ZM244.142 497.024H260.654V477.024H244.142V497.024ZM319.202 473.008L314.628 481.901L314.628 481.901L319.202 473.008ZM307.874 471.28V461.28H297.874V471.28H307.874ZM307.874 487.888H297.874V497.888H307.874V487.888ZM318.914 486.064L323.482 494.96L323.526 494.937L323.571 494.913L318.914 486.064ZM288.29 523.024L280.647 529.473L280.755 529.602L280.868 529.727L288.29 523.024ZM288.674 463.312L295.628 470.498L295.631 470.494L288.674 463.312ZM335.906 465.904L329.839 473.854L329.872 473.879L329.905 473.904L335.906 465.904ZM340.418 490.288L332.393 484.321L332.38 484.338L332.367 484.356L340.418 490.288ZM331.682 495.664L328.934 486.049L331.058 505.645L331.682 495.664ZM340.226 500.176L332.909 506.993L332.949 507.035L332.988 507.077L340.226 500.176ZM342.914 520.336L333.508 516.94L333.48 517.016L333.454 517.093L342.914 520.336ZM339.554 524.848L334.928 515.982L339.554 524.848ZM324.962 523.696L318.167 531.034L318.308 531.164L318.454 531.289L324.962 523.696ZM321.218 507.376L311.788 510.704L311.803 510.749L311.82 510.793L321.218 507.376ZM318.242 503.152L313.584 512.001L313.584 512.001L318.242 503.152ZM313.154 502.192V492.192H313.063L312.972 492.194L313.154 502.192ZM307.874 502.288L307.692 492.29L297.874 492.468V502.288H307.874ZM332.562 479.344C332.562 473.513 330.143 467.39 323.775 464.115L314.628 481.901C314.375 481.771 314.044 481.555 313.704 481.225C313.36 480.891 313.085 480.515 312.887 480.141C312.494 479.401 312.562 478.989 312.562 479.344H332.562ZM323.775 464.115C319.258 461.792 313.386 461.28 307.874 461.28V481.28C310.204 481.28 311.943 481.409 313.182 481.598C314.494 481.798 314.83 482.005 314.628 481.901L323.775 464.115ZM297.874 471.28V487.888H317.874V471.28H297.874ZM307.874 497.888C313.294 497.888 318.941 497.291 323.482 494.96L314.345 477.168C314.372 477.155 313.941 477.369 312.747 477.566C311.592 477.757 309.994 477.888 307.874 477.888V497.888ZM323.571 494.913C329.896 491.584 332.562 485.516 332.562 479.344H312.562C312.562 479.696 312.496 479.326 312.861 478.653C313.042 478.32 313.282 478.001 313.566 477.728C313.845 477.459 314.098 477.298 314.256 477.215L323.571 494.913ZM297.874 511.6C297.874 513.383 297.696 514.603 297.493 515.384C297.294 516.149 297.113 516.337 297.18 516.25C297.288 516.112 297.48 515.967 297.626 515.904C297.711 515.868 297.46 516 296.642 516V536C302.682 536 308.748 533.938 312.951 528.55C316.784 523.635 317.874 517.425 317.874 511.6H297.874ZM296.642 516C295.595 516 295.14 515.858 295.078 515.836C295.058 515.829 295.136 515.855 295.271 515.943C295.411 516.033 295.566 516.161 295.711 516.321L280.868 529.727C285.234 534.56 291.236 536 296.642 536V516ZM295.932 516.575C296.375 517.1 296.264 517.274 296.067 516.456C295.876 515.664 295.698 514.323 295.698 512.272H275.698C275.698 517.888 276.518 524.58 280.647 529.473L295.932 516.575ZM295.698 512.272V471.76H275.698V512.272H295.698ZM295.698 471.76C295.698 470.771 295.832 470.303 295.873 470.187C295.891 470.135 295.887 470.164 295.839 470.241C295.789 470.32 295.717 470.412 295.628 470.498L281.719 456.126C277.189 460.51 275.698 466.305 275.698 471.76H295.698ZM295.631 470.494C295.663 470.464 295.675 470.457 295.67 470.461C295.664 470.464 295.67 470.459 295.7 470.448C295.754 470.428 296.026 470.336 296.642 470.336V450.336C291.186 450.336 285.902 452.074 281.716 456.13L295.631 470.494ZM296.642 470.336H316.802V450.336H296.642V470.336ZM316.802 470.336C323.114 470.336 327.161 471.81 329.839 473.854L341.972 457.954C334.922 452.574 326.233 450.336 316.802 450.336V470.336ZM329.905 473.904C332.415 475.786 333.202 477.602 333.202 480.016H353.202C353.202 470.91 349.124 463.318 341.906 457.904L329.905 473.904ZM333.202 480.016C333.202 483.055 332.544 484.118 332.393 484.321L348.442 496.255C352.003 491.466 353.202 485.681 353.202 480.016H333.202ZM332.367 484.356C332.312 484.431 331.651 485.273 328.934 486.049L334.429 505.279C339.776 503.751 344.939 501.009 348.468 496.22L332.367 484.356ZM331.058 505.645C331.114 505.648 331.221 505.657 331.452 505.779C331.715 505.918 332.215 506.249 332.909 506.993L347.542 493.359C343.631 489.162 338.53 486.073 332.305 485.683L331.058 505.645ZM332.988 507.077C333.665 507.786 334.162 508.69 334.162 510.544H354.162C354.162 504.078 352.034 498.07 347.463 493.275L332.988 507.077ZM334.162 510.544C334.162 514.323 333.761 516.238 333.508 516.94L352.319 523.732C353.73 519.826 354.162 515.213 354.162 510.544H334.162ZM333.454 517.093C333.322 517.479 333.281 517.434 333.477 517.171C333.699 516.873 334.165 516.38 334.928 515.982L344.179 533.714C348.736 531.337 351.128 527.21 352.373 523.579L333.454 517.093ZM334.928 515.982C335.278 515.799 335.389 515.82 335.074 515.878C334.768 515.935 334.203 516 333.314 516V536C336.724 536 340.658 535.551 344.179 533.714L334.928 515.982ZM333.314 516C332.065 516 331.36 515.869 331.053 515.784C330.768 515.706 331.028 515.725 331.469 516.103L318.454 531.289C322.87 535.074 328.499 536 333.314 536V516ZM331.756 516.358C331.94 516.53 332.097 516.719 332.22 516.908C332.34 517.094 332.401 517.239 332.426 517.309C332.471 517.432 332.37 517.223 332.37 516.496H312.37C312.37 521.443 313.741 526.935 318.167 531.034L331.756 516.358ZM332.37 516.496C332.37 512.113 331.976 507.7 330.615 503.959L311.82 510.793C311.995 511.276 312.37 512.943 312.37 516.496H332.37ZM330.647 504.048C329.572 501 327.439 496.692 322.899 494.303L313.584 512.001C312.482 511.421 311.912 510.717 311.723 510.448C311.547 510.198 311.612 510.207 311.788 510.704L330.647 504.048ZM322.899 494.303C319.646 492.591 316.101 492.192 313.154 492.192V512.192C313.455 512.192 313.692 512.203 313.872 512.218C314.052 512.233 314.159 512.25 314.203 512.259C314.248 512.267 314.211 512.263 314.109 512.229C314.006 512.195 313.822 512.127 313.584 512.001L322.899 494.303ZM312.972 492.194L307.692 492.29L308.055 512.286L313.335 512.19L312.972 492.194ZM297.874 502.288V511.6H317.874V502.288H297.874ZM375.047 522.544L382.835 528.817L382.835 528.817L375.047 522.544ZM358.343 523.024L350.802 529.592L350.862 529.66L350.922 529.727L358.343 523.024ZM374.951 462.352L368.907 470.319L368.972 470.368L369.038 470.416L374.951 462.352ZM367.831 511.6C367.831 513.517 367.649 514.809 367.444 515.615C367.241 516.413 367.077 516.497 367.26 516.271L382.835 528.817C386.818 523.873 387.831 517.442 387.831 511.6H367.831ZM367.26 516.271C367.321 516.194 367.413 516.102 367.528 516.017C367.642 515.932 367.729 515.892 367.757 515.881C367.802 515.862 367.492 516 366.599 516V536C372.492 536 378.575 534.105 382.835 528.817L367.26 516.271ZM366.599 516C365.603 516 365.183 515.863 365.142 515.849C365.132 515.845 365.213 515.873 365.346 515.96C365.483 516.05 365.63 516.172 365.764 516.321L350.922 529.727C355.258 534.527 361.196 536 366.599 536V516ZM365.884 516.456C366.4 517.048 366.309 517.301 366.116 516.508C365.93 515.745 365.751 514.423 365.751 512.368H345.751C345.751 517.931 346.551 524.711 350.802 529.592L365.884 516.456ZM365.751 512.368V471.76H345.751V512.368H365.751ZM365.751 471.76C365.751 470.593 365.892 469.964 365.97 469.715C366.035 469.507 366.015 469.687 365.743 469.976C365.619 470.108 365.484 470.216 365.362 470.294C365.243 470.369 365.174 470.392 365.19 470.387C365.239 470.369 365.649 470.24 366.599 470.24V450.24C361.283 450.24 355.5 451.68 351.183 456.264C346.973 460.736 345.751 466.523 345.751 471.76H365.751ZM366.599 470.24C367.856 470.24 368.623 470.362 369.02 470.463C369.405 470.56 369.266 470.591 368.907 470.319L380.995 454.385C376.639 451.08 371.291 450.24 366.599 450.24V470.24ZM369.038 470.416C368.522 470.038 368.161 469.625 367.929 469.282C367.708 468.955 367.635 468.739 367.635 468.738C367.634 468.736 367.648 468.777 367.669 468.869C367.69 468.962 367.716 469.098 367.741 469.283C367.791 469.659 367.831 470.188 367.831 470.896H387.831C387.831 465.871 386.836 458.667 380.865 454.288L369.038 470.416ZM367.831 470.896V511.6H387.831V470.896H367.831ZM449.28 523.6L456.211 530.808L456.282 530.74L456.351 530.671L449.28 523.6ZM436.8 524.656L431.839 533.338L431.965 533.411L432.094 533.48L436.8 524.656ZM434.4 523.216L439.769 514.779L439.769 514.779L434.4 523.216ZM431.712 521.2L424.873 528.495L425.107 528.715L425.355 528.919L431.712 521.2ZM429.216 518.992L422.145 526.063L422.537 526.455L422.969 526.801L429.216 518.992ZM426.432 516.304L433.32 509.054L433.319 509.054L426.432 516.304ZM423.648 513.616L430.719 506.545L430.62 506.446L430.518 506.349L423.648 513.616ZM406.08 497.008L412.95 489.741L396.08 473.793V497.008H406.08ZM404.256 524.272L397.379 517.012L397.28 517.105L397.185 517.201L404.256 524.272ZM392.448 524.08L399.345 516.839L399.345 516.839L392.448 524.08ZM393.216 463.024L400.287 470.095L400.287 470.095L393.216 463.024ZM406.848 461.392L402.059 470.171L402.293 470.298L402.533 470.413L406.848 461.392ZM412.032 465.328L419.089 458.243L419.038 458.192L418.986 458.142L412.032 465.328ZM436.32 489.52L429.263 496.605L446.32 513.595V489.52H436.32ZM441.776 516.88C441.776 517.307 441.713 517.364 441.778 517.19C441.81 517.104 441.864 516.987 441.947 516.857C442.03 516.727 442.122 516.616 442.209 516.529L456.351 530.671C460.252 526.77 461.776 521.789 461.776 516.88H441.776ZM442.349 516.392C442.516 516.231 442.685 516.109 442.833 516.022C442.977 515.937 443.071 515.905 443.083 515.901C443.091 515.898 442.776 516 441.984 516V536C446.758 536 452.065 534.795 456.211 530.808L442.349 516.392ZM441.984 516C441.929 516 441.851 515.994 441.737 515.968L437.239 535.456C438.789 535.814 440.376 536 441.984 536V516ZM441.737 515.968C441.856 515.996 441.895 516.015 441.849 515.996C441.802 515.978 441.689 515.93 441.506 515.832L432.094 533.48C433.628 534.298 435.355 535.021 437.239 535.456L441.737 515.968ZM441.761 515.974C440.972 515.523 440.312 515.125 439.769 514.779L429.031 531.653C429.896 532.203 430.836 532.765 431.839 533.338L441.761 515.974ZM439.769 514.779C439.563 514.648 439.025 514.268 438.069 513.481L425.355 528.919C426.575 529.924 427.829 530.888 429.031 531.653L439.769 514.779ZM438.551 513.905C437.45 512.872 436.4 511.933 435.463 511.183L422.969 526.801C423.312 527.075 423.926 527.608 424.873 528.495L438.551 513.905ZM436.287 511.921C435.614 511.248 434.607 510.277 433.32 509.054L419.545 523.554C420.817 524.763 421.666 525.584 422.145 526.063L436.287 511.921ZM433.319 509.054C432.047 507.845 431.198 507.024 430.719 506.545L416.577 520.687C417.25 521.36 418.257 522.331 419.545 523.554L433.319 509.054ZM430.518 506.349L412.95 489.741L399.21 504.275L416.778 520.883L430.518 506.349ZM396.08 497.008V517.84H416.08V497.008H396.08ZM396.08 517.84C396.08 518.308 396.057 518.642 396.032 518.862C396.006 519.085 395.983 519.142 396.003 519.072C396.033 518.969 396.319 518.017 397.379 517.012L411.133 531.532C415.501 527.394 416.08 521.558 416.08 517.84H396.08ZM397.185 517.201C397.958 516.428 398.712 516.118 399.036 516.017C399.317 515.93 399.262 516 398.688 516V536C402.431 536 407.468 535.202 411.327 531.343L397.185 517.201ZM398.688 516C398 516 397.812 515.918 397.957 515.962C398.142 516.019 398.717 516.241 399.345 516.839L385.551 531.321C389.519 535.1 394.601 536 398.688 536V516ZM399.345 516.839C400.134 517.591 400.413 518.314 400.478 518.521C400.529 518.682 400.432 518.458 400.432 517.648H380.432C380.432 521.755 381.29 527.263 385.551 531.321L399.345 516.839ZM400.432 517.648V471.28H380.432V517.648H400.432ZM400.432 471.28C400.432 470.277 400.563 469.797 400.604 469.675C400.621 469.623 400.614 469.661 400.557 469.755C400.498 469.852 400.408 469.974 400.287 470.095L386.145 455.953C381.782 460.316 380.432 466.032 380.432 471.28H400.432ZM400.287 470.095C400.197 470.185 400.099 470.261 400.009 470.316C399.921 470.37 399.875 470.384 399.898 470.376C399.956 470.356 400.332 470.24 401.184 470.24V450.24C395.947 450.24 390.414 451.684 386.145 455.953L400.287 470.095ZM401.184 470.24C401.844 470.24 402.224 470.295 402.383 470.327C402.539 470.359 402.387 470.349 402.059 470.171L411.637 452.613C408.225 450.752 404.486 450.24 401.184 450.24V470.24ZM402.533 470.413C402.495 470.395 402.712 470.497 403.201 470.868C403.675 471.229 404.299 471.761 405.078 472.514L418.986 458.142C416.685 455.915 414.052 453.753 411.163 452.371L402.533 470.413ZM404.975 472.413L429.263 496.605L443.377 482.435L419.089 458.243L404.975 472.413ZM446.32 489.52V468.592H426.32V489.52H446.32ZM446.32 468.592C446.32 467.997 446.397 467.893 446.326 468.11C446.239 468.375 445.985 468.941 445.407 469.519L431.265 455.377C427.345 459.297 426.32 464.378 426.32 468.592H446.32ZM445.407 469.519C445.085 469.841 444.685 470.091 444.302 470.234C443.951 470.365 443.804 470.336 444 470.336V450.336C439.519 450.336 434.898 451.744 431.265 455.377L445.407 469.519ZM444 470.336C444.647 470.336 444.741 470.417 444.482 470.333C444.171 470.233 443.437 469.918 442.702 469.143L457.202 455.368C453.267 451.226 447.991 450.336 444 450.336V470.336ZM442.702 469.143C441.992 468.396 441.764 467.728 441.722 467.582C441.688 467.467 441.776 467.714 441.776 468.496H461.776C461.776 464.585 461.014 459.381 457.202 455.368L442.702 469.143ZM441.776 468.496V516.88H461.776V468.496H441.776ZM489.388 477.904L480.959 472.524L480.959 472.524L489.388 477.904ZM489.772 507.28L481.67 513.141L481.74 513.239L481.813 513.335L489.772 507.28ZM500.236 511.12L496.045 502.04L495.903 502.106L495.764 502.176L500.236 511.12ZM502.252 509.392L493.931 503.845L493.931 503.845L502.252 509.392ZM503.02 506.608H513.02V496.608H503.02V506.608ZM498.988 505.744L494.309 514.582L494.412 514.636L494.516 514.688L498.988 505.744ZM496.588 503.632L487.905 508.593L487.986 508.735L488.071 508.873L496.588 503.632ZM497.644 495.568L504.521 502.828L504.521 502.828L497.644 495.568ZM524.14 496.24L517.983 504.12L517.983 504.12L524.14 496.24ZM518.764 520.144L524.878 528.057L524.906 528.035L524.934 528.013L518.764 520.144ZM479.692 522.832L475.474 531.899L475.494 531.908L475.514 531.918L479.692 522.832ZM466.54 511.408L458.06 516.708L458.099 516.77L458.138 516.832L466.54 511.408ZM471.148 468.688L478.07 475.905L478.07 475.905L471.148 468.688ZM507.148 460.624L505.224 470.437L505.317 470.455L505.41 470.472L507.148 460.624ZM515.212 463.024L510.849 472.022L510.901 472.047L510.954 472.072L515.212 463.024ZM520.588 466.768L513.361 473.68L513.515 473.841L513.676 473.994L520.588 466.768ZM523.66 471.28L514.251 474.667L514.31 474.832L514.375 474.994L523.66 471.28ZM524.044 479.824L533.474 483.152L533.503 483.069L533.531 482.986L524.044 479.824ZM521.932 483.184L514.458 476.54L514.445 476.554L514.433 476.568L521.932 483.184ZM501.964 485.104L494.531 491.794L494.616 491.889L494.704 491.981L501.964 485.104ZM510.236 476.368C510.236 472.966 508.965 468.943 505.283 466.159C502.128 463.774 498.586 463.392 496.3 463.392V483.392C496.637 483.392 495.063 483.506 493.221 482.113C492.206 481.346 491.371 480.305 490.84 479.1C490.334 477.954 490.236 476.963 490.236 476.368H510.236ZM496.3 463.392C489.111 463.392 484.042 467.693 480.959 472.524L497.817 483.284C498.231 482.636 498.356 482.675 498.022 482.894C497.844 483.01 497.579 483.147 497.24 483.249C496.9 483.351 496.574 483.392 496.3 483.392V463.392ZM480.959 472.524C477.418 478.07 476.508 485.566 476.508 492.976H496.508C496.508 486.306 497.517 483.754 497.817 483.284L480.959 472.524ZM476.508 492.976C476.508 500.196 477.631 507.559 481.67 513.141L497.874 501.419C497.56 500.985 496.508 498.812 496.508 492.976H476.508ZM481.813 513.335C485.461 518.129 490.792 521.696 497.644 521.696V501.696C497.716 501.696 497.84 501.706 497.988 501.745C498.137 501.784 498.249 501.835 498.312 501.871C498.434 501.939 498.206 501.851 497.73 501.225L481.813 513.335ZM497.644 521.696C499.971 521.696 502.395 521.221 504.708 520.064L495.764 502.176C496.541 501.787 497.237 501.696 497.644 501.696V521.696ZM504.426 520.2C506.948 519.036 509.044 517.231 510.572 514.939L493.931 503.845C494.435 503.089 495.188 502.436 496.045 502.04L504.426 520.2ZM510.572 514.939C512.363 512.252 513.02 509.31 513.02 506.608H493.02C493.02 506.082 493.164 504.996 493.931 503.845L510.572 514.939ZM503.02 496.608C502.875 496.608 502.863 496.594 502.955 496.614C503.052 496.635 503.233 496.686 503.46 496.8L494.516 514.688C497.299 516.08 500.228 516.608 503.02 516.608V496.608ZM503.667 496.906C503.751 496.951 504.467 497.355 505.104 498.391L488.071 508.873C489.733 511.573 492.049 513.385 494.309 514.582L503.667 496.906ZM505.27 498.671C505.426 498.943 505.571 499.278 505.674 499.663C505.777 500.049 505.82 500.421 505.82 500.752H485.82C485.82 503.53 486.537 506.199 487.905 508.593L505.27 498.671ZM505.82 500.752C505.82 500.452 505.863 500.61 505.709 501.047C505.536 501.538 505.171 502.212 504.521 502.828L490.766 488.308C486.899 491.973 485.82 496.764 485.82 500.752H505.82ZM504.521 502.828C503.649 503.654 502.879 503.883 502.785 503.909C502.727 503.925 502.78 503.905 502.977 503.883C503.171 503.861 503.468 503.84 503.884 503.84V483.84C500.157 483.84 494.818 484.47 490.766 488.308L504.521 502.828ZM503.884 503.84H515.5V483.84H503.884V503.84ZM515.5 503.84C517.911 503.84 518.308 504.374 517.983 504.12L530.296 488.36C525.876 484.906 520.513 483.84 515.5 483.84V503.84ZM517.983 504.12C517.679 503.883 517.442 503.62 517.275 503.379C517.112 503.145 517.052 502.987 517.046 502.969C517.041 502.957 517.086 503.076 517.13 503.371C517.174 503.665 517.212 504.097 517.212 504.688H537.212C537.212 499.3 535.863 492.709 530.296 488.36L517.983 504.12ZM517.212 504.688C517.212 506.837 516.386 509.301 512.593 512.275L524.934 528.013C532.405 522.155 537.212 514.315 537.212 504.688H517.212ZM512.649 512.231C508.925 515.109 504.438 516.672 498.7 516.672V536.672C508.45 536.672 517.338 533.883 524.878 528.057L512.649 512.231ZM498.7 516.672C492.809 516.672 487.934 515.615 483.869 513.746L475.514 531.918C482.585 535.169 490.382 536.672 498.7 536.672V516.672ZM483.909 513.765C480.1 511.993 477.173 509.441 474.941 505.984L458.138 516.832C462.435 523.487 468.276 528.551 475.474 531.899L483.909 513.765ZM475.02 506.108C472.96 502.812 471.74 498.663 471.74 493.264H451.74C451.74 501.817 453.72 509.764 458.06 516.708L475.02 506.108ZM471.74 493.264C471.74 485.053 474.139 479.675 478.07 475.905L464.225 461.471C455.612 469.733 451.74 480.739 451.74 493.264H471.74ZM478.07 475.905C482.129 472.011 487.789 469.664 496.108 469.664V449.664C483.69 449.664 472.71 453.333 464.225 461.471L478.07 475.905ZM496.108 469.664C499.7 469.664 502.719 469.946 505.224 470.437L509.072 450.811C505.049 450.022 500.708 449.664 496.108 449.664V469.664ZM505.41 470.472C508.106 470.948 509.832 471.529 510.849 472.022L519.574 454.026C516.367 452.471 512.717 451.452 508.886 450.776L505.41 470.472ZM510.954 472.072C512.214 472.665 512.942 473.241 513.361 473.68L527.814 459.856C525.418 457.351 522.561 455.431 519.47 453.976L510.954 472.072ZM513.676 473.994C514.249 474.542 514.293 474.783 514.251 474.667L533.069 467.893C531.875 464.577 529.871 461.81 527.5 459.542L513.676 473.994ZM514.375 474.994C514.541 475.409 514.62 475.813 514.62 476.272H534.62C534.62 473.275 534.058 470.351 532.945 467.566L514.375 474.994ZM514.62 476.272C514.62 476.415 514.601 476.531 514.557 476.662L533.531 482.986C534.255 480.813 534.62 478.561 534.62 476.272H514.62ZM514.614 476.496C514.701 476.249 514.776 476.136 514.761 476.158C514.755 476.168 514.73 476.206 514.68 476.272C514.63 476.338 514.558 476.428 514.458 476.54L529.406 489.828C531.018 488.014 532.54 485.797 533.474 483.152L514.614 476.496ZM514.433 476.568C514.764 476.193 515.004 476.058 514.966 476.081C514.95 476.09 514.882 476.129 514.747 476.19C514.612 476.251 514.422 476.328 514.169 476.415L520.671 495.329C523.609 494.319 526.895 492.673 529.43 489.8L514.433 476.568ZM514.169 476.415C513.448 476.663 512.144 476.928 510.028 476.928V496.928C513.672 496.928 517.296 496.489 520.671 495.329L514.169 476.415ZM510.028 476.928C509.204 476.928 508.542 476.898 508.024 476.852C507.499 476.806 507.189 476.75 507.05 476.718C506.898 476.684 507.058 476.704 507.406 476.869C507.753 477.034 508.469 477.43 509.223 478.227L494.704 491.981C497.265 494.684 500.488 495.739 502.638 496.226C504.981 496.756 507.522 496.928 510.028 496.928V476.928ZM509.397 478.414C510.072 479.164 510.364 479.81 510.453 480.027C510.549 480.259 510.531 480.291 510.478 480.02C510.364 479.444 510.236 478.293 510.236 476.368H490.236C490.236 478.987 490.396 481.564 490.858 483.9C491.274 486.003 492.163 489.163 494.531 491.794L509.397 478.414Z" fill="white" mask="url(#path-7-outside-4_16_2)"/>
</svg>
