<svg width="507" height="575" viewBox="0 0 507 575" fill="none" xmlns="http://www.w3.org/2000/svg">
<mask id="path-1-outside-1_12_10" maskUnits="userSpaceOnUse" x="44" y="91" width="133" height="215" fill="black">
<rect fill="white" x="44" y="91" width="133" height="215"/>
<path d="M136 290.5C127.833 290.5 121.5 288 117 283C112.5 278 110.25 271.833 110.25 264.5V175H105.25C104.083 178.833 101.583 182.25 97.75 185.25C93.9167 188.25 89.0833 189.75 83.25 189.75C76.9167 189.75 71.3333 187.667 66.5 183.5C61.8333 179.167 59.5 173.167 59.5 165.5C59.5 159.667 60.8333 154.75 63.5 150.75C66.1667 146.75 69.5833 142.833 73.75 139L92 122.75C98.3333 117.083 104.25 113 109.75 110.5C115.25 107.833 121.583 106.5 128.75 106.5C134.583 106.5 140 107.75 145 110.25C150 112.75 154 116.667 157 122C160.167 127.167 161.75 134 161.75 142.5V264.5C161.75 271.833 159.583 278 155.25 283C150.917 288 144.5 290.5 136 290.5Z"/>
</mask>
<path d="M136 290.5C127.833 290.5 121.5 288 117 283C112.5 278 110.25 271.833 110.25 264.5V175H105.25C104.083 178.833 101.583 182.25 97.75 185.25C93.9167 188.25 89.0833 189.75 83.25 189.75C76.9167 189.75 71.3333 187.667 66.5 183.5C61.8333 179.167 59.5 173.167 59.5 165.5C59.5 159.667 60.8333 154.75 63.5 150.75C66.1667 146.75 69.5833 142.833 73.75 139L92 122.75C98.3333 117.083 104.25 113 109.75 110.5C115.25 107.833 121.583 106.5 128.75 106.5C134.583 106.5 140 107.75 145 110.25C150 112.75 154 116.667 157 122C160.167 127.167 161.75 134 161.75 142.5V264.5C161.75 271.833 159.583 278 155.25 283C150.917 288 144.5 290.5 136 290.5Z" fill="#FF0707"/>
<path d="M117 283L105.851 293.034L117 283ZM110.25 175H125.25V160H110.25V175ZM105.25 175V160H94.1359L90.8999 170.633L105.25 175ZM97.75 185.25L88.5054 173.437L88.5054 173.437L97.75 185.25ZM66.5 183.5L56.2932 194.492L56.4962 194.68L56.7059 194.861L66.5 183.5ZM63.5 150.75L51.0192 142.429L51.0192 142.429L63.5 150.75ZM73.75 139L63.775 127.797L63.6839 127.878L63.5942 127.961L73.75 139ZM92 122.75L101.975 133.953L101.988 133.941L102.002 133.929L92 122.75ZM109.75 110.5L115.957 124.155L116.127 124.078L116.294 123.997L109.75 110.5ZM157 122L143.926 129.354L144.064 129.599L144.211 129.838L157 122ZM155.25 283L166.585 292.824L155.25 283ZM136 275.5C131.098 275.5 129.205 274.139 128.149 272.966L105.851 293.034C113.795 301.861 124.568 305.5 136 305.5V275.5ZM128.149 272.966C126.36 270.978 125.25 268.49 125.25 264.5H95.25C95.25 275.177 98.6396 285.022 105.851 293.034L128.149 272.966ZM125.25 264.5V175H95.25V264.5H125.25ZM110.25 160H105.25V190H110.25V160ZM90.8999 170.633C90.8079 170.935 90.4425 171.921 88.5054 173.437L106.995 197.063C112.724 192.579 117.359 186.732 119.6 179.367L90.8999 170.633ZM88.5054 173.437C87.8057 173.985 86.4198 174.75 83.25 174.75V204.75C91.7468 204.75 100.028 202.515 106.995 197.063L88.5054 173.437ZM83.25 174.75C80.5419 174.75 78.4271 173.978 76.2941 172.139L56.7059 194.861C64.2396 201.356 73.2915 204.75 83.25 204.75V174.75ZM76.7068 172.508C75.7113 171.584 74.5 169.916 74.5 165.5H44.5C44.5 176.418 47.9554 186.75 56.2932 194.492L76.7068 172.508ZM74.5 165.5C74.5 161.989 75.2787 160.124 75.9808 159.07L51.0192 142.429C46.388 149.376 44.5 157.344 44.5 165.5H74.5ZM75.9808 159.07C77.8786 156.224 80.4686 153.201 83.9058 150.039L63.5942 127.961C58.6981 132.465 54.4547 137.276 51.0192 142.429L75.9808 159.07ZM83.725 150.203L101.975 133.953L82.025 111.547L63.775 127.797L83.725 150.203ZM102.002 133.929C107.625 128.897 112.275 125.829 115.957 124.155L103.543 96.8445C96.2246 100.171 89.0416 105.269 81.9981 111.571L102.002 133.929ZM116.294 123.997C119.431 122.476 123.461 121.5 128.75 121.5V91.5C119.705 91.5 111.069 93.1904 103.206 97.0028L116.294 123.997ZM128.75 121.5C132.359 121.5 135.466 122.254 138.292 123.666L151.708 96.8336C144.534 93.2465 136.808 91.5 128.75 91.5V121.5ZM138.292 123.666C140.359 124.7 142.25 126.374 143.926 129.354L170.074 114.646C165.75 106.96 159.641 100.8 151.708 96.8336L138.292 123.666ZM144.211 129.838C145.462 131.88 146.75 135.703 146.75 142.5H176.75C176.75 132.297 174.871 122.454 169.789 114.162L144.211 129.838ZM146.75 142.5V264.5H176.75V142.5H146.75ZM146.75 264.5C146.75 268.644 145.623 271.204 143.915 273.176L166.585 292.824C173.543 284.796 176.75 275.023 176.75 264.5H146.75ZM143.915 273.176C143.197 274.004 141.476 275.5 136 275.5V305.5C147.524 305.5 158.636 301.996 166.585 292.824L143.915 273.176Z" fill="white" mask="url(#path-1-outside-1_12_10)"/>
<mask id="path-3-outside-2_12_10" maskUnits="userSpaceOnUse" x="166" y="171" width="159" height="199" fill="black">
<rect fill="white" x="166" y="171" width="159" height="199"/>
<path d="M260.75 306.5H288.5C302.5 306.5 309.5 314.333 309.5 330C309.5 338.833 307.25 345.167 302.75 349C298.417 352.667 290.583 354.5 279.25 354.5H211.5C199.833 354.5 191.833 353 187.5 350C183.333 346.833 181.25 340.167 181.25 330C181.25 326.667 181.583 323.833 182.25 321.5C182.917 319 184.167 316.583 186 314.25C187.833 311.917 190.333 309.667 193.5 307.5C202.5 301.5 209.583 296.667 214.75 293C219.917 289.333 224.917 285.5 229.75 281.5C234.75 277.333 238.417 273.833 240.75 271C243.083 268 245.167 264.667 247 261C249 257.333 250.25 253.667 250.75 250C251.417 246.333 251.75 242 251.75 237C251.75 227.667 248.833 223 243 223C236.667 223 233.5 228.5 233.5 239.5C233.5 245.667 231.5 249.667 227.5 251.5C223.5 253.333 217.583 254.25 209.75 254.25C199.083 254.25 191.833 251.917 188 247.25C184.333 242.583 182.5 234.833 182.5 224C182.5 213.167 187.583 204.167 197.75 197C208.083 189.667 222.417 186 240.75 186C286.083 186 308.75 203.25 308.75 237.75C308.75 245.75 307.833 253.083 306 259.75C304.167 266.25 301.917 271.75 299.25 276.25C296.583 280.583 292.917 284.75 288.25 288.75C283.75 292.75 279.5 296 275.5 298.5C271.5 301 266.583 303.667 260.75 306.5Z"/>
</mask>
<path d="M260.75 306.5H288.5C302.5 306.5 309.5 314.333 309.5 330C309.5 338.833 307.25 345.167 302.75 349C298.417 352.667 290.583 354.5 279.25 354.5H211.5C199.833 354.5 191.833 353 187.5 350C183.333 346.833 181.25 340.167 181.25 330C181.25 326.667 181.583 323.833 182.25 321.5C182.917 319 184.167 316.583 186 314.25C187.833 311.917 190.333 309.667 193.5 307.5C202.5 301.5 209.583 296.667 214.75 293C219.917 289.333 224.917 285.5 229.75 281.5C234.75 277.333 238.417 273.833 240.75 271C243.083 268 245.167 264.667 247 261C249 257.333 250.25 253.667 250.75 250C251.417 246.333 251.75 242 251.75 237C251.75 227.667 248.833 223 243 223C236.667 223 233.5 228.5 233.5 239.5C233.5 245.667 231.5 249.667 227.5 251.5C223.5 253.333 217.583 254.25 209.75 254.25C199.083 254.25 191.833 251.917 188 247.25C184.333 242.583 182.5 234.833 182.5 224C182.5 213.167 187.583 204.167 197.75 197C208.083 189.667 222.417 186 240.75 186C286.083 186 308.75 203.25 308.75 237.75C308.75 245.75 307.833 253.083 306 259.75C304.167 266.25 301.917 271.75 299.25 276.25C296.583 280.583 292.917 284.75 288.25 288.75C283.75 292.75 279.5 296 275.5 298.5C271.5 301 266.583 303.667 260.75 306.5Z" fill="#FF0707"/>
<path d="M260.75 306.5L254.196 293.007L260.75 321.5V306.5ZM302.75 349L312.439 360.451L312.458 360.435L312.477 360.419L302.75 349ZM187.5 350L178.424 361.942L178.688 362.144L178.962 362.333L187.5 350ZM182.25 321.5L196.673 325.621L196.709 325.493L196.744 325.365L182.25 321.5ZM186 314.25L197.795 323.517L197.795 323.517L186 314.25ZM193.5 307.5L185.179 295.019L185.104 295.069L185.03 295.12L193.5 307.5ZM214.75 293L223.431 305.233L223.431 305.233L214.75 293ZM229.75 281.5L239.314 293.056L239.333 293.04L239.353 293.023L229.75 281.5ZM240.75 271L252.329 280.536L252.462 280.374L252.59 280.209L240.75 271ZM247 261L233.832 253.817L233.703 254.052L233.584 254.292L247 261ZM250.75 250L235.992 247.317L235.932 247.644L235.888 247.973L250.75 250ZM188 247.25L176.205 256.517L176.306 256.645L176.409 256.771L188 247.25ZM197.75 197L206.392 209.26L206.412 209.246L206.431 209.233L197.75 197ZM306 259.75L320.437 263.822L320.45 263.775L320.463 263.727L306 259.75ZM299.25 276.25L312.025 284.111L312.091 284.005L312.154 283.897L299.25 276.25ZM288.25 288.75L278.488 277.361L278.386 277.449L278.285 277.539L288.25 288.75ZM275.5 298.5L283.45 311.22L283.45 311.22L275.5 298.5ZM260.75 321.5H288.5V291.5H260.75V321.5ZM288.5 321.5C290.639 321.5 291.857 321.803 292.445 322.023C292.946 322.21 293.045 322.347 293.065 322.37C293.143 322.457 294.5 324.089 294.5 330H324.5C324.5 320.244 322.357 310.126 315.435 302.38C308.225 294.312 298.276 291.5 288.5 291.5V321.5ZM294.5 330C294.5 333.213 294.082 335.216 293.678 336.354C293.485 336.898 293.308 337.207 293.207 337.359C293.111 337.503 293.05 337.558 293.023 337.581L312.477 360.419C321.7 352.562 324.5 341.022 324.5 330H294.5ZM293.061 337.549C293.301 337.346 292.716 337.932 290.207 338.52C287.762 339.092 284.194 339.5 279.25 339.5V369.5C291.129 369.5 303.757 367.797 312.439 360.451L293.061 337.549ZM279.25 339.5H211.5V369.5H279.25V339.5ZM211.5 339.5C206.232 339.5 202.305 339.155 199.514 338.632C196.573 338.08 195.787 337.493 196.038 337.667L178.962 362.333C183.547 365.507 188.927 367.17 193.986 368.118C199.195 369.095 205.101 369.5 211.5 369.5V339.5ZM196.576 338.058C197.682 338.898 197.549 339.493 197.13 338.151C196.696 336.762 196.25 334.192 196.25 330H166.25C166.25 340.793 168.18 354.157 178.424 361.942L196.576 338.058ZM196.25 330C196.25 327.58 196.502 326.22 196.673 325.621L167.827 317.379C166.665 321.447 166.25 325.753 166.25 330H196.25ZM196.744 325.365C196.815 325.098 197.035 324.485 197.795 323.517L174.205 304.983C171.299 308.682 169.019 312.902 167.756 317.635L196.744 325.365ZM197.795 323.517C198.455 322.677 199.715 321.423 201.97 319.88L185.03 295.12C180.952 297.911 177.212 301.157 174.205 304.983L197.795 323.517ZM201.821 319.981C210.87 313.948 218.091 309.022 223.431 305.233L206.069 280.767C201.075 284.311 194.13 289.052 185.179 295.019L201.821 319.981ZM223.431 305.233C228.897 301.353 234.192 297.295 239.314 293.056L220.186 269.944C215.642 273.705 210.936 277.313 206.069 280.767L223.431 305.233ZM239.353 293.023C244.612 288.64 249.113 284.441 252.329 280.536L229.171 261.464C227.72 263.226 224.888 266.026 220.147 269.977L239.353 293.023ZM252.59 280.209C255.575 276.371 258.176 272.19 260.416 267.708L233.584 254.292C232.158 257.144 230.591 259.629 228.91 261.791L252.59 280.209ZM260.168 268.183C262.93 263.119 264.836 257.718 265.612 252.027L235.888 247.973C235.664 249.615 235.07 251.547 233.832 253.817L260.168 268.183ZM265.508 252.683C266.38 247.89 266.75 242.616 266.75 237H236.75C236.75 241.384 236.454 244.776 235.992 247.317L265.508 252.683ZM266.75 237C266.75 231.256 265.94 224.402 262.282 218.55C257.89 211.523 250.714 208 243 208V238C242.431 238 241.202 237.874 239.769 237.11C238.298 236.326 237.349 235.26 236.843 234.45C236.399 233.741 236.412 233.426 236.518 233.934C236.621 234.427 236.75 235.402 236.75 237H266.75ZM243 208C234.454 208 227.129 212.253 222.876 219.641C219.342 225.778 218.5 233.052 218.5 239.5H248.5C248.5 237.426 248.653 236.005 248.825 235.108C249.002 234.186 249.135 234.157 248.874 234.609C248.56 235.155 247.786 236.187 246.359 237.013C244.931 237.839 243.644 238 243 238V208ZM218.5 239.5C218.5 241.088 218.224 241.135 218.584 240.417C218.784 240.015 219.131 239.486 219.669 238.964C220.209 238.439 220.775 238.082 221.25 237.864L233.75 265.136C245.194 259.891 248.5 248.786 248.5 239.5H218.5ZM221.25 237.864C220.189 238.35 216.853 239.25 209.75 239.25V269.25C218.314 269.25 226.811 268.316 233.75 265.136L221.25 237.864ZM209.75 239.25C205.402 239.25 202.586 238.761 200.908 238.221C199.311 237.707 199.258 237.323 199.591 237.729L176.409 256.771C184.663 266.82 197.863 269.25 209.75 269.25V239.25ZM199.795 237.983C199.327 237.388 197.5 233.91 197.5 224H167.5C167.5 235.757 169.339 247.779 176.205 256.517L199.795 237.983ZM197.5 224C197.5 218.822 199.531 214.097 206.392 209.26L189.108 184.74C175.636 194.237 167.5 207.512 167.5 224H197.5ZM206.431 209.233C213.324 204.341 224.196 201 240.75 201V171C220.637 171 202.843 174.992 189.069 184.767L206.431 209.233ZM240.75 201C261.94 201 275.086 205.106 282.666 210.874C289.472 216.053 293.75 224.078 293.75 237.75H323.75C323.75 216.922 316.695 199.072 300.834 187.001C285.747 175.519 264.894 171 240.75 171V201ZM293.75 237.75C293.75 244.612 292.963 250.586 291.537 255.773L320.463 263.727C322.703 255.581 323.75 246.888 323.75 237.75H293.75ZM291.563 255.678C289.987 261.268 288.189 265.493 286.346 268.603L312.154 283.897C315.645 278.007 318.347 271.232 320.437 263.822L291.563 255.678ZM286.475 268.389C284.773 271.155 282.211 274.17 278.488 277.361L298.012 300.139C303.622 295.33 308.394 290.012 312.025 284.111L286.475 268.389ZM278.285 277.539C274.25 281.125 270.674 283.828 267.55 285.78L283.45 311.22C288.326 308.172 293.25 304.375 298.215 299.961L278.285 277.539ZM267.55 285.78C264.133 287.916 259.714 290.327 254.196 293.007L267.304 319.993C273.452 317.006 278.867 314.084 283.45 311.22L267.55 285.78Z" fill="white" mask="url(#path-3-outside-2_12_10)"/>
<mask id="path-5-outside-3_12_10" maskUnits="userSpaceOnUse" x="296" y="243" width="161" height="199" fill="black">
<rect fill="white" x="296" y="243" width="161" height="199"/>
<path d="M383.5 312.25C383.5 304.083 375.917 300 360.75 300C357.583 300 353.25 300.333 347.75 301C342.417 301.5 338.5 301.75 336 301.75C324 301.75 318 294.583 318 280.25C318 265.417 335.333 258 370 258C392.5 258 409.333 261.667 420.5 269C431.667 276.333 437.25 285.917 437.25 297.75C437.25 314.25 430.083 327.417 415.75 337.25C425.417 342.417 432.167 347.833 436 353.5C440 359 442 367 442 377.5C442 392 436.25 403.833 424.75 413C413.417 422 398.167 426.5 379 426.5C355 426.5 337.75 424.083 327.25 419.25C316.917 414.25 311.75 406.75 311.75 396.75C311.75 388.417 313.417 382.75 316.75 379.75C320.083 376.583 324.75 375 330.75 375C333.75 375 338.417 375.333 344.75 376C351.083 376.667 355.917 377 359.25 377C377.417 377 386.5 373.667 386.5 367C386.5 362.5 384.75 359.417 381.25 357.75C377.75 355.917 371.167 355 361.5 355C351.833 355 345 353.75 341 351.25C337 348.75 335 344.083 335 337.25C335 326.917 341.833 321.75 355.5 321.75C364.333 321.75 370.833 321.333 375 320.5C379.333 319.667 381.833 318.75 382.5 317.75C383.167 316.583 383.5 314.75 383.5 312.25Z"/>
</mask>
<path d="M383.5 312.25C383.5 304.083 375.917 300 360.75 300C357.583 300 353.25 300.333 347.75 301C342.417 301.5 338.5 301.75 336 301.75C324 301.75 318 294.583 318 280.25C318 265.417 335.333 258 370 258C392.5 258 409.333 261.667 420.5 269C431.667 276.333 437.25 285.917 437.25 297.75C437.25 314.25 430.083 327.417 415.75 337.25C425.417 342.417 432.167 347.833 436 353.5C440 359 442 367 442 377.5C442 392 436.25 403.833 424.75 413C413.417 422 398.167 426.5 379 426.5C355 426.5 337.75 424.083 327.25 419.25C316.917 414.25 311.75 406.75 311.75 396.75C311.75 388.417 313.417 382.75 316.75 379.75C320.083 376.583 324.75 375 330.75 375C333.75 375 338.417 375.333 344.75 376C351.083 376.667 355.917 377 359.25 377C377.417 377 386.5 373.667 386.5 367C386.5 362.5 384.75 359.417 381.25 357.75C377.75 355.917 371.167 355 361.5 355C351.833 355 345 353.75 341 351.25C337 348.75 335 344.083 335 337.25C335 326.917 341.833 321.75 355.5 321.75C364.333 321.75 370.833 321.333 375 320.5C379.333 319.667 381.833 318.75 382.5 317.75C383.167 316.583 383.5 314.75 383.5 312.25Z" fill="#FF0707"/>
<path d="M347.75 301L349.15 315.935L349.353 315.916L349.555 315.891L347.75 301ZM420.5 269L412.266 281.538L412.266 281.538L420.5 269ZM415.75 337.25L407.264 324.881L386.911 338.844L408.679 350.479L415.75 337.25ZM436 353.5L423.576 361.905L423.719 362.116L423.869 362.323L436 353.5ZM424.75 413L434.078 424.747L434.089 424.738L434.1 424.73L424.75 413ZM327.25 419.25L320.717 432.752L320.847 432.815L320.978 432.876L327.25 419.25ZM316.75 379.75L326.784 390.899L326.935 390.764L327.081 390.625L316.75 379.75ZM344.75 376L346.32 361.082L346.32 361.082L344.75 376ZM381.25 357.75L374.29 371.037L374.543 371.17L374.801 371.293L381.25 357.75ZM341 351.25L348.95 338.53L348.95 338.53L341 351.25ZM375 320.5L372.167 305.77L372.113 305.78L372.058 305.791L375 320.5ZM382.5 317.75L394.981 326.07L395.267 325.641L395.524 325.192L382.5 317.75ZM398.5 312.25C398.5 307.801 397.437 303.203 394.832 298.995C392.253 294.829 388.68 291.878 384.924 289.855C377.861 286.052 369.189 285 360.75 285V315C363.911 315 366.306 315.216 368.053 315.53C369.835 315.849 370.586 316.207 370.701 316.27C370.737 316.289 370.007 315.889 369.324 314.786C368.615 313.64 368.5 312.616 368.5 312.25H398.5ZM360.75 285C356.695 285 351.672 285.415 345.945 286.109L349.555 315.891C354.828 315.252 358.471 315 360.75 315V285ZM346.35 286.065C341.081 286.559 337.754 286.75 336 286.75V316.75C339.246 316.75 343.752 316.441 349.15 315.935L346.35 286.065ZM336 286.75C334.462 286.75 333.792 286.517 333.674 286.47C333.647 286.46 333.846 286.56 334.001 286.746C334.194 286.976 333 285.69 333 280.25H303C303 289.143 304.806 298.607 310.999 306.004C317.619 313.911 326.919 316.75 336 316.75V286.75ZM333 280.25C333 279.695 333.08 279.738 333.083 279.734C333.253 279.515 334.144 278.533 336.901 277.353C342.735 274.857 353.279 273 370 273V243C352.054 243 336.598 244.852 325.099 249.772C319.19 252.3 313.58 255.953 309.417 261.297C305.086 266.856 303 273.388 303 280.25H333ZM370 273C391.362 273 404.702 276.571 412.266 281.538L428.734 256.462C413.964 246.762 393.638 243 370 243V273ZM412.266 281.538C419.849 286.518 422.25 291.689 422.25 297.75H452.25C452.25 280.145 443.484 266.149 428.734 256.462L412.266 281.538ZM422.25 297.75C422.25 308.999 417.779 317.667 407.264 324.881L424.236 349.619C442.388 337.166 452.25 319.501 452.25 297.75H422.25ZM408.679 350.479C417.355 355.116 421.692 359.12 423.576 361.905L448.424 345.095C442.641 336.547 433.479 329.717 422.821 324.021L408.679 350.479ZM423.869 362.323C425.238 364.205 427 368.556 427 377.5H457C457 365.444 454.762 353.795 448.131 344.677L423.869 362.323ZM427 377.5C427 387.359 423.389 394.903 415.4 401.27L434.1 424.73C449.111 412.764 457 396.641 457 377.5H427ZM415.422 401.253C407.491 407.551 395.881 411.5 379 411.5V441.5C400.453 441.5 419.342 436.449 434.078 424.747L415.422 401.253ZM379 411.5C355.327 411.5 340.882 409.012 333.522 405.624L320.978 432.876C334.618 439.155 354.673 441.5 379 441.5V411.5ZM333.783 405.748C330.357 404.089 328.75 402.486 327.978 401.365C327.287 400.363 326.75 399.022 326.75 396.75H296.75C296.75 404.478 298.796 411.887 303.272 418.385C307.667 424.764 313.81 429.411 320.717 432.752L333.783 405.748ZM326.75 396.75C326.75 393.478 327.089 391.506 327.39 390.482C327.683 389.488 327.74 390.04 326.784 390.899L306.716 368.601C298.387 376.096 296.75 387.5 296.75 396.75H326.75ZM327.081 390.625C327.092 390.614 327.11 390.598 327.158 390.57C327.209 390.54 327.334 390.472 327.569 390.392C328.055 390.227 329.045 390 330.75 390V360C322.116 360 313.309 362.329 306.419 368.875L327.081 390.625ZM330.75 390C332.916 390 336.925 390.259 343.18 390.918L346.32 361.082C339.909 360.408 334.584 360 330.75 360V390ZM343.18 390.918C349.657 391.599 355.115 392 359.25 392V362C356.719 362 352.51 361.734 346.32 361.082L343.18 390.918ZM359.25 392C368.83 392 377.784 391.177 384.855 388.582C388.48 387.252 392.587 385.108 395.9 381.46C399.506 377.49 401.5 372.45 401.5 367H371.5C371.5 364.883 372.358 362.76 373.694 361.29C374.736 360.142 375.437 360.082 374.52 360.418C372.508 361.157 367.837 362 359.25 362V392ZM401.5 367C401.5 362.841 400.69 358.237 398.233 353.908C395.698 349.442 391.953 346.233 387.699 344.207L374.801 371.293C374.047 370.934 372.927 370.099 372.142 368.717C371.435 367.471 371.5 366.659 371.5 367H401.5ZM388.21 344.463C384.239 342.382 379.756 341.388 375.756 340.831C371.548 340.245 366.744 340 361.5 340V370C365.922 370 369.244 370.213 371.619 370.544C374.203 370.904 374.761 371.284 374.29 371.037L388.21 344.463ZM361.5 340C357.249 340 354.081 339.72 351.824 339.307C349.469 338.877 348.774 338.42 348.95 338.53L333.05 363.97C340.869 368.857 351.416 370 361.5 370V340ZM348.95 338.53C349.276 338.734 349.603 339.013 349.876 339.34C350.143 339.658 350.26 339.903 350.287 339.966C350.308 340.015 350.233 339.855 350.153 339.399C350.073 338.939 350 338.239 350 337.25H320C320 346.734 322.884 357.616 333.05 363.97L348.95 338.53ZM350 337.25C350 336.303 350.157 336.18 350.007 336.52C349.818 336.948 349.477 337.359 349.172 337.59C348.95 337.758 349.14 337.53 350.197 337.264C351.271 336.993 352.98 336.75 355.5 336.75V306.75C347.205 306.75 338.243 308.243 331.078 313.66C323.123 319.675 320 328.469 320 337.25H350ZM355.5 336.75C364.502 336.75 372.243 336.348 377.942 335.209L372.058 305.791C369.424 306.318 364.165 306.75 355.5 306.75V336.75ZM377.833 335.23C380.35 334.746 382.95 334.128 385.289 333.271C386.462 332.84 387.93 332.221 389.423 331.317C390.785 330.493 393.112 328.873 394.981 326.07L370.019 309.429C370.829 308.215 371.681 307.359 372.316 306.807C372.957 306.249 373.519 305.876 373.889 305.652C374.268 305.423 374.56 305.28 374.717 305.208C374.801 305.17 374.864 305.143 374.903 305.127C374.922 305.119 374.937 305.113 374.947 305.11C374.952 305.108 374.955 305.107 374.958 305.106C374.96 305.105 374.961 305.104 374.961 305.104C374.961 305.104 374.96 305.105 374.958 305.106C374.955 305.106 374.952 305.108 374.948 305.109C374.939 305.112 374.925 305.117 374.908 305.123C374.872 305.135 374.821 305.151 374.754 305.171C374.618 305.212 374.431 305.265 374.185 305.328C373.687 305.456 373.023 305.605 372.167 305.77L377.833 335.23ZM395.524 325.192C398.18 320.543 398.5 315.465 398.5 312.25H368.5C368.5 312.884 368.454 313.026 368.492 312.817C368.514 312.696 368.572 312.411 368.707 312.007C368.841 311.604 369.076 311.008 369.476 310.308L395.524 325.192Z" fill="white" mask="url(#path-5-outside-3_12_10)"/>
<mask id="path-7-outside-4_12_10" maskUnits="userSpaceOnUse" x="-4" y="481" width="517" height="88" fill="black">
<rect fill="white" x="-4" y="481" width="517" height="88"/>
<path d="M67.776 548.88C67.776 551.696 66.944 553.936 65.28 555.6C63.616 557.2 61.184 558 57.984 558C57.152 558 56.32 557.904 55.488 557.712C54.656 557.52 53.76 557.168 52.8 556.656C51.904 556.144 51.104 555.664 50.4 555.216C49.696 554.768 48.8 554.096 47.712 553.2C46.688 552.24 45.856 551.504 45.216 550.992C44.64 550.416 43.712 549.52 42.432 548.304C41.152 547.088 40.224 546.192 39.648 545.616L22.08 529.008V549.84C22.08 552.976 21.472 555.12 20.256 556.272C19.104 557.424 17.248 558 14.688 558C11.872 558 9.792 557.36 8.448 556.08C7.104 554.8 6.432 552.656 6.432 549.648V503.28C6.432 499.632 7.36 496.88 9.216 495.024C11.072 493.168 13.728 492.24 17.184 492.24C19.552 492.24 21.44 492.624 22.848 493.392C24.32 494.096 26.048 495.408 28.032 497.328L52.32 521.52V500.592C52.32 497.84 52.992 495.792 54.336 494.448C55.744 493.04 57.632 492.336 60 492.336C62.752 492.336 64.736 492.976 65.952 494.256C67.168 495.536 67.776 497.616 67.776 500.496V548.88ZM138.954 503.76V532.368C138.954 541.712 136.682 548.432 132.138 552.528C127.658 556.56 120.074 558.576 109.386 558.576C99.21 558.576 91.722 556.4 86.922 552.048C82.186 547.696 79.818 541.136 79.818 532.368V503.76C79.818 500.368 80.81 497.616 82.794 495.504C84.842 493.328 87.402 492.24 90.474 492.24C94.25 492.24 97.098 492.944 99.018 494.352C101.002 495.76 101.994 498.608 101.994 502.896V534.192C102.058 536.24 102.378 537.872 102.954 539.088C103.594 540.304 104.426 541.168 105.45 541.68C106.474 542.128 107.786 542.352 109.386 542.352C110.986 542.352 112.298 542.16 113.322 541.776C114.346 541.392 115.082 540.784 115.53 539.952C116.042 539.12 116.362 538.288 116.49 537.456C116.682 536.624 116.778 535.536 116.778 534.192V502.8C116.778 500.624 117.034 498.8 117.546 497.328C118.122 495.856 118.954 494.768 120.042 494.064C121.194 493.36 122.346 492.88 123.498 492.624C124.714 492.368 126.154 492.24 127.818 492.24C131.53 492.24 134.314 493.136 136.17 494.928C138.026 496.72 138.954 499.664 138.954 503.76ZM208.103 522.864L196.103 547.44C195.079 549.488 193.991 550.96 192.839 551.856C191.687 552.688 190.311 553.104 188.711 553.104C186.663 553.104 184.935 552.4 183.527 550.992C182.119 549.52 180.295 546.896 178.055 543.12L166.919 522.864V550.032C166.919 552.784 166.279 554.8 164.999 556.08C163.783 557.36 161.927 558 159.431 558C156.615 558 154.567 557.392 153.287 556.176C152.007 554.896 151.367 552.432 151.367 548.784V506.928C151.367 502 152.487 498.288 154.727 495.792C156.967 493.296 160.743 492.048 166.055 492.048C168.039 492.048 169.767 492.4 171.239 493.104C172.711 493.744 173.799 494.512 174.503 495.408C175.271 496.24 176.007 497.296 176.711 498.576L189.575 526.704L203.207 499.056C205.575 494.448 209.831 492.144 215.975 492.144C218.855 492.144 221.319 492.656 223.367 493.68C225.415 494.64 227.015 496.24 228.167 498.48C229.383 500.656 229.991 503.408 229.991 506.736V548.496C229.927 554.832 225.927 558 217.991 558C215.111 558 212.743 557.232 210.887 555.696C209.095 554.096 208.167 551.536 208.103 548.016V522.864ZM278.876 510.768C278.876 508.08 277.82 506.256 275.708 505.296C273.66 504.272 270.204 503.76 265.34 503.76V518.448C268.348 518.448 270.78 518.224 272.636 517.776C274.556 517.328 276.06 516.56 277.148 515.472C278.3 514.32 278.876 512.752 278.876 510.768ZM280.124 536.4C280.124 534.288 279.58 532.656 278.492 531.504C277.404 530.352 275.836 529.552 273.788 529.104C271.74 528.592 268.924 528.336 265.34 528.336V544.944C270.332 544.944 274.044 544.336 276.476 543.12C278.908 541.84 280.124 539.6 280.124 536.4ZM291.932 523.824C297.884 527.344 300.86 532.048 300.86 537.936C300.86 540.496 300.348 542.96 299.324 545.328C298.364 547.632 296.892 549.744 294.908 551.664C292.988 553.584 290.428 555.12 287.228 556.272C284.028 557.36 280.412 557.904 276.38 557.904H254.108C250.204 557.904 247.388 556.912 245.66 554.928C243.996 552.944 243.164 549.392 243.164 544.272V503.664C243.164 501.488 243.548 499.568 244.316 497.904C245.084 496.24 246.3 494.896 247.964 493.872C249.692 492.848 251.74 492.336 254.108 492.336H276.092C282.492 492.4 287.804 494.16 292.028 497.616C296.316 501.008 298.46 505.392 298.46 510.768C298.46 512.496 298.3 514.032 297.98 515.376C297.724 516.656 297.308 517.808 296.732 518.832C296.156 519.856 295.484 520.752 294.716 521.52C293.948 522.288 293.02 523.056 291.932 523.824ZM351.779 519.024C355.171 519.024 357.539 519.568 358.883 520.656C360.291 521.744 360.995 523.6 360.995 526.224C360.995 528.4 360.163 529.968 358.499 530.928C356.899 531.824 354.371 532.272 350.915 532.272H335.363V542.448L356.195 542.544C359.779 542.544 362.339 543.088 363.875 544.176C365.475 545.2 366.275 547.056 366.275 549.744C366.275 552.816 365.347 554.96 363.491 556.176C361.699 557.392 358.947 558 355.235 558H324.131C320.355 558 317.571 557.008 315.779 555.024C314.051 552.976 313.187 549.392 313.187 544.272V503.76C313.187 496.08 316.835 492.24 324.131 492.24H355.235C358.947 492.24 361.699 492.816 363.491 493.968C365.347 495.12 366.275 497.2 366.275 500.208C366.275 503.024 365.475 505.008 363.875 506.16C362.339 507.248 359.779 507.792 356.195 507.792H335.267V519.024H351.779ZM413.687 511.344C413.687 508.272 412.567 506.16 410.327 505.008C408.087 503.856 404.311 503.28 398.999 503.28V519.888C403.991 519.888 407.671 519.28 410.039 518.064C412.471 516.784 413.687 514.544 413.687 511.344ZM398.999 543.6C398.999 553.2 395.255 558 387.767 558C383.991 558 381.207 557.008 379.415 555.024C377.687 552.976 376.823 549.392 376.823 544.272V503.76C376.823 500.048 377.815 497.232 379.799 495.312C381.847 493.328 384.503 492.336 387.767 492.336H407.927C415.799 492.336 422.167 494.192 427.031 497.904C431.895 501.552 434.327 506.256 434.327 512.016C434.327 516.368 433.399 519.792 431.543 522.288C429.751 524.72 426.839 526.512 422.807 527.664C425.879 527.856 428.727 529.36 431.351 532.176C433.975 534.928 435.287 538.384 435.287 542.544C435.287 546.768 434.871 550.032 434.039 552.336C433.271 554.576 432.151 556.08 430.679 556.848C429.207 557.616 427.127 558 424.439 558C420.663 558 417.879 557.232 416.087 555.696C414.359 554.096 413.495 551.696 413.495 548.496C413.495 544.528 413.111 541.488 412.343 539.376C411.575 537.2 410.583 535.792 409.367 535.152C408.151 534.512 406.455 534.192 404.279 534.192L398.999 534.288V543.6ZM472.988 491.568C480.604 491.568 487.1 493.136 492.476 496.272C497.852 499.408 500.54 502.736 500.54 506.256C500.54 507.216 500.316 508.048 499.868 508.752C499.484 509.392 498.972 509.872 498.332 510.192C497.756 510.448 497.116 510.576 496.412 510.576C495.26 510.576 493.532 510 491.228 508.848C488.924 507.632 486.364 506.448 483.548 505.296C480.732 504.08 478.14 503.472 475.772 503.472C471.996 503.472 470.108 505.008 470.108 508.08C470.108 509.04 470.396 509.968 470.972 510.864C471.612 511.696 472.604 512.592 473.948 513.552C475.292 514.448 476.604 515.248 477.884 515.952C479.164 516.656 480.924 517.616 483.164 518.832C485.404 519.984 487.292 521.008 488.828 521.904C493.756 524.72 497.212 527.408 499.196 529.968C501.18 532.528 502.172 535.472 502.172 538.8C502.172 552.048 493.244 558.672 475.388 558.672C471.868 558.672 468.444 558.32 465.116 557.616C461.852 556.912 458.972 555.984 456.476 554.832C454.044 553.68 451.868 552.4 449.948 550.992C448.092 549.584 446.684 548.144 445.724 546.672C444.764 545.2 444.284 543.824 444.284 542.544C444.284 541.136 444.732 539.952 445.628 538.992C446.588 537.968 447.964 537.456 449.756 537.456C451.1 537.456 454.332 538.32 459.452 540.048C464.572 541.712 468.7 542.544 471.836 542.544C474.716 542.544 476.156 541.552 476.156 539.568C476.156 538.992 476.028 538.48 475.772 538.032C475.58 537.52 475.196 537.04 474.62 536.592C474.108 536.08 473.5 535.632 472.796 535.248C472.156 534.8 471.228 534.256 470.012 533.616C468.86 532.976 467.676 532.336 466.46 531.696C465.308 531.056 463.772 530.224 461.852 529.2C459.932 528.176 458.076 527.152 456.284 526.128C453.916 524.784 451.868 523.12 450.14 521.136C448.476 519.152 447.26 517.2 446.492 515.28C445.724 513.296 445.34 511.472 445.34 509.808C445.34 504.432 447.74 500.048 452.54 496.656C457.34 493.264 464.156 491.568 472.988 491.568Z"/>
</mask>
<path d="M67.776 548.88C67.776 551.696 66.944 553.936 65.28 555.6C63.616 557.2 61.184 558 57.984 558C57.152 558 56.32 557.904 55.488 557.712C54.656 557.52 53.76 557.168 52.8 556.656C51.904 556.144 51.104 555.664 50.4 555.216C49.696 554.768 48.8 554.096 47.712 553.2C46.688 552.24 45.856 551.504 45.216 550.992C44.64 550.416 43.712 549.52 42.432 548.304C41.152 547.088 40.224 546.192 39.648 545.616L22.08 529.008V549.84C22.08 552.976 21.472 555.12 20.256 556.272C19.104 557.424 17.248 558 14.688 558C11.872 558 9.792 557.36 8.448 556.08C7.104 554.8 6.432 552.656 6.432 549.648V503.28C6.432 499.632 7.36 496.88 9.216 495.024C11.072 493.168 13.728 492.24 17.184 492.24C19.552 492.24 21.44 492.624 22.848 493.392C24.32 494.096 26.048 495.408 28.032 497.328L52.32 521.52V500.592C52.32 497.84 52.992 495.792 54.336 494.448C55.744 493.04 57.632 492.336 60 492.336C62.752 492.336 64.736 492.976 65.952 494.256C67.168 495.536 67.776 497.616 67.776 500.496V548.88ZM138.954 503.76V532.368C138.954 541.712 136.682 548.432 132.138 552.528C127.658 556.56 120.074 558.576 109.386 558.576C99.21 558.576 91.722 556.4 86.922 552.048C82.186 547.696 79.818 541.136 79.818 532.368V503.76C79.818 500.368 80.81 497.616 82.794 495.504C84.842 493.328 87.402 492.24 90.474 492.24C94.25 492.24 97.098 492.944 99.018 494.352C101.002 495.76 101.994 498.608 101.994 502.896V534.192C102.058 536.24 102.378 537.872 102.954 539.088C103.594 540.304 104.426 541.168 105.45 541.68C106.474 542.128 107.786 542.352 109.386 542.352C110.986 542.352 112.298 542.16 113.322 541.776C114.346 541.392 115.082 540.784 115.53 539.952C116.042 539.12 116.362 538.288 116.49 537.456C116.682 536.624 116.778 535.536 116.778 534.192V502.8C116.778 500.624 117.034 498.8 117.546 497.328C118.122 495.856 118.954 494.768 120.042 494.064C121.194 493.36 122.346 492.88 123.498 492.624C124.714 492.368 126.154 492.24 127.818 492.24C131.53 492.24 134.314 493.136 136.17 494.928C138.026 496.72 138.954 499.664 138.954 503.76ZM208.103 522.864L196.103 547.44C195.079 549.488 193.991 550.96 192.839 551.856C191.687 552.688 190.311 553.104 188.711 553.104C186.663 553.104 184.935 552.4 183.527 550.992C182.119 549.52 180.295 546.896 178.055 543.12L166.919 522.864V550.032C166.919 552.784 166.279 554.8 164.999 556.08C163.783 557.36 161.927 558 159.431 558C156.615 558 154.567 557.392 153.287 556.176C152.007 554.896 151.367 552.432 151.367 548.784V506.928C151.367 502 152.487 498.288 154.727 495.792C156.967 493.296 160.743 492.048 166.055 492.048C168.039 492.048 169.767 492.4 171.239 493.104C172.711 493.744 173.799 494.512 174.503 495.408C175.271 496.24 176.007 497.296 176.711 498.576L189.575 526.704L203.207 499.056C205.575 494.448 209.831 492.144 215.975 492.144C218.855 492.144 221.319 492.656 223.367 493.68C225.415 494.64 227.015 496.24 228.167 498.48C229.383 500.656 229.991 503.408 229.991 506.736V548.496C229.927 554.832 225.927 558 217.991 558C215.111 558 212.743 557.232 210.887 555.696C209.095 554.096 208.167 551.536 208.103 548.016V522.864ZM278.876 510.768C278.876 508.08 277.82 506.256 275.708 505.296C273.66 504.272 270.204 503.76 265.34 503.76V518.448C268.348 518.448 270.78 518.224 272.636 517.776C274.556 517.328 276.06 516.56 277.148 515.472C278.3 514.32 278.876 512.752 278.876 510.768ZM280.124 536.4C280.124 534.288 279.58 532.656 278.492 531.504C277.404 530.352 275.836 529.552 273.788 529.104C271.74 528.592 268.924 528.336 265.34 528.336V544.944C270.332 544.944 274.044 544.336 276.476 543.12C278.908 541.84 280.124 539.6 280.124 536.4ZM291.932 523.824C297.884 527.344 300.86 532.048 300.86 537.936C300.86 540.496 300.348 542.96 299.324 545.328C298.364 547.632 296.892 549.744 294.908 551.664C292.988 553.584 290.428 555.12 287.228 556.272C284.028 557.36 280.412 557.904 276.38 557.904H254.108C250.204 557.904 247.388 556.912 245.66 554.928C243.996 552.944 243.164 549.392 243.164 544.272V503.664C243.164 501.488 243.548 499.568 244.316 497.904C245.084 496.24 246.3 494.896 247.964 493.872C249.692 492.848 251.74 492.336 254.108 492.336H276.092C282.492 492.4 287.804 494.16 292.028 497.616C296.316 501.008 298.46 505.392 298.46 510.768C298.46 512.496 298.3 514.032 297.98 515.376C297.724 516.656 297.308 517.808 296.732 518.832C296.156 519.856 295.484 520.752 294.716 521.52C293.948 522.288 293.02 523.056 291.932 523.824ZM351.779 519.024C355.171 519.024 357.539 519.568 358.883 520.656C360.291 521.744 360.995 523.6 360.995 526.224C360.995 528.4 360.163 529.968 358.499 530.928C356.899 531.824 354.371 532.272 350.915 532.272H335.363V542.448L356.195 542.544C359.779 542.544 362.339 543.088 363.875 544.176C365.475 545.2 366.275 547.056 366.275 549.744C366.275 552.816 365.347 554.96 363.491 556.176C361.699 557.392 358.947 558 355.235 558H324.131C320.355 558 317.571 557.008 315.779 555.024C314.051 552.976 313.187 549.392 313.187 544.272V503.76C313.187 496.08 316.835 492.24 324.131 492.24H355.235C358.947 492.24 361.699 492.816 363.491 493.968C365.347 495.12 366.275 497.2 366.275 500.208C366.275 503.024 365.475 505.008 363.875 506.16C362.339 507.248 359.779 507.792 356.195 507.792H335.267V519.024H351.779ZM413.687 511.344C413.687 508.272 412.567 506.16 410.327 505.008C408.087 503.856 404.311 503.28 398.999 503.28V519.888C403.991 519.888 407.671 519.28 410.039 518.064C412.471 516.784 413.687 514.544 413.687 511.344ZM398.999 543.6C398.999 553.2 395.255 558 387.767 558C383.991 558 381.207 557.008 379.415 555.024C377.687 552.976 376.823 549.392 376.823 544.272V503.76C376.823 500.048 377.815 497.232 379.799 495.312C381.847 493.328 384.503 492.336 387.767 492.336H407.927C415.799 492.336 422.167 494.192 427.031 497.904C431.895 501.552 434.327 506.256 434.327 512.016C434.327 516.368 433.399 519.792 431.543 522.288C429.751 524.72 426.839 526.512 422.807 527.664C425.879 527.856 428.727 529.36 431.351 532.176C433.975 534.928 435.287 538.384 435.287 542.544C435.287 546.768 434.871 550.032 434.039 552.336C433.271 554.576 432.151 556.08 430.679 556.848C429.207 557.616 427.127 558 424.439 558C420.663 558 417.879 557.232 416.087 555.696C414.359 554.096 413.495 551.696 413.495 548.496C413.495 544.528 413.111 541.488 412.343 539.376C411.575 537.2 410.583 535.792 409.367 535.152C408.151 534.512 406.455 534.192 404.279 534.192L398.999 534.288V543.6ZM472.988 491.568C480.604 491.568 487.1 493.136 492.476 496.272C497.852 499.408 500.54 502.736 500.54 506.256C500.54 507.216 500.316 508.048 499.868 508.752C499.484 509.392 498.972 509.872 498.332 510.192C497.756 510.448 497.116 510.576 496.412 510.576C495.26 510.576 493.532 510 491.228 508.848C488.924 507.632 486.364 506.448 483.548 505.296C480.732 504.08 478.14 503.472 475.772 503.472C471.996 503.472 470.108 505.008 470.108 508.08C470.108 509.04 470.396 509.968 470.972 510.864C471.612 511.696 472.604 512.592 473.948 513.552C475.292 514.448 476.604 515.248 477.884 515.952C479.164 516.656 480.924 517.616 483.164 518.832C485.404 519.984 487.292 521.008 488.828 521.904C493.756 524.72 497.212 527.408 499.196 529.968C501.18 532.528 502.172 535.472 502.172 538.8C502.172 552.048 493.244 558.672 475.388 558.672C471.868 558.672 468.444 558.32 465.116 557.616C461.852 556.912 458.972 555.984 456.476 554.832C454.044 553.68 451.868 552.4 449.948 550.992C448.092 549.584 446.684 548.144 445.724 546.672C444.764 545.2 444.284 543.824 444.284 542.544C444.284 541.136 444.732 539.952 445.628 538.992C446.588 537.968 447.964 537.456 449.756 537.456C451.1 537.456 454.332 538.32 459.452 540.048C464.572 541.712 468.7 542.544 471.836 542.544C474.716 542.544 476.156 541.552 476.156 539.568C476.156 538.992 476.028 538.48 475.772 538.032C475.58 537.52 475.196 537.04 474.62 536.592C474.108 536.08 473.5 535.632 472.796 535.248C472.156 534.8 471.228 534.256 470.012 533.616C468.86 532.976 467.676 532.336 466.46 531.696C465.308 531.056 463.772 530.224 461.852 529.2C459.932 528.176 458.076 527.152 456.284 526.128C453.916 524.784 451.868 523.12 450.14 521.136C448.476 519.152 447.26 517.2 446.492 515.28C445.724 513.296 445.34 511.472 445.34 509.808C445.34 504.432 447.74 500.048 452.54 496.656C457.34 493.264 464.156 491.568 472.988 491.568Z" fill="#22C55E"/>
<path d="M65.28 555.6L72.2111 562.808L72.2818 562.74L72.3511 562.671L65.28 555.6ZM52.8 556.656L47.8386 565.338L47.9653 565.411L48.0941 565.48L52.8 556.656ZM50.4 555.216L55.7688 546.779L55.7687 546.779L50.4 555.216ZM47.712 553.2L40.8726 560.495L41.1069 560.715L41.3549 560.919L47.712 553.2ZM45.216 550.992L38.1449 558.063L38.5366 558.455L38.9691 558.801L45.216 550.992ZM42.432 548.304L49.3195 541.054L49.3195 541.054L42.432 548.304ZM39.648 545.616L46.7191 538.545L46.6198 538.446L46.5177 538.349L39.648 545.616ZM22.08 529.008L28.9497 521.741L12.08 505.793V529.008H22.08ZM20.256 556.272L13.3786 549.012L13.2805 549.105L13.1849 549.201L20.256 556.272ZM8.448 556.08L15.3446 548.839L15.3446 548.839L8.448 556.08ZM9.216 495.024L16.2871 502.095L16.2871 502.095L9.216 495.024ZM22.848 493.392L18.0595 502.171L18.2932 502.298L18.5335 502.413L22.848 493.392ZM28.032 497.328L35.0891 490.243L35.038 490.192L34.9862 490.142L28.032 497.328ZM52.32 521.52L45.2629 528.605L62.32 545.595V521.52H52.32ZM57.776 548.88C57.776 549.307 57.7133 549.364 57.7778 549.19C57.8097 549.104 57.8637 548.987 57.9468 548.857C58.0301 548.727 58.1221 548.616 58.2089 548.529L72.3511 562.671C76.2517 558.77 77.776 553.789 77.776 548.88H57.776ZM58.3489 548.392C58.5159 548.231 58.6849 548.109 58.8325 548.022C58.9771 547.937 59.0709 547.905 59.0832 547.901C59.0913 547.898 58.7761 548 57.984 548V568C62.7576 568 68.0647 566.795 72.2111 562.808L58.3489 548.392ZM57.984 548C57.9285 548 57.8506 547.994 57.7366 547.968L53.2394 567.456C54.7894 567.814 56.3755 568 57.984 568V548ZM57.7366 547.968C57.8559 547.996 57.8953 548.015 57.8485 547.996C57.802 547.978 57.6887 547.93 57.5059 547.832L48.0941 565.48C49.6285 566.298 51.355 567.021 53.2394 567.456L57.7366 547.968ZM57.7614 547.974C56.9724 547.523 56.3121 547.125 55.7688 546.779L45.0312 563.653C45.8959 564.203 46.8356 564.765 47.8386 565.338L57.7614 547.974ZM55.7687 546.779C55.5625 546.648 55.0249 546.268 54.0691 545.481L41.3549 560.919C42.5751 561.924 43.8295 562.888 45.0313 563.653L55.7687 546.779ZM54.5514 545.905C53.4502 544.872 52.4003 543.933 51.4629 543.183L38.9691 558.801C39.3117 559.075 39.9258 559.608 40.8726 560.495L54.5514 545.905ZM52.2871 543.921C51.6143 543.248 50.6074 542.277 49.3195 541.054L35.5445 555.554C36.8166 556.763 37.6657 557.584 38.1449 558.063L52.2871 543.921ZM49.3195 541.054C48.0474 539.845 47.1983 539.024 46.7191 538.545L32.5769 552.687C33.2497 553.36 34.2566 554.331 35.5445 555.554L49.3195 541.054ZM46.5177 538.349L28.9497 521.741L15.2103 536.275L32.7783 552.883L46.5177 538.349ZM12.08 529.008V549.84H32.08V529.008H12.08ZM12.08 549.84C12.08 550.308 12.057 550.642 12.0316 550.862C12.006 551.085 11.9834 551.142 12.0034 551.072C12.0326 550.969 12.3185 550.017 13.3786 549.012L27.1334 563.532C31.5012 559.394 32.08 553.558 32.08 549.84H12.08ZM13.1849 549.201C13.9582 548.428 14.7115 548.118 15.036 548.017C15.3168 547.93 15.2621 548 14.688 548V568C18.4308 568 23.4681 567.202 27.3271 563.343L13.1849 549.201ZM14.688 548C14.0004 548 13.8117 547.918 13.9569 547.962C14.1425 548.019 14.717 548.241 15.3446 548.839L1.55145 563.321C5.51933 567.1 10.6012 568 14.688 568V548ZM15.3446 548.839C16.1345 549.591 16.4133 550.314 16.4783 550.521C16.5286 550.682 16.432 550.458 16.432 549.648H-3.568C-3.568 553.755 -2.70985 559.263 1.55145 563.321L15.3446 548.839ZM16.432 549.648V503.28H-3.568V549.648H16.432ZM16.432 503.28C16.432 502.277 16.5628 501.797 16.6038 501.675C16.6212 501.623 16.614 501.661 16.5572 501.755C16.4984 501.852 16.4084 501.974 16.2871 502.095L2.14493 487.953C-2.21833 492.316 -3.568 498.032 -3.568 503.28H16.432ZM16.2871 502.095C16.1968 502.185 16.0989 502.261 16.0091 502.316C15.9213 502.37 15.8754 502.384 15.8984 502.376C15.9556 502.356 16.3319 502.24 17.184 502.24V482.24C11.9474 482.24 6.41378 483.684 2.14493 487.953L16.2871 502.095ZM17.184 502.24C17.8443 502.24 18.2237 502.295 18.3829 502.327C18.5395 502.359 18.3866 502.349 18.0595 502.171L27.6365 484.613C24.2246 482.752 20.4861 482.24 17.184 482.24V502.24ZM18.5335 502.413C18.4954 502.395 18.7121 502.497 19.2009 502.868C19.6755 503.229 20.2993 503.761 21.0778 504.514L34.9862 490.142C32.6853 487.915 30.052 485.753 27.1625 484.371L18.5335 502.413ZM20.975 504.413L45.2629 528.605L59.3771 514.435L35.0891 490.243L20.975 504.413ZM62.32 521.52V500.592H42.32V521.52H62.32ZM62.32 500.592C62.32 499.997 62.3966 499.893 62.3256 500.11C62.2386 500.375 61.9847 500.941 61.4071 501.519L47.2649 487.377C43.3448 491.297 42.32 496.378 42.32 500.592H62.32ZM61.4071 501.519C61.0848 501.841 60.6847 502.091 60.3018 502.234C59.9511 502.365 59.8041 502.336 60 502.336V482.336C55.5185 482.336 50.8977 483.744 47.2649 487.377L61.4071 501.519ZM60 502.336C60.6468 502.336 60.7414 502.417 60.482 502.333C60.1707 502.233 59.4374 501.918 58.702 501.143L73.202 487.368C69.2669 483.226 63.9912 482.336 60 482.336V502.336ZM58.702 501.143C57.9917 500.396 57.7643 499.728 57.7217 499.582C57.6882 499.467 57.776 499.714 57.776 500.496H77.776C77.776 496.585 77.0136 491.381 73.202 487.368L58.702 501.143ZM57.776 500.496V548.88H77.776V500.496H57.776ZM132.138 552.528L138.828 559.961L138.833 559.956L132.138 552.528ZM86.922 552.048L80.1557 559.411L80.1804 559.434L80.2051 559.456L86.922 552.048ZM82.794 495.504L75.512 488.65L75.5055 488.657L82.794 495.504ZM99.018 494.352L93.1044 502.416L93.1671 502.462L93.2305 502.507L99.018 494.352ZM101.994 534.192H91.994V534.348L91.9989 534.504L101.994 534.192ZM102.954 539.088L93.9166 543.369L94.0068 543.559L94.1048 543.745L102.954 539.088ZM105.45 541.68L100.978 550.624L101.207 550.739L101.442 550.842L105.45 541.68ZM113.322 541.776L109.811 532.413L109.811 532.413L113.322 541.776ZM115.53 539.952L107.013 534.711L106.862 534.957L106.725 535.211L115.53 539.952ZM116.49 537.456L106.746 535.207L106.663 535.569L106.606 535.935L116.49 537.456ZM117.546 497.328L108.234 493.684L108.164 493.862L108.101 494.043L117.546 497.328ZM120.042 494.064L114.827 485.531L114.718 485.598L114.61 485.668L120.042 494.064ZM123.498 492.624L121.438 482.838L121.383 482.85L121.329 482.862L123.498 492.624ZM136.17 494.928L129.224 502.122L129.224 502.122L136.17 494.928ZM128.954 503.76V532.368H148.954V503.76H128.954ZM128.954 532.368C128.954 540.369 126.985 543.71 125.443 545.1L138.833 559.956C146.379 553.154 148.954 543.055 148.954 532.368H128.954ZM125.448 545.095C123.777 546.599 119.334 548.576 109.386 548.576V568.576C120.814 568.576 131.539 566.521 138.828 559.961L125.448 545.095ZM109.386 548.576C100.339 548.576 95.796 546.595 93.6389 544.64L80.2051 559.456C87.648 566.205 98.0815 568.576 109.386 568.576V548.576ZM93.6883 544.685C91.6798 542.839 89.818 539.393 89.818 532.368H69.818C69.818 542.879 72.6922 552.553 80.1557 559.411L93.6883 544.685ZM89.818 532.368V503.76H69.818V532.368H89.818ZM89.818 503.76C89.818 503.039 89.9226 502.673 89.9695 502.543C90.007 502.439 90.0344 502.402 90.0825 502.351L75.5055 488.657C71.4862 492.936 69.818 498.288 69.818 503.76H89.818ZM90.076 502.358C90.1585 502.27 90.2036 502.238 90.2062 502.236C90.2072 502.236 90.1897 502.247 90.1614 502.259C90.1335 502.271 90.1286 502.269 90.1628 502.262C90.1993 502.255 90.2978 502.24 90.474 502.24V482.24C84.7321 482.24 79.5088 484.404 75.512 488.65L90.076 502.358ZM90.474 502.24C91.7714 502.24 92.5902 502.364 93.0423 502.476C93.4843 502.585 93.4108 502.641 93.1044 502.416L104.932 486.288C100.554 483.078 95.2217 482.24 90.474 482.24V502.24ZM93.2305 502.507C92.7295 502.151 92.3658 501.753 92.1248 501.408C91.8938 501.078 91.813 500.852 91.8065 500.833C91.8014 500.819 91.8529 500.965 91.9032 501.327C91.9532 501.687 91.994 502.201 91.994 502.896H111.994C111.994 497.777 110.922 490.538 104.805 486.197L93.2305 502.507ZM91.994 502.896V534.192H111.994V502.896H91.994ZM91.9989 534.504C92.0856 537.278 92.5262 540.434 93.9166 543.369L111.991 534.807C112.131 535.101 112.131 535.212 112.095 535.028C112.06 534.849 112.008 534.481 111.989 533.88L91.9989 534.504ZM94.1048 543.745C95.5197 546.434 97.7322 549.001 100.978 550.624L109.922 532.736C110.476 533.013 110.926 533.363 111.261 533.712C111.585 534.048 111.747 534.324 111.803 534.431L94.1048 543.745ZM101.442 550.842C104.152 552.027 106.957 552.352 109.386 552.352V532.352C109.218 532.352 109.093 532.346 109.007 532.339C108.921 532.333 108.882 532.326 108.885 532.327C108.888 532.327 108.941 532.336 109.037 532.364C109.132 532.391 109.277 532.439 109.458 532.518L101.442 550.842ZM109.386 552.352C111.68 552.352 114.295 552.091 116.833 551.139L109.811 532.413C110.089 532.309 110.216 532.3 110.122 532.313C110.031 532.327 109.797 532.352 109.386 532.352V552.352ZM116.833 551.139C119.745 550.048 122.562 547.986 124.335 544.693L106.725 535.211C107.12 534.477 107.656 533.833 108.273 533.322C108.874 532.826 109.434 532.554 109.811 532.413L116.833 551.139ZM124.047 545.193C125.147 543.405 126.013 541.322 126.374 538.977L106.606 535.935C106.711 535.254 106.937 534.835 107.013 534.711L124.047 545.193ZM126.234 539.705C126.664 537.84 126.778 535.914 126.778 534.192H106.778C106.778 534.634 106.762 534.943 106.745 535.137C106.727 535.34 106.714 535.346 106.746 535.207L126.234 539.705ZM126.778 534.192V502.8H106.778V534.192H126.778ZM126.778 502.8C126.778 501.334 126.96 500.702 126.991 500.613L108.101 494.043C107.108 496.898 106.778 499.914 106.778 502.8H126.778ZM126.858 500.972C126.857 500.975 126.777 501.18 126.546 501.482C126.304 501.798 125.948 502.153 125.475 502.46L114.61 485.668C111.406 487.741 109.402 490.697 108.234 493.684L126.858 500.972ZM125.257 502.597C125.601 502.386 125.734 502.371 125.667 502.386L121.329 482.862C118.958 483.389 116.787 484.334 114.827 485.531L125.257 502.597ZM125.558 502.409C125.913 502.335 126.629 502.24 127.818 502.24V482.24C125.679 482.24 123.515 482.401 121.438 482.838L125.558 502.409ZM127.818 502.24C128.9 502.24 129.449 502.374 129.626 502.431C129.759 502.474 129.534 502.421 129.224 502.122L143.116 487.734C138.713 483.483 132.985 482.24 127.818 482.24V502.24ZM129.224 502.122C128.738 501.653 128.66 501.293 128.721 501.486C128.797 501.727 128.954 502.42 128.954 503.76H148.954C148.954 498.499 147.81 492.267 143.116 487.734L129.224 502.122ZM208.103 522.864H218.103L199.117 518.476L208.103 522.864ZM196.103 547.44L205.048 551.912L205.069 551.87L205.089 551.828L196.103 547.44ZM192.839 551.856L198.694 559.963L198.838 559.859L198.979 559.75L192.839 551.856ZM183.527 550.992L176.301 557.904L176.378 557.985L176.456 558.063L183.527 550.992ZM178.055 543.12L169.292 547.938L169.371 548.081L169.455 548.222L178.055 543.12ZM166.919 522.864L175.682 518.046L156.919 522.864H166.919ZM164.999 556.08L157.928 549.009L157.838 549.1L157.749 549.193L164.999 556.08ZM153.287 556.176L146.216 563.247L146.307 563.338L146.4 563.426L153.287 556.176ZM154.727 495.792L162.17 502.471L162.17 502.471L154.727 495.792ZM171.239 493.104L166.925 502.125L167.087 502.203L167.252 502.275L171.239 493.104ZM174.503 495.408L166.64 501.586L166.886 501.899L167.155 502.191L174.503 495.408ZM176.711 498.576L185.805 494.417L185.652 494.081L185.473 493.757L176.711 498.576ZM189.575 526.704L180.481 530.863L189.236 550.006L198.544 531.126L189.575 526.704ZM203.207 499.056L194.313 494.485L194.275 494.559L194.238 494.634L203.207 499.056ZM223.367 493.68L218.895 502.624L219.008 502.681L219.123 502.735L223.367 493.68ZM228.167 498.48L219.274 503.053L219.353 503.207L219.438 503.358L228.167 498.48ZM229.991 548.496L239.991 548.597L239.991 548.547V548.496H229.991ZM210.887 555.696L204.227 563.155L204.367 563.28L204.512 563.4L210.887 555.696ZM208.103 548.016H198.103V548.107L198.105 548.198L208.103 548.016ZM199.117 518.476L187.117 543.052L205.089 551.828L217.089 527.252L199.117 518.476ZM187.159 542.968C186.844 543.598 186.606 543.962 186.477 544.136C186.345 544.316 186.4 544.195 186.7 543.962L198.979 559.75C201.791 557.562 203.696 554.614 205.048 551.912L187.159 542.968ZM186.984 543.749C187.318 543.508 187.688 543.329 188.049 543.22C188.399 543.114 188.64 543.104 188.711 543.104V563.104C192.137 563.104 195.627 562.178 198.694 559.963L186.984 543.749ZM188.711 543.104C188.854 543.104 189.206 543.133 189.652 543.315C190.104 543.499 190.424 543.747 190.598 543.921L176.456 558.063C179.799 561.405 184.096 563.104 188.711 563.104V543.104ZM190.754 544.08C190.188 543.489 188.847 541.712 186.656 538.018L169.455 548.222C171.744 552.08 174.05 555.551 176.301 557.904L190.754 544.08ZM186.818 538.302L175.682 518.046L158.156 527.682L169.292 547.938L186.818 538.302ZM156.919 522.864V550.032H176.919V522.864H156.919ZM156.919 550.032C156.919 550.673 156.84 550.796 156.908 550.582C156.991 550.321 157.26 549.678 157.928 549.009L172.07 563.151C176.006 559.216 176.919 554.08 176.919 550.032H156.919ZM157.749 549.193C158.365 548.544 159.019 548.21 159.435 548.066C159.797 547.942 159.857 548 159.431 548V568C163.512 568 168.475 566.941 172.249 562.967L157.749 549.193ZM159.431 548C158.7 548 158.49 547.916 158.629 547.958C158.804 548.009 159.455 548.242 160.175 548.926L146.4 563.426C150.379 567.206 155.51 568 159.431 568V548ZM160.358 549.105C160.882 549.629 161.186 550.12 161.345 550.431C161.501 550.734 161.539 550.903 161.526 550.854C161.514 550.808 161.471 550.622 161.433 550.257C161.395 549.895 161.367 549.41 161.367 548.784H141.367C141.367 552.757 141.887 558.918 146.216 563.247L160.358 549.105ZM161.367 548.784V506.928H141.367V548.784H161.367ZM161.367 506.928C161.367 505.191 161.568 504.042 161.781 503.337C161.884 502.994 161.984 502.777 162.052 502.652C162.118 502.53 162.161 502.481 162.17 502.471L147.285 489.113C142.772 494.142 141.367 500.669 141.367 506.928H161.367ZM162.17 502.471C161.925 502.743 161.836 502.658 162.377 502.479C162.978 502.28 164.131 502.048 166.055 502.048V482.048C159.533 482.048 152.29 483.536 147.285 489.113L162.17 502.471ZM166.055 502.048C166.863 502.048 167.059 502.19 166.925 502.125L175.554 484.083C172.475 482.61 169.216 482.048 166.055 482.048V502.048ZM167.252 502.275C167.485 502.376 167.506 502.41 167.392 502.33C167.275 502.247 166.978 502.016 166.64 501.586L182.366 489.23C180.306 486.607 177.633 484.98 175.227 483.933L167.252 502.275ZM167.155 502.191C167.242 502.285 167.529 502.631 167.949 503.395L185.473 493.757C184.486 491.961 183.3 490.195 181.851 488.625L167.155 502.191ZM167.617 502.735L180.481 530.863L198.669 522.545L185.805 494.417L167.617 502.735ZM198.544 531.126L212.176 503.478L194.238 494.634L180.606 522.282L198.544 531.126ZM212.102 503.627C212.433 502.982 212.707 502.79 212.936 502.666C213.26 502.491 214.128 502.144 215.975 502.144V482.144C211.679 482.144 207.347 482.949 203.415 485.078C199.388 487.258 196.35 490.522 194.313 494.485L212.102 503.627ZM215.975 502.144C217.693 502.144 218.547 502.45 218.895 502.624L227.839 484.736C224.092 482.862 220.018 482.144 215.975 482.144V502.144ZM219.123 502.735C219.119 502.733 219.1 502.723 219.075 502.706C219.05 502.688 219.035 502.674 219.032 502.671C219.021 502.66 219.119 502.752 219.274 503.053L237.06 493.907C235.018 489.936 231.89 486.631 227.612 484.625L219.123 502.735ZM219.438 503.358C219.588 503.626 219.991 504.564 219.991 506.736H239.991C239.991 502.252 239.179 497.686 236.897 493.602L219.438 503.358ZM219.991 506.736V548.496H239.991V506.736H219.991ZM219.992 548.395C219.986 548.951 219.898 548.986 220.011 548.722C220.148 548.4 220.412 548.04 220.735 547.785C221.012 547.565 221.078 547.624 220.64 547.741C220.183 547.862 219.342 548 217.991 548V568C223.033 568 228.641 567.036 233.152 563.463C238.083 559.558 239.936 553.984 239.991 548.597L219.992 548.395ZM217.991 548C217.438 548 217.186 547.926 217.14 547.912C217.117 547.904 217.129 547.906 217.164 547.925C217.199 547.944 217.234 547.968 217.263 547.992L204.512 563.4C208.495 566.697 213.258 568 217.991 568V548ZM217.547 548.237C217.776 548.441 217.951 548.655 218.075 548.844C218.195 549.028 218.242 549.151 218.249 549.168C218.253 549.181 218.22 549.091 218.183 548.866C218.146 548.639 218.11 548.302 218.102 547.834L198.105 548.198C198.196 553.194 199.549 558.979 204.227 563.155L217.547 548.237ZM218.103 548.016V522.864H198.103V548.016H218.103ZM275.708 505.296L271.236 514.24L271.402 514.323L271.57 514.4L275.708 505.296ZM265.34 503.76V493.76H255.34V503.76H265.34ZM265.34 518.448H255.34V528.448H265.34V518.448ZM272.636 517.776L270.364 508.038L270.327 508.046L270.29 508.055L272.636 517.776ZM278.492 531.504L271.222 538.37L271.222 538.37L278.492 531.504ZM273.788 529.104L271.363 538.805L271.507 538.841L271.651 538.873L273.788 529.104ZM265.34 528.336V518.336H255.34V528.336H265.34ZM265.34 544.944H255.34V554.944H265.34V544.944ZM276.476 543.12L280.948 552.064L281.042 552.018L281.134 551.969L276.476 543.12ZM291.932 523.824L286.165 515.654L273.541 524.565L286.842 532.431L291.932 523.824ZM299.324 545.328L290.146 541.359L290.119 541.42L290.093 541.482L299.324 545.328ZM294.908 551.664L287.954 544.478L287.895 544.535L287.837 544.593L294.908 551.664ZM287.228 556.272L290.447 565.74L290.532 565.711L290.615 565.681L287.228 556.272ZM245.66 554.928L237.998 561.354L238.058 561.426L238.119 561.496L245.66 554.928ZM244.316 497.904L235.237 493.713L235.237 493.713L244.316 497.904ZM247.964 493.872L242.866 485.269L242.794 485.312L242.723 485.355L247.964 493.872ZM276.092 492.336L276.192 482.336L276.142 482.336H276.092V492.336ZM292.028 497.616L285.696 505.356L285.76 505.408L285.824 505.459L292.028 497.616ZM297.98 515.376L288.252 513.06L288.21 513.237L288.174 513.415L297.98 515.376ZM294.716 521.52L287.645 514.449L287.645 514.449L294.716 521.52ZM288.876 510.768C288.876 508.14 288.359 505.173 286.739 502.374C285.063 499.479 282.597 497.443 279.846 496.192L271.57 514.4C270.932 514.109 270.05 513.465 269.43 512.394C268.865 511.419 268.876 510.708 268.876 510.768H288.876ZM280.18 496.352C275.893 494.208 270.389 493.76 265.34 493.76V513.76C267.456 513.76 269.019 513.874 270.115 514.036C271.286 514.21 271.517 514.381 271.236 514.24L280.18 496.352ZM255.34 503.76V518.448H275.34V503.76H255.34ZM265.34 528.448C268.742 528.448 272.05 528.205 274.983 527.497L270.29 508.055C269.51 508.243 267.955 508.448 265.34 508.448V528.448ZM274.909 527.514C278.141 526.76 281.488 525.274 284.219 522.543L270.077 508.401C270.342 508.137 270.567 508.004 270.656 507.958C270.735 507.918 270.663 507.968 270.364 508.038L274.909 527.514ZM284.219 522.543C287.641 519.121 288.876 514.789 288.876 510.768H268.876C268.876 510.799 268.872 510.49 269.058 509.984C269.257 509.442 269.601 508.877 270.077 508.401L284.219 522.543ZM290.124 536.4C290.124 532.605 289.122 528.195 285.762 524.638L271.222 538.37C270.683 537.799 270.378 537.2 270.229 536.754C270.094 536.349 270.124 536.183 270.124 536.4H290.124ZM285.762 524.638C282.912 521.62 279.312 520.076 275.925 519.335L271.651 538.873C271.993 538.948 272.063 539.002 271.956 538.948C271.833 538.885 271.545 538.712 271.222 538.37L285.762 524.638ZM276.214 519.403C273.011 518.602 269.259 518.336 265.34 518.336V538.336C268.589 538.336 270.469 538.582 271.363 538.805L276.214 519.403ZM255.34 528.336V544.944H275.34V528.336H255.34ZM265.34 554.944C270.794 554.944 276.402 554.337 280.948 552.064L272.004 534.176C272.005 534.175 271.972 534.192 271.898 534.22C271.824 534.249 271.715 534.287 271.566 534.332C271.264 534.421 270.834 534.524 270.252 534.62C269.071 534.813 267.459 534.944 265.34 534.944V554.944ZM281.134 551.969C287.459 548.64 290.124 542.572 290.124 536.4H270.124C270.124 536.752 270.059 536.382 270.424 535.709C270.604 535.376 270.845 535.057 271.129 534.784C271.407 534.515 271.66 534.354 271.819 534.271L281.134 551.969ZM286.842 532.431C290.379 534.523 290.86 536.257 290.86 537.936H310.86C310.86 527.839 305.39 520.165 297.023 515.217L286.842 532.431ZM290.86 537.936C290.86 539.12 290.632 540.234 290.146 541.359L308.503 549.297C310.064 545.686 310.86 541.872 310.86 537.936H290.86ZM290.093 541.482C289.71 542.402 289.064 543.404 287.954 544.478L301.862 558.85C304.72 556.084 307.018 552.862 308.555 549.174L290.093 541.482ZM287.837 544.593C287.187 545.244 285.996 546.087 283.841 546.863L290.615 565.681C294.86 564.153 298.79 561.924 301.979 558.735L287.837 544.593ZM284.009 546.804C282.024 547.479 279.523 547.904 276.38 547.904V567.904C281.302 567.904 286.033 567.241 290.447 565.74L284.009 546.804ZM276.38 547.904H254.108V567.904H276.38V547.904ZM254.108 547.904C252.959 547.904 252.46 547.753 252.391 547.728C252.372 547.721 252.471 547.754 252.639 547.864C252.813 547.978 253.012 548.143 253.201 548.36L238.119 561.496C242.514 566.541 248.732 567.904 254.108 567.904V547.904ZM253.322 548.502C253.823 549.099 253.72 549.331 253.525 548.495C253.338 547.699 253.164 546.346 253.164 544.272H233.164C233.164 549.785 233.92 556.491 237.998 561.354L253.322 548.502ZM253.164 544.272V503.664H233.164V544.272H253.164ZM253.164 503.664C253.164 502.667 253.337 502.222 253.396 502.095L235.237 493.713C233.759 496.914 233.164 500.309 233.164 503.664H253.164ZM253.396 502.095C253.381 502.127 253.357 502.171 253.324 502.222C253.291 502.273 253.254 502.319 253.22 502.357C253.145 502.44 253.117 502.443 253.205 502.389L242.723 485.355C239.498 487.34 236.886 490.141 235.237 493.713L253.396 502.095ZM253.062 502.475C253.063 502.475 253.064 502.474 253.068 502.472C253.071 502.47 253.078 502.467 253.088 502.463C253.108 502.455 253.151 502.439 253.222 502.421C253.363 502.386 253.644 502.336 254.108 502.336V482.336C250.27 482.336 246.394 483.179 242.866 485.269L253.062 502.475ZM254.108 502.336H276.092V482.336H254.108V502.336ZM275.992 502.335C280.528 502.381 283.525 503.58 285.696 505.356L298.361 489.876C292.083 484.74 284.456 482.419 276.192 482.336L275.992 502.335ZM285.824 505.459C287.762 506.992 288.46 508.509 288.46 510.768H308.46C308.46 502.275 304.87 495.024 298.232 489.773L285.824 505.459ZM288.46 510.768C288.46 511.901 288.353 512.636 288.252 513.06L307.708 517.692C308.247 515.428 308.46 513.091 308.46 510.768H288.46ZM288.174 513.415C288.102 513.777 288.023 513.918 288.016 513.929L305.448 523.735C306.594 521.698 307.346 519.535 307.786 517.337L288.174 513.415ZM288.016 513.929C287.851 514.223 287.718 514.376 287.645 514.449L301.787 528.591C303.25 527.128 304.461 525.489 305.448 523.735L288.016 513.929ZM287.645 514.449C287.358 514.736 286.888 515.144 286.165 515.654L297.699 531.994C299.152 530.968 300.539 529.84 301.787 528.591L287.645 514.449ZM358.883 520.656L352.591 528.428L352.678 528.5L352.768 528.569L358.883 520.656ZM358.499 530.928L363.385 539.653L363.44 539.622L363.496 539.59L358.499 530.928ZM335.363 532.272V522.272H325.363V532.272H335.363ZM335.363 542.448H325.363V552.402L335.316 552.448L335.363 542.448ZM356.195 542.544L356.148 552.544L356.171 552.544H356.195V542.544ZM363.875 544.176L358.094 552.336L358.286 552.472L358.484 552.599L363.875 544.176ZM363.491 556.176L358.01 547.811L357.943 547.856L357.875 547.901L363.491 556.176ZM315.779 555.024L308.136 561.473L308.244 561.602L308.357 561.727L315.779 555.024ZM363.491 493.968L358.083 502.38L358.15 502.423L358.217 502.464L363.491 493.968ZM363.875 506.16L369.655 514.32L369.686 514.298L369.718 514.275L363.875 506.16ZM335.267 507.792V497.792H325.267V507.792H335.267ZM335.267 519.024H325.267V529.024H335.267V519.024ZM351.779 529.024C352.364 529.024 352.831 529.048 353.19 529.082C353.553 529.116 353.767 529.157 353.86 529.178C353.955 529.2 353.869 529.189 353.658 529.096C353.444 529.002 353.052 528.802 352.591 528.428L365.174 512.884C360.998 509.502 355.584 509.024 351.779 509.024V529.024ZM352.768 528.569C351.847 527.857 351.341 527.004 351.117 526.411C350.925 525.906 350.995 525.756 350.995 526.224H370.995C370.995 522.029 369.852 516.495 364.997 512.743L352.768 528.569ZM350.995 526.224C350.995 526.042 351.033 525.295 351.537 524.345C352.074 523.334 352.846 522.644 353.501 522.266L363.496 539.59C368.719 536.576 370.995 531.404 370.995 526.224H350.995ZM353.612 522.203C354.094 521.933 354.226 521.989 353.658 522.089C353.128 522.183 352.244 522.272 350.915 522.272V542.272C354.814 542.272 359.48 541.84 363.385 539.653L353.612 522.203ZM350.915 522.272H335.363V542.272H350.915V522.272ZM325.363 532.272V542.448H345.363V532.272H325.363ZM335.316 552.448L356.148 552.544L356.241 532.544L335.409 532.448L335.316 552.448ZM356.195 552.544C357.525 552.544 358.325 552.649 358.724 552.734C359.158 552.826 358.781 552.822 358.094 552.336L369.655 536.016C365.478 533.057 360.255 532.544 356.195 532.544V552.544ZM358.484 552.599C357.493 551.964 356.828 551.076 356.491 550.294C356.206 549.633 356.275 549.335 356.275 549.744H376.275C376.275 545.191 374.833 539.317 369.265 535.753L358.484 552.599ZM356.275 549.744C356.275 550.323 356.181 550.194 356.401 549.684C356.519 549.413 356.711 549.068 357.008 548.71C357.308 548.348 357.654 548.045 358.01 547.811L368.971 564.541C374.659 560.814 376.275 554.767 376.275 549.744H356.275ZM357.875 547.901C358.291 547.619 358.419 547.67 357.925 547.779C357.44 547.887 356.579 548 355.235 548V568C359.677 568 364.849 567.339 369.106 564.451L357.875 547.901ZM355.235 548H324.131V568H355.235V548ZM324.131 548C323.084 548 322.629 547.858 322.567 547.836C322.547 547.829 322.625 547.855 322.76 547.943C322.9 548.033 323.055 548.161 323.2 548.321L308.357 561.727C312.723 566.56 318.725 568 324.131 568V548ZM323.421 548.575C323.864 549.1 323.753 549.274 323.556 548.456C323.365 547.664 323.187 546.323 323.187 544.272H303.187C303.187 549.888 304.007 556.58 308.136 561.473L323.421 548.575ZM323.187 544.272V503.76H303.187V544.272H323.187ZM323.187 503.76C323.187 502.601 323.328 501.979 323.404 501.739C323.467 501.541 323.443 501.722 323.172 502.007C322.891 502.304 322.637 502.402 322.653 502.396C322.723 502.372 323.156 502.24 324.131 502.24V482.24C318.806 482.24 313.01 483.666 308.673 488.233C304.426 492.702 303.187 498.503 303.187 503.76H323.187ZM324.131 502.24H355.235V482.24H324.131V502.24ZM355.235 502.24C356.607 502.24 357.506 502.349 358.034 502.46C358.576 502.573 358.483 502.637 358.083 502.38L368.898 485.556C364.692 482.852 359.614 482.24 355.235 482.24V502.24ZM358.217 502.464C357.839 502.23 357.463 501.917 357.132 501.532C356.803 501.151 356.584 500.775 356.446 500.466C356.186 499.883 356.275 499.679 356.275 500.208H376.275C376.275 495.188 374.608 489.099 368.764 485.472L358.217 502.464ZM356.275 500.208C356.275 500.719 356.195 500.576 356.4 500.068C356.645 499.462 357.167 498.667 358.031 498.045L369.718 514.275C374.925 510.526 376.275 504.774 376.275 500.208H356.275ZM358.094 498C358.781 497.514 359.158 497.51 358.724 497.602C358.325 497.687 357.525 497.792 356.195 497.792V517.792C360.255 517.792 365.478 517.279 369.655 514.32L358.094 498ZM356.195 497.792H335.267V517.792H356.195V497.792ZM325.267 507.792V519.024H345.267V507.792H325.267ZM335.267 529.024H351.779V509.024H335.267V529.024ZM410.327 505.008L405.753 513.901L405.753 513.901L410.327 505.008ZM398.999 503.28V493.28H388.999V503.28H398.999ZM398.999 519.888H388.999V529.888H398.999V519.888ZM410.039 518.064L414.607 526.96L414.651 526.937L414.696 526.913L410.039 518.064ZM379.415 555.024L371.772 561.473L371.88 561.602L371.993 561.727L379.415 555.024ZM379.799 495.312L386.753 502.498L386.756 502.494L379.799 495.312ZM427.031 497.904L420.964 505.854L420.997 505.879L421.03 505.904L427.031 497.904ZM431.543 522.288L423.518 516.321L423.505 516.338L423.492 516.356L431.543 522.288ZM422.807 527.664L420.059 518.049L422.183 537.645L422.807 527.664ZM431.351 532.176L424.034 538.993L424.074 539.035L424.113 539.077L431.351 532.176ZM434.039 552.336L424.633 548.94L424.605 549.016L424.579 549.093L434.039 552.336ZM430.679 556.848L426.053 547.982L430.679 556.848ZM416.087 555.696L409.292 563.034L409.433 563.164L409.579 563.289L416.087 555.696ZM412.343 539.376L402.913 542.704L402.928 542.749L402.945 542.793L412.343 539.376ZM409.367 535.152L404.709 544.001L404.709 544.001L409.367 535.152ZM404.279 534.192V524.192H404.188L404.097 524.194L404.279 534.192ZM398.999 534.288L398.817 524.29L388.999 524.468V534.288H398.999ZM423.687 511.344C423.687 505.513 421.268 499.39 414.9 496.115L405.753 513.901C405.5 513.771 405.169 513.555 404.829 513.225C404.485 512.891 404.21 512.515 404.012 512.141C403.619 511.401 403.687 510.989 403.687 511.344H423.687ZM414.9 496.115C410.383 493.792 404.511 493.28 398.999 493.28V513.28C401.329 513.28 403.068 513.409 404.307 513.598C405.619 513.798 405.955 514.005 405.753 513.901L414.9 496.115ZM388.999 503.28V519.888H408.999V503.28H388.999ZM398.999 529.888C404.419 529.888 410.066 529.291 414.607 526.96L405.47 509.168C405.497 509.155 405.066 509.369 403.872 509.566C402.717 509.757 401.119 509.888 398.999 509.888V529.888ZM414.696 526.913C421.021 523.584 423.687 517.516 423.687 511.344H403.687C403.687 511.696 403.621 511.326 403.986 510.653C404.167 510.32 404.407 510.001 404.691 509.728C404.97 509.459 405.223 509.298 405.381 509.215L414.696 526.913ZM388.999 543.6C388.999 545.383 388.821 546.603 388.618 547.384C388.419 548.149 388.238 548.337 388.305 548.25C388.413 548.112 388.605 547.967 388.751 547.904C388.836 547.868 388.585 548 387.767 548V568C393.807 568 399.873 565.938 404.076 560.55C407.909 555.635 408.999 549.425 408.999 543.6H388.999ZM387.767 548C386.72 548 386.265 547.858 386.203 547.836C386.183 547.829 386.261 547.855 386.396 547.943C386.536 548.033 386.691 548.161 386.836 548.321L371.993 561.727C376.359 566.56 382.361 568 387.767 568V548ZM387.057 548.575C387.5 549.1 387.389 549.274 387.192 548.456C387.001 547.664 386.823 546.323 386.823 544.272H366.823C366.823 549.888 367.643 556.58 371.772 561.473L387.057 548.575ZM386.823 544.272V503.76H366.823V544.272H386.823ZM386.823 503.76C386.823 502.771 386.957 502.303 386.998 502.187C387.016 502.135 387.012 502.164 386.964 502.241C386.914 502.32 386.842 502.412 386.753 502.498L372.844 488.126C368.314 492.51 366.823 498.305 366.823 503.76H386.823ZM386.756 502.494C386.788 502.464 386.8 502.457 386.795 502.461C386.789 502.464 386.795 502.459 386.825 502.448C386.879 502.428 387.151 502.336 387.767 502.336V482.336C382.311 482.336 377.027 484.074 372.841 488.13L386.756 502.494ZM387.767 502.336H407.927V482.336H387.767V502.336ZM407.927 502.336C414.239 502.336 418.286 503.81 420.964 505.854L433.097 489.954C426.047 484.574 417.358 482.336 407.927 482.336V502.336ZM421.03 505.904C423.54 507.786 424.327 509.602 424.327 512.016H444.327C444.327 502.91 440.249 495.318 433.031 489.904L421.03 505.904ZM424.327 512.016C424.327 515.055 423.669 516.118 423.518 516.321L439.567 528.255C443.128 523.466 444.327 517.681 444.327 512.016H424.327ZM423.492 516.356C423.437 516.431 422.776 517.273 420.059 518.049L425.554 537.279C430.901 535.751 436.064 533.009 439.593 528.22L423.492 516.356ZM422.183 537.645C422.239 537.648 422.346 537.657 422.577 537.779C422.84 537.918 423.34 538.249 424.034 538.993L438.667 525.359C434.756 521.162 429.655 518.073 423.43 517.683L422.183 537.645ZM424.113 539.077C424.79 539.786 425.287 540.69 425.287 542.544H445.287C445.287 536.078 443.159 530.07 438.588 525.275L424.113 539.077ZM425.287 542.544C425.287 546.323 424.886 548.238 424.633 548.94L443.444 555.732C444.855 551.826 445.287 547.213 445.287 542.544H425.287ZM424.579 549.093C424.447 549.479 424.406 549.434 424.602 549.171C424.824 548.873 425.29 548.38 426.053 547.982L435.304 565.714C439.861 563.337 442.253 559.21 443.498 555.579L424.579 549.093ZM426.053 547.982C426.403 547.799 426.514 547.82 426.199 547.878C425.893 547.935 425.328 548 424.439 548V568C427.849 568 431.783 567.551 435.304 565.714L426.053 547.982ZM424.439 548C423.19 548 422.485 547.869 422.178 547.784C421.893 547.706 422.153 547.725 422.594 548.103L409.579 563.289C413.995 567.074 419.624 568 424.439 568V548ZM422.881 548.358C423.065 548.53 423.222 548.719 423.345 548.908C423.465 549.094 423.526 549.239 423.551 549.309C423.596 549.432 423.495 549.223 423.495 548.496H403.495C403.495 553.443 404.866 558.935 409.292 563.034L422.881 548.358ZM423.495 548.496C423.495 544.113 423.101 539.7 421.74 535.959L402.945 542.793C403.12 543.276 403.495 544.943 403.495 548.496H423.495ZM421.772 536.048C420.697 533 418.564 528.692 414.024 526.303L404.709 544.001C403.607 543.421 403.037 542.717 402.848 542.448C402.672 542.198 402.737 542.207 402.913 542.704L421.772 536.048ZM414.024 526.303C410.771 524.591 407.226 524.192 404.279 524.192V544.192C404.58 544.192 404.817 544.203 404.997 544.218C405.177 544.233 405.284 544.25 405.328 544.259C405.373 544.267 405.336 544.263 405.234 544.229C405.131 544.195 404.947 544.127 404.709 544.001L414.024 526.303ZM404.097 524.194L398.817 524.29L399.18 544.286L404.46 544.19L404.097 524.194ZM388.999 534.288V543.6H408.999V534.288H388.999ZM492.476 496.272L487.438 504.91L487.438 504.91L492.476 496.272ZM499.868 508.752L491.432 503.383L491.361 503.494L491.293 503.607L499.868 508.752ZM498.332 510.192L502.394 519.33L502.601 519.238L502.804 519.136L498.332 510.192ZM491.228 508.848L486.561 517.692L486.658 517.743L486.756 517.792L491.228 508.848ZM483.548 505.296L479.584 514.477L479.673 514.515L479.762 514.551L483.548 505.296ZM470.972 510.864L462.56 516.272L462.789 516.627L463.046 516.961L470.972 510.864ZM473.948 513.552L468.136 521.689L468.267 521.783L468.401 521.873L473.948 513.552ZM477.884 515.952L473.065 524.714L473.065 524.714L477.884 515.952ZM483.164 518.832L478.393 527.621L478.491 527.674L478.591 527.725L483.164 518.832ZM488.828 521.904L483.79 530.542L483.828 530.564L483.867 530.586L488.828 521.904ZM499.196 529.968L491.292 536.094L491.292 536.094L499.196 529.968ZM465.116 557.616L463.008 567.391L463.027 567.395L463.047 567.399L465.116 557.616ZM456.476 554.832L452.195 563.869L452.24 563.891L452.286 563.912L456.476 554.832ZM449.948 550.992L443.904 558.959L443.969 559.008L444.035 559.056L449.948 550.992ZM445.724 546.672L454.1 541.209L454.1 541.209L445.724 546.672ZM445.628 538.992L438.333 532.153L438.325 532.161L438.318 532.169L445.628 538.992ZM459.452 540.048L456.254 549.523L456.308 549.541L456.361 549.558L459.452 540.048ZM475.772 538.032L466.409 541.543L466.691 542.296L467.09 542.993L475.772 538.032ZM474.62 536.592L467.549 543.663L467.989 544.103L468.481 544.486L474.62 536.592ZM472.796 535.248L467.062 543.44L467.518 543.76L468.008 544.027L472.796 535.248ZM470.012 533.616L465.156 542.358L465.255 542.413L465.355 542.465L470.012 533.616ZM466.46 531.696L461.604 540.438L461.703 540.492L461.803 540.545L466.46 531.696ZM456.284 526.128L461.246 517.446L461.233 517.438L461.22 517.431L456.284 526.128ZM450.14 521.136L442.478 527.562L442.538 527.634L442.599 527.704L450.14 521.136ZM446.492 515.28L437.167 518.89L437.187 518.942L437.207 518.994L446.492 515.28ZM452.54 496.656L446.769 488.489L446.769 488.489L452.54 496.656ZM472.988 501.568C479.228 501.568 483.899 502.846 487.438 504.91L497.515 487.634C490.302 483.426 481.98 481.568 472.988 481.568V501.568ZM487.438 504.91C489.512 506.12 490.427 507.01 490.745 507.403C490.878 507.568 490.819 507.539 490.728 507.306C490.628 507.051 490.54 506.682 490.54 506.256H510.54C510.54 497.093 503.584 491.175 497.515 487.634L487.438 504.91ZM490.54 506.256C490.54 505.607 490.712 504.514 491.432 503.383L508.305 514.121C509.92 511.582 510.54 508.825 510.54 506.256H490.54ZM491.293 503.607C491.843 502.69 492.724 501.816 493.86 501.248L502.804 519.136C505.221 517.928 507.125 516.094 508.443 513.897L491.293 503.607ZM494.271 501.054C495.115 500.679 495.881 500.576 496.412 500.576V520.576C498.351 520.576 500.397 520.217 502.394 519.33L494.271 501.054ZM496.412 500.576C496.933 500.576 497.282 500.638 497.401 500.662C497.531 500.688 497.542 500.7 497.415 500.657C497.292 500.616 497.086 500.541 496.787 500.413C496.491 500.286 496.13 500.119 495.7 499.904L486.756 517.792C489.138 518.983 492.712 520.576 496.412 520.576V500.576ZM495.896 500.004C493.262 498.614 490.402 497.296 487.335 496.041L479.762 514.551C482.326 515.6 484.586 516.65 486.561 517.692L495.896 500.004ZM487.513 496.115C483.798 494.512 479.842 493.472 475.772 493.472V513.472C476.438 513.472 477.666 513.648 479.584 514.477L487.513 496.115ZM475.772 493.472C472.786 493.472 468.691 494.038 465.213 496.867C461.341 500.017 460.108 504.395 460.108 508.08H480.108C480.108 508.318 480.073 508.983 479.716 509.855C479.333 510.789 478.691 511.685 477.835 512.381C476.246 513.674 474.983 513.472 475.772 513.472V493.472ZM460.108 508.08C460.108 511.164 461.065 513.946 462.56 516.272L479.384 505.456C479.727 505.99 480.108 506.916 480.108 508.08H460.108ZM463.046 516.961C464.528 518.888 466.394 520.445 468.136 521.689L479.761 505.415C479.33 505.107 479.056 504.88 478.899 504.739C478.735 504.591 478.768 504.597 478.898 504.767L463.046 516.961ZM468.401 521.873C469.957 522.91 471.512 523.86 473.065 524.714L482.703 507.19C481.697 506.636 480.627 505.986 479.495 505.231L468.401 521.873ZM473.065 524.714C474.369 525.431 476.147 526.401 478.393 527.621L487.935 510.043C485.701 508.831 483.96 507.881 482.703 507.19L473.065 524.714ZM478.591 527.725C480.732 528.826 482.454 529.763 483.79 530.542L493.867 513.266C492.13 512.253 490.076 511.142 487.738 509.939L478.591 527.725ZM483.867 530.586C488.383 533.167 490.502 535.074 491.292 536.094L507.1 523.842C503.923 519.742 499.129 516.273 493.79 513.222L483.867 530.586ZM491.292 536.094C491.878 536.849 492.172 537.624 492.172 538.8H512.172C512.172 533.32 510.483 528.207 507.1 523.842L491.292 536.094ZM492.172 538.8C492.172 542.943 490.935 544.621 489.518 545.673C487.541 547.14 483.371 548.672 475.388 548.672V568.672C485.261 568.672 494.483 566.892 501.435 561.735C508.945 556.163 512.172 547.905 512.172 538.8H492.172ZM475.388 548.672C472.54 548.672 469.81 548.388 467.186 547.833L463.047 567.399C467.078 568.252 471.197 568.672 475.388 568.672V548.672ZM467.225 547.841C464.531 547.26 462.372 546.54 460.667 545.752L452.286 563.912C455.572 565.428 459.174 566.564 463.008 567.391L467.225 547.841ZM460.757 545.795C458.826 544.88 457.209 543.916 455.862 542.928L444.035 559.056C446.528 560.884 449.262 562.48 452.195 563.869L460.757 545.795ZM455.992 543.025C454.771 542.099 454.265 541.463 454.1 541.209L437.348 552.135C439.103 554.825 441.413 557.069 443.904 558.959L455.992 543.025ZM454.1 541.209C453.818 540.776 454.284 541.286 454.284 542.544H434.284C434.284 546.362 435.711 549.624 437.348 552.135L454.1 541.209ZM454.284 542.544C454.284 542.914 454.222 543.48 453.973 544.139C453.719 544.81 453.345 545.38 452.939 545.815L438.318 532.169C435.561 535.122 434.284 538.803 434.284 542.544H454.284ZM452.924 545.831C452.298 546.499 451.559 546.955 450.868 547.212C450.224 547.452 449.797 547.456 449.756 547.456V527.456C446.011 527.456 441.674 528.589 438.333 532.153L452.924 545.831ZM449.756 547.456C449.179 547.456 448.928 547.381 449.263 547.444C449.511 547.491 449.944 547.588 450.606 547.765C451.929 548.118 453.791 548.691 456.254 549.523L462.65 530.573C459.994 529.677 457.68 528.954 455.771 528.443C454.195 528.022 451.892 527.456 449.756 527.456V547.456ZM456.361 549.558C461.873 551.35 467.161 552.544 471.836 552.544V532.544C470.239 532.544 467.272 532.074 462.543 530.538L456.361 549.558ZM471.836 552.544C474.114 552.544 477.595 552.208 480.749 550.035C484.576 547.399 486.156 543.335 486.156 539.568H466.156C466.156 538.854 466.289 537.745 466.885 536.514C467.503 535.236 468.422 534.241 469.403 533.565C471.117 532.384 472.438 532.544 471.836 532.544V552.544ZM486.156 539.568C486.156 537.459 485.671 535.2 484.455 533.071L467.09 542.993C466.385 541.76 466.156 540.525 466.156 539.568H486.156ZM485.136 534.521C484.112 531.791 482.32 529.912 480.76 528.698L468.481 544.486C468.072 544.168 467.049 543.249 466.409 541.543L485.136 534.521ZM481.691 529.521C480.436 528.265 479.038 527.262 477.585 526.469L468.008 544.027C467.962 544.002 467.781 543.895 467.549 543.663L481.691 529.521ZM478.531 527.056C477.382 526.251 476.024 525.48 474.67 524.767L465.355 542.465C466.432 543.032 466.931 543.349 467.062 543.44L478.531 527.056ZM474.869 524.874C473.648 524.196 472.398 523.52 471.118 522.847L461.803 540.545C462.955 541.152 464.072 541.756 465.156 542.358L474.869 524.874ZM471.317 522.954C470.093 522.275 468.501 521.413 466.558 520.376L457.146 538.024C459.044 539.035 460.523 539.837 461.604 540.438L471.317 522.954ZM466.558 520.376C464.719 519.396 462.949 518.419 461.246 517.446L451.323 534.81C453.204 535.885 455.145 536.956 457.146 538.024L466.558 520.376ZM461.22 517.431C459.8 516.625 458.642 515.671 457.681 514.568L442.599 527.704C445.095 530.569 448.033 532.943 451.348 534.825L461.22 517.431ZM457.802 514.71C456.655 513.342 456.066 512.29 455.777 511.566L437.207 518.994C438.454 522.11 440.297 524.962 442.478 527.562L457.802 514.71ZM455.818 511.67C455.377 510.531 455.34 509.947 455.34 509.808H435.34C435.34 512.997 436.071 516.061 437.167 518.89L455.818 511.67ZM455.34 509.808C455.34 508.018 455.874 506.545 458.311 504.823L446.769 488.489C439.606 493.551 435.34 500.846 435.34 509.808H455.34ZM458.311 504.823C460.769 503.086 465.243 501.568 472.988 501.568V481.568C463.07 481.568 453.912 483.442 446.769 488.489L458.311 504.823Z" fill="white" mask="url(#path-7-outside-4_12_10)"/>
</svg>
