<svg width="512" height="512" viewBox="0 0 512 512" fill="none" xmlns="http://www.w3.org/2000/svg">
<g clip-path="url(#clip0_17_61)">
<path d="M443.912 455.226L512 457.373L473.559 409.6C467.257 391.59 461.664 373.339 456.795 354.89C453.368 341.801 449.775 324.955 447.215 312.733C448.743 312.939 450.271 313.105 451.799 313.27C445.729 301.708 436.81 282.756 430.286 258.023C422.235 227.427 424.299 212.852 415.794 186.426C411.375 172.8 403.076 152.733 386.147 130.188C385.792 119.428 382.831 108.915 377.517 99.551C374.132 93.5639 370.168 88.8155 366.493 85.1819C360.175 79.0297 354.147 72.6297 348.532 65.7755C340.397 55.7832 327.391 43.1897 308.356 34.1884C285.977 23.5768 265.621 22.8335 254.968 23.2052C255.959 22.0077 257.486 19.8193 258.395 16.7226C259.427 13.0064 259.055 9.86838 258.725 8.25806C256.041 9.70322 251.912 11.8503 246.71 14.2039C225.156 23.9484 209.961 25.7652 201.043 28.4077C191.422 31.2981 179.2 38.1523 166.689 55.1226C159.794 64.4542 151.99 73.0426 143.566 80.9703C139.19 85.0993 134.606 90.591 130.89 97.6929C123.954 110.988 123.458 123.293 123.623 129.197C116.563 135.928 106.57 146.746 98.1058 162.147C78.8232 197.161 85.4297 223.05 70.1523 272.351C66.4361 284.366 60.8206 299.685 52.1497 316.903L64.7845 312.939C62.2245 325.161 58.6323 341.801 55.2052 354.89C50.3356 373.339 44.7434 391.59 38.4413 409.6L0 457.373L68.0877 455.226L57.1045 474.137C68.781 471.365 79.5286 465.586 88.2787 457.373C90.3432 461.172 92.449 465.383 94.431 470.049C96.289 474.384 97.7755 478.514 99.0555 482.354C101.203 481.486 104.299 479.959 107.437 477.275C109.708 475.252 111.36 473.187 112.475 471.535C120.465 478.612 126.916 487.256 131.427 496.929C133.574 494.369 136.299 490.488 138.405 485.285C140.181 480.991 140.965 477.11 141.378 474.137C144.805 476.366 149.182 479.711 153.476 484.583C157.151 488.754 159.752 492.841 161.528 496.145C163.757 495.03 167.474 492.841 170.859 488.877C174.08 485.12 175.649 481.321 176.434 478.968C178.25 481.363 180.604 484.955 182.297 489.786C184.155 494.947 184.609 499.53 184.65 502.627C187.871 502.09 193.693 500.728 199.68 496.557C204.695 493.047 208.766 488.352 211.53 482.89C212.15 485.409 212.728 488.464 212.934 492.057C213.141 495.36 213.017 498.292 212.728 500.728C216.196 499.737 221.564 497.796 227.097 493.75C232.465 489.827 235.85 485.533 237.874 482.601L254.72 499.53L271.525 482.601C273.879 485.492 277.058 488.919 281.311 492.305C285.399 495.566 289.363 497.879 292.583 499.53C292.743 493.649 294.18 487.872 296.795 482.601C300.346 486.772 305.548 491.974 312.774 496.723C317.646 499.943 322.312 502.173 326.276 503.742C326.441 500.439 326.978 496.103 328.506 491.231C330.281 485.657 332.717 481.321 334.699 478.348C335.773 481.115 337.548 484.872 340.604 488.712C342.957 491.603 345.352 493.75 347.334 495.277C349.481 492.057 352.248 488.382 355.84 484.666C360.258 480.041 364.676 476.614 368.392 474.137C370.292 476.573 372.934 480.578 374.751 485.987C376.609 491.52 376.857 496.351 376.815 499.53C386.505 493.691 393.928 484.739 397.874 474.137C399.814 474.756 402.457 475.871 405.223 477.812C407.535 479.422 409.27 481.156 410.508 482.601C412.738 480.083 415.339 476.738 417.652 472.403C420.238 467.644 422.09 462.521 423.143 457.208C424.795 460.594 428.387 466.87 435.406 472.031C439.31 474.929 443.722 477.071 448.413 478.348C447.174 474.137 446.059 469.512 445.151 464.392C444.614 461.172 444.201 458.116 443.912 455.226Z" fill="#D6B85A"/>
<path d="M473.559 409.6L512 457.373L443.912 455.226C440.962 428.65 441.67 401.795 446.018 375.412L473.559 409.6ZM69.6981 412.697C70.2761 428.594 69.4503 442.88 68.0877 455.226L0 457.373L38.4413 409.6L65.9819 375.412C67.7987 386.354 69.2026 398.906 69.6981 412.697ZM263.886 397.874L271.525 482.601L254.72 499.53L237.874 482.601L245.512 397.874C245.674 396.167 246.307 394.539 247.341 393.171C248.375 391.804 249.768 390.751 251.366 390.13C252.964 389.508 254.703 389.344 256.389 389.654C258.075 389.964 259.642 390.737 260.914 391.886C262.565 393.414 263.68 395.479 263.886 397.874Z" fill="#604533"/>
<path d="M68.0877 455.226L57.1045 474.137C68.7809 471.366 79.5286 465.586 88.2787 457.373C90.3432 461.172 92.449 465.383 94.4309 470.049C96.289 474.384 97.7755 478.514 99.0555 482.354C101.203 481.486 104.299 479.959 107.437 477.275C109.708 475.252 111.36 473.187 112.475 471.535C120.465 478.612 126.916 487.256 131.427 496.929C133.574 494.369 136.299 490.488 138.405 485.285C140.181 480.991 140.965 477.11 141.378 474.137C144.805 476.366 149.182 479.711 153.476 484.583C157.151 488.754 159.752 492.841 161.528 496.145C163.757 495.03 167.474 492.841 170.859 488.877C174.08 485.12 175.649 481.321 176.434 478.968C178.25 481.363 180.604 484.955 182.297 489.786C184.155 494.947 184.609 499.53 184.65 502.627C187.871 502.09 193.693 500.728 199.68 496.557C204.695 493.047 208.766 488.352 211.53 482.89C212.15 485.409 212.728 488.465 212.934 492.057C213.141 495.36 213.017 498.292 212.728 500.728C216.196 499.737 221.564 497.796 227.097 493.75C232.464 489.827 235.85 485.533 237.874 482.601L240.681 451.592C197.987 449.404 142.369 441.311 69.9045 424.299C69.8632 435.654 69.12 445.977 68.0877 455.226ZM443.912 455.226C440.962 428.65 441.67 401.795 446.018 375.412L473.559 409.6C467.257 391.59 461.664 373.339 456.795 354.89C453.368 341.801 449.775 324.955 447.215 312.733C448.743 312.939 450.271 313.105 451.799 313.27C445.729 301.708 436.81 282.756 430.286 258.023C422.235 227.427 424.299 212.852 415.793 186.426C411.375 172.8 403.076 152.733 386.147 130.188C385.792 119.428 382.831 108.915 377.517 99.551C374.132 93.5639 370.168 88.8155 366.493 85.182C360.175 79.0297 354.147 72.6297 348.532 65.7755C340.397 55.7832 327.391 43.1897 308.356 34.1884C285.977 23.5768 265.621 22.8336 254.968 23.2052C254.968 23.2052 313.93 69.2852 331.024 156.449C332.346 163.303 333.419 170.446 334.204 177.796C340.521 237.956 353.899 296.588 363.726 334.121C370.374 359.639 375.412 375.412 375.412 375.412C375.412 375.412 405.223 450.23 268.759 452.129L271.525 482.601C273.879 485.492 277.058 488.919 281.311 492.305C285.399 495.566 289.363 497.879 292.583 499.53C292.743 493.649 294.18 487.872 296.795 482.601C300.346 486.772 305.548 491.974 312.774 496.723C317.646 499.943 322.312 502.173 326.276 503.742C326.441 500.439 326.978 496.103 328.506 491.231C330.281 485.657 332.717 481.321 334.699 478.348C335.773 481.115 337.548 484.872 340.604 488.712C342.957 491.603 345.352 493.75 347.334 495.277C349.481 492.057 352.248 488.382 355.84 484.666C360.258 480.041 364.676 476.614 368.392 474.137C370.292 476.573 372.934 480.578 374.751 485.987C376.609 491.52 376.857 496.351 376.815 499.53C386.505 493.691 393.928 484.739 397.874 474.137C399.814 474.756 402.457 475.871 405.223 477.812C407.535 479.422 409.27 481.156 410.508 482.601C412.738 480.083 415.339 476.738 417.652 472.403C420.238 467.644 422.09 462.521 423.143 457.208C424.795 460.594 428.387 466.87 435.406 472.031C439.31 474.929 443.722 477.071 448.413 478.348C447.174 474.137 446.059 469.512 445.151 464.392C444.614 461.172 444.201 458.116 443.912 455.226Z" fill="#C4A857"/>
<path d="M148.662 327.994L126.906 338.832L118.966 321.16C118.69 320.548 118.27 320.012 117.74 319.599C117.211 319.186 116.589 318.908 115.928 318.789C115.267 318.671 114.587 318.716 113.947 318.919C113.307 319.123 112.727 319.48 112.256 319.959C109.626 322.633 106.978 325.29 104.312 327.928C103.973 324.707 103.498 320.26 102.829 314.104C102.756 313.421 102.513 312.767 102.122 312.202C101.731 311.637 101.205 311.18 100.591 310.871C99.9789 310.561 99.2991 310.409 98.613 310.427C97.927 310.445 97.2561 310.633 96.6606 310.974L80.9167 320.074L79.7068 309.062C79.6388 308.455 79.4372 307.871 79.1164 307.351C78.7957 306.831 78.3639 306.389 77.8519 306.055C77.3399 305.722 76.7605 305.507 76.1553 305.424C75.5501 305.341 74.9341 305.394 74.3515 305.577L69.1365 307.229C68.0929 307.561 67.2238 308.294 66.7205 309.266C66.2172 310.239 66.1208 311.371 66.4527 312.415C66.7845 313.459 67.5173 314.328 68.4898 314.831C69.4624 315.334 70.5951 315.431 71.6387 315.099L72.0475 314.971L73.3977 327.267C73.4735 327.949 73.718 328.601 74.109 329.165C74.5 329.729 75.0253 330.187 75.6374 330.497C76.2495 330.807 76.9292 330.96 77.6151 330.942C78.301 330.924 78.9717 330.735 79.5665 330.393L95.3063 321.297C96.0619 328.312 96.863 335.851 96.9125 336.557C96.9125 338.234 97.9365 339.766 99.489 340.402C102.231 341.541 102.511 341.611 113.916 330.05L121.142 346.137C121.465 346.864 121.994 347.482 122.662 347.915C123.331 348.347 124.111 348.576 124.907 348.573C125.539 348.573 126.171 348.428 126.749 348.143L152.349 335.381C152.846 335.146 153.292 334.815 153.66 334.405C154.027 333.996 154.31 333.518 154.49 332.998C154.67 332.478 154.744 331.928 154.709 331.379C154.673 330.83 154.529 330.294 154.283 329.802C154.037 329.309 153.696 328.871 153.278 328.513C152.861 328.155 152.376 327.883 151.853 327.715C151.329 327.547 150.777 327.484 150.229 327.532C149.681 327.58 149.148 327.737 148.662 327.994ZM133.752 127.806L134.148 127.562L132.695 140.036C132.6 140.84 132.745 141.655 133.111 142.377C133.476 143.1 134.047 143.699 134.751 144.099C135.454 144.502 136.261 144.688 137.069 144.635C137.878 144.581 138.653 144.29 139.297 143.798L147.489 137.563L151.052 148.071C151.227 148.585 151.5 149.059 151.858 149.467C152.216 149.874 152.65 150.208 153.136 150.447C153.623 150.687 154.152 150.829 154.693 150.864C155.234 150.9 155.777 150.828 156.29 150.654C156.804 150.48 157.278 150.206 157.685 149.848C158.093 149.491 158.426 149.056 158.666 148.57C158.906 148.084 159.048 147.555 159.083 147.014C159.119 146.473 159.047 145.93 158.873 145.416L153.46 129.478C153.248 128.859 152.892 128.3 152.422 127.845C151.953 127.39 151.381 127.053 150.756 126.862C150.131 126.67 149.469 126.63 148.825 126.744C148.181 126.858 147.573 127.123 147.051 127.517L142.014 131.349L143.327 120.052C143.413 119.282 143.282 118.504 142.948 117.806C142.615 117.107 142.091 116.516 141.438 116.1C140.785 115.684 140.029 115.46 139.255 115.453C138.481 115.445 137.72 115.655 137.059 116.059L129.412 120.774C128.95 121.059 128.549 121.432 128.232 121.872C127.914 122.312 127.687 122.81 127.562 123.338C127.437 123.866 127.417 124.414 127.503 124.949C127.59 125.485 127.781 125.998 128.066 126.46C128.351 126.922 128.724 127.323 129.164 127.64C129.604 127.958 130.102 128.185 130.63 128.31C131.158 128.435 131.706 128.455 132.241 128.369C132.777 128.282 133.29 128.091 133.752 127.806ZM250.054 164.327C257.851 168.369 266.097 171.477 274.622 173.589C275.3 173.757 276.009 173.751 276.684 173.571C277.358 173.39 277.976 173.041 278.479 172.557C278.982 172.072 279.354 171.468 279.56 170.801C279.765 170.133 279.798 169.425 279.655 168.741L278.02 160.875C280.89 162.494 283.83 163.993 286.823 165.368C291.971 167.708 297.283 169.669 302.716 171.235C304.917 171.871 307.196 170.599 307.823 168.407C308.451 166.214 307.192 163.927 304.995 163.299C299.957 161.848 295.031 160.029 290.259 157.857C284.7 155.306 279.362 152.298 274.3 148.864C273.617 148.401 272.812 148.153 271.987 148.152C271.163 148.151 270.357 148.397 269.673 148.858C268.989 149.319 268.459 149.974 268.151 150.739C267.844 151.504 267.772 152.344 267.945 153.15C268.709 156.676 269.448 160.215 270.191 163.762C264.565 161.98 259.103 159.717 253.865 156.998C247.641 153.744 241.759 149.872 236.309 145.441C235.888 145.098 235.405 144.842 234.885 144.687C234.366 144.531 233.821 144.48 233.282 144.536C232.742 144.591 232.219 144.753 231.743 145.011C231.266 145.269 230.845 145.619 230.503 146.04C230.161 146.46 229.904 146.944 229.749 147.463C229.593 147.982 229.542 148.527 229.598 149.067C229.653 149.606 229.815 150.129 230.073 150.606C230.331 151.083 230.681 151.504 231.102 151.845C236.982 156.635 243.332 160.817 250.054 164.327ZM313.394 165.863C313.936 165.864 314.473 165.757 314.974 165.55C315.475 165.342 315.93 165.037 316.313 164.653C318.106 162.871 319.599 160.81 320.735 158.551C321.003 157.997 321.255 157.432 321.482 156.862C321.862 157.126 322.238 157.44 322.605 157.795C323.782 158.943 324.463 160.202 324.831 161.049C325.105 161.683 325.533 162.238 326.077 162.664C326.62 163.09 327.262 163.373 327.943 163.488C328.624 163.602 329.323 163.544 329.976 163.32C330.628 163.095 331.215 162.71 331.681 162.201C332.615 161.155 333.497 160.064 334.324 158.931C335.938 156.779 337.214 154.835 338.321 152.853C340.231 149.515 341.787 145.986 342.962 142.324C343.129 141.808 343.193 141.264 343.15 140.723C343.107 140.182 342.958 139.656 342.712 139.172C342.465 138.689 342.126 138.26 341.713 137.908C341.3 137.556 340.823 137.288 340.307 137.121C339.791 136.954 339.247 136.89 338.706 136.933C338.165 136.976 337.639 137.124 337.155 137.371C336.18 137.869 335.442 138.734 335.104 139.776C334.1 142.91 332.768 145.93 331.132 148.786C330.463 149.979 329.728 151.147 328.865 152.39C326.368 149.787 323.163 147.973 319.645 147.175C319.093 147.053 318.521 147.045 317.966 147.153C317.411 147.261 316.884 147.482 316.417 147.802C315.951 148.123 315.556 148.535 315.256 149.015C314.956 149.494 314.758 150.031 314.674 150.59C314.451 152.075 314.003 153.518 313.344 154.868C312.602 156.327 311.633 157.659 310.474 158.815C309.895 159.392 309.5 160.127 309.34 160.929C309.179 161.73 309.261 162.562 309.573 163.317C309.886 164.072 310.416 164.717 311.096 165.171C311.777 165.624 312.576 165.865 313.394 165.863ZM355.832 148.711C357.091 146.519 358.165 144.235 359.057 141.89C359.589 140.428 360.043 138.958 360.419 137.472C362.973 139.024 365.358 140.84 367.533 142.889C368.123 143.45 368.864 143.824 369.665 143.964C370.466 144.105 371.291 144.005 372.036 143.679C372.781 143.353 373.413 142.814 373.852 142.13C374.292 141.446 374.52 140.647 374.507 139.834C374.455 136.192 374.309 132.551 374.07 128.917C375.102 129.519 376.134 130.085 377.179 130.634C377.66 130.885 378.186 131.039 378.726 131.087C379.266 131.135 379.811 131.076 380.329 130.913C380.846 130.751 381.327 130.488 381.743 130.14C382.159 129.791 382.502 129.365 382.753 128.884C383.004 128.403 383.158 127.877 383.206 127.337C383.254 126.796 383.195 126.252 383.032 125.734C382.87 125.216 382.607 124.736 382.258 124.32C381.91 123.904 381.483 123.56 381.002 123.309C377.698 121.568 374.526 119.588 371.51 117.384C370.854 116.915 370.075 116.649 369.269 116.616C368.464 116.584 367.666 116.788 366.975 117.203C366.284 117.618 365.729 118.226 365.378 118.952C365.028 119.678 364.897 120.491 365.002 121.29C365.423 124.346 365.733 127.666 365.935 131.175C363.727 129.747 361.403 128.506 358.986 127.467C358.395 127.215 357.753 127.104 357.111 127.144C356.469 127.184 355.846 127.373 355.29 127.697C354.734 128.021 354.262 128.47 353.911 129.008C353.56 129.547 353.34 130.16 353.268 130.799C352.945 133.603 352.289 136.359 351.315 139.008C350.596 140.907 349.704 142.794 348.66 144.615C348.116 145.566 347.973 146.694 348.262 147.751C348.55 148.807 349.247 149.706 350.198 150.249C351.149 150.792 352.277 150.936 353.333 150.647C354.39 150.359 355.289 149.662 355.832 148.711ZM151.697 278.177C150.982 274.651 152.118 271.715 152.853 270.274C153.206 269.587 153.359 268.814 153.295 268.044C153.231 267.274 152.952 266.537 152.49 265.918C152.028 265.298 151.402 264.821 150.682 264.54C149.962 264.259 149.178 264.186 148.418 264.328C145.336 264.906 142.364 265.965 139.611 267.466C138.263 268.22 136.976 269.079 135.763 270.035C135.559 266.651 136.073 263.263 137.27 260.092C139.594 253.902 143.967 250.261 146.366 248.646C148.257 247.366 148.753 244.802 147.481 242.911C146.209 241.02 143.641 240.529 141.746 241.796C136.191 245.543 131.929 250.915 129.544 257.177C125.457 267.945 128.45 277.393 129.466 280.027C129.731 280.724 130.181 281.337 130.767 281.799C131.353 282.261 132.053 282.555 132.793 282.65C133.533 282.745 134.285 282.637 134.969 282.338C135.653 282.039 136.242 281.56 136.675 280.952C138.412 278.5 140.644 276.44 143.228 274.907C143.144 276.544 143.267 278.185 143.595 279.791C145.453 289.309 153.489 293.768 155.921 294.912L159.426 287.434C157.902 286.712 152.82 283.916 151.697 278.177ZM253.18 238.815C252.17 238.393 251.034 238.388 250.02 238.801C249.007 239.215 248.198 240.012 247.771 241.02C246.129 244.923 244.598 248.872 243.179 252.862C242.531 254.723 241.908 256.594 241.313 258.473C237.508 252.987 235.433 246.487 235.355 239.81C235.344 238.99 235.089 238.191 234.623 237.516C234.157 236.841 233.5 236.32 232.737 236.019C231.973 235.718 231.138 235.652 230.336 235.827C229.535 236.003 228.804 236.414 228.236 237.006C224.583 240.855 220.377 244.139 215.758 246.751C217.909 243.772 219.946 240.713 221.865 237.58C224.899 232.596 227.634 227.437 230.057 222.13C230.284 221.637 230.412 221.105 230.433 220.563C230.454 220.022 230.368 219.481 230.181 218.973C229.993 218.464 229.706 217.998 229.338 217.6C228.97 217.202 228.527 216.881 228.034 216.654C227.542 216.426 227.01 216.297 226.468 216.275C225.925 216.253 225.384 216.338 224.875 216.526C224.366 216.714 223.9 217.001 223.502 217.371C223.105 217.74 222.784 218.184 222.559 218.678C220.27 223.69 217.686 228.563 214.821 233.27C210.45 240.409 205.433 247.132 199.833 253.353C199.245 254.007 198.882 254.831 198.795 255.706C198.708 256.581 198.902 257.46 199.349 258.217C199.796 258.974 200.472 259.569 201.281 259.915C202.089 260.261 202.986 260.34 203.842 260.141C212.698 258.084 220.977 254.058 228.063 248.361C228.913 252.276 230.33 256.046 232.27 259.551C234.388 263.384 237.118 266.846 240.351 269.799C240.87 270.279 241.504 270.618 242.191 270.783C242.879 270.949 243.597 270.934 244.278 270.742C244.959 270.55 245.578 270.186 246.078 269.685C246.577 269.185 246.94 268.564 247.131 267.883C248.332 263.573 249.592 259.551 250.971 255.599C252.288 251.875 253.779 248.043 255.385 244.216C255.807 243.207 255.813 242.072 255.399 241.059C254.986 240.047 254.188 239.24 253.18 238.815ZM372.249 248.861C371.619 248.285 370.827 247.919 369.981 247.812C369.135 247.704 368.276 247.862 367.523 248.262C366.77 248.663 366.16 249.287 365.776 250.048C365.392 250.81 365.253 251.671 365.378 252.515C366.363 258.962 365.09 265.551 361.773 271.166C361.479 271.634 361.282 272.156 361.194 272.702C361.105 273.247 361.127 273.805 361.258 274.342C361.389 274.879 361.627 275.385 361.957 275.828C362.287 276.272 362.702 276.644 363.179 276.924C363.656 277.204 364.184 277.385 364.732 277.457C365.28 277.529 365.837 277.49 366.37 277.343C366.902 277.196 367.4 276.943 367.833 276.6C368.267 276.256 368.627 275.829 368.892 275.344C370.449 272.709 371.666 269.887 372.513 266.946C373.145 264.788 373.572 262.574 373.789 260.335C375.862 261.636 378.244 262.933 380.936 264.093C385.733 266.127 390.805 267.439 395.987 267.987C396.757 268.068 397.534 267.931 398.231 267.591C398.927 267.252 399.513 266.723 399.923 266.066C400.333 265.409 400.55 264.649 400.549 263.875C400.548 263.1 400.329 262.342 399.917 261.686C397.995 258.623 396.565 255.278 395.681 251.772C394.832 248.331 394.509 244.781 394.723 241.243C394.759 240.166 394.372 239.119 393.646 238.323C392.919 237.528 391.911 237.047 390.836 236.985C389.761 236.922 388.703 237.283 387.89 237.989C387.076 238.695 386.571 239.69 386.482 240.764C386.107 246.702 386.985 252.652 389.058 258.23C382.822 256.411 377.076 253.208 372.249 248.861ZM200.043 397.878C198.233 394.16 196.994 390.19 196.369 386.102C196.249 385.306 195.899 384.563 195.362 383.964C194.825 383.365 194.125 382.936 193.347 382.73C192.57 382.523 191.749 382.549 190.986 382.803C190.222 383.058 189.55 383.53 189.052 384.161C186.177 387.81 182.434 390.68 178.164 392.51C179.534 390.536 180.823 388.608 182.045 386.7C184.764 382.511 187.334 378.226 189.75 373.855C190.022 373.379 190.197 372.854 190.265 372.31C190.332 371.766 190.291 371.214 190.142 370.686C189.994 370.158 189.742 369.665 189.402 369.236C189.061 368.806 188.638 368.449 188.158 368.185C187.677 367.92 187.149 367.754 186.604 367.696C186.059 367.638 185.507 367.689 184.982 367.847C184.457 368.004 183.968 368.264 183.545 368.613C183.121 368.961 182.772 369.39 182.516 369.875C180.19 374.08 177.717 378.202 175.1 382.233C171.961 387.095 168.624 391.825 165.095 396.412C164.62 397.035 164.332 397.781 164.264 398.562C164.197 399.342 164.354 400.126 164.715 400.822C165.459 402.246 166.966 403.196 168.551 403.039C172.47 402.874 178.461 401.949 184.754 398.476C186.603 397.448 188.346 396.263 189.981 394.934C192.377 402.498 196.627 409.344 202.343 414.848C203.139 415.564 204.181 415.943 205.251 415.906C206.32 415.868 207.334 415.418 208.078 414.649C208.822 413.879 209.239 412.851 209.24 411.781C209.242 410.711 208.828 409.682 208.087 408.91C204.787 405.726 202.066 401.993 200.043 397.878ZM333.989 356.868C331.512 352.072 329.382 347.104 327.614 342.004C327.449 341.475 327.178 340.984 326.819 340.562C326.461 340.14 326.02 339.794 325.525 339.545C325.03 339.297 324.489 339.151 323.936 339.115C323.383 339.08 322.829 339.156 322.306 339.34C321.783 339.523 321.302 339.81 320.892 340.184C320.483 340.557 320.152 341.009 319.921 341.512C319.69 342.016 319.562 342.561 319.546 343.115C319.53 343.669 319.625 344.221 319.827 344.737C321.717 350.199 323.998 355.519 326.652 360.654C328.572 364.395 330.707 368.062 333.035 371.621C331.059 371.044 329.108 370.381 327.189 369.635C322.722 367.847 318.438 365.632 314.397 363.02C313.703 362.569 312.89 362.337 312.063 362.353C311.236 362.37 310.433 362.635 309.758 363.115C309.084 363.594 308.569 364.264 308.281 365.04C307.992 365.815 307.944 366.66 308.141 367.463C309.529 373.153 310.198 379.062 310.132 385.04C310.121 386.879 310.04 388.716 309.888 390.549C309.488 389.998 309.08 389.453 308.666 388.914C305.785 385.227 302.526 381.851 298.942 378.843C298.399 378.39 297.749 378.084 297.054 377.954C296.359 377.824 295.642 377.875 294.973 378.102C294.303 378.329 293.703 378.724 293.229 379.249C292.756 379.774 292.426 380.412 292.269 381.101C291.191 386.01 289.421 390.741 287.013 395.152C284.015 400.645 280.093 405.58 275.419 409.74C274.615 410.474 274.133 411.495 274.078 412.582C274.023 413.669 274.399 414.734 275.125 415.545C275.851 416.356 276.868 416.848 277.955 416.913C279.041 416.978 280.109 416.611 280.927 415.893C286.3 411.103 290.81 405.426 294.26 399.108C295.895 396.123 297.278 392.968 298.413 389.665C299.718 391.044 300.978 392.498 302.146 393.984C304.573 397.129 306.682 400.506 308.443 404.067C308.818 404.825 309.416 405.45 310.157 405.857C310.898 406.264 311.747 406.434 312.587 406.344C313.428 406.254 314.221 405.908 314.859 405.353C315.497 404.798 315.95 404.061 316.156 403.241C317.597 397.44 318.344 391.333 318.386 385.111C318.427 381.535 318.225 377.972 317.791 374.458C325.385 378.298 333.579 380.813 342.02 381.894C342.832 381.997 343.657 381.857 344.389 381.49C345.121 381.123 345.727 380.547 346.13 379.835C346.534 379.122 346.716 378.306 346.654 377.49C346.592 376.673 346.288 375.894 345.782 375.251C341.275 369.512 337.326 363.357 333.989 356.868ZM440.469 319.009C439.859 315.511 438.626 312.152 436.827 309.091C436.554 308.623 436.192 308.212 435.76 307.884C435.329 307.556 434.837 307.315 434.313 307.177C433.789 307.038 433.243 307.005 432.706 307.077C432.169 307.15 431.651 307.328 431.182 307.601C430.714 307.873 430.304 308.236 429.975 308.667C429.647 309.098 429.407 309.59 429.268 310.114C429.13 310.638 429.096 311.184 429.169 311.722C429.241 312.259 429.419 312.776 429.692 313.245C431.017 315.524 431.905 317.935 432.33 320.392C432.475 321.268 432.566 322.106 432.603 322.899C430.508 321.486 428.363 320.147 426.174 318.885C420.929 315.913 415.433 313.41 409.749 311.403C409.05 311.154 408.298 311.098 407.571 311.24C406.843 311.382 406.167 311.717 405.614 312.211C405.061 312.704 404.65 313.337 404.426 314.044C404.202 314.75 404.172 315.504 404.34 316.226C405.312 320.364 405.7 324.619 405.492 328.865C404.567 327.971 403.625 327.094 402.667 326.235C400.644 324.443 398.534 322.725 396.218 320.987C395.664 320.571 395.015 320.301 394.33 320.201C393.645 320.102 392.946 320.176 392.297 320.418C391.649 320.659 391.071 321.06 390.617 321.583C390.164 322.106 389.849 322.734 389.702 323.411C388.394 329.264 385.677 334.709 381.787 339.274C378.607 337.113 375.294 335.153 371.869 333.407C369.594 332.251 367.451 331.223 365.308 330.306C363.096 329.366 360.846 328.517 358.565 327.758C358.05 327.59 357.506 327.524 356.965 327.565C356.425 327.606 355.897 327.753 355.413 327.998C354.929 328.243 354.499 328.581 354.145 328.993C353.792 329.404 353.523 329.881 353.354 330.397C353.185 330.912 353.12 331.456 353.161 331.997C353.202 332.537 353.349 333.065 353.594 333.549C353.839 334.033 354.177 334.463 354.589 334.817C355 335.17 355.477 335.439 355.993 335.608C357.921 336.235 359.965 337.028 362.095 337.916C364.04 338.75 366.022 339.708 368.124 340.773C372.241 342.867 376.196 345.315 379.883 348.048C380.672 348.635 381.644 348.92 382.624 348.854C383.604 348.787 384.528 348.373 385.23 347.685C389.947 343.078 393.601 337.496 395.937 331.33C396.358 331.685 396.767 332.044 397.176 332.404C400.028 334.958 402.718 337.687 405.231 340.575C405.729 341.151 406.377 341.578 407.102 341.809C407.828 342.039 408.603 342.065 409.342 341.883C410.081 341.701 410.755 341.318 411.291 340.777C411.826 340.236 412.201 339.557 412.375 338.816C413.687 333.247 414.097 327.503 413.589 321.804C416.524 323.093 419.336 324.496 422.061 326.049C425.992 328.316 429.807 330.88 433.408 333.667C433.946 334.084 434.579 334.361 435.25 334.474C435.921 334.587 436.61 334.532 437.254 334.315C437.899 334.097 438.48 333.724 438.946 333.228C439.412 332.731 439.747 332.128 439.924 331.47C440.984 327.402 441.169 323.155 440.469 319.009Z" fill="#9E8547"/>
</g>
<defs>
<clipPath id="clip0_17_61">
<rect width="512" height="512" fill="white"/>
</clipPath>
</defs>
</svg>
