<svg width="512" height="512" viewBox="0 0 512 512" fill="none" xmlns="http://www.w3.org/2000/svg">
<g clip-path="url(#clip0_17_93)">
<path d="M74.9131 172.31C74.7351 172.349 74.5561 172.387 74.3791 172.44C58.5801 177.136 41.5661 173.703 28.8611 163.246C21.0221 156.795 16.1641 147.676 15.1831 137.57C14.2021 127.465 17.2151 117.582 23.6661 109.742C28.5731 103.78 35.5081 100.086 43.1931 99.34C50.8831 98.592 58.3951 100.885 64.3581 105.792C66.5567 107.591 68.3766 109.809 69.7124 112.316C71.0482 114.824 71.8733 117.571 72.1401 120.4C72.4226 123.227 72.1414 126.082 71.3129 128.8C70.4843 131.517 69.1248 134.043 67.3131 136.232C66.093 137.773 65.5261 139.73 65.7342 141.684C65.9424 143.638 66.909 145.433 68.4262 146.682C69.9434 147.931 71.8901 148.534 73.8477 148.363C75.8054 148.192 77.6177 147.259 78.8951 145.766C85.1121 138.212 88.0151 128.689 87.0691 118.952C86.1241 109.214 81.4431 100.428 73.8891 94.211C64.8331 86.758 53.4181 83.277 41.7431 84.411C30.0691 85.544 19.5361 91.156 12.0831 100.212C3.08506 111.145 -1.11694 124.928 0.252058 139.021C1.62006 153.115 8.39506 165.833 19.3281 174.83C30.3662 183.921 44.1199 189.072 58.4141 189.469C63.3403 183.224 68.8664 177.477 74.9131 172.31ZM305.634 358.525H298.106L324.99 426.904C325.578 428.399 326.603 429.683 327.931 430.588C329.259 431.493 330.828 431.977 332.435 431.977H356.821C358.943 431.977 360.978 431.134 362.478 429.634C363.978 428.134 364.821 426.099 364.821 423.977V339.773C348.065 351.581 327.646 358.525 305.634 358.525Z" fill="#FFB09E"/>
<path d="M364.822 404.919V339.773C358.259 344.395 351.178 348.233 343.723 351.21V404.919H364.822Z" fill="#F89580"/>
<path d="M178.105 405.919V358.525H111.329L129.963 405.919H178.105Z" fill="#FFB09E"/>
<path d="M157.005 358.525H178.104V405.919H157.005V358.525Z" fill="#F89580"/>
<path d="M400.996 293.811H347.16C319.928 293.811 295.665 277.527 285.348 252.326L272.414 220.738C264.618 201.699 266.131 179.707 276.461 161.91L277.086 160.833L275.905 160.437C267.508 157.625 260.074 153.023 253.809 146.758C252.423 145.36 251.11 143.892 249.874 142.36H153.254C86.0251 142.36 31.5251 196.86 31.5251 264.089V405.917H82.9251L92.5741 372.866C93.8308 368.993 96.2818 365.617 99.5757 363.222C102.87 360.828 106.837 359.538 110.909 359.538H197.495C205.904 359.538 212.721 366.355 212.721 374.764V405.916H264.121L273.77 372.865C275.027 368.992 277.478 365.616 280.772 363.221C284.066 360.827 288.033 359.537 292.105 359.537H305.634C349.569 359.537 387.141 332.295 402.382 293.782C401.921 293.795 401.46 293.811 400.996 293.811Z" fill="#FFCEBF"/>
<path d="M264.121 405.919L273.77 372.868C275.027 368.995 277.478 365.619 280.772 363.224C284.065 360.83 288.033 359.54 292.105 359.54H271.283C267.211 359.54 263.243 360.83 259.949 363.224C256.655 365.618 254.204 368.994 252.948 372.868L243.299 405.919H264.121ZM82.925 405.919L92.574 372.868C93.8307 368.995 96.2817 365.619 99.5756 363.224C102.869 360.83 106.837 359.54 110.909 359.54H90.087C86.0148 359.54 82.0472 360.83 78.7533 363.224C75.4594 365.618 73.0084 368.994 71.752 372.868L62.103 405.919H82.925Z" fill="#FFB09E"/>
<path d="M280.813 155.325L308.388 118.599C312.545 113.063 317.762 108.492 323.633 105.068C321.579 102.04 319.243 99.2136 316.656 96.626C294.93 74.9 260.233 74.072 237.504 94.119C233.423 112.745 238.607 132.994 253.091 147.477C259.898 154.284 267.98 159.039 276.567 161.743C277.856 159.523 279.274 157.38 280.813 155.325Z" fill="#FDB4BA"/>
<path d="M316.656 96.625C294.93 74.899 260.233 74.071 237.504 94.118C236.17 100.242 235.834 106.54 236.508 112.771C258.405 101.043 286.249 104.398 304.722 122.87C304.81 122.958 304.891 123.051 304.979 123.139L308.389 118.598C312.546 113.062 317.763 108.491 323.634 105.067C321.579 102.04 319.242 99.2133 316.656 96.625Z" fill="#FE99A0"/>
<path d="M510.652 94.1189C487.923 74.0719 453.226 74.8989 431.5 96.6259C428.914 99.2143 426.578 102.041 424.523 105.068C430.394 108.492 435.611 113.063 439.767 118.599L467.342 155.325C468.881 157.38 470.299 159.523 471.588 161.744C480.175 159.039 488.256 154.285 495.064 147.478C509.549 132.993 514.733 112.745 510.652 94.1189Z" fill="#FDB4BA"/>
<path d="M424.714 104.801C424.652 104.891 424.585 104.978 424.523 105.068C424.769 105.212 425.007 105.369 425.251 105.517L424.714 104.801ZM510.652 94.1189C504.956 89.093 498.322 85.2443 491.132 82.7949C491.752 98.3619 486.14 114.128 474.255 126.013C468.74 131.533 462.161 135.876 454.918 138.777L467.342 155.324C468.881 157.379 470.299 159.522 471.588 161.743C480.175 159.038 488.256 154.284 495.064 147.477C509.549 132.993 514.733 112.745 510.652 94.1189Z" fill="#FE99A0"/>
<path d="M468.155 154.715L440.58 117.99C435.681 111.465 429.331 106.17 422.031 102.523C414.732 98.8755 406.685 96.9769 398.525 96.9769H349.632C341.473 96.9769 333.425 98.8755 326.126 102.523C318.827 106.17 312.476 111.465 307.577 117.99L280.002 154.715C272.956 164.1 268.465 175.153 266.971 186.793C265.476 198.433 267.028 210.262 271.474 221.123L284.407 252.71C294.837 278.184 319.633 294.826 347.16 294.826H400.997C428.524 294.826 453.32 278.185 463.75 252.71L476.683 221.123C481.129 210.262 482.681 198.433 481.186 186.793C479.692 175.153 475.201 164.1 468.155 154.715Z" fill="#FFDFCF"/>
<path d="M468.155 154.715L440.58 117.99C435.681 111.465 429.33 106.17 422.031 102.523C414.732 98.8755 406.684 96.9769 398.525 96.9769H366.48C374.64 96.9769 382.687 98.8755 389.986 102.523C397.285 106.17 403.636 111.465 408.535 117.99L436.11 154.715C443.157 164.1 447.647 175.153 449.142 186.793C450.637 198.433 449.085 210.262 444.638 221.123L431.705 252.71C421.275 278.184 396.479 294.826 368.952 294.826H400.997C428.524 294.826 453.32 278.185 463.75 252.71L476.683 221.123C481.129 210.262 482.681 198.433 481.186 186.793C479.691 175.153 475.201 164.1 468.155 154.715Z" fill="#FFCEBF"/>
<path d="M391.055 264.533H357.102C339.811 264.533 325.664 250.386 325.664 233.095C325.664 215.804 339.811 201.657 357.102 201.657H391.055C408.346 201.657 422.493 215.804 422.493 233.095C422.493 250.386 408.346 264.533 391.055 264.533Z" fill="#FDB4BA"/>
<path d="M391.055 201.656H359.258C372.229 201.656 383.431 209.617 388.219 220.895C389.341 220.549 390.528 220.472 391.686 220.669C392.843 220.866 393.938 221.332 394.882 222.029C395.826 222.727 396.594 223.636 397.122 224.684C397.651 225.732 397.926 226.89 397.926 228.064V234.351C397.926 238.494 394.569 241.851 390.426 241.851C390.102 241.849 389.779 241.826 389.458 241.782C385.664 254.881 373.537 264.533 359.258 264.533H391.055C408.346 264.533 422.493 250.386 422.493 233.095C422.493 215.804 408.346 201.656 391.055 201.656Z" fill="#FE99A0"/>
<path d="M357.73 241.852C356.745 241.852 355.77 241.658 354.86 241.281C353.95 240.904 353.123 240.352 352.426 239.656C351.73 238.959 351.177 238.132 350.801 237.222C350.424 236.312 350.23 235.337 350.23 234.352V228.065C350.23 223.922 353.587 220.565 357.73 220.565C361.873 220.565 365.23 223.922 365.23 228.065V234.352C365.23 236.341 364.44 238.249 363.033 239.655C361.627 241.062 359.719 241.852 357.73 241.852ZM390.426 241.852C389.441 241.852 388.466 241.658 387.556 241.281C386.646 240.904 385.819 240.352 385.122 239.656C384.426 238.959 383.873 238.132 383.497 237.222C383.12 236.312 382.926 235.337 382.926 234.352V228.065C382.926 223.922 386.283 220.565 390.426 220.565C394.569 220.565 397.926 223.922 397.926 228.065V234.352C397.926 236.341 397.136 238.249 395.729 239.655C394.323 241.062 392.415 241.852 390.426 241.852Z" fill="#FE646F"/>
<path d="M338.262 181.091C337.277 181.091 336.302 180.897 335.392 180.52C334.482 180.144 333.655 179.591 332.958 178.895C332.262 178.198 331.709 177.371 331.333 176.461C330.956 175.551 330.762 174.576 330.762 173.591V163.427C330.762 159.284 334.119 155.927 338.262 155.927C342.405 155.927 345.762 159.284 345.762 163.427V173.591C345.762 175.58 344.972 177.488 343.565 178.894C342.159 180.301 340.251 181.091 338.262 181.091ZM409.333 181.091C408.348 181.091 407.373 180.897 406.463 180.52C405.553 180.144 404.726 179.591 404.029 178.895C403.333 178.198 402.78 177.371 402.404 176.461C402.027 175.551 401.833 174.576 401.833 173.591V163.427C401.833 159.284 405.19 155.927 409.333 155.927C413.476 155.927 416.833 159.284 416.833 163.427V173.591C416.833 175.58 416.043 177.488 414.636 178.894C413.23 180.301 411.322 181.091 409.333 181.091Z" fill="#7A6D79"/>
<path d="M316.346 404.919L324.99 426.904C325.578 428.399 326.603 429.683 327.931 430.588C329.259 431.493 330.828 431.977 332.435 431.977H356.821C358.943 431.977 360.978 431.134 362.478 429.634C363.978 428.133 364.821 426.099 364.821 423.977V404.919H316.346Z" fill="#918291"/>
<path d="M343.722 431.977H356.821C358.943 431.977 360.978 431.134 362.478 429.634C363.978 428.133 364.821 426.099 364.821 423.977V404.919H343.722V431.977Z" fill="#7A6D79"/>
<path d="M178.105 404.919V423.977C178.105 426.099 177.262 428.133 175.762 429.634C174.262 431.134 172.227 431.977 170.105 431.977H145.659C144.052 431.977 142.483 431.493 141.155 430.588C139.827 429.683 138.802 428.399 138.214 426.904L129.57 404.919H178.105Z" fill="#918291"/>
<path d="M157.005 404.919V431.977H170.104C172.226 431.977 174.261 431.134 175.761 429.634C177.261 428.133 178.104 426.099 178.104 423.977V404.919H157.005Z" fill="#7A6D79"/>
<path d="M83.2171 404.919H31.5251V424.318C31.5251 426.44 32.368 428.475 33.8683 429.975C35.3686 431.475 37.4034 432.318 39.5251 432.318H69.2201C70.9507 432.318 72.6345 431.757 74.0191 430.718C75.4036 429.68 76.4142 428.221 76.8991 426.56L83.2171 404.919Z" fill="#918291"/>
<path d="M76.899 426.56L83.217 404.919H62.395L54.396 432.318H69.22C70.9505 432.318 72.6344 431.757 74.0189 430.718C75.4034 429.68 76.414 428.221 76.899 426.56Z" fill="#7A6D79"/>
<path d="M212.722 404.919V424.318C212.722 426.44 213.565 428.475 215.065 429.975C216.566 431.475 218.6 432.318 220.722 432.318H250.416C252.147 432.318 253.831 431.757 255.215 430.718C256.6 429.68 257.61 428.221 258.095 426.56L264.413 404.919H212.722Z" fill="#918291"/>
<path d="M258.096 426.56L259.793 420.749L264.414 404.919H243.592L235.593 432.318H250.416C252.147 432.318 253.831 431.756 255.215 430.718C256.6 429.68 257.611 428.221 258.096 426.56Z" fill="#7A6D79"/>
</g>
<defs>
<clipPath id="clip0_17_93">
<rect width="512" height="512" fill="white"/>
</clipPath>
</defs>
</svg>
