<svg width="512" height="512" viewBox="0 0 512 512" fill="none" xmlns="http://www.w3.org/2000/svg">
<g clip-path="url(#clip0_17_40)">
<path d="M191.382 270.939V422.75C191.382 430.237 185.315 436.315 177.817 436.315H161.026C153.528 436.315 147.461 430.237 147.461 422.75V270.939H191.382Z" fill="#87776F"/>
<path d="M147.462 270.939H191.382V332.206C182.346 328.103 174.131 322.39 167.139 315.347C161.487 316.985 155.631 317.814 149.746 317.812C148.985 317.812 148.224 317.801 147.463 317.766L147.462 270.939Z" fill="#6D615A"/>
<path d="M225.509 288.423V440.234C225.509 447.732 219.442 453.798 211.944 453.798H195.153C187.655 453.798 181.588 447.732 181.588 440.234V288.423H225.509Z" fill="#A59590"/>
<path d="M181.589 288.423H225.509V339.511C225.384 339.522 225.259 339.522 225.134 339.522C209.525 339.522 194.46 335.034 181.589 326.923V288.423ZM414.288 291.036V442.836C414.288 450.334 408.222 456.4 400.723 456.4H383.932C376.434 456.4 370.367 450.333 370.367 442.836V291.036H414.288Z" fill="#87776F"/>
<path d="M414.288 291.036V358.802C411.799 359.03 409.301 359.143 406.801 359.143C394.077 359.143 381.592 356.121 370.368 350.532V291.037L414.288 291.036Z" fill="#6D615A"/>
<path d="M442.257 304.635V456.446C442.257 463.933 436.191 470.01 428.692 470.01H411.901C404.403 470.01 398.336 463.932 398.336 456.446V304.635H442.257Z" fill="#A59590"/>
<path d="M442.257 304.635V351.088C431.34 356.359 419.275 359.143 406.801 359.143C403.961 359.143 401.143 358.995 398.337 358.689V304.635H442.257Z" fill="#87776F"/>
<path d="M55.7711 205.695C54.5901 218.021 52.0901 229.45 48.7281 239.118C42.0591 258.317 31.9601 270.655 21.8491 269.678C6.65908 268.224 -2.79292 237.21 0.74008 200.413C3.84108 168.115 15.9181 142.099 29.0961 137.203C30.9361 136.51 32.8001 136.237 34.6631 136.419C49.8521 137.884 59.3041 168.898 55.7711 205.695Z" fill="#A59590"/>
<path d="M55.7711 205.695C54.5901 218.021 52.0901 229.45 48.7281 239.118C33.9141 222.566 24.4731 201.083 23.1781 177.305C22.4103 163.674 24.4241 150.03 29.0971 137.202C30.9371 136.509 32.8011 136.236 34.6641 136.418C49.8521 137.884 59.3041 168.898 55.7711 205.695Z" fill="#87776F"/>
<path d="M512 218.34C512 245.526 495.22 268.781 471.466 278.347C470.966 313.644 442.224 342.102 406.802 342.102C388.216 342.102 371.471 334.252 359.678 321.698C347.886 337.478 329.05 347.691 307.828 347.691C284.346 347.691 263.783 335.172 252.445 316.438C244.152 320.312 234.904 322.482 225.134 322.482C203.208 322.482 183.85 311.565 172.16 294.887C165.322 298.752 157.6 300.779 149.746 300.772C130.285 300.772 113.665 288.582 107.121 271.405C105.152 266.223 104.147 260.725 104.156 255.182C104.156 230.007 124.571 209.592 149.746 209.592C158.675 209.581 167.408 212.205 174.853 217.135C175.719 216.074 176.613 215.036 177.534 214.022C174.944 207.331 173.569 200.333 173.569 193.13C173.569 179.668 178.363 166.921 186.906 155.561C183.064 147.154 181.08 138.017 181.089 128.773C181.089 105.166 193.733 84.5119 212.626 73.2199C222.317 67.4259 233.654 64.0969 245.776 64.0969C256.008 64.087 266.095 66.5172 275.2 71.1859C282.732 56.3829 298.103 46.2269 315.848 46.2269C337.183 46.2269 355.087 60.8819 360.063 80.6719C369.586 75.4501 380.274 72.7186 391.134 72.7309C426.863 72.7309 455.821 101.689 455.821 137.407C455.821 143.133 455.06 148.688 453.663 153.971C486.416 157.163 512 184.758 512 218.34Z" fill="#F9E8D4"/>
<path d="M512 218.34C512 245.526 495.22 268.781 471.466 278.347C470.966 313.644 442.224 342.102 406.802 342.102C388.477 342.102 371.948 334.468 360.19 322.221C369.54 327.492 380.332 330.491 391.829 330.491C427.251 330.491 455.993 302.033 456.493 266.736C480.248 257.17 497.028 233.915 497.028 206.729C497.028 189.347 490.178 173.579 479.021 161.957C498.708 173.034 512 194.13 512 218.34ZM265.93 228.314C262.192 256.443 247.799 264.327 239.551 266.508C237.131 267.153 234.637 267.477 232.133 267.473C218.137 267.473 205.606 257.68 195.506 243.275C177.204 261.543 151.961 272.846 124.128 272.846C118.428 272.851 112.739 272.368 107.121 271.403C105.152 266.221 104.147 260.723 104.156 255.18C104.156 230.005 124.571 209.59 149.746 209.59C158.675 209.579 167.408 212.203 174.853 217.133C175.719 216.072 176.613 215.034 177.534 214.02C174.944 207.329 173.569 200.331 173.569 193.128C173.569 179.666 178.363 166.919 186.906 155.559C183.064 147.152 181.08 138.015 181.089 128.771C181.089 105.164 193.733 84.51 212.626 73.218C219.317 78.626 224.714 85.635 228.179 93.747C231.372 101.233 232.806 109.352 232.371 117.479C245.39 131.044 255.501 152.515 261.181 173.873C266.328 193.267 268.02 212.603 265.93 228.314Z" fill="#EFCDB1"/>
<path d="M235.177 250.047C226.418 252.376 215.932 244.23 206.878 229.757C200.675 219.851 195.143 206.968 191.28 192.449C181.783 156.72 186.054 124.581 200.812 120.65C204.561 119.65 208.628 120.582 212.775 123.093C224.908 130.489 237.632 151.608 244.71 178.249C254.206 213.977 249.934 246.128 235.177 250.047Z" fill="#A59590"/>
<path d="M225.237 171.738C225.237 193.312 218.443 213.318 206.878 229.756C200.675 219.85 195.143 206.967 191.28 192.448C181.783 156.719 186.054 124.58 200.812 120.649C204.561 119.649 208.628 120.581 212.775 123.092C218.661 133.793 222.549 145.477 224.249 157.571C224.907 162.287 225.237 167.047 225.237 171.738Z" fill="#87776F"/>
<path d="M208.196 171.738C208.196 218.169 170.558 255.806 124.128 255.806C79.2541 255.806 42.5931 220.656 40.1961 176.384C40.1049 174.837 40.0596 173.287 40.0601 171.737C40.0601 125.306 77.6981 87.6689 124.128 87.6689C166.56 87.6689 201.641 119.104 207.378 159.945C207.921 163.853 208.194 167.793 208.196 171.738Z" fill="#A59590"/>
<path d="M207.378 159.946C205.021 161.42 202.552 162.707 199.994 163.797C193.386 166.634 186.27 168.095 179.079 168.091C168.606 168.101 158.362 165.028 149.624 159.254C140.886 153.48 134.042 145.261 129.945 135.623C129.587 134.792 129.254 133.951 128.945 133.101C125.378 135.821 121.485 138.084 117.357 139.838C110.688 142.678 103.656 144.121 96.454 144.121C94.954 144.121 93.455 144.053 91.967 143.928C86.684 156.391 76.732 166.626 63.725 172.17C57.056 175.01 50.024 176.453 42.81 176.453C41.935 176.453 41.06 176.43 40.197 176.385C40.1059 174.838 40.0606 173.288 40.061 171.738C40.061 125.307 77.699 87.6699 124.129 87.6699C166.559 87.6699 201.641 119.105 207.378 159.946Z" fill="#87776F"/>
<path d="M28.5371 89.607C39.1281 85.093 50.6641 86 60.0661 91.072C59.9341 76.821 68.2391 63.217 82.1671 57.28C93.7031 52.363 106.364 53.869 116.163 60.193C120.091 53.3573 126.143 47.9912 133.4 44.911C151.869 37.039 173.223 45.629 181.095 64.098C183.062 68.7015 184.054 73.663 184.006 78.669C196.239 80.361 207.306 88.243 212.501 100.43C220.373 118.899 211.783 140.253 193.314 148.125C174.845 155.997 153.491 147.407 145.619 128.938C143.652 124.334 142.661 119.373 142.708 114.367C137.436 113.637 132.386 111.765 127.913 108.88C123.985 115.715 117.933 121.081 110.676 124.162C100.085 128.676 88.5491 127.769 79.1471 122.697C79.2791 136.949 70.9741 150.553 57.0461 156.489C38.5771 164.361 17.2231 155.771 9.35113 137.302C1.47813 118.833 10.0681 97.48 28.5371 89.607Z" fill="#F9E8D4"/>
<path d="M87.7092 183.201C85.6601 183.201 83.695 182.387 82.246 180.938C80.7971 179.489 79.9832 177.524 79.9832 175.475V174.538C79.9832 172.489 80.7971 170.524 82.246 169.075C83.695 167.626 85.6601 166.812 87.7092 166.812C89.7582 166.812 91.7234 167.626 93.1723 169.075C94.6212 170.524 95.4352 172.489 95.4352 174.538V175.475C95.4353 176.49 95.2355 177.494 94.8473 178.432C94.4591 179.369 93.89 180.221 93.1726 180.938C92.4551 181.656 91.6033 182.225 90.6659 182.613C89.7285 183.001 88.7238 183.201 87.7092 183.201ZM151.088 183.201C149.039 183.201 147.074 182.387 145.625 180.938C144.176 179.489 143.362 177.524 143.362 175.475V174.538C143.362 172.489 144.176 170.524 145.625 169.075C147.074 167.626 149.039 166.812 151.088 166.812C153.137 166.812 155.102 167.626 156.551 169.075C158 170.524 158.814 172.489 158.814 174.538V175.475C158.814 176.49 158.615 177.494 158.226 178.432C157.838 179.369 157.269 180.221 156.552 180.938C155.834 181.656 154.982 182.225 154.045 182.613C153.108 183.001 152.103 183.201 151.088 183.201Z" fill="#87776F"/>
<path d="M405.048 144.308C402.999 144.308 401.034 143.494 399.585 142.045C398.136 140.596 397.322 138.631 397.322 136.582V135.645C397.322 133.596 398.136 131.631 399.585 130.182C401.034 128.733 402.999 127.919 405.048 127.919C407.097 127.919 409.062 128.733 410.511 130.182C411.96 131.631 412.774 133.596 412.774 135.645V136.582C412.774 138.631 411.96 140.596 410.511 142.045C409.062 143.494 407.097 144.308 405.048 144.308ZM384.141 161.325C382.092 161.325 380.127 160.511 378.678 159.062C377.229 157.613 376.415 155.648 376.415 153.599V152.662C376.415 150.613 377.229 148.648 378.678 147.199C380.127 145.75 382.092 144.936 384.141 144.936C386.19 144.936 388.155 145.75 389.604 147.199C391.053 148.648 391.867 150.613 391.867 152.662V153.599C391.867 155.648 391.053 157.613 389.604 159.062C388.155 160.511 386.19 161.325 384.141 161.325ZM366.13 256.214C361 256.214 355.57 255.676 349.845 254.598C347.86 254.189 346.115 253.017 344.986 251.334C343.857 249.65 343.434 247.591 343.809 245.599C344.184 243.607 345.327 241.842 346.99 240.685C348.654 239.527 350.706 239.07 352.704 239.411C367.797 242.254 379.858 240.585 388.55 234.452C399.828 226.496 402.03 213.223 402.051 213.09C402.71 208.893 406.635 205.992 410.84 206.626C415.041 207.26 417.946 211.142 417.338 215.347C417.223 216.145 414.322 235.026 397.689 246.915C389.029 253.106 378.455 256.214 366.13 256.214ZM309.489 162.98C296.911 162.98 287.338 157.22 282.87 152.593C281.467 151.12 280.702 149.154 280.74 147.12C280.778 145.087 281.616 143.15 283.072 141.731C284.528 140.311 286.486 139.523 288.52 139.537C290.554 139.551 292.5 140.367 293.936 141.807C295.249 143.1 306.875 153.655 325.939 142.632C327.712 141.631 329.808 141.37 331.771 141.906C333.735 142.442 335.408 143.731 336.427 145.493C337.446 147.255 337.729 149.348 337.213 151.318C336.698 153.287 335.426 154.973 333.674 156.01C324.89 161.089 316.696 162.98 309.489 162.98ZM262.655 300.141C250.077 300.141 240.504 294.381 236.036 289.754C235.328 289.027 234.77 288.168 234.393 287.226C234.017 286.284 233.83 285.277 233.843 284.262C233.856 283.247 234.069 282.245 234.469 281.313C234.869 280.381 235.449 279.536 236.176 278.828C237.643 277.398 239.619 276.609 241.668 276.635C242.683 276.648 243.685 276.861 244.617 277.261C245.549 277.661 246.394 278.241 247.102 278.968C248.414 280.261 260.04 290.814 279.105 279.793C279.983 279.285 280.953 278.955 281.959 278.822C282.965 278.689 283.987 278.755 284.967 279.017C285.947 279.279 286.866 279.732 287.672 280.349C288.477 280.966 289.153 281.736 289.661 282.614C290.169 283.492 290.499 284.462 290.632 285.468C290.765 286.474 290.699 287.496 290.437 288.476C290.175 289.456 289.722 290.375 289.105 291.181C288.488 291.986 287.718 292.662 286.84 293.17C278.056 298.25 269.862 300.141 262.655 300.141Z" fill="#EFCDB1"/>
</g>
<defs>
<clipPath id="clip0_17_40">
<rect width="512" height="512" fill="white"/>
</clipPath>
</defs>
</svg>
